G04 Layer_Color=32896*
%FSLAX26Y26*%
%MOIN*%
%TF.FileFunction,Legend,Bot*%
%TF.Part,Single*%
G01*
G75*
%TA.AperFunction,NonConductor*%
%ADD92C,0.009842*%
%ADD93C,0.023622*%
%ADD94C,0.003937*%
%ADD95C,0.008000*%
%ADD96C,0.004000*%
%ADD97C,0.005905*%
%ADD98C,0.007874*%
D92*
X2091968Y2896535D02*
G03*
X2091968Y2896535I-4921J0D01*
G01*
Y3166535D02*
G03*
X2091968Y3166535I-4921J0D01*
G01*
X1705709Y3275591D02*
G03*
X1705709Y3275591I-4921J0D01*
G01*
X1769055Y2872244D02*
G03*
X1769055Y2872244I-4921J0D01*
G01*
X2566329Y3364331D02*
G03*
X2566329Y3364331I-4921J0D01*
G01*
X2622165Y3095866D02*
G03*
X2622165Y3095866I-4921J0D01*
G01*
X2729882Y3364331D02*
G03*
X2729882Y3364331I-4921J0D01*
G01*
X1997874Y3728465D02*
G03*
X1997874Y3728465I-4921J0D01*
G01*
Y4133465D02*
G03*
X1997874Y4133465I-4921J0D01*
G01*
X2455000Y4700000D02*
G03*
X2455000Y4700000I-4921J0D01*
G01*
X1509921Y4150079D02*
G03*
X1509921Y4150079I-4921J0D01*
G01*
X1524921Y3750079D02*
G03*
X1524921Y3750079I-4921J0D01*
G01*
X3618386Y3141378D02*
G03*
X3618386Y3141378I-4921J0D01*
G01*
X3840787Y3196496D02*
G03*
X3840787Y3196496I-4921J0D01*
G01*
X3839410Y2651535D02*
G03*
X3839410Y2651535I-4921J0D01*
G01*
X4111457Y2477953D02*
G03*
X4111457Y2477953I-4921J0D01*
G01*
X3711457D02*
G03*
X3711457Y2477953I-4921J0D01*
G01*
X3694843Y1950000D02*
G03*
X3694843Y1950000I-4921J0D01*
G01*
X4094843D02*
G03*
X4094843Y1950000I-4921J0D01*
G01*
X4437559Y2596535D02*
G03*
X4437559Y2596535I-4921J0D01*
G01*
X4714843Y2675000D02*
G03*
X4714843Y2675000I-4921J0D01*
G01*
X4715010Y3650000D02*
G03*
X4715010Y3650000I-4921J0D01*
G01*
X4431063Y3536535D02*
G03*
X4431063Y3536535I-4921J0D01*
G01*
X3822333Y3541535D02*
G03*
X3822333Y3541535I-4921J0D01*
G01*
D93*
X2185472Y2944567D02*
G03*
X2185472Y2944567I-11811J0D01*
G01*
Y3214567D02*
G03*
X2185472Y3214567I-11811J0D01*
G01*
X1918150Y3680433D02*
G03*
X1918150Y3680433I-11811J0D01*
G01*
Y4085433D02*
G03*
X1918150Y4085433I-11811J0D01*
G01*
X3573898Y3230945D02*
G03*
X3573898Y3230945I-11811J0D01*
G01*
X3923711Y3572835D02*
G03*
X3923711Y3572835I-11811J0D01*
G01*
X4527520Y3587913D02*
G03*
X4527520Y3587913I-11811J0D01*
G01*
X3940787Y2682835D02*
G03*
X3940787Y2682835I-11811J0D01*
G01*
X3766378Y2391339D02*
G03*
X3766378Y2391339I-11811J0D01*
G01*
X4166378D02*
G03*
X4166378Y2391339I-11811J0D01*
G01*
X4534016Y2647913D02*
G03*
X4534016Y2647913I-11811J0D01*
G01*
D94*
X1894055Y2811220D02*
Y2838780D01*
X1775945D01*
Y2811220D01*
X1894055D01*
X1830709Y3214567D02*
Y3242126D01*
X1712598D01*
Y3214567D01*
X1830709D01*
X2427549Y3387953D02*
X2439360D01*
X2427549D02*
Y3632047D01*
X2439360D01*
X2553533Y3387953D02*
X2565344D01*
Y3632047D01*
X2553533D01*
X2591102D02*
X2602913D01*
X2717087D02*
X2728898D01*
Y3387953D01*
X2717087D01*
X2602913D02*
X2591102D01*
Y3632047D01*
X2583780Y3084055D02*
Y2965945D01*
X2556220D01*
Y3084055D01*
X2583780D01*
X3338583Y3478346D02*
G03*
X3338583Y3478346I-1968J0D01*
G01*
X3705945Y3257520D02*
X3824055D01*
Y3229961D01*
X3705945D01*
Y3257520D01*
X3619803Y2745472D02*
G03*
X3619803Y2745472I-1968J0D01*
G01*
D95*
X2030000Y1935000D02*
Y1995000D01*
X2065000D01*
X2076306Y2007874D02*
X2091302Y2031440D01*
X2087018D02*
X2106299D01*
X2087018D02*
X2080590Y2033583D01*
X2078448Y2035725D01*
X2076306Y2040010D01*
Y2044295D01*
X2078448Y2048580D01*
X2080590Y2050722D01*
X2087018Y2052864D01*
X2106299D01*
Y2007874D01*
X2110000Y1995000D02*
X2150000D01*
Y1935000D01*
X2115000D01*
X2065000D02*
X2030000D01*
X2141045Y1895787D02*
X2143188Y1906499D01*
X2147472Y1912927D01*
X2153900Y1915069D01*
X2158184D01*
X2164612Y1912927D01*
X2168896Y1906499D01*
X2171039Y1895787D01*
Y1889360D01*
X2168896Y1878648D01*
X2164612Y1872221D01*
X2158184Y1870079D01*
X2153900D01*
X2147472Y1872221D01*
X2143188Y1878648D01*
X2141045Y1889360D01*
Y1895787D01*
X2199747Y1908642D02*
X2193320Y1915069D01*
Y1870079D01*
X2218386Y1876506D02*
X2222671Y1872221D01*
X2229098Y1870079D01*
X2244095D01*
Y1915069D01*
X2229098D01*
X2222671Y1912927D01*
X2218386Y1908642D01*
X2216243Y1904357D01*
X2214101Y1897930D01*
Y1887218D01*
X2216243Y1880791D01*
X2218386Y1876506D01*
X2204032Y1906499D02*
X2199747Y1908642D01*
X2320000Y1910000D02*
X2380000D01*
Y1945000D01*
X2320000D02*
Y1910000D01*
Y1990000D02*
Y2030000D01*
X2380000D01*
Y1995000D01*
X2379055Y2053671D02*
X2374770Y2049387D01*
X2368343Y2047244D01*
X2366200D01*
X2359773Y2049387D01*
X2355488Y2053671D01*
X2353346Y2060099D01*
Y2062241D01*
X2355488Y2068668D01*
X2359773Y2072953D01*
X2366200Y2075095D01*
X2368343D01*
X2374770Y2072953D01*
X2379055Y2068668D01*
X2381197Y2062241D01*
X2379055Y2053671D01*
X2381197Y2062241D02*
Y2072953D01*
X2379055Y2083665D01*
X2374770Y2090092D01*
X2368343Y2092235D01*
X2364058D01*
X2357631Y2090092D01*
X2355488Y2085807D01*
X2343491Y2083665D02*
X2339206Y2085807D01*
X2332779Y2092235D01*
Y2047244D01*
X2391266D02*
X2406263Y2070811D01*
X2401978D02*
X2421260D01*
X2401978D02*
X2395551Y2072953D01*
X2393409Y2075095D01*
X2391266Y2079380D01*
Y2083665D01*
X2393409Y2087950D01*
X2395551Y2090092D01*
X2401978Y2092235D01*
X2421260D01*
Y2047244D01*
X2460630Y2145669D02*
Y2190660D01*
X2441348D01*
X2434921Y2188517D01*
X2432779Y2186375D01*
X2430636Y2182090D01*
Y2177805D01*
X2432779Y2173521D01*
X2434921Y2171378D01*
X2441348Y2169236D01*
X2460630D01*
X2365000Y2355000D02*
Y2405000D01*
X2275000D01*
Y2355000D01*
X2265000Y2360000D02*
Y2410000D01*
X2175000D01*
Y2360000D01*
X2160000Y2295000D02*
X2110000D01*
X2010000D02*
X1960000D01*
Y2205000D01*
X2010000D01*
X2016929Y2190669D02*
X1966929D01*
Y2100669D01*
X2016929D01*
X2013319Y2052864D02*
X2019746Y2050722D01*
X2024031Y2044295D01*
X2026174Y2033583D01*
Y2027156D01*
X2024031Y2016444D01*
X2019746Y2010016D01*
X2013319Y2007874D01*
X2009034D01*
X2002607Y2010016D01*
X1998322Y2016444D01*
X1996180Y2027156D01*
Y2033583D01*
X1998322Y2044295D01*
X2002607Y2050722D01*
X2009034Y2052864D01*
X2013319D01*
X2044812D02*
X2066236Y2022871D01*
X2034100D01*
X2044812Y2007874D02*
Y2052864D01*
X2116929Y2100669D02*
X2166929D01*
Y2190669D01*
X2116929D01*
X2110000Y2205000D02*
X2160000D01*
Y2295000D01*
X2175000Y2260000D02*
Y2210000D01*
X2265000D01*
Y2260000D01*
X2275000Y2255000D02*
Y2205000D01*
X2365000D01*
Y2255000D01*
X2359080Y2190660D02*
X2380504Y2160666D01*
X2348368D01*
X2359080Y2145669D02*
Y2190660D01*
X2397001Y2188517D02*
X2394858Y2186375D01*
X2392716Y2182090D01*
Y2177805D01*
X2394858Y2173521D01*
X2399143Y2167093D01*
X2420567Y2145669D01*
X2390573D01*
X2430636D02*
X2445633Y2169236D01*
X2418425Y2179948D02*
Y2182090D01*
X2416282Y2186375D01*
X2414140Y2188517D01*
X2409855Y2190660D01*
X2401285D01*
X2397001Y2188517D01*
X2298865Y2184233D02*
X2301007Y2179948D01*
X2303150Y2173521D01*
Y2162809D01*
X2301007Y2156381D01*
X2298865Y2152097D01*
X2294580Y2147812D01*
X2290295Y2145669D01*
X2281726D01*
X2277441Y2147812D01*
X2273156Y2152097D01*
X2271014Y2156381D01*
X2258374Y2160666D02*
X2226238D01*
X2236950Y2145669D02*
Y2190660D01*
X2258374Y2160666D01*
X2271014Y2179948D02*
X2273156Y2184233D01*
X2277441Y2188517D01*
X2281726Y2190660D01*
X2290295D01*
X2294580Y2188517D01*
X2298865Y2184233D01*
X2218311Y2190660D02*
X2188317D01*
X2209741Y2145669D01*
X1924849Y2585167D02*
X1920564Y2580883D01*
X1916280Y2578740D01*
X1907710D01*
X1903425Y2580883D01*
X1899140Y2585167D01*
X1896998Y2589452D01*
X1884358Y2587310D02*
X1882215Y2583025D01*
X1880073Y2580883D01*
X1873646Y2578740D01*
X1867219D01*
X1860791Y2580883D01*
X1856507Y2585167D01*
X1854364Y2591595D01*
Y2595879D01*
X1856507Y2602307D01*
X1858649Y2604449D01*
X1862934Y2606591D01*
X1869361D01*
X1856507Y2623731D01*
X1880073D01*
X1899140Y2617303D02*
X1903425Y2621588D01*
X1907710Y2623731D01*
X1916280D01*
X1920564Y2621588D01*
X1924849Y2617303D01*
X1926992Y2613019D01*
X1929134Y2606591D01*
Y2595879D01*
X1926992Y2589452D01*
X1924849Y2585167D01*
X1844295Y2578740D02*
X1814301D01*
X1822871Y2600164D02*
X1844295Y2578740D01*
X2088846Y2624537D02*
X2093131Y2620253D01*
X2099558Y2618110D01*
X2105985D01*
X2112412Y2620253D01*
X2114555Y2622395D01*
X2116697Y2626680D01*
X2088846Y2624537D02*
X2086703Y2630965D01*
Y2635249D01*
X2088846Y2641677D01*
X2090988Y2643819D01*
X2095273Y2645961D01*
X2101700D01*
X2088846Y2663101D01*
X2112412D01*
X2115676Y2677165D02*
X2130673Y2700732D01*
X2126388D02*
X2145669D01*
Y2722156D02*
Y2677165D01*
X2145405Y2656673D02*
X2138978Y2663101D01*
Y2618110D01*
X2126388Y2700732D02*
X2119961Y2702874D01*
X2117818Y2705017D01*
X2115676Y2709301D01*
Y2713586D01*
X2117818Y2717871D01*
X2119961Y2720013D01*
X2126388Y2722156D01*
X2145669D01*
X2144901Y2738363D02*
X2140617Y2742648D01*
X2138474Y2749075D01*
Y2751217D01*
X2140617Y2757644D01*
X2144901Y2761929D01*
X2151329Y2764072D01*
X2153471D01*
X2159898Y2761929D01*
X2164183Y2757644D01*
X2166325Y2751217D01*
X2164183Y2742648D01*
X2159898Y2738363D01*
X2153471Y2736220D01*
X2151329D01*
X2144901Y2738363D01*
X2166325Y2751217D02*
Y2761929D01*
X2164183Y2772641D01*
X2159898Y2779068D01*
X2153471Y2781211D01*
X2149186D01*
X2142759Y2779068D01*
X2140617Y2774784D01*
X2136299Y2774646D02*
Y2809646D01*
Y2774646D02*
X2076299D01*
Y2809646D01*
X2057559Y2820276D02*
Y2855276D01*
X1997559D01*
Y2815276D01*
Y2770276D02*
Y2735276D01*
X2057559D01*
Y2770276D01*
X2076299Y2854646D02*
Y2894646D01*
X2136299D01*
Y2859646D01*
X2099179Y2720013D02*
X2103464Y2713586D01*
X2105606Y2702874D01*
Y2692162D01*
X2103464Y2683593D01*
X2099179Y2679308D01*
X2092752Y2677165D01*
X2090610D01*
X2084182Y2679308D01*
X2079898Y2683593D01*
X2077755Y2690020D01*
Y2692162D01*
X2079898Y2698589D01*
X2084182Y2702874D01*
X2090610Y2705017D01*
X2092752D01*
X2099179Y2702874D01*
X2103464Y2698589D01*
X2105606Y2692162D01*
X2099179Y2720013D02*
X2092752Y2722156D01*
X2088467D01*
X2082040Y2720013D01*
X2079898Y2715729D01*
X2067900Y2722156D02*
X2037907D01*
X2059331Y2677165D01*
X2145405Y2656673D02*
X2149690Y2654531D01*
X2155046Y2663101D02*
X2185039D01*
X2170043D02*
Y2618110D01*
X2182608Y2738363D02*
X2178323Y2742648D01*
X2176180Y2749075D01*
Y2751217D01*
X2178323Y2757644D01*
X2182608Y2761929D01*
X2189035Y2764072D01*
X2191177D01*
X2197604Y2761929D01*
X2201889Y2757644D01*
X2204032Y2751217D01*
X2201889Y2742648D01*
X2197604Y2738363D01*
X2191177Y2736220D01*
X2189035D01*
X2182608Y2738363D01*
X2214101Y2736220D02*
X2229098Y2759787D01*
X2224813D02*
X2244095D01*
X2224813D02*
X2218386Y2761929D01*
X2216243Y2764072D01*
X2214101Y2768356D01*
Y2772641D01*
X2216243Y2776926D01*
X2218386Y2779068D01*
X2224813Y2781211D01*
X2244095D01*
Y2736220D01*
X2204032Y2751217D02*
Y2761929D01*
X2201889Y2772641D01*
X2197604Y2779068D01*
X2191177Y2781211D01*
X2186892D01*
X2180465Y2779068D01*
X2178323Y2774784D01*
X2188226Y2847142D02*
X2183942Y2851427D01*
X2181799Y2857854D01*
Y2859997D01*
X2183942Y2866424D01*
X2188226Y2870709D01*
X2194654Y2872851D01*
X2196796D01*
X2203223Y2870709D01*
X2207508Y2866424D01*
X2209650Y2859997D01*
X2207508Y2851427D01*
X2203223Y2847142D01*
X2196796Y2845000D01*
X2194654D01*
X2188226Y2847142D01*
X2209650Y2859997D02*
Y2870709D01*
X2207508Y2881421D01*
X2203223Y2887848D01*
X2196796Y2889990D01*
X2192511D01*
X2186084Y2887848D01*
X2183942Y2883563D01*
X2215006Y2889990D02*
X2245000D01*
X2230003D02*
Y2845000D01*
X2374481Y2720013D02*
X2380908Y2722156D01*
X2389477D01*
X2395905Y2720013D01*
X2398047Y2715729D01*
Y2711444D01*
X2395905Y2707159D01*
X2391620Y2705017D01*
X2383050Y2702874D01*
X2376623Y2700732D01*
X2372338Y2696447D01*
X2370196Y2692162D01*
Y2685735D01*
X2372338Y2681450D01*
X2374481Y2679308D01*
X2380908Y2677165D01*
X2389477D01*
X2395905Y2679308D01*
X2398047Y2681450D01*
X2400189Y2685735D01*
Y2692162D01*
X2398047Y2696447D01*
X2393762Y2700732D01*
X2387335Y2702874D01*
X2378765Y2705017D01*
X2374481Y2707159D01*
X2372338Y2711444D01*
Y2715729D01*
X2374481Y2720013D01*
X2400000Y2728465D02*
X2460000D01*
Y2768465D01*
Y2813465D02*
Y2848465D01*
X2400000D01*
Y2813465D01*
Y2763465D02*
Y2728465D01*
X2416686Y2720013D02*
X2414543Y2717871D01*
X2412401Y2713586D01*
Y2709301D01*
X2414543Y2705017D01*
X2418828Y2698589D01*
X2440252Y2677165D01*
X2410259D01*
X2416686Y2720013D02*
X2420971Y2722156D01*
X2429540D01*
X2433825Y2720013D01*
X2435967Y2717871D01*
X2438110Y2713586D01*
Y2711444D01*
X2450321Y2713586D02*
Y2709301D01*
X2452464Y2705017D01*
X2454606Y2702874D01*
X2461033Y2700732D01*
X2480315D01*
X2465318D02*
X2450321Y2677165D01*
X2480315D02*
Y2722156D01*
X2461033D01*
X2454606Y2720013D01*
X2452464Y2717871D01*
X2450321Y2713586D01*
X2527248Y2660958D02*
X2533675Y2663101D01*
X2542244D01*
X2548672Y2660958D01*
X2550814Y2656673D01*
Y2652389D01*
X2548672Y2648104D01*
X2544387Y2645961D01*
X2535817Y2643819D01*
X2529390Y2641677D01*
X2525105Y2637392D01*
X2522963Y2633107D01*
Y2626680D01*
X2525105Y2622395D01*
X2527248Y2620253D01*
X2533675Y2618110D01*
X2542244D01*
X2548672Y2620253D01*
X2550814Y2622395D01*
X2552956Y2626680D01*
Y2633107D01*
X2550814Y2637392D01*
X2546529Y2641677D01*
X2540102Y2643819D01*
X2531532Y2645961D01*
X2527248Y2648104D01*
X2525105Y2652389D01*
Y2656673D01*
X2527248Y2660958D01*
X2571595Y2663101D02*
X2593019Y2633107D01*
X2560883D01*
X2571595Y2618110D02*
Y2663101D01*
X2640000Y2570000D02*
Y2605000D01*
X2633510Y2624537D02*
X2629226Y2620253D01*
X2624941Y2618110D01*
X2616371D01*
X2612086Y2620253D01*
X2607802Y2624537D01*
X2605659Y2628822D01*
Y2652389D02*
X2607802Y2656673D01*
X2612086Y2660958D01*
X2616371Y2663101D01*
X2624941D01*
X2629226Y2660958D01*
X2633510Y2656673D01*
X2635653Y2652389D01*
X2637795Y2645961D01*
Y2635249D01*
X2635653Y2628822D01*
X2633510Y2624537D01*
X2640000Y2650000D02*
Y2690000D01*
X2700000D01*
Y2655000D01*
X2706535D02*
Y2690000D01*
X2766535D01*
Y2655000D01*
X2806535Y2650000D02*
Y2690000D01*
X2866535D01*
Y2655000D01*
X2876595Y2657142D02*
X2872310Y2663570D01*
X2870168Y2674282D01*
Y2680709D01*
X2872310Y2691421D01*
X2876595Y2697848D01*
X2883022Y2699990D01*
X2887307D01*
X2893734Y2697848D01*
X2898019Y2691421D01*
X2900161Y2680709D01*
Y2674282D01*
X2898019Y2663570D01*
X2893734Y2657142D01*
X2887307Y2655000D01*
X2883022D01*
X2876595Y2657142D01*
X2866535Y2605000D02*
Y2570000D01*
X2806535D01*
Y2605000D01*
X2766535Y2610000D02*
Y2570000D01*
X2706535D01*
Y2605000D01*
X2700000D02*
Y2570000D01*
X2640000D01*
X2711269Y2562533D02*
X2717696Y2564675D01*
X2721981D01*
X2728408Y2562533D01*
X2732693Y2556106D01*
X2734835Y2545394D01*
Y2534682D01*
X2732693Y2526112D01*
X2728408Y2521827D01*
X2721981Y2519685D01*
X2719838D01*
X2713411Y2521827D01*
X2709126Y2526112D01*
X2706984Y2532539D01*
Y2534682D01*
X2709126Y2541109D01*
X2713411Y2545394D01*
X2719838Y2547536D01*
X2721981D01*
X2728408Y2545394D01*
X2732693Y2541109D01*
X2734835Y2534682D01*
X2753474Y2541109D02*
X2774898Y2519685D01*
X2744904D01*
X2753474Y2541109D02*
X2749189Y2547536D01*
X2747047Y2551821D01*
Y2556106D01*
X2749189Y2560391D01*
X2751331Y2562533D01*
X2755616Y2564675D01*
X2764186D01*
X2768471Y2562533D01*
X2770613Y2560391D01*
X2772755Y2556106D01*
Y2553963D01*
X2784967Y2556106D02*
Y2551821D01*
X2787109Y2547536D01*
X2789252Y2545394D01*
X2795679Y2543251D01*
X2814961D01*
X2799964D02*
X2784967Y2519685D01*
X2814961D02*
Y2564675D01*
X2795679D01*
X2789252Y2562533D01*
X2787109Y2560391D01*
X2784967Y2556106D01*
X2859166Y2409990D02*
X2880590D01*
X2882732Y2390709D01*
X2880590Y2392851D01*
X2874162Y2394994D01*
X2867735D01*
X2861308Y2392851D01*
X2857023Y2388566D01*
X2854881Y2382139D01*
Y2377854D01*
X2857023Y2371427D01*
X2861308Y2367142D01*
X2867735Y2365000D01*
X2874162D01*
X2880590Y2367142D01*
X2882732Y2369285D01*
X2884874Y2373570D01*
X2894944Y2365000D02*
X2924937D01*
X2903513Y2386424D01*
X2899228Y2392851D01*
X2897086Y2397136D01*
Y2401421D01*
X2899228Y2405706D01*
X2901371Y2407848D01*
X2905656Y2409990D01*
X2914225D01*
X2918510Y2407848D01*
X2920652Y2405706D01*
X2922795Y2401421D01*
Y2399278D01*
X2935006Y2401421D02*
Y2397136D01*
X2937149Y2392851D01*
X2939291Y2390709D01*
X2945718Y2388566D01*
X2965000D01*
X2950003D02*
X2935006Y2365000D01*
X2940000Y2360000D02*
X2980000D01*
Y2300000D01*
X2945000D01*
X3026535D02*
X3066535D01*
X3111535D02*
X3146535D01*
Y2360000D01*
X3111535D01*
X3105006Y2370000D02*
X3120003Y2393566D01*
X3115718D02*
X3135000D01*
X3115718D02*
X3109291Y2395709D01*
X3107149Y2397851D01*
X3105006Y2402136D01*
Y2406421D01*
X3107149Y2410706D01*
X3109291Y2412848D01*
X3115718Y2414990D01*
X3135000D01*
Y2370000D01*
X3094937D02*
X3064944D01*
X3061535Y2360000D02*
X3026535D01*
Y2300000D01*
X3046305Y2370000D02*
X3024881Y2414990D01*
X3054874D01*
X2965000Y2409990D02*
Y2365000D01*
Y2409990D02*
X2945718D01*
X2939291Y2407848D01*
X2937149Y2405706D01*
X2935006Y2401421D01*
X3067086Y2402136D02*
X3069228Y2397851D01*
X3073513Y2391424D01*
X3094937Y2370000D01*
X3092795Y2404278D02*
Y2406421D01*
X3090652Y2410706D01*
X3088510Y2412848D01*
X3084225Y2414990D01*
X3075656D01*
X3071371Y2412848D01*
X3069228Y2410706D01*
X3067086Y2406421D01*
Y2402136D01*
X3185000Y2390000D02*
X3245000D01*
Y2430000D01*
X3247742Y2367825D02*
X3243457Y2365683D01*
X3241315Y2363540D01*
X3239173Y2359255D01*
Y2354971D01*
X3241315Y2350686D01*
X3245600Y2344259D01*
X3267024Y2322835D01*
X3237030D01*
X3220534Y2324977D02*
X3214107Y2322835D01*
X3209822D01*
X3203395Y2324977D01*
X3199110Y2331404D01*
X3196967Y2342116D01*
Y2348543D01*
X3199110Y2359255D01*
X3203395Y2365683D01*
X3209822Y2367825D01*
X3214107D01*
X3220534Y2365683D01*
X3224819Y2359255D01*
X3226961Y2348543D01*
Y2342116D01*
X3224819Y2331404D01*
X3220534Y2324977D01*
X3277093Y2322835D02*
X3292090Y2346401D01*
X3287805D02*
X3307087D01*
X3287805D02*
X3281378Y2348543D01*
X3279235Y2350686D01*
X3277093Y2354971D01*
Y2359255D01*
X3279235Y2363540D01*
X3281378Y2365683D01*
X3287805Y2367825D01*
X3307087D01*
Y2322835D01*
X3264881Y2357113D02*
Y2359255D01*
X3262739Y2363540D01*
X3260597Y2365683D01*
X3256312Y2367825D01*
X3247742D01*
X3245000Y2475000D02*
Y2510000D01*
X3185000D01*
Y2475000D01*
X3175224Y2570000D02*
X3145230D01*
X3130876Y2572142D02*
X3133019Y2576427D01*
X3130876Y2572142D02*
X3124449Y2570000D01*
X3120164D01*
X3113737Y2572142D01*
X3109452Y2578570D01*
X3107310Y2589282D01*
Y2599994D01*
X3109452Y2593566D01*
X3113737Y2589282D01*
X3120164Y2587139D01*
X3122307D01*
X3128734Y2589282D01*
X3133019Y2593566D01*
X3135161Y2599994D01*
Y2602136D01*
X3133019Y2608563D01*
X3128734Y2612848D01*
X3122307Y2614990D01*
X3120164D01*
X3113737Y2612848D01*
X3109452Y2608563D01*
X3107310Y2599994D01*
X3149515Y2597851D02*
X3153800Y2591424D01*
X3175224Y2570000D01*
X3194291Y2572142D02*
X3190006Y2576427D01*
X3187864Y2580712D01*
X3194291Y2572142D02*
X3198576Y2570000D01*
X3207146D01*
X3211430Y2572142D01*
X3215715Y2576427D01*
X3217858Y2580712D01*
X3220000Y2587139D01*
Y2597851D01*
X3217858Y2604278D01*
X3215715Y2608563D01*
X3211430Y2612848D01*
X3207146Y2614990D01*
X3198576D01*
X3194291Y2612848D01*
X3190006Y2608563D01*
X3187864Y2604278D01*
X3173081D02*
Y2606421D01*
X3170939Y2610706D01*
X3168797Y2612848D01*
X3164512Y2614990D01*
X3155942D01*
X3151657Y2612848D01*
X3149515Y2610706D01*
X3147373Y2606421D01*
Y2602136D01*
X3149515Y2597851D01*
X3185000Y2425000D02*
Y2390000D01*
X3226535Y2550000D02*
Y2610000D01*
X3261535D01*
X3266535Y2650000D02*
X3226535D01*
Y2710000D01*
X3261535D01*
X3311535D02*
X3346535D01*
Y2650000D01*
X3311535D01*
Y2610000D02*
X3346535D01*
Y2550000D01*
X3311535D01*
X3266535D02*
X3226535D01*
X3371591Y2655000D02*
X3350168Y2699990D01*
X3380161D01*
X3396657Y2697848D02*
X3394515Y2695706D01*
X3392373Y2691421D01*
Y2687136D01*
X3394515Y2682851D01*
X3398800Y2676424D01*
X3420224Y2655000D01*
X3390230D01*
X3396657Y2697848D02*
X3400942Y2699990D01*
X3409512D01*
X3413797Y2697848D01*
X3415939Y2695706D01*
X3418081Y2691421D01*
Y2689278D01*
X3432864D02*
X3435006Y2693563D01*
X3439291Y2697848D01*
X3443576Y2699990D01*
X3452146D01*
X3456430Y2697848D01*
X3460715Y2693563D01*
X3462858Y2689278D01*
X3465000Y2682851D01*
Y2672139D01*
X3462858Y2665712D01*
X3460715Y2661427D01*
X3456430Y2657142D01*
X3452146Y2655000D01*
X3443576D01*
X3439291Y2657142D01*
X3435006Y2661427D01*
X3432864Y2665712D01*
X3600000Y2595000D02*
X3635000D01*
X3600000D02*
Y2535000D01*
X3640000D01*
X3685000D02*
X3720000D01*
Y2595000D01*
X3685000D01*
X3730000D02*
X3765000D01*
X3756718Y2598425D02*
Y2643416D01*
X3778142Y2613422D01*
X3746006D01*
X3715000Y2605000D02*
Y2649990D01*
X3695718D01*
X3689291Y2647848D01*
X3687149Y2645706D01*
X3685006Y2641421D01*
Y2637136D01*
X3687149Y2632851D01*
X3689291Y2630709D01*
X3695718Y2628566D01*
X3715000D01*
X3700003D02*
X3685006Y2605000D01*
X3674937Y2619997D02*
X3642801D01*
X3634874Y2613570D02*
X3632732Y2609285D01*
X3630590Y2607142D01*
X3624162Y2605000D01*
X3617735D01*
X3611308Y2607142D01*
X3607023Y2611427D01*
X3604881Y2617854D01*
Y2622139D01*
X3607023Y2628566D01*
X3609166Y2630709D01*
X3613450Y2632851D01*
X3619878D01*
X3607023Y2649990D01*
X3630590D01*
X3653513D02*
X3674937Y2619997D01*
X3710000Y2680000D02*
Y2715000D01*
X3715000D02*
Y2680000D01*
X3775000D01*
Y2715000D01*
X3796781Y2643416D02*
X3818205Y2613422D01*
X3786069D01*
X3796781Y2643416D02*
Y2598425D01*
X3815000Y2595000D02*
X3850000D01*
Y2535000D01*
X3815000D01*
X3770000D02*
X3730000D01*
Y2595000D01*
X3878942Y2377848D02*
X3885369Y2379990D01*
X3893938D01*
X3900366Y2377848D01*
X3902508Y2373563D01*
Y2369278D01*
X3900366Y2364994D01*
X3896081Y2362851D01*
X3887511Y2360709D01*
X3881084Y2358566D01*
X3876799Y2354282D01*
X3874657Y2349997D01*
Y2343570D01*
X3876799Y2339285D01*
X3878942Y2337142D01*
X3885369Y2335000D01*
X3893938D01*
X3900366Y2337142D01*
X3902508Y2339285D01*
X3904650Y2343570D01*
Y2349997D01*
X3902508Y2354282D01*
X3898223Y2358566D01*
X3891796Y2360709D01*
X3883226Y2362851D01*
X3878942Y2364994D01*
X3876799Y2369278D01*
Y2373563D01*
X3878942Y2377848D01*
X3910006Y2379990D02*
X3940000D01*
X3925003D02*
Y2335000D01*
X4056081Y2350000D02*
X4034657Y2394990D01*
X4064650D01*
X4070006D02*
X4100000D01*
X4085003D02*
Y2350000D01*
X4170000Y2530000D02*
X4130000D01*
Y2590000D01*
X4165000D01*
X4169874D02*
X4139881D01*
X4169874D02*
X4148450Y2611424D01*
X4144166Y2617851D01*
X4142023Y2622136D01*
Y2626421D01*
X4144166Y2630706D01*
X4146308Y2632848D01*
X4150593Y2634990D01*
X4159162D01*
X4163447Y2632848D01*
X4165590Y2630706D01*
X4167732Y2626421D01*
Y2624278D01*
X4177801Y2604997D02*
X4209937D01*
X4188513Y2634990D01*
Y2590000D01*
X4215000D02*
X4250000D01*
Y2530000D01*
X4215000D01*
X4220006Y2590000D02*
X4235003Y2613566D01*
X4230718D02*
X4250000D01*
X4230718D02*
X4224291Y2615709D01*
X4222149Y2617851D01*
X4220006Y2622136D01*
Y2626421D01*
X4222149Y2630706D01*
X4224291Y2632848D01*
X4230718Y2634990D01*
X4250000D01*
Y2590000D01*
X4397326Y2446565D02*
X4418750D01*
X4420893Y2427284D01*
X4418750Y2429426D01*
X4412323Y2431568D01*
X4405896D01*
X4399469Y2429426D01*
X4395184Y2425141D01*
X4393042Y2418714D01*
Y2414429D01*
X4395184Y2408002D01*
X4399469Y2403717D01*
X4405896Y2401575D01*
X4412323D01*
X4418750Y2403717D01*
X4420893Y2405860D01*
X4423035Y2410144D01*
X4430962Y2416572D02*
X4463098D01*
X4441674Y2446565D01*
Y2401575D01*
X4438189Y2387520D02*
X4388189D01*
Y2297520D01*
X4438189D01*
X4538189D02*
X4588189D01*
Y2387520D01*
X4538189D01*
X4503589Y2408002D02*
X4499304Y2403717D01*
X4495020Y2401575D01*
X4486450D01*
X4482165Y2403717D01*
X4477880Y2408002D01*
X4475738Y2412287D01*
Y2435853D02*
X4477880Y2440138D01*
X4482165Y2444423D01*
X4486450Y2446565D01*
X4495020D01*
X4499304Y2444423D01*
X4503589Y2440138D01*
X4505732Y2435853D01*
X4507874Y2429426D01*
Y2418714D01*
X4505732Y2412287D01*
X4503589Y2408002D01*
X4538189Y2289095D02*
X4588189D01*
Y2199095D01*
X4538189D01*
X4541220Y2188517D02*
X4539078Y2186375D01*
X4536935Y2182090D01*
Y2177805D01*
X4539078Y2173521D01*
X4541220Y2171378D01*
X4547648Y2169236D01*
X4566929D01*
X4551932D02*
X4536935Y2145669D01*
X4526866D02*
X4496873D01*
X4486803D02*
X4456810D01*
X4465380Y2167093D02*
X4486803Y2145669D01*
X4484661Y2179948D02*
Y2182090D01*
X4482519Y2186375D01*
X4480376Y2188517D01*
X4476092Y2190660D01*
X4467522D01*
X4463237Y2188517D01*
X4461095Y2186375D01*
X4458952Y2182090D01*
Y2177805D01*
X4461095Y2173521D01*
X4465380Y2167093D01*
X4505442D02*
X4526866Y2145669D01*
X4524724Y2179948D02*
Y2182090D01*
X4522582Y2186375D01*
X4520439Y2188517D01*
X4516154Y2190660D01*
X4507585D01*
X4503300Y2188517D01*
X4501158Y2186375D01*
X4499015Y2182090D01*
Y2177805D01*
X4501158Y2173521D01*
X4505442Y2167093D01*
X4541220Y2188517D02*
X4547648Y2190660D01*
X4566929D01*
Y2145669D01*
X4438189Y2199095D02*
X4388189D01*
Y2289095D01*
X4438189D01*
X4425000Y1929990D02*
Y1885000D01*
X4410003D01*
X4403576Y1887142D01*
X4399291Y1891427D01*
X4397149Y1895712D01*
X4395006Y1902139D01*
Y1912851D01*
X4397149Y1919278D01*
X4399291Y1923563D01*
X4403576Y1927848D01*
X4410003Y1929990D01*
X4425000D01*
X4384937Y1921421D02*
X4380652Y1923563D01*
X4374225Y1929990D01*
Y1885000D01*
X4351944D02*
X4321951D01*
X4330520Y1906424D02*
X4351944Y1885000D01*
X4349802Y1919278D02*
Y1921421D01*
X4347659Y1925706D01*
X4345517Y1927848D01*
X4341232Y1929990D01*
X4332663D01*
X4328378Y1927848D01*
X4326235Y1925706D01*
X4324093Y1921421D01*
Y1917136D01*
X4326235Y1912851D01*
X4330520Y1906424D01*
X4899143Y2521424D02*
X4920567Y2500000D01*
X4890574D01*
X4894858Y2527851D02*
X4899143Y2521424D01*
X4897001Y2542848D02*
X4894858Y2540706D01*
X4892716Y2536421D01*
Y2532136D01*
X4894858Y2527851D01*
X4897001Y2542848D02*
X4901285Y2544990D01*
X4909855D01*
X4914140Y2542848D01*
X4916282Y2540706D01*
X4918425Y2536421D01*
Y2534278D01*
X4932779D02*
X4930636Y2527851D01*
Y2517139D01*
X4932779Y2510712D01*
X4934921Y2506427D01*
X4939206Y2502142D01*
X4945633Y2500000D01*
X4960630D01*
Y2544990D01*
X4945633D01*
X4939206Y2542848D01*
X4934921Y2538563D01*
X4932779Y2534278D01*
X4925000Y2705000D02*
Y2745000D01*
Y2705000D02*
X4865000D01*
Y2740000D01*
X4845000D02*
Y2705000D01*
X4785000D01*
Y2740000D01*
X4765000D02*
Y2705000D01*
X4705000D01*
Y2740000D01*
X4656785Y2503478D02*
X4661069Y2499193D01*
X4663212Y2494908D01*
X4665354Y2488481D01*
Y2477769D01*
X4663212Y2471342D01*
X4661069Y2467057D01*
X4656785Y2462772D01*
X4652500Y2460630D01*
X4643930D01*
X4639645Y2462772D01*
X4635361Y2467057D01*
X4633218Y2471342D01*
X4620578Y2469200D02*
X4618436Y2464915D01*
X4616293Y2462772D01*
X4609866Y2460630D01*
X4603439D01*
X4597012Y2462772D01*
X4592727Y2467057D01*
X4590585Y2473484D01*
Y2477769D01*
X4592727Y2484196D01*
X4594869Y2486339D01*
X4599154Y2488481D01*
X4605581D01*
X4592727Y2505620D01*
X4616293D01*
X4635361Y2499193D02*
X4639645Y2503478D01*
X4643930Y2505620D01*
X4652500D01*
X4656785Y2503478D01*
X4635361Y2499193D02*
X4633218Y2494908D01*
X4580515Y2492766D02*
X4578373Y2499193D01*
X4574088Y2503478D01*
X4567661Y2505620D01*
X4565519D01*
X4559091Y2503478D01*
X4554807Y2499193D01*
X4552664Y2490624D01*
X4554807Y2484196D01*
X4559091Y2479912D01*
X4565519Y2477769D01*
X4567661D01*
X4574088Y2479912D01*
X4578373Y2484196D01*
X4580515Y2490624D01*
Y2492766D01*
X4578373Y2467057D02*
X4576231Y2462772D01*
X4569803Y2460630D01*
X4565519D01*
X4559091Y2462772D01*
X4554807Y2469200D01*
X4552664Y2479912D01*
Y2490624D01*
X4545000Y2500000D02*
Y2590000D01*
X4495000D01*
Y2500000D02*
X4545000D01*
X4365000Y2690000D02*
Y2730000D01*
Y2690000D02*
X4305000D01*
Y2725000D01*
X4345000Y2590000D02*
X4395000D01*
X4345000D02*
Y2500000D01*
X4395000D01*
X4593445Y2814961D02*
X4589160D01*
X4582733Y2817103D01*
X4578448Y2821388D01*
X4576306Y2827815D01*
Y2859951D01*
X4559595Y2855666D02*
X4557453Y2857809D01*
X4553168Y2859951D01*
X4544598D01*
X4540313Y2857809D01*
X4538171Y2855666D01*
X4536029Y2851381D01*
Y2847097D01*
X4538171Y2842812D01*
X4542456Y2836385D01*
X4563880Y2814961D01*
X4533886D01*
X4545000Y2845000D02*
Y2885000D01*
Y2845000D02*
X4485000D01*
Y2880000D01*
X4470000D02*
Y2830000D01*
X4380000D01*
Y2880000D01*
X4375000Y2859990D02*
Y2815000D01*
X4365000Y2810000D02*
Y2775000D01*
Y2810000D02*
X4305000D01*
Y2775000D01*
X4313513Y2817142D02*
X4309228Y2821427D01*
X4307086Y2827854D01*
Y2829997D01*
X4309228Y2836424D01*
X4313513Y2840709D01*
X4319940Y2842851D01*
X4322083D01*
X4328510Y2840709D01*
X4332795Y2836424D01*
X4334937Y2829997D01*
X4332795Y2821427D01*
X4328510Y2817142D01*
X4322083Y2815000D01*
X4319940D01*
X4313513Y2817142D01*
X4292946D02*
X4295089Y2819285D01*
X4297231Y2823570D01*
X4292946Y2817142D02*
X4286519Y2815000D01*
X4280092D01*
X4273665Y2817142D01*
X4269380Y2821427D01*
X4267237Y2827854D01*
Y2832139D01*
X4269380Y2838566D01*
X4271522Y2840709D01*
X4275807Y2842851D01*
X4282234D01*
X4269380Y2859990D01*
X4292946D01*
X4295000Y2860000D02*
Y2950000D01*
X4245000D01*
X4260291Y2967142D02*
X4256006Y2971427D01*
X4253864Y2975712D01*
X4260291Y2967142D02*
X4264576Y2965000D01*
X4273146D01*
X4277430Y2967142D01*
X4281715Y2971427D01*
X4283858Y2975712D01*
X4286000Y2982139D01*
Y2992851D01*
X4283858Y2999278D01*
X4281715Y3003563D01*
X4277430Y3007848D01*
X4273146Y3009990D01*
X4264576D01*
X4260291Y3007848D01*
X4256006Y3003563D01*
X4253864Y2999278D01*
X4241224Y2979997D02*
X4209088D01*
X4201161Y2984282D02*
X4199019Y2973570D01*
X4194734Y2967142D01*
X4188307Y2965000D01*
X4184022D01*
X4177595Y2967142D01*
X4173310Y2973570D01*
X4171167Y2984282D01*
Y2990709D01*
X4173310Y3001421D01*
X4177595Y3007848D01*
X4184022Y3009990D01*
X4188307D01*
X4194734Y3007848D01*
X4199019Y3001421D01*
X4201161Y2990709D01*
Y2984282D01*
X4219800Y2965000D02*
Y3009990D01*
X4241224Y2979997D01*
X4145000Y2950000D02*
X4095000D01*
Y2860000D01*
X4145000D01*
X4245000D02*
X4295000D01*
X4311371Y2857848D02*
X4317798Y2859990D01*
X4322083D01*
X4328510Y2857848D01*
X4332795Y2851421D01*
X4334937Y2840709D01*
Y2829997D01*
X4347149Y2842851D02*
X4349291Y2840709D01*
X4355718Y2838566D01*
X4375000D01*
X4360003D02*
X4345006Y2815000D01*
X4347149Y2842851D02*
X4345006Y2847136D01*
Y2851421D01*
X4347149Y2855706D01*
X4349291Y2857848D01*
X4355718Y2859990D01*
X4375000D01*
X4311371Y2857848D02*
X4309228Y2853563D01*
X4559595Y2855666D02*
X4561737Y2851381D01*
Y2849239D01*
X4606299Y2859951D02*
Y2827815D01*
X4604157Y2821388D01*
X4599872Y2817103D01*
X4593445Y2814961D01*
X4705000Y2825000D02*
X4765000D01*
Y2790000D01*
X4785000Y2785000D02*
Y2825000D01*
X4845000D01*
Y2790000D01*
X4865000D02*
Y2825000D01*
X4925000D01*
Y2790000D01*
X4910951Y2834646D02*
X4925948Y2858212D01*
X4921663D02*
X4940945D01*
X4921663D02*
X4915236Y2860354D01*
X4913094Y2862497D01*
X4910951Y2866782D01*
Y2871066D01*
X4913094Y2875351D01*
X4915236Y2877494D01*
X4921663Y2879636D01*
X4940945D01*
Y2834646D01*
X4898740Y2841073D02*
X4894455Y2836788D01*
X4888028Y2834646D01*
X4885885D01*
X4879458Y2836788D01*
X4875173Y2841073D01*
X4873031Y2847500D01*
Y2849642D01*
X4875173Y2856070D01*
X4879458Y2860354D01*
X4885885Y2862497D01*
X4888028D01*
X4894455Y2860354D01*
X4898740Y2856070D01*
X4900882Y2849642D01*
X4898740Y2841073D01*
X4900882Y2849642D02*
Y2860354D01*
X4898740Y2871066D01*
X4894455Y2877494D01*
X4888028Y2879636D01*
X4883743D01*
X4877316Y2877494D01*
X4875173Y2873209D01*
X4842520Y2874016D02*
Y2919006D01*
X4823238D01*
X4816811Y2916864D01*
X4814668Y2914721D01*
X4812526Y2910436D01*
Y2906152D01*
X4814668Y2901867D01*
X4816811Y2899724D01*
X4823238Y2897582D01*
X4842520D01*
X4827523D02*
X4812526Y2874016D01*
X4802457Y2889012D02*
X4770321D01*
X4763779Y2879636D02*
Y2834646D01*
Y2858212D02*
X4744498D01*
X4738071Y2860354D01*
X4735928Y2862497D01*
X4733786Y2866782D01*
Y2871066D01*
X4735928Y2875351D01*
X4738071Y2877494D01*
X4744498Y2879636D01*
X4763779D01*
X4781033Y2874016D02*
Y2919006D01*
X4802457Y2889012D01*
X4748783Y2858212D02*
X4733786Y2834646D01*
X4715147D02*
X4693723Y2879636D01*
X4723717D01*
X4705000Y2825000D02*
Y2785000D01*
X4602014Y2978868D02*
X4597730Y2974583D01*
X4593445Y2972441D01*
X4584875D01*
X4580590Y2974583D01*
X4576306Y2978868D01*
X4574163Y2983153D01*
X4561523Y2972441D02*
X4531529D01*
X4515033Y2974583D02*
X4508606Y2972441D01*
X4504321D01*
X4497894Y2974583D01*
X4493609Y2981010D01*
X4491467Y2991722D01*
Y2998150D01*
X4493609Y3008862D01*
X4497894Y3015289D01*
X4504321Y3017431D01*
X4508606D01*
X4515033Y3015289D01*
X4519318Y3008862D01*
X4521460Y2998150D01*
Y2991722D01*
X4519318Y2981010D01*
X4515033Y2974583D01*
X4545000Y2965000D02*
X4485000D01*
Y2930000D01*
X4545000D02*
Y2965000D01*
X4561523Y2972441D02*
X4540099Y2993865D01*
X4535814Y3000292D01*
X4533672Y3004577D01*
Y3008862D01*
X4535814Y3013146D01*
X4537957Y3015289D01*
X4542242Y3017431D01*
X4550811D01*
X4555096Y3015289D01*
X4557238Y3013146D01*
X4559381Y3008862D01*
Y3006719D01*
X4574163D02*
X4576306Y3011004D01*
X4580590Y3015289D01*
X4584875Y3017431D01*
X4593445D01*
X4597730Y3015289D01*
X4602014Y3011004D01*
X4604157Y3006719D01*
X4606299Y3000292D01*
Y2989580D01*
X4604157Y2983153D01*
X4602014Y2978868D01*
X4466361Y3061893D02*
X4464219Y3057608D01*
X4459934Y3053323D01*
X4455650Y3051181D01*
X4447080D01*
X4442795Y3053323D01*
X4438510Y3057608D01*
X4436368Y3061893D01*
Y3085459D02*
X4438510Y3089744D01*
X4442795Y3094029D01*
X4447080Y3096171D01*
X4455650D01*
X4459934Y3094029D01*
X4464219Y3089744D01*
X4466361Y3085459D01*
X4468504Y3079032D01*
Y3068320D01*
X4466361Y3061893D01*
X4470000Y3030000D02*
Y2980000D01*
Y3030000D02*
X4380000D01*
Y2980000D01*
X4372953Y3051181D02*
Y3096171D01*
X4379380Y3089744D01*
X4383665Y3087602D01*
X4395877D02*
Y3083317D01*
X4398019Y3079032D01*
X4402304Y3072605D01*
X4423728Y3051181D01*
X4393734D01*
X4395877Y3087602D02*
X4398019Y3091887D01*
X4400161Y3094029D01*
X4404446Y3096171D01*
X4413016D01*
X4417301Y3094029D01*
X4419443Y3091887D01*
X4421585Y3087602D01*
Y3085459D01*
X4602418Y3486394D02*
X4598133Y3490679D01*
X4595991Y3497106D01*
Y3529242D01*
X4625984D02*
Y3497106D01*
X4623842Y3490679D01*
X4619557Y3486394D01*
X4613130Y3484252D01*
X4608845D01*
X4602418Y3486394D01*
X4579280Y3529242D02*
X4555714D01*
X4568568Y3512103D01*
X4562141D01*
X4557856Y3509961D01*
X4555714Y3507818D01*
X4553571Y3501391D01*
Y3497106D01*
X4555714Y3490679D01*
X4559998Y3486394D01*
X4566426Y3484252D01*
X4572853D01*
X4579280Y3486394D01*
X4581422Y3488537D01*
X4583565Y3492822D01*
X4545000Y3515000D02*
X4495000D01*
X4545000D02*
Y3425000D01*
X4495000D01*
X4495020Y3411132D02*
X4499304Y3408990D01*
X4503589Y3404705D01*
X4505732Y3400420D01*
X4507874Y3393993D01*
Y3383281D01*
X4505732Y3376854D01*
X4503589Y3372569D01*
X4499304Y3368284D01*
X4495020Y3366142D01*
X4486450D01*
X4482165Y3368284D01*
X4477880Y3372569D01*
X4475738Y3376854D01*
X4463098Y3374711D02*
X4460956Y3370427D01*
X4458813Y3368284D01*
X4452386Y3366142D01*
X4445959D01*
X4439532Y3368284D01*
X4435247Y3372569D01*
X4433104Y3378996D01*
Y3383281D01*
X4435247Y3389708D01*
X4437389Y3391851D01*
X4441674Y3393993D01*
X4448101D01*
X4435247Y3411132D01*
X4458813D01*
X4477880Y3404705D02*
X4482165Y3408990D01*
X4486450Y3411132D01*
X4495020D01*
X4477880Y3404705D02*
X4475738Y3400420D01*
X4370079Y3543307D02*
Y3588298D01*
X4350797D01*
X4344370Y3586155D01*
X4342227Y3584013D01*
X4340085Y3579728D01*
Y3575443D01*
X4342227Y3571158D01*
X4344370Y3569016D01*
X4350797Y3566874D01*
X4370079D01*
X4355082D02*
X4340085Y3543307D01*
X4319304D02*
Y3588298D01*
X4325731Y3581870D01*
X4330016Y3579728D01*
X4297023D02*
X4292738Y3581870D01*
X4286311Y3588298D01*
Y3543307D01*
X4295167Y3600000D02*
X4355167D01*
Y3640000D01*
X4295167Y3635000D02*
Y3600000D01*
X4345000Y3515000D02*
X4395000D01*
X4345000D02*
Y3425000D01*
X4395000D01*
X4397326Y3408990D02*
X4403753Y3411132D01*
X4412323D01*
X4418750Y3408990D01*
X4420893Y3404705D01*
Y3400420D01*
X4418750Y3396135D01*
X4414466Y3393993D01*
X4405896Y3391851D01*
X4399469Y3389708D01*
X4395184Y3385423D01*
X4393042Y3381139D01*
Y3374711D01*
X4395184Y3370427D01*
X4397326Y3368284D01*
X4403753Y3366142D01*
X4412323D01*
X4418750Y3368284D01*
X4420893Y3370427D01*
X4423035Y3374711D01*
Y3381139D01*
X4420893Y3385423D01*
X4416608Y3389708D01*
X4410181Y3391851D01*
X4401611Y3393993D01*
X4397326Y3396135D01*
X4395184Y3400420D01*
Y3404705D01*
X4397326Y3408990D01*
X4705167Y3680000D02*
Y3715000D01*
Y3680000D02*
X4765167D01*
Y3715000D01*
X4785167D02*
Y3680000D01*
X4845167D01*
Y3715000D01*
X4865167D02*
Y3680000D01*
X4925167D01*
Y3720000D01*
Y3765000D02*
Y3800000D01*
X4865167D01*
Y3765000D01*
X4845167D02*
Y3800000D01*
X4785167D01*
Y3760000D01*
X4765167Y3765000D02*
Y3800000D01*
X4705167D01*
Y3760000D01*
X4704724Y3818898D02*
X4749715D01*
Y3838179D01*
X4747572Y3844606D01*
X4745430Y3846749D01*
X4741145Y3848891D01*
X4736860D01*
X4732576Y3846749D01*
X4730433Y3844606D01*
X4728291Y3838179D01*
Y3818898D01*
X4803150D02*
X4848140D01*
Y3838179D01*
X4845998Y3844606D01*
X4843855Y3846749D01*
X4839570Y3848891D01*
X4835286D01*
X4831001Y3846749D01*
X4828858Y3844606D01*
X4826716Y3838179D01*
Y3818898D01*
X4881890D02*
X4926880D01*
Y3838179D01*
X4924738Y3844606D01*
X4922595Y3846749D01*
X4918311Y3848891D01*
X4914026D01*
X4909741Y3846749D01*
X4907599Y3844606D01*
X4905456Y3838179D01*
Y3818898D01*
X4944396Y3614990D02*
X4965820D01*
X4967962Y3595709D01*
X4965820Y3597851D01*
X4959393Y3599994D01*
X4952965D01*
X4946538Y3597851D01*
X4942253Y3593566D01*
X4940111Y3587139D01*
Y3582854D01*
X4942253Y3576427D01*
X4946538Y3572142D01*
X4952965Y3570000D01*
X4959393D01*
X4965820Y3572142D01*
X4967962Y3574285D01*
X4970105Y3578570D01*
X4982316Y3580712D02*
X4984459Y3576427D01*
X4988743Y3572142D01*
X4995171Y3570000D01*
X5010167D01*
Y3614990D01*
X4995171D01*
X4988743Y3612848D01*
X4984459Y3608563D01*
X4982316Y3604278D01*
X4980174Y3597851D01*
Y3587139D01*
X4982316Y3580712D01*
X4905456Y3833894D02*
X4881890Y3848891D01*
Y3869672D02*
X4926880D01*
X4920453Y3863245D01*
X4918311Y3858960D01*
Y3894096D02*
X4922595Y3896238D01*
X4924738Y3898381D01*
X4926880Y3902665D01*
Y3911235D01*
X4924738Y3915520D01*
X4922595Y3917662D01*
X4918311Y3919805D01*
X4914026D01*
X4909741Y3917662D01*
X4903314Y3913377D01*
X4881890Y3891953D01*
Y3921947D01*
X4848140Y3919805D02*
X4831001Y3906950D01*
Y3913377D01*
X4828858Y3917662D01*
X4826716Y3919805D01*
X4820289Y3921947D01*
X4816004D01*
X4809577Y3919805D01*
X4805292Y3915520D01*
X4803150Y3909093D01*
Y3902665D01*
X4805292Y3896238D01*
X4807434Y3894096D01*
X4811719Y3891953D01*
X4803150Y3869672D02*
X4848140D01*
X4841713Y3863245D01*
X4839570Y3858960D01*
X4826716Y3833894D02*
X4803150Y3848891D01*
X4743288Y3863245D02*
X4749715Y3869672D01*
X4704724D01*
Y3848891D02*
X4728291Y3833894D01*
X4741145Y3858960D02*
X4743288Y3863245D01*
X4747572Y3898381D02*
X4741145Y3894096D01*
X4730433Y3891953D01*
X4724006D01*
X4713294Y3894096D01*
X4706867Y3898381D01*
X4704724Y3904808D01*
Y3909093D01*
X4706867Y3915520D01*
X4713294Y3919805D01*
X4724006Y3921947D01*
X4730433D01*
X4741145Y3919805D01*
X4747572Y3915520D01*
X4749715Y3909093D01*
Y3904808D01*
X4747572Y3898381D01*
X4848140Y3896238D02*
Y3919805D01*
X4916168Y3894096D02*
X4918311D01*
X4838235Y4396191D02*
X4833950Y4391906D01*
X4829665Y4389764D01*
X4821096D01*
X4816811Y4391906D01*
X4812526Y4396191D01*
X4810384Y4400476D01*
X4797744Y4389764D02*
X4767750D01*
X4757681D02*
X4727687D01*
X4736257Y4411188D02*
X4757681Y4389764D01*
X4755538Y4424042D02*
Y4426185D01*
X4753396Y4430469D01*
X4751254Y4432612D01*
X4746969Y4434754D01*
X4738399D01*
X4734114Y4432612D01*
X4731972Y4430469D01*
X4729830Y4426185D01*
Y4421900D01*
X4731972Y4417615D01*
X4736257Y4411188D01*
X4680000Y4435000D02*
X4645000D01*
X4680000D02*
Y4375000D01*
X4645000D01*
X4640692Y4356014D02*
X4642834Y4336732D01*
X4640692Y4338875D01*
X4634265Y4341017D01*
X4627837D01*
X4621410Y4338875D01*
X4617125Y4334590D01*
X4614983Y4328163D01*
Y4323878D01*
X4617125Y4317451D01*
X4621410Y4313166D01*
X4627837Y4311024D01*
X4634265D01*
X4640692Y4313166D01*
X4642834Y4315308D01*
X4644977Y4319593D01*
X4655046Y4311024D02*
X4670043Y4334590D01*
X4665758D02*
X4685039D01*
X4665758D02*
X4659331Y4336732D01*
X4657188Y4338875D01*
X4655046Y4343160D01*
Y4347444D01*
X4657188Y4351729D01*
X4659331Y4353872D01*
X4665758Y4356014D01*
X4685039D01*
Y4311024D01*
X4640692Y4356014D02*
X4619268D01*
X4600000Y4375000D02*
X4560000D01*
Y4435000D01*
X4595000D01*
X4604914Y4326020D02*
X4572778D01*
X4583490Y4311024D02*
Y4356014D01*
X4604914Y4326020D01*
X4776320Y4411188D02*
X4797744Y4389764D01*
X4795601Y4424042D02*
Y4426185D01*
X4793459Y4430469D01*
X4791316Y4432612D01*
X4787032Y4434754D01*
X4778462D01*
X4774177Y4432612D01*
X4772035Y4430469D01*
X4769892Y4426185D01*
Y4421900D01*
X4772035Y4417615D01*
X4776320Y4411188D01*
X4810384Y4424042D02*
X4812526Y4428327D01*
X4816811Y4432612D01*
X4821096Y4434754D01*
X4829665D01*
X4833950Y4432612D01*
X4838235Y4428327D01*
X4840377Y4424042D01*
X4842520Y4417615D01*
Y4406903D01*
X4840377Y4400476D01*
X4838235Y4396191D01*
X4780000Y4453010D02*
Y4543010D01*
X4730000D01*
X4717265Y4566929D02*
Y4611919D01*
X4738689Y4581926D01*
X4706552D01*
X4698626D02*
X4666490D01*
X4675000Y4566990D02*
Y4656990D01*
X4625000D01*
X4671020Y4675000D02*
Y4725000D01*
Y4675000D02*
X4581020D01*
Y4725000D01*
X4563010D02*
Y4675000D01*
X4473010D01*
Y4725000D01*
X4475000Y4656990D02*
X4525000D01*
X4475000D02*
Y4566990D01*
X4525000D01*
X4580000Y4543010D02*
X4630000D01*
X4625000Y4566990D02*
X4675000D01*
X4677202Y4566929D02*
Y4611919D01*
X4698626Y4581926D01*
X4730000Y4453010D02*
X4780000D01*
X4779180Y4573356D02*
X4774895Y4569072D01*
X4770610Y4566929D01*
X4762041D01*
X4757756Y4569072D01*
X4753471Y4573356D01*
X4751329Y4577641D01*
X4781322D02*
X4779180Y4573356D01*
X4781322Y4577641D02*
X4783465Y4584068D01*
Y4594780D01*
X4781322Y4601208D01*
X4779180Y4605492D01*
X4774895Y4609777D01*
X4770610Y4611919D01*
X4762041D01*
X4757756Y4609777D01*
X4753471Y4605492D01*
X4751329Y4601208D01*
X4671020Y4825000D02*
Y4875000D01*
X4581020D01*
Y4825000D01*
X4563010D02*
Y4875000D01*
X4473010D01*
Y4825000D01*
X4475335Y4881890D02*
X4466765D01*
X4462480Y4884032D01*
X4458195Y4888317D01*
X4456053Y4892602D01*
X4486047D02*
X4483904Y4888317D01*
X4479619Y4884032D01*
X4475335Y4881890D01*
X4486047Y4892602D02*
X4488189Y4899029D01*
Y4909741D01*
X4486047Y4916168D01*
X4483904Y4920453D01*
X4479619Y4924738D01*
X4475335Y4926880D01*
X4466765D01*
X4462480Y4924738D01*
X4458195Y4920453D01*
X4456053Y4916168D01*
X4443413Y4896887D02*
X4411277D01*
X4388353Y4909741D02*
X4381926D01*
X4377641Y4907599D01*
X4375499Y4905456D01*
X4373356Y4899029D01*
Y4894744D01*
X4375499Y4888317D01*
X4379784Y4884032D01*
X4386211Y4881890D01*
X4392638D01*
X4399065Y4884032D01*
X4401208Y4886175D01*
X4403350Y4890459D01*
X4421989Y4881890D02*
Y4926880D01*
X4443413Y4896887D01*
X4599583Y4890459D02*
X4603868Y4884032D01*
X4610295Y4881890D01*
X4614579D01*
X4621007Y4884032D01*
X4623149Y4888317D01*
X4635361Y4881890D02*
X4650358Y4905456D01*
X4646073D02*
X4665354D01*
X4646073D02*
X4639645Y4907599D01*
X4637503Y4909741D01*
X4635361Y4914026D01*
Y4918311D01*
X4637503Y4922595D01*
X4639645Y4924738D01*
X4646073Y4926880D01*
X4665354D01*
Y4881890D01*
X4599583Y4890459D02*
X4597440Y4901171D01*
Y4911883D01*
X4599583Y4905456D01*
X4603868Y4901171D01*
X4610295Y4899029D01*
X4612437D01*
X4618864Y4901171D01*
X4623149Y4905456D01*
X4625292Y4911883D01*
Y4914026D01*
X4623149Y4920453D01*
X4618864Y4924738D01*
X4612437Y4926880D01*
X4610295D01*
X4603868Y4924738D01*
X4599583Y4920453D01*
X4597440Y4911883D01*
X4388353Y4909741D02*
X4375499Y4926880D01*
X4399065D01*
X4280000Y4730000D02*
X4230000D01*
Y4640000D01*
X4280000D01*
X4245000Y4621990D02*
X4305000D01*
Y4586990D01*
X4320729Y4588757D02*
X4327156Y4586614D01*
X4333583D01*
X4340010Y4588757D01*
X4342153Y4590899D01*
X4344295Y4595184D01*
X4316444Y4593041D02*
X4320729Y4588757D01*
X4354364Y4586614D02*
X4384358D01*
X4362934Y4608038D01*
X4358649Y4614465D01*
X4356507Y4618750D01*
Y4623035D01*
X4358649Y4627320D01*
X4360791Y4629462D01*
X4365076Y4631605D01*
X4373646D01*
X4377931Y4629462D01*
X4380073Y4627320D01*
X4382215Y4623035D01*
Y4620893D01*
X4396998D02*
X4399140Y4625177D01*
X4403425Y4629462D01*
X4407710Y4631605D01*
X4416279D01*
X4420564Y4629462D01*
X4424849Y4625177D01*
X4426992Y4620893D01*
X4429134Y4614465D01*
Y4603753D01*
X4426992Y4597326D01*
X4424849Y4593041D01*
X4420564Y4588757D01*
X4416279Y4586614D01*
X4407710D01*
X4403425Y4588757D01*
X4399140Y4593041D01*
X4396998Y4597326D01*
X4380000Y4640000D02*
X4430000D01*
Y4730000D01*
X4380000D01*
X4340010Y4631605D02*
X4316444D01*
X4329298Y4614465D01*
X4322871D01*
X4318586Y4612323D01*
X4316444Y4610181D01*
X4314301Y4603753D01*
Y4599469D01*
X4316444Y4593041D01*
X4305000Y4541990D02*
Y4501990D01*
X4245000D01*
Y4536990D01*
X4232283Y4566929D02*
Y4611919D01*
X4213002D01*
X4206575Y4609777D01*
X4204432Y4607635D01*
X4202290Y4603350D01*
Y4599065D01*
X4204432Y4594780D01*
X4206575Y4592638D01*
X4213002Y4590495D01*
X4232283D01*
X4217287D02*
X4202290Y4566929D01*
X4187936Y4569072D02*
X4190078Y4571214D01*
X4192221Y4575499D01*
X4187936Y4569072D02*
X4181509Y4566929D01*
X4175082D01*
X4168654Y4569072D01*
X4164369Y4573356D01*
X4162227Y4579783D01*
Y4584068D01*
X4164369Y4590495D01*
X4168654Y4594780D01*
X4175082Y4596923D01*
X4181509D01*
X4187936Y4594780D01*
X4190078Y4592638D01*
X4187936Y4611919D01*
X4166512D01*
X4147873D02*
X4124307D01*
X4137161Y4594780D01*
X4130734D01*
X4126449Y4592638D01*
X4124307Y4590495D01*
X4122164Y4584068D01*
Y4579783D01*
X4124307Y4573356D01*
X4128592Y4569072D01*
X4135019Y4566929D01*
X4141446D01*
X4147873Y4569072D01*
X4150016Y4571214D01*
X4152158Y4575499D01*
X4245000Y4586990D02*
Y4621990D01*
X4211990Y4640000D02*
Y4730000D01*
X4161990D01*
Y4640000D02*
X4211990D01*
X4105604Y4629462D02*
X4109888Y4625177D01*
X4112031Y4620893D01*
X4114173Y4614465D01*
Y4603753D01*
X4112031Y4597326D01*
X4109888Y4593041D01*
X4105604Y4588757D01*
X4101319Y4586614D01*
X4092749D01*
X4088464Y4588757D01*
X4084180Y4593041D01*
X4082037Y4597326D01*
X4069397Y4601611D02*
X4037261D01*
X4027192Y4620893D02*
Y4623035D01*
X4025050Y4627320D01*
X4022907Y4629462D01*
X4018622Y4631605D01*
X4010053D01*
X4005768Y4629462D01*
X4003626Y4627320D01*
X4001483Y4623035D01*
Y4618750D01*
X4003626Y4614465D01*
X4007910Y4608038D01*
X4029334Y4586614D01*
X3999341D01*
X4047973D02*
Y4631605D01*
X4069397Y4601611D01*
X4082037Y4620893D02*
X4084180Y4625177D01*
X4088464Y4629462D01*
X4092749Y4631605D01*
X4101319D01*
X4105604Y4629462D01*
X4061990Y4640000D02*
X4011990D01*
Y4730000D01*
X4061990D01*
X3929000Y4750000D02*
Y4660000D01*
X3879000D01*
X3858268Y4454439D02*
Y4409449D01*
Y4433015D02*
X3838986D01*
X3832559Y4435158D01*
X3830416Y4437300D01*
X3828274Y4441585D01*
Y4445870D01*
X3830416Y4450154D01*
X3832559Y4452297D01*
X3838986Y4454439D01*
X3858268D01*
X3843271Y4433015D02*
X3828274Y4409449D01*
X3885000Y4400000D02*
X3935000D01*
Y4310000D01*
X3885000D01*
X4025881Y4396191D02*
X4030166Y4391906D01*
X4036593Y4389764D01*
X4043021D01*
X4049448Y4391906D01*
X4051590Y4394049D01*
X4053733Y4398333D01*
X4063802Y4402618D02*
X4065944Y4396191D01*
X4070229Y4391906D01*
X4076656Y4389764D01*
X4083084D01*
X4089511Y4391906D01*
X4091653Y4394049D01*
X4093796Y4398333D01*
X4103865Y4389764D02*
X4118861Y4413330D01*
X4114577D02*
X4133858D01*
Y4434754D02*
Y4389764D01*
X4145000Y4375000D02*
X4180000D01*
X4145000D02*
Y4435000D01*
X4180000D01*
X4225000D02*
X4265000D01*
Y4375000D01*
X4230000D01*
X4283010D02*
X4318010D01*
X4316469Y4356014D02*
X4322896Y4353872D01*
X4327181Y4347444D01*
X4329323Y4336732D01*
Y4326020D01*
X4327181Y4317451D01*
X4322896Y4313166D01*
X4316469Y4311024D01*
X4314326D01*
X4307899Y4313166D01*
X4303614Y4317451D01*
X4301472Y4323878D01*
Y4326020D01*
X4303614Y4332448D01*
X4307899Y4336732D01*
X4314326Y4338875D01*
X4316469D01*
X4322896Y4336732D01*
X4327181Y4332448D01*
X4329323Y4326020D01*
X4339392Y4328163D02*
Y4323878D01*
X4341535Y4317451D01*
X4345820Y4313166D01*
X4352247Y4311024D01*
X4358674D01*
X4365101Y4313166D01*
X4367244Y4315308D01*
X4369386Y4319593D01*
X4379455Y4311024D02*
X4394452Y4334590D01*
X4390167D02*
X4409449D01*
X4390167D02*
X4383740Y4336732D01*
X4381598Y4338875D01*
X4379455Y4343160D01*
Y4347444D01*
X4381598Y4351729D01*
X4383740Y4353872D01*
X4390167Y4356014D01*
X4409449D01*
Y4311024D01*
X4367244Y4336732D02*
X4365101Y4338875D01*
X4358674Y4341017D01*
X4352247D01*
X4345820Y4338875D01*
X4341535Y4334590D01*
X4339392Y4328163D01*
X4343677Y4356014D02*
X4365101D01*
X4367244Y4336732D01*
X4368010Y4375000D02*
X4403010D01*
Y4435000D01*
X4363010D01*
X4318010D02*
X4283010D01*
Y4375000D01*
X4133858Y4434754D02*
X4114577D01*
X4108150Y4432612D01*
X4106007Y4430469D01*
X4103865Y4426185D01*
Y4421900D01*
X4106007Y4417615D01*
X4108150Y4415473D01*
X4114577Y4413330D01*
X4091653Y4415473D02*
X4089511Y4417615D01*
X4083084Y4419757D01*
X4076656D01*
X4070229Y4417615D01*
X4065944Y4413330D01*
X4063802Y4406903D01*
Y4402618D01*
X4051590Y4415473D02*
X4049448Y4417615D01*
X4043021Y4419757D01*
X4036593D01*
X4030166Y4417615D01*
X4025881Y4413330D01*
X4023739Y4406903D01*
Y4402618D01*
X4025881Y4396191D01*
X4028024Y4434754D02*
X4049448D01*
X4051590Y4415473D01*
X4068087Y4434754D02*
X4089511D01*
X4091653Y4415473D01*
X4342556Y4001683D02*
X4363980Y3971690D01*
X4331844D01*
X4342556Y3956693D02*
Y4001683D01*
X4380476Y3999541D02*
X4378334Y3997398D01*
X4376192Y3993114D01*
Y3988829D01*
X4378334Y3984544D01*
X4382619Y3978117D01*
X4404043Y3956693D01*
X4374049D01*
X4380000Y3950000D02*
X4470000D01*
Y3900000D01*
X4485000Y3885000D02*
X4545000D01*
Y3850000D01*
X4540817Y3903058D02*
X4545102Y3907343D01*
X4547244Y3913770D01*
Y3920197D01*
X4545102Y3926624D01*
X4542959Y3928767D01*
X4538675Y3930909D01*
X4547244Y3940978D02*
Y3970972D01*
X4525820Y3949548D01*
X4519393Y3945263D01*
X4515108Y3943121D01*
X4510823D01*
X4506538Y3945263D01*
X4504396Y3947405D01*
X4502254Y3951690D01*
Y3960260D01*
X4504396Y3964545D01*
X4506538Y3966687D01*
X4510823Y3968829D01*
X4512966D01*
X4521535Y3928767D02*
X4519393Y3926624D01*
X4517251Y3920197D01*
Y3913770D01*
X4519393Y3907343D01*
X4523678Y3903058D01*
X4530105Y3900916D01*
X4534390D01*
X4540817Y3903058D01*
X4502254Y3905200D02*
Y3926624D01*
X4521535Y3928767D01*
X4485000Y3885000D02*
Y3850000D01*
X4444534Y3963120D02*
X4440249Y3958835D01*
X4435965Y3956693D01*
X4427395D01*
X4423110Y3958835D01*
X4418825Y3963120D01*
X4416683Y3967405D01*
X4380000Y3950000D02*
Y3900000D01*
X4295000Y3840000D02*
X4245000D01*
X4242146Y3850000D02*
X4233576D01*
X4229291Y3852142D01*
X4225006Y3856427D01*
X4222864Y3860712D01*
X4210224Y3858570D02*
X4208082Y3854285D01*
X4205939Y3852142D01*
X4199512Y3850000D01*
X4193085D01*
X4186658Y3852142D01*
X4182373Y3856427D01*
X4180230Y3862854D01*
Y3867139D01*
X4182373Y3873566D01*
X4184515Y3875709D01*
X4188800Y3877851D01*
X4195227D01*
X4182373Y3894990D01*
X4205939D01*
X4225006Y3888563D02*
X4229291Y3892848D01*
X4233576Y3894990D01*
X4242146D01*
X4246430Y3892848D01*
X4250715Y3888563D01*
X4252858Y3884278D01*
X4255000Y3877851D01*
Y3867139D01*
X4252858Y3860712D01*
X4250715Y3856427D01*
X4246430Y3852142D01*
X4242146Y3850000D01*
X4222864Y3884278D02*
X4225006Y3888563D01*
X4170161Y3894990D02*
X4140167D01*
X4161592Y3850000D01*
X4145000Y3840000D02*
X4095000D01*
Y3750000D01*
X4145000D01*
X4245000D02*
X4295000D01*
Y3840000D01*
X4295167Y3720000D02*
X4355167D01*
Y3685000D01*
X4295167D02*
Y3720000D01*
X4380000Y3750000D02*
X4470000D01*
Y3800000D01*
X4485000D02*
Y3765000D01*
X4545000D01*
Y3805000D01*
X4444534Y3963120D02*
X4446676Y3967405D01*
X4448819Y3973832D01*
Y3984544D01*
X4446676Y3990971D01*
X4444534Y3995256D01*
X4440249Y3999541D01*
X4435965Y4001683D01*
X4427395D01*
X4423110Y3999541D01*
X4418825Y3995256D01*
X4416683Y3990971D01*
X4401900D02*
Y3993114D01*
X4399758Y3997398D01*
X4397616Y3999541D01*
X4393331Y4001683D01*
X4384761D01*
X4380476Y3999541D01*
X4502254Y4002894D02*
X4504396Y4007178D01*
X4508681Y4011463D01*
X4512966Y4013606D01*
X4519393Y4015748D01*
X4530105D01*
X4536532Y4013606D01*
X4540817Y4011463D01*
X4545102Y4007178D01*
X4547244Y4002894D01*
Y3994324D01*
X4545102Y3990039D01*
X4540817Y3985754D01*
X4536532Y3983612D01*
X4512966D02*
X4508681Y3985754D01*
X4504396Y3990039D01*
X4502254Y3994324D01*
Y4002894D01*
X4380000Y3800000D02*
Y3750000D01*
X3981066Y3740157D02*
Y3785148D01*
X3996063D02*
X3966069D01*
X3939289D02*
X3960713Y3755154D01*
X3928577D01*
X3939289Y3740157D02*
Y3785148D01*
X3736598Y3737848D02*
X3740883Y3733563D01*
X3743025Y3729278D01*
X3745167Y3722851D01*
Y3712139D01*
X3743025Y3705712D01*
X3740883Y3701427D01*
X3736598Y3697142D01*
X3732313Y3695000D01*
X3723743D01*
X3719459Y3697142D01*
X3715174Y3701427D01*
X3713031Y3705712D01*
X3700391Y3695000D02*
X3670398D01*
X3658186Y3701427D02*
X3653901Y3697142D01*
X3647474Y3695000D01*
X3645332D01*
X3638905Y3697142D01*
X3634620Y3701427D01*
X3632477Y3707854D01*
Y3709997D01*
X3634620Y3716424D01*
X3638905Y3720709D01*
X3645332Y3722851D01*
X3647474D01*
X3653901Y3720709D01*
X3658186Y3716424D01*
X3660329Y3709997D01*
X3658186Y3701427D01*
X3660329Y3709997D02*
Y3720709D01*
X3658186Y3731421D01*
X3653901Y3737848D01*
X3647474Y3739990D01*
X3643189D01*
X3636762Y3737848D01*
X3634620Y3733563D01*
X3660167Y3685000D02*
X3720167D01*
Y3650000D01*
Y3600000D02*
Y3565000D01*
X3660167D01*
Y3600000D01*
X3645000Y3620000D02*
Y3560000D01*
X3610000D01*
X3565000D02*
X3525000D01*
Y3620000D01*
X3560000D01*
X3610000D02*
X3645000D01*
X3660167Y3645000D02*
Y3685000D01*
X3678967Y3716424D02*
X3700391Y3695000D01*
X3698249Y3729278D02*
Y3731421D01*
X3696106Y3735706D01*
X3693964Y3737848D01*
X3689679Y3739990D01*
X3681110D01*
X3676825Y3737848D01*
X3674682Y3735706D01*
X3672540Y3731421D01*
Y3727136D01*
X3674682Y3722851D01*
X3678967Y3716424D01*
X3713031Y3729278D02*
X3715174Y3733563D01*
X3719459Y3737848D01*
X3723743Y3739990D01*
X3732313D01*
X3736598Y3737848D01*
X3670794Y3422248D02*
Y3417963D01*
X3672936Y3413678D01*
X3675079Y3411536D01*
X3681506Y3409393D01*
X3700787D01*
X3685791D02*
X3670794Y3385827D01*
X3656440Y3387969D02*
X3658582Y3390112D01*
X3660725Y3394396D01*
X3656440Y3387969D02*
X3650013Y3385827D01*
X3643585D01*
X3637158Y3387969D01*
X3632873Y3392254D01*
X3630731Y3398681D01*
Y3402966D01*
X3632873Y3409393D01*
X3637158Y3413678D01*
X3643585Y3415820D01*
X3650013D01*
X3656440Y3413678D01*
X3658582Y3411536D01*
X3656440Y3430817D01*
X3635016D01*
X3618519Y3424390D02*
X3614235Y3428675D01*
X3607807Y3430817D01*
X3605665D01*
X3599238Y3428675D01*
X3594953Y3424390D01*
X3592811Y3415820D01*
X3594953Y3409393D01*
X3599238Y3405108D01*
X3605665Y3402966D01*
X3607807D01*
X3614235Y3405108D01*
X3618519Y3409393D01*
X3620662Y3415820D01*
Y3417963D01*
X3618519Y3424390D01*
Y3392254D02*
X3616377Y3387969D01*
X3609950Y3385827D01*
X3605665D01*
X3599238Y3387969D01*
X3594953Y3394396D01*
X3592811Y3405108D01*
Y3415820D01*
X3625000Y3383740D02*
X3685000D01*
Y3348740D01*
X3700000Y3323740D02*
Y3383740D01*
X3735000D01*
X3700787Y3385827D02*
Y3430817D01*
X3681506D01*
X3675079Y3428675D01*
X3672936Y3426532D01*
X3670794Y3422248D01*
X3625000Y3383740D02*
Y3343740D01*
Y3298740D02*
Y3263740D01*
X3685000D01*
Y3298740D01*
X3700000Y3323740D02*
X3740000D01*
X3785000D02*
X3820000D01*
Y3383740D01*
X3785000D01*
X3788904Y3405512D02*
X3803901Y3429078D01*
X3799616D02*
X3818898D01*
X3799616D02*
X3793189Y3431221D01*
X3791046Y3433363D01*
X3788904Y3437648D01*
Y3441933D01*
X3791046Y3446217D01*
X3793189Y3448360D01*
X3799616Y3450502D01*
X3818898D01*
Y3405512D01*
X3774550Y3407654D02*
X3776692Y3409797D01*
X3778835Y3414081D01*
X3774550Y3407654D02*
X3768123Y3405512D01*
X3761696D01*
X3755268Y3407654D01*
X3750984Y3411939D01*
X3748841Y3418366D01*
Y3422651D01*
X3750984Y3429078D01*
X3755268Y3433363D01*
X3761696Y3435505D01*
X3768123D01*
X3774550Y3433363D01*
X3776692Y3431221D01*
X3774550Y3450502D01*
X3753126D01*
X3685000Y3223740D02*
Y3188740D01*
Y3138740D02*
Y3103740D01*
X3625000D01*
Y3138740D01*
Y3183740D02*
Y3223740D01*
X3685000D01*
X3688690Y3096171D02*
X3695117Y3094029D01*
X3697260Y3089744D01*
Y3085459D01*
X3695117Y3081175D01*
X3690832Y3079032D01*
X3682263Y3076890D01*
X3675836Y3074747D01*
X3671551Y3070463D01*
X3669408Y3066178D01*
Y3059751D01*
X3671551Y3055466D01*
X3673693Y3053323D01*
X3680120Y3051181D01*
X3688690D01*
X3695117Y3053323D01*
X3697260Y3055466D01*
X3699402Y3059751D01*
Y3066178D01*
X3697260Y3070463D01*
X3692975Y3074747D01*
X3686548Y3076890D01*
X3677978Y3079032D01*
X3673693Y3081175D01*
X3671551Y3085459D01*
Y3089744D01*
X3673693Y3094029D01*
X3680120Y3096171D01*
X3688690D01*
X3713756D02*
X3735180D01*
X3737322Y3076890D01*
X3735180Y3079032D01*
X3728753Y3081175D01*
X3722326D01*
X3715898Y3079032D01*
X3711614Y3074747D01*
X3709471Y3068320D01*
Y3064035D01*
X3711614Y3057608D01*
X3715898Y3053323D01*
X3722326Y3051181D01*
X3728753D01*
X3735180Y3053323D01*
X3737322Y3055466D01*
X3739465Y3059751D01*
X3749534Y3051181D02*
X3764531Y3074747D01*
X3760246D02*
X3779528D01*
X3760246D02*
X3753819Y3076890D01*
X3751676Y3079032D01*
X3749534Y3083317D01*
Y3087602D01*
X3751676Y3091887D01*
X3753819Y3094029D01*
X3760246Y3096171D01*
X3779528D01*
Y3051181D01*
X3777789Y2859951D02*
X3786358D01*
X3790643Y2857809D01*
X3794928Y2853524D01*
X3797070Y2849239D01*
X3799213Y2842812D01*
Y2832100D01*
X3797070Y2825673D01*
X3794928Y2821388D01*
X3790643Y2817103D01*
X3786358Y2814961D01*
X3777789D01*
X3773504Y2817103D01*
X3769219Y2821388D01*
X3767077Y2825673D01*
Y2849239D02*
X3769219Y2853524D01*
X3773504Y2857809D01*
X3777789Y2859951D01*
X3754436Y2851381D02*
X3750152Y2853524D01*
X3743724Y2859951D01*
Y2814961D01*
X3717159Y2817103D02*
X3719301Y2821388D01*
X3717159Y2817103D02*
X3710732Y2814961D01*
X3706447D01*
X3700020Y2817103D01*
X3695735Y2823530D01*
X3693592Y2834242D01*
Y2844954D01*
X3695735Y2838527D01*
X3700020Y2834242D01*
X3706447Y2832100D01*
X3708589D01*
X3715016Y2834242D01*
X3719301Y2838527D01*
X3721444Y2844954D01*
Y2847097D01*
X3719301Y2853524D01*
X3715016Y2857809D01*
X3708589Y2859951D01*
X3706447D01*
X3700020Y2857809D01*
X3695735Y2853524D01*
X3693592Y2844954D01*
X3710000Y2800000D02*
X3650000D01*
Y2760000D01*
X3543307Y2834646D02*
Y2879636D01*
X3528310D01*
X3521883Y2877494D01*
X3517598Y2873209D01*
X3515456Y2868924D01*
X3513314Y2862497D01*
Y2851785D01*
X3515456Y2845358D01*
X3517598Y2841073D01*
X3521883Y2836788D01*
X3528310Y2834646D01*
X3543307D01*
X3573818Y2722156D02*
X3586673Y2705017D01*
X3580245D01*
X3575961Y2702874D01*
X3573818Y2700732D01*
X3571676Y2694305D01*
Y2690020D01*
X3573818Y2683593D01*
X3578103Y2679308D01*
X3584530Y2677165D01*
X3590957D01*
X3597385Y2679308D01*
X3599527Y2681450D01*
X3601669Y2685735D01*
X3611739Y2677165D02*
X3626735Y2700732D01*
X3622451D02*
X3641732D01*
X3622451D02*
X3616023Y2702874D01*
X3613881Y2705017D01*
X3611739Y2709301D01*
Y2713586D01*
X3613881Y2717871D01*
X3616023Y2720013D01*
X3622451Y2722156D01*
X3641732D01*
Y2677165D01*
X3650000Y2680000D02*
Y2715000D01*
Y2680000D02*
X3710000D01*
X3828274Y2598425D02*
X3843271Y2621992D01*
X3838986D02*
X3858268D01*
X3838986D02*
X3832559Y2624134D01*
X3830416Y2626276D01*
X3828274Y2630561D01*
Y2634846D01*
X3830416Y2639131D01*
X3832559Y2641273D01*
X3838986Y2643416D01*
X3858268D01*
Y2598425D01*
X3904162Y2584990D02*
Y2540000D01*
X3933513D02*
Y2584990D01*
X3954937Y2554997D01*
X3922801D01*
X3914874Y2576421D02*
X3910590Y2578563D01*
X3904162Y2584990D01*
X3969291Y2582848D02*
X3967149Y2580706D01*
X3965006Y2576421D01*
Y2572136D01*
X3967149Y2567851D01*
X3969291Y2565709D01*
X3975718Y2563566D01*
X3995000D01*
X3980003D02*
X3965006Y2540000D01*
X3969291Y2582848D02*
X3975718Y2584990D01*
X3995000D01*
Y2540000D01*
Y2530000D02*
X4035000D01*
X3995000D02*
Y2590000D01*
X4030000D01*
X4080000D02*
X4115000D01*
Y2530000D01*
X4080000D01*
X4037247Y2845000D02*
Y2889990D01*
X4052244D02*
X4022251D01*
X4016894Y2881421D02*
X4012610Y2883563D01*
X4006182Y2889990D01*
Y2845000D01*
X3858268Y3110236D02*
Y3155227D01*
X3843271D01*
X3836844Y3153084D01*
X3832559Y3148799D01*
X3830416Y3144515D01*
X3828274Y3138087D01*
Y3127375D01*
X3830416Y3120948D01*
X3832559Y3116663D01*
X3836844Y3112379D01*
X3843271Y3110236D01*
X3858268D01*
X3818205D02*
X3788211D01*
X3776000Y3116663D02*
X3771715Y3112379D01*
X3765288Y3110236D01*
X3763145D01*
X3756718Y3112379D01*
X3752433Y3116663D01*
X3750291Y3123091D01*
Y3125233D01*
X3752433Y3131660D01*
X3756718Y3135945D01*
X3763145Y3138087D01*
X3765288D01*
X3771715Y3135945D01*
X3776000Y3131660D01*
X3778142Y3125233D01*
X3776000Y3116663D01*
X3778142Y3125233D02*
Y3135945D01*
X3776000Y3146657D01*
X3771715Y3153084D01*
X3765288Y3155227D01*
X3761003D01*
X3754576Y3153084D01*
X3752433Y3148799D01*
X3788211Y3155227D02*
X3818205Y3110236D01*
Y3155227D02*
X3788211D01*
X3775000Y2800000D02*
Y2765000D01*
Y2800000D02*
X3715000D01*
Y2760000D01*
X3710000Y2765000D02*
Y2800000D01*
X3597385Y2722156D02*
X3573818D01*
X3653513Y2649990D02*
Y2605000D01*
X3498959Y2836788D02*
X3501102Y2838930D01*
X3503244Y2843215D01*
X3498959Y2836788D02*
X3492532Y2834646D01*
X3486105D01*
X3479678Y2836788D01*
X3475393Y2841073D01*
X3473251Y2847500D01*
Y2851785D01*
X3475393Y2858212D01*
X3477535Y2860354D01*
X3481820Y2862497D01*
X3488247D01*
X3475393Y2879636D01*
X3498959D01*
X3346457Y2919006D02*
Y2874016D01*
Y2897582D02*
X3327175D01*
X3320748Y2899724D01*
X3318606Y2901867D01*
X3316463Y2906152D01*
Y2910436D01*
X3318606Y2914721D01*
X3320748Y2916864D01*
X3327175Y2919006D01*
X3346457D01*
X3306394Y2910436D02*
X3302109Y2912579D01*
X3295682Y2919006D01*
Y2874016D01*
X3316463D02*
X3331460Y2897582D01*
X3271259D02*
X3273401Y2904009D01*
Y2906152D01*
X3271259Y2912579D01*
X3266974Y2916864D01*
X3260547Y2919006D01*
X3258404D01*
X3251977Y2916864D01*
X3247692Y2912579D01*
X3245550Y2904009D01*
X3247692Y2897582D01*
X3251977Y2893297D01*
X3258404Y2891155D01*
X3260547D01*
X3266974Y2893297D01*
X3271259Y2897582D01*
Y2880443D02*
X3269116Y2876158D01*
X3262689Y2874016D01*
X3258404D01*
X3251977Y2876158D01*
X3247692Y2882585D01*
X3245550Y2893297D01*
Y2904009D01*
X3245000Y2875000D02*
X3185000D01*
Y2835000D01*
Y2790000D02*
Y2755000D01*
X3245000D01*
Y2790000D01*
Y2840000D02*
Y2875000D01*
X3130000Y2960000D02*
Y2900000D01*
X3095000D01*
X3099291Y2892848D02*
X3097149Y2890706D01*
X3095006Y2886421D01*
Y2882136D01*
X3097149Y2877851D01*
X3099291Y2875709D01*
X3105718Y2873566D01*
X3125000D01*
X3110003D02*
X3095006Y2850000D01*
X3084937D02*
X3054944D01*
X3040590Y2852142D02*
X3042732Y2854285D01*
X3044874Y2858570D01*
X3040590Y2852142D02*
X3034162Y2850000D01*
X3027735D01*
X3021308Y2852142D01*
X3017023Y2856427D01*
X3014881Y2862854D01*
Y2867139D01*
X3017023Y2873566D01*
X3019166Y2875709D01*
X3023450Y2877851D01*
X3029878D01*
X3017023Y2894990D01*
X3040590D01*
X3050000Y2900000D02*
X3010000D01*
Y2960000D01*
X3045000D01*
X2980000D02*
X2940000D01*
X2980000D02*
Y2900000D01*
X2945000D01*
X2950000Y2894990D02*
Y2850000D01*
Y2873566D02*
X2930718D01*
X2924291Y2875709D01*
X2922149Y2877851D01*
X2920006Y2882136D01*
Y2886421D01*
X2922149Y2890706D01*
X2924291Y2892848D01*
X2930718Y2894990D01*
X2950000D01*
X2935003Y2873566D02*
X2920006Y2850000D01*
X2909937Y2886421D02*
X2905652Y2888563D01*
X2899225Y2894990D01*
Y2850000D01*
X2874802Y2856427D02*
X2870517Y2852142D01*
X2864090Y2850000D01*
X2861948D01*
X2855520Y2852142D01*
X2851235Y2856427D01*
X2849093Y2862854D01*
Y2864997D01*
X2851235Y2871424D01*
X2855520Y2875709D01*
X2861948Y2877851D01*
X2864090D01*
X2870517Y2875709D01*
X2874802Y2871424D01*
X2876944Y2864997D01*
X2874802Y2856427D01*
X2876944Y2864997D02*
Y2875709D01*
X2874802Y2886421D01*
X2870517Y2892848D01*
X2864090Y2894990D01*
X2859805D01*
X2853378Y2892848D01*
X2851235Y2888563D01*
X2860000Y2900000D02*
Y2960000D01*
X2895000D01*
X2795000Y2955000D02*
Y3015000D01*
X2755000D01*
X2759291Y3022142D02*
X2755006Y3026427D01*
X2752864Y3030712D01*
X2740224Y3028570D02*
X2738081Y3024285D01*
X2735939Y3022142D01*
X2729512Y3020000D01*
X2723085D01*
X2716657Y3022142D01*
X2712373Y3026427D01*
X2710230Y3032854D01*
Y3037139D01*
X2712373Y3043566D01*
X2714515Y3045709D01*
X2718800Y3047851D01*
X2725227D01*
X2712373Y3064990D01*
X2735939D01*
X2689449D02*
Y3020000D01*
X2675000Y3015000D02*
X2710000D01*
X2675000D02*
Y2955000D01*
X2710000D01*
X2725000Y2935000D02*
X2685000D01*
X2725000D02*
Y2875000D01*
X2690000D01*
X2685718Y2874990D02*
X2679291Y2872848D01*
X2677149Y2870706D01*
X2675006Y2866421D01*
Y2862136D01*
X2677149Y2857851D01*
X2679291Y2855709D01*
X2685718Y2853566D01*
X2705000D01*
X2690003D02*
X2675006Y2830000D01*
X2660652Y2832142D02*
X2662795Y2834285D01*
X2664937Y2838570D01*
X2660652Y2832142D02*
X2654225Y2830000D01*
X2647798D01*
X2641371Y2832142D01*
X2637086Y2836427D01*
X2634944Y2842854D01*
Y2847139D01*
X2637086Y2853566D01*
X2639228Y2855709D01*
X2643513Y2857851D01*
X2649940D01*
X2637086Y2874990D01*
X2660652D01*
X2640000Y2875000D02*
X2605000D01*
Y2935000D01*
X2640000D01*
X2695876Y3058563D02*
X2689449Y3064990D01*
X2625000Y3115000D02*
Y3159990D01*
X2610003D01*
X2603576Y3157848D01*
X2599291Y3153563D01*
X2597149Y3149278D01*
X2595006Y3142851D01*
Y3132139D01*
X2597149Y3125712D01*
X2599291Y3121427D01*
X2603576Y3117142D01*
X2610003Y3115000D01*
X2625000D01*
X2695876Y3058563D02*
X2700161Y3056421D01*
X2752864Y3054278D02*
X2755006Y3058563D01*
X2759291Y3062848D01*
X2763576Y3064990D01*
X2772146D01*
X2776430Y3062848D01*
X2780715Y3058563D01*
X2782858Y3054278D01*
X2785000Y3047851D01*
Y3037139D01*
X2782858Y3030712D01*
X2780715Y3026427D01*
X2776430Y3022142D01*
X2772146Y3020000D01*
X2763576D01*
X2759291Y3022142D01*
X2760000Y2955000D02*
X2795000D01*
X2860000Y2900000D02*
X2895000D01*
X2912373Y2699990D02*
X2925227Y2682851D01*
X2918800D01*
X2914515Y2680709D01*
X2912373Y2678566D01*
X2910230Y2672139D01*
Y2667854D01*
X2912373Y2661427D01*
X2916657Y2657142D01*
X2923085Y2655000D01*
X2929512D01*
X2935939Y2657142D01*
X2938081Y2659285D01*
X2940224Y2663570D01*
X2952864Y2665712D02*
X2955006Y2661427D01*
X2959291Y2657142D01*
X2963576Y2655000D01*
X2972146D01*
X2976430Y2657142D01*
X2980715Y2661427D01*
X2982858Y2665712D01*
X2985000Y2672139D01*
Y2682851D01*
X2982858Y2689278D01*
X2980715Y2693563D01*
X2976430Y2697848D01*
X2972146Y2699990D01*
X2963576D01*
X2959291Y2697848D01*
X2955006Y2693563D01*
X2952864Y2689278D01*
X2935939Y2699990D02*
X2912373D01*
X3063513Y2871424D02*
X3084937Y2850000D01*
X3082795Y2884278D02*
Y2886421D01*
X3080652Y2890706D01*
X3078510Y2892848D01*
X3074225Y2894990D01*
X3065656D01*
X3061371Y2892848D01*
X3059228Y2890706D01*
X3057086Y2886421D01*
Y2882136D01*
X3059228Y2877851D01*
X3063513Y2871424D01*
X3099291Y2892848D02*
X3105718Y2894990D01*
X3125000D01*
Y2850000D01*
X3130000Y2960000D02*
X3095000D01*
X3306772Y3188976D02*
Y3233967D01*
X3313200Y3227540D01*
X3317484Y3225397D01*
X3346192Y3227540D02*
X3339765Y3233967D01*
Y3188976D01*
X3370830D02*
Y3233967D01*
X3385827D02*
X3355833D01*
X3350477Y3225397D02*
X3346192Y3227540D01*
X3247077Y3375512D02*
X3202087D01*
Y3390509D01*
X3204229Y3396936D01*
X3208514Y3401221D01*
X3212799Y3403363D01*
X3219226Y3405505D01*
X3229938D01*
X3236365Y3403363D01*
X3240650Y3401221D01*
X3244935Y3396936D01*
X3247077Y3390509D01*
Y3375512D01*
Y3436999D02*
X3217083Y3415575D01*
Y3447711D01*
X3247077Y3436999D02*
X3202087D01*
X2980715Y3601427D02*
X2976430Y3597142D01*
X2972146Y3595000D01*
X2963576D01*
X2959291Y3597142D01*
X2955006Y3601427D01*
X2952864Y3605712D01*
X2940224Y3603570D02*
X2938081Y3599285D01*
X2935939Y3597142D01*
X2929512Y3595000D01*
X2923085D01*
X2916657Y3597142D01*
X2912373Y3601427D01*
X2910230Y3607854D01*
Y3612139D01*
X2912373Y3618566D01*
X2914515Y3620709D01*
X2918800Y3622851D01*
X2925227D01*
X2912373Y3639990D01*
X2935939D01*
X2955006Y3633563D02*
X2959291Y3637848D01*
X2963576Y3639990D01*
X2972146D01*
X2976430Y3637848D01*
X2980715Y3633563D01*
X2982858Y3629278D01*
X2985000Y3622851D01*
Y3612139D01*
X2982858Y3605712D01*
X2980715Y3601427D01*
X2952864Y3629278D02*
X2955006Y3633563D01*
X2898019Y3631421D02*
X2900161Y3620709D01*
Y3609997D01*
X2898019Y3601427D01*
X2893734Y3597142D01*
X2887307Y3595000D01*
X2885164D01*
X2878737Y3597142D01*
X2874452Y3601427D01*
X2872310Y3607854D01*
Y3609997D01*
X2874452Y3616424D01*
X2878737Y3620709D01*
X2885164Y3622851D01*
X2887307D01*
X2893734Y3620709D01*
X2898019Y3616424D01*
X2900161Y3609997D01*
X2898019Y3631421D02*
X2893734Y3637848D01*
X2887307Y3639990D01*
X2883022D01*
X2876595Y3637848D01*
X2874452Y3633563D01*
X2865000Y3605000D02*
X2775000D01*
Y3555000D01*
X2865000D02*
Y3605000D01*
Y3455000D02*
Y3405000D01*
X2775000D01*
Y3455000D01*
X2767021Y3369620D02*
X2771306Y3365335D01*
X2773448Y3361050D01*
X2775591Y3354623D01*
Y3343911D01*
X2773448Y3337484D01*
X2771306Y3333199D01*
X2767021Y3328914D01*
X2762736Y3326772D01*
X2754167D01*
X2749882Y3328914D01*
X2745597Y3333199D01*
X2743455Y3337484D01*
X2730814Y3335341D02*
X2728672Y3331057D01*
X2726530Y3328914D01*
X2720102Y3326772D01*
X2713675D01*
X2707248Y3328914D01*
X2702963Y3333199D01*
X2700821Y3339626D01*
Y3343911D01*
X2702963Y3350338D01*
X2705106Y3352481D01*
X2709390Y3354623D01*
X2715818D01*
X2702963Y3371762D01*
X2726530D01*
X2749882Y3369620D02*
X2754167Y3371762D01*
X2762736D01*
X2767021Y3369620D01*
X2749882D02*
X2745597Y3365335D01*
X2743455Y3361050D01*
X2688609Y3352481D02*
X2686467Y3354623D01*
X2680040Y3356765D01*
X2673613D01*
X2667185Y3354623D01*
X2662901Y3350338D01*
X2660758Y3343911D01*
Y3339626D01*
X2662901Y3333199D01*
X2667185Y3328914D01*
X2673613Y3326772D01*
X2680040D01*
X2686467Y3328914D01*
X2688609Y3331057D01*
X2690752Y3335341D01*
X2688609Y3352481D02*
X2686467Y3371762D01*
X2665043D01*
X2476030Y3667845D02*
X2471745Y3663560D01*
X2467461Y3661417D01*
X2458891D01*
X2454606Y3663560D01*
X2450321Y3667845D01*
X2448179Y3672129D01*
Y3695696D02*
X2450321Y3699981D01*
X2454606Y3704265D01*
X2458891Y3706408D01*
X2467461D01*
X2471745Y3704265D01*
X2476030Y3699981D01*
X2478173Y3695696D01*
X2480315Y3689269D01*
Y3678557D01*
X2478173Y3672129D01*
X2476030Y3667845D01*
X2433396Y3695696D02*
Y3697838D01*
X2431254Y3702123D01*
X2429112Y3704265D01*
X2424827Y3706408D01*
X2416257D01*
X2411972Y3704265D01*
X2409830Y3702123D01*
X2407688Y3697838D01*
Y3693553D01*
X2409830Y3689269D01*
X2414115Y3682841D01*
X2435539Y3661417D01*
X2405545D01*
X2303150Y3371762D02*
X2273156D01*
X2263515D02*
X2265658Y3352481D01*
X2263515Y3354623D01*
X2257088Y3356765D01*
X2250661D01*
X2244234Y3354623D01*
X2239949Y3350338D01*
X2237806Y3343911D01*
Y3339626D01*
X2239949Y3333199D01*
X2244234Y3328914D01*
X2250661Y3326772D01*
X2257088D01*
X2263515Y3328914D01*
X2265658Y3331057D01*
X2267800Y3335341D01*
X2288153Y3326772D02*
Y3371762D01*
X2263515D02*
X2242091D01*
X2196290Y3369793D02*
X2194147Y3376221D01*
X2192005Y3378363D01*
X2187720Y3380505D01*
X2183435D01*
X2179150Y3378363D01*
X2177008Y3376221D01*
X2174866Y3369793D01*
Y3350512D01*
Y3365509D02*
X2151299Y3380505D01*
Y3401287D02*
X2196290D01*
X2189862Y3394859D01*
X2187720Y3390575D01*
X2196290Y3369793D02*
Y3350512D01*
X2151299D01*
X2145669Y3135542D02*
X2115676D01*
X2110320Y3126972D02*
X2106035Y3129114D01*
X2099608Y3135542D01*
Y3090551D01*
X2077327D02*
X2047333D01*
X2055903Y3111975D02*
X2077327Y3090551D01*
X2075184Y3124830D02*
Y3126972D01*
X2073042Y3131257D01*
X2070900Y3133399D01*
X2066615Y3135542D01*
X2058045D01*
X2053760Y3133399D01*
X2051618Y3131257D01*
X2049476Y3126972D01*
Y3122687D01*
X2051618Y3118402D01*
X2055903Y3111975D01*
X2037874Y3188032D02*
Y3228032D01*
Y3273032D02*
Y3308032D01*
X1977874D01*
Y3273032D01*
X1978819D02*
Y3308032D01*
X1918819D01*
Y3273032D01*
X1919764Y3268661D02*
X1859764D01*
Y3233661D01*
X1858277Y3270804D02*
X1853992Y3275089D01*
X1851850Y3281516D01*
Y3283658D01*
X1853992Y3290085D01*
X1858277Y3294370D01*
X1864704Y3296513D01*
X1866847D01*
X1873274Y3294370D01*
X1877559Y3290085D01*
X1879701Y3283658D01*
X1877559Y3275089D01*
X1873274Y3270804D01*
X1866847Y3268661D01*
X1864704D01*
X1858277Y3270804D01*
X1841995Y3283658D02*
X1809859D01*
X1820571Y3268661D02*
Y3313652D01*
X1841995Y3283658D01*
X1853992Y3307225D02*
X1856135Y3311509D01*
X1862562Y3313652D01*
X1866847D01*
X1873274Y3311509D01*
X1877559Y3305082D01*
X1879701Y3294370D01*
Y3283658D01*
X1891913Y3296513D02*
X1894055Y3294370D01*
X1900482Y3292228D01*
X1919764D01*
X1904767D02*
X1889770Y3268661D01*
X1919764D02*
Y3233661D01*
X1918819Y3223032D02*
Y3188032D01*
X1978819D01*
Y3228032D01*
X1977874Y3223032D02*
Y3188032D01*
X2037874D01*
X2130673Y3135542D02*
Y3090551D01*
X2106299Y2997746D02*
Y2952756D01*
Y2976322D02*
X2087018D01*
X2080590Y2978465D01*
X2078448Y2980607D01*
X2076306Y2984892D01*
Y2989177D01*
X2078448Y2993461D01*
X2080590Y2995604D01*
X2087018Y2997746D01*
X2106299D01*
X2091302Y2976322D02*
X2076306Y2952756D01*
X2061952Y2954898D02*
X2064094Y2957041D01*
X2066236Y2961325D01*
X2061952Y2954898D02*
X2055524Y2952756D01*
X2049097D01*
X2042670Y2954898D01*
X2038385Y2959183D01*
X2036243Y2965610D01*
Y2969895D01*
X2038385Y2976322D01*
X2040528Y2978465D01*
X2044812Y2980607D01*
X2051240D01*
X2038385Y2997746D01*
X2061952D01*
X2021889D02*
X2024031Y2978465D01*
X2021889Y2980607D01*
X2015462Y2982749D01*
X2009034D01*
X2002607Y2980607D01*
X1998322Y2976322D01*
X1996180Y2969895D01*
Y2965610D01*
X1998322Y2959183D01*
X2002607Y2954898D01*
X2009034Y2952756D01*
X2015462D01*
X2021889Y2954898D01*
X2024031Y2957041D01*
X2026174Y2961325D01*
X1995000Y2960000D02*
Y2920000D01*
X1935000D01*
Y2955000D01*
X1909449Y2956637D02*
X1890167D01*
X1883740Y2958780D01*
X1881598Y2960922D01*
X1879455Y2965207D01*
Y2969492D01*
X1881598Y2973776D01*
X1883740Y2975919D01*
X1890167Y2978061D01*
X1909449D01*
Y2933071D01*
X1879455D02*
X1894452Y2956637D01*
X1880000Y2980000D02*
X1915000D01*
Y3040000D01*
X1880000D01*
X1891339Y3045551D02*
Y3135551D01*
X1841339D01*
X1859764Y3148661D02*
Y3183661D01*
Y3148661D02*
X1919764D01*
Y3188661D01*
X1935000Y3040000D02*
X1995000D01*
Y3005000D01*
X2000465Y2997746D02*
X2021889D01*
X1935000Y3005000D02*
Y3040000D01*
X1891339Y3045551D02*
X1841339D01*
X1841535Y2978061D02*
X1854389Y2960922D01*
X1847962D01*
X1843677Y2958780D01*
X1841535Y2956637D01*
X1839392Y2950210D01*
Y2945925D01*
X1841535Y2939498D01*
X1845820Y2935213D01*
X1852247Y2933071D01*
X1858674D01*
X1865101Y2935213D01*
X1867244Y2937356D01*
X1869386Y2941640D01*
X1865101Y2978061D02*
X1841535D01*
X1918819Y2894646D02*
X1978819D01*
Y2859646D01*
Y2809646D02*
Y2774646D01*
X1918819D01*
Y2809646D01*
Y2854646D02*
Y2894646D01*
X1935000Y2765243D02*
Y2735249D01*
X1956424Y2756673D01*
X1962851Y2760958D01*
X1967136Y2763101D01*
X1971421D01*
X1975706Y2760958D01*
X1977848Y2758816D01*
X1979990Y2754531D01*
Y2745961D01*
X1977848Y2741677D01*
X1975706Y2739534D01*
X1971421Y2737392D01*
X1969278D01*
X1973563Y2723252D02*
X1977848Y2721110D01*
X1979990Y2714682D01*
Y2710398D01*
X1977848Y2703970D01*
X1971421Y2699686D01*
X1960709Y2697543D01*
X1949997D01*
X1941427Y2699686D01*
X1937142Y2703970D01*
X1935000Y2710398D01*
Y2712540D01*
X1937142Y2718967D01*
X1941427Y2723252D01*
X1947854Y2725394D01*
X1949997D01*
X1956424Y2723252D01*
X1960709Y2718967D01*
X1962851Y2712540D01*
Y2710398D01*
X1960709Y2703970D01*
X1956424Y2699686D01*
X1949997Y2697543D01*
X1962851Y2685331D02*
X1960709Y2683189D01*
X1958566Y2676762D01*
Y2657480D01*
Y2672477D02*
X1935000Y2687474D01*
Y2657480D02*
X1979990D01*
Y2676762D01*
X1977848Y2683189D01*
X1975706Y2685331D01*
X1971421Y2687474D01*
X1967136D01*
X1962851Y2685331D01*
X1935000Y2645000D02*
Y2735000D01*
X1885000D01*
Y2645000D02*
X1935000D01*
X1899140Y2617303D02*
X1896998Y2613019D01*
X1842153D02*
Y2615161D01*
X1840010Y2619446D01*
X1837868Y2621588D01*
X1833583Y2623731D01*
X1825013D01*
X1820729Y2621588D01*
X1818586Y2619446D01*
X1816444Y2615161D01*
Y2610876D01*
X1818586Y2606591D01*
X1822871Y2600164D01*
X1785000Y2645000D02*
X1735000D01*
Y2735000D01*
X1785000D01*
X1771653Y2775591D02*
Y2820581D01*
X1756657D01*
X1750229Y2818439D01*
X1745945Y2814154D01*
X1743802Y2809869D01*
X1741660Y2803442D01*
Y2792730D01*
X1743802Y2786303D01*
X1745945Y2782018D01*
X1750229Y2777733D01*
X1756657Y2775591D01*
X1771653D01*
X1731591D02*
X1701597D01*
X1691528Y2790587D02*
X1659392D01*
X1670104Y2775591D02*
Y2820581D01*
X1691528Y2790587D01*
X1701597Y2820581D02*
X1731591Y2775591D01*
Y2820581D02*
X1701597D01*
X1702290Y2834646D02*
X1717287Y2858212D01*
X1713002D02*
X1732284D01*
X1713002D02*
X1706575Y2860354D01*
X1704432Y2862497D01*
X1702290Y2866782D01*
Y2871066D01*
X1704432Y2875351D01*
X1706575Y2877494D01*
X1713002Y2879636D01*
X1732284D01*
Y2834646D01*
X1687936Y2836788D02*
X1690078Y2838930D01*
X1692221Y2843215D01*
X1687936Y2836788D02*
X1681509Y2834646D01*
X1675082D01*
X1668654Y2836788D01*
X1664370Y2841073D01*
X1662227Y2847500D01*
Y2851785D01*
X1664370Y2858212D01*
X1666512Y2860354D01*
X1670797Y2862497D01*
X1677224D01*
X1664370Y2879636D01*
X1687936D01*
X1710000Y2915000D02*
Y2950000D01*
Y2915000D02*
X1770000D01*
Y2950000D01*
X1799330Y2952352D02*
Y2958780D01*
X1801472Y2969492D01*
X1805757Y2975919D01*
X1812184Y2978061D01*
X1816469D01*
X1822896Y2975919D01*
X1827181Y2969492D01*
X1829323Y2958780D01*
Y2952352D01*
X1827181Y2941640D01*
X1822896Y2935213D01*
X1816469Y2933071D01*
X1812184D01*
X1805757Y2935213D01*
X1801472Y2941640D01*
X1799330Y2952352D01*
X1795000Y2980000D02*
X1835000D01*
X1795000D02*
Y3040000D01*
X1830000D01*
X1770000Y3035000D02*
X1710000D01*
Y2995000D01*
X1688629Y3037923D02*
X1684344Y3033639D01*
X1680059Y3031496D01*
X1671489D01*
X1667205Y3033639D01*
X1662920Y3037923D01*
X1660777Y3042208D01*
X1648137Y3031496D02*
X1618144D01*
X1603790Y3033639D02*
X1605932Y3035781D01*
X1608074Y3040066D01*
Y3046493D01*
X1605932Y3050778D01*
X1601647Y3055062D01*
X1595220Y3057205D01*
X1586650Y3059347D01*
X1582366Y3061490D01*
X1580223Y3065774D01*
Y3070059D01*
X1582366Y3074344D01*
X1588793Y3076486D01*
X1597362D01*
X1603790Y3074344D01*
X1605932Y3070059D01*
Y3065774D01*
X1603790Y3061490D01*
X1599505Y3059347D01*
X1590935Y3057205D01*
X1584508Y3055062D01*
X1580223Y3050778D01*
X1578081Y3046493D01*
Y3040066D01*
X1580223Y3035781D01*
X1582366Y3033639D01*
X1588793Y3031496D01*
X1597362D01*
X1603790Y3033639D01*
X1626713Y3052920D02*
X1648137Y3031496D01*
X1626713Y3052920D02*
X1622428Y3059347D01*
X1620286Y3063632D01*
Y3067917D01*
X1622428Y3072202D01*
X1624571Y3074344D01*
X1628856Y3076486D01*
X1637425D01*
X1641710Y3074344D01*
X1643852Y3072202D01*
X1645995Y3067917D01*
Y3065774D01*
X1660777D02*
X1662920Y3070059D01*
X1667205Y3074344D01*
X1671489Y3076486D01*
X1680059D01*
X1684344Y3074344D01*
X1688629Y3070059D01*
X1690771Y3065774D01*
X1692913Y3059347D01*
Y3048635D01*
X1690771Y3042208D01*
X1688629Y3037923D01*
X1691339Y3045551D02*
Y3135551D01*
X1741339D01*
Y3045551D02*
X1691339D01*
X1770000Y3035000D02*
Y3000000D01*
X1645731Y2877494D02*
X1650015Y2871066D01*
X1652158Y2860354D01*
Y2849642D01*
X1650015Y2841073D01*
X1645731Y2836788D01*
X1639303Y2834646D01*
X1637161D01*
X1630734Y2836788D01*
X1626449Y2841073D01*
X1624307Y2847500D01*
Y2849642D01*
X1626449Y2856070D01*
X1630734Y2860354D01*
X1637161Y2862497D01*
X1639303D01*
X1645731Y2860354D01*
X1650015Y2856070D01*
X1652158Y2849642D01*
X1645731Y2877494D02*
X1639303Y2879636D01*
X1635019D01*
X1628591Y2877494D01*
X1626449Y2873209D01*
X1633787Y2694108D02*
X1631645Y2691965D01*
X1629503Y2687681D01*
Y2683396D01*
X1631645Y2679111D01*
X1633787Y2676969D01*
X1640215Y2674826D01*
X1659496D01*
X1644499D02*
X1629503Y2651260D01*
X1617291Y2657687D02*
X1613006Y2653402D01*
X1606579Y2651260D01*
X1604437D01*
X1598009Y2653402D01*
X1593725Y2657687D01*
X1591582Y2664114D01*
Y2666257D01*
X1593725Y2672684D01*
X1598009Y2676969D01*
X1604437Y2679111D01*
X1606579D01*
X1613006Y2676969D01*
X1617291Y2672684D01*
X1619433Y2666257D01*
X1617291Y2657687D01*
X1619433Y2666257D02*
Y2676969D01*
X1617291Y2687681D01*
X1613006Y2694108D01*
X1606579Y2696250D01*
X1602294D01*
X1595867Y2694108D01*
X1593725Y2689823D01*
X1579585D02*
Y2685538D01*
X1577442Y2681253D01*
X1573158Y2679111D01*
X1564588Y2676969D01*
X1558161Y2674826D01*
X1553876Y2670541D01*
X1551734Y2666257D01*
Y2659829D01*
X1553876Y2655545D01*
X1556018Y2653402D01*
X1562446Y2651260D01*
X1571015D01*
X1577442Y2653402D01*
X1579585Y2655545D01*
X1581727Y2659829D01*
Y2666257D01*
X1579585Y2670541D01*
X1575300Y2674826D01*
X1568873Y2676969D01*
X1560303Y2679111D01*
X1556018Y2681253D01*
X1553876Y2685538D01*
Y2689823D01*
X1556018Y2694108D01*
X1562446Y2696250D01*
X1571015D01*
X1577442Y2694108D01*
X1579585Y2689823D01*
X1581197Y2695940D02*
Y2650950D01*
Y2674516D02*
X1561916D01*
X1555489Y2676658D01*
X1553346Y2678801D01*
X1551204Y2683086D01*
Y2687370D01*
X1553346Y2691655D01*
X1555489Y2693798D01*
X1561916Y2695940D01*
X1581197D01*
X1566201Y2674516D02*
X1551204Y2650950D01*
X1538992Y2657377D02*
X1534707Y2653092D01*
X1528280Y2650950D01*
X1526138D01*
X1519711Y2653092D01*
X1515426Y2657377D01*
X1513284Y2663804D01*
Y2665946D01*
X1515426Y2672374D01*
X1519711Y2676658D01*
X1526138Y2678801D01*
X1528280D01*
X1534707Y2676658D01*
X1538992Y2672374D01*
X1541135Y2665946D01*
X1538992Y2657377D01*
X1541135Y2665946D02*
Y2676658D01*
X1538992Y2687370D01*
X1534707Y2693798D01*
X1528280Y2695940D01*
X1523995D01*
X1517568Y2693798D01*
X1515426Y2689513D01*
X1501286D02*
X1497001Y2693798D01*
X1490574Y2695940D01*
X1488432D01*
X1482005Y2693798D01*
X1477720Y2689513D01*
X1475577Y2680943D01*
X1477720Y2674516D01*
X1482005Y2670231D01*
X1488432Y2668089D01*
X1490574D01*
X1497001Y2670231D01*
X1501286Y2674516D01*
X1503428Y2680943D01*
Y2683086D01*
X1501286Y2689513D01*
Y2657377D02*
X1499144Y2653092D01*
X1492716Y2650950D01*
X1488432D01*
X1482005Y2653092D01*
X1477720Y2659519D01*
X1475577Y2670231D01*
Y2680943D01*
X1525118Y2619055D02*
X1585118D01*
Y2584055D01*
X1603858Y2579055D02*
Y2619055D01*
X1663858D01*
Y2584055D01*
Y2534055D02*
Y2499055D01*
X1603858D01*
Y2534055D01*
X1585118D02*
Y2499055D01*
X1525118D01*
Y2534055D01*
Y2579055D02*
Y2619055D01*
X1659496Y2651260D02*
Y2696250D01*
X1640215D01*
X1633787Y2694108D01*
X1840414Y2267257D02*
X1846841Y2269400D01*
X1851126D01*
X1857553Y2267257D01*
X1861838Y2260830D01*
X1863980Y2250118D01*
Y2239406D01*
X1861838Y2230837D01*
X1857553Y2226552D01*
X1851126Y2224409D01*
X1848983D01*
X1842556Y2226552D01*
X1838271Y2230837D01*
X1836129Y2237264D01*
Y2239406D01*
X1838271Y2245833D01*
X1842556Y2250118D01*
X1848983Y2252261D01*
X1851126D01*
X1857553Y2250118D01*
X1861838Y2245833D01*
X1863980Y2239406D01*
X1871907D02*
X1904043D01*
X1882619Y2269400D01*
Y2224409D01*
X1923110Y2226552D02*
X1918825Y2230837D01*
X1916683Y2235121D01*
X1923110Y2226552D02*
X1927395Y2224409D01*
X1935965D01*
X1940249Y2226552D01*
X1944534Y2230837D01*
X1946677Y2235121D01*
X1948819Y2241549D01*
Y2252261D01*
X1946677Y2258688D01*
X1944534Y2262973D01*
X1940249Y2267257D01*
X1935965Y2269400D01*
X1927395D01*
X1923110Y2267257D01*
X1918825Y2262973D01*
X1916683Y2258688D01*
X1838271Y2262973D02*
X1840414Y2267257D01*
X1877666Y2111919D02*
Y2066929D01*
X1898447D02*
X1928441D01*
X1907017Y2088353D01*
X1902732Y2094780D01*
X1900590Y2099065D01*
Y2103350D01*
X1902732Y2107635D01*
X1904875Y2109777D01*
X1909159Y2111919D01*
X1917729D01*
X1922014Y2109777D01*
X1924156Y2107635D01*
X1926299Y2103350D01*
Y2101207D01*
X1938510Y2103350D02*
Y2099065D01*
X1940653Y2094780D01*
X1942795Y2092638D01*
X1949222Y2090495D01*
X1968504D01*
X1953507D02*
X1938510Y2066929D01*
X1968504D02*
Y2111919D01*
X1949222D01*
X1942795Y2109777D01*
X1940653Y2107635D01*
X1938510Y2103350D01*
X1888378D02*
X1884093Y2105492D01*
X1877666Y2111919D01*
X2709126Y2558248D02*
X2711269Y2562533D01*
X2860000Y2360000D02*
X2895000D01*
X2860000D02*
Y2300000D01*
X2895000D01*
X2886581Y1912927D02*
X2890866Y1906499D01*
X2893008Y1895787D01*
Y1885075D01*
X2890866Y1876506D01*
X2886581Y1872221D01*
X2880154Y1870079D01*
X2878011D01*
X2871584Y1872221D01*
X2867299Y1876506D01*
X2865157Y1882933D01*
Y1885075D01*
X2867299Y1891503D01*
X2871584Y1895787D01*
X2878011Y1897930D01*
X2880154D01*
X2886581Y1895787D01*
X2890866Y1891503D01*
X2893008Y1885075D01*
X2903077Y1887218D02*
X2905220Y1880791D01*
X2907362Y1876506D01*
X2911647Y1872221D01*
X2918074Y1870079D01*
X2933071D01*
Y1915069D01*
X2918074D01*
X2911647Y1912927D01*
X2907362Y1908642D01*
X2905220Y1904357D01*
X2903077Y1897930D01*
Y1887218D01*
X2886581Y1912927D02*
X2880154Y1915069D01*
X2875869D01*
X2869442Y1912927D01*
X2867299Y1908642D01*
X2963621Y1909278D02*
Y1913563D01*
X2965764Y1917848D01*
X2972191Y1919990D01*
X2980761D01*
X2987188Y1917848D01*
X2989330Y1913563D01*
Y1909278D01*
X2987188Y1904994D01*
X2982903Y1902851D01*
X2974333Y1900709D01*
X2967906Y1898566D01*
X2963621Y1894282D01*
X2961479Y1889997D01*
Y1883570D01*
X2963621Y1879285D01*
X2965764Y1877142D01*
X2972191Y1875000D01*
X2980761D01*
X2987188Y1877142D01*
X2989330Y1879285D01*
X2991473Y1883570D01*
Y1889997D01*
X2989330Y1894282D01*
X2985045Y1898566D01*
X2978618Y1900709D01*
X2970049Y1902851D01*
X2965764Y1904994D01*
X2963621Y1909278D01*
X3003684D02*
X3001542Y1902851D01*
Y1892139D01*
X3003684Y1885712D01*
X3005827Y1881427D01*
X3010111Y1877142D01*
X3016539Y1875000D01*
X3031535D01*
Y1919990D01*
X3016539D01*
X3010111Y1917848D01*
X3005827Y1913563D01*
X3003684Y1909278D01*
X3556235Y1905709D02*
X3554093Y1903566D01*
X3551951Y1897139D01*
Y1892854D01*
X3554093Y1886427D01*
X3558378Y1882142D01*
X3564805Y1880000D01*
X3571232D01*
X3577660Y1882142D01*
X3579802Y1884285D01*
X3581944Y1888570D01*
X3604225Y1880000D02*
Y1924990D01*
X3610652Y1918563D01*
X3614937Y1916421D01*
X3627149Y1914278D02*
X3625006Y1907851D01*
Y1897139D01*
X3627149Y1890712D01*
X3629291Y1886427D01*
X3633576Y1882142D01*
X3640003Y1880000D01*
X3655000D01*
Y1924990D01*
X3640003D01*
X3633576Y1922848D01*
X3629291Y1918563D01*
X3627149Y1914278D01*
X3577660Y1924990D02*
X3554093D01*
X3566948Y1907851D01*
X3560520D01*
X3556235Y1905709D01*
X2705000Y2830000D02*
Y2874990D01*
X2685718D01*
X2624874Y2866421D02*
X2620590Y2868563D01*
X2614162Y2874990D01*
Y2830000D01*
X2570000Y2940000D02*
Y2880000D01*
X2535000D01*
X2490000D02*
X2450000D01*
Y2940000D01*
X2485000D01*
X2480000Y2965000D02*
Y3005000D01*
Y2965000D02*
X2420000D01*
Y3000000D01*
Y3050000D02*
Y3085000D01*
X2480000D01*
Y3050000D01*
X2535000Y2940000D02*
X2570000D01*
X2584937Y3115000D02*
X2554944D01*
X2540590Y3117142D02*
X2542732Y3119285D01*
X2544874Y3123570D01*
X2540590Y3117142D02*
X2534162Y3115000D01*
X2527735D01*
X2521308Y3117142D01*
X2517023Y3121427D01*
X2514881Y3127854D01*
Y3132139D01*
X2517023Y3138566D01*
X2519166Y3140709D01*
X2523450Y3142851D01*
X2529878D01*
X2517023Y3159990D01*
X2540590D01*
X2554944D02*
X2584937Y3115000D01*
Y3159990D02*
X2554944D01*
X2470000Y3134990D02*
Y3090000D01*
Y3113566D02*
X2450718D01*
X2444291Y3115709D01*
X2442149Y3117851D01*
X2440006Y3122136D01*
Y3126421D01*
X2442149Y3130706D01*
X2444291Y3132848D01*
X2450718Y3134990D01*
X2470000D01*
X2455003Y3113566D02*
X2440006Y3090000D01*
X2425652Y3092142D02*
X2427795Y3094285D01*
X2429937Y3098570D01*
X2425652Y3092142D02*
X2419225Y3090000D01*
X2412798D01*
X2406371Y3092142D01*
X2402086Y3096427D01*
X2399944Y3102854D01*
Y3107139D01*
X2402086Y3113566D01*
X2404228Y3115709D01*
X2408513Y3117851D01*
X2414940D01*
X2402086Y3134990D01*
X2425652D01*
X2389874D02*
X2359881D01*
X2381305Y3090000D01*
X2373031Y2919006D02*
X2385885Y2901867D01*
X2379458D01*
X2375173Y2899724D01*
X2373031Y2897582D01*
X2370889Y2891155D01*
Y2886870D01*
X2373031Y2880443D01*
X2377316Y2876158D01*
X2383743Y2874016D01*
X2390170D01*
X2396597Y2876158D01*
X2398740Y2878300D01*
X2400882Y2882585D01*
X2410951Y2874016D02*
X2425948Y2897582D01*
X2421663D02*
X2440945D01*
X2421663D02*
X2415236Y2899724D01*
X2413094Y2901867D01*
X2410951Y2906152D01*
Y2910436D01*
X2413094Y2914721D01*
X2415236Y2916864D01*
X2421663Y2919006D01*
X2440945D01*
Y2874016D01*
X2360819D02*
X2330826D01*
X2339395Y2895440D02*
X2360819Y2874016D01*
X2339395Y2895440D02*
X2335110Y2901867D01*
X2332968Y2906152D01*
Y2910436D01*
X2335110Y2914721D01*
X2337253Y2916864D01*
X2341538Y2919006D01*
X2350107D01*
X2354392Y2916864D01*
X2356535Y2914721D01*
X2358677Y2910436D01*
Y2908294D01*
X2373031Y2919006D02*
X2396597D01*
X2136299Y3345512D02*
Y3380512D01*
Y3430512D02*
Y3465512D01*
X2076299D01*
Y3425512D01*
Y3380512D02*
Y3345512D01*
X2136299D01*
X2024610Y3348094D02*
X2026752Y3352379D01*
X2033179Y3358806D01*
X1988189D01*
X1974124Y3360949D02*
X1971982Y3354521D01*
X1965555Y3350237D01*
X1954843Y3348094D01*
X1944131D01*
X1935561Y3350237D01*
X1931276Y3354521D01*
X1929134Y3360949D01*
Y3363091D01*
X1931276Y3369518D01*
X1935561Y3373803D01*
X1941988Y3375945D01*
X1944131D01*
X1950558Y3373803D01*
X1954843Y3369518D01*
X1956985Y3363091D01*
Y3360949D01*
X1954843Y3354521D01*
X1950558Y3350237D01*
X1944131Y3348094D01*
X1956985Y3335883D02*
X1954843Y3333740D01*
X1952700Y3327313D01*
Y3308032D01*
Y3323028D02*
X1929134Y3338025D01*
X1920000Y3325000D02*
Y3385000D01*
X1880000D01*
X1879455Y3385827D02*
X1894452Y3409393D01*
X1890167D02*
X1909449D01*
X1890167D02*
X1883740Y3411536D01*
X1881598Y3413678D01*
X1879455Y3417963D01*
Y3422248D01*
X1881598Y3426532D01*
X1883740Y3428675D01*
X1890167Y3430817D01*
X1909449D01*
Y3385827D01*
X1931276Y3390085D02*
X1933419Y3387943D01*
X1937704Y3385800D01*
X1931276Y3390085D02*
X1929134Y3396512D01*
Y3402940D01*
X1931276Y3409367D01*
X1935561Y3413652D01*
X1941988Y3415794D01*
X1946273D01*
X1952700Y3413652D01*
X1956985Y3409367D01*
X1959128Y3402940D01*
Y3396512D01*
X1956985Y3390085D01*
X1954843Y3387943D01*
X1974124Y3390085D01*
Y3411509D01*
X1988189Y3389657D02*
X2033179Y3411081D01*
Y3381087D01*
X2055000Y3480000D02*
X2090000D01*
Y3540000D01*
X2050000D01*
X2005000D02*
X1970000D01*
Y3480000D01*
X2005000D01*
X2103175Y3486394D02*
X2098890Y3490679D01*
X2096748Y3497106D01*
Y3499249D01*
X2098890Y3505676D01*
X2103175Y3509961D01*
X2109602Y3512103D01*
X2111744D01*
X2118172Y3509961D01*
X2122456Y3505676D01*
X2124599Y3499249D01*
X2122456Y3490679D01*
X2118172Y3486394D01*
X2111744Y3484252D01*
X2109602D01*
X2103175Y3486394D01*
X2124599Y3499249D02*
Y3509961D01*
X2122456Y3520673D01*
X2118172Y3527100D01*
X2111744Y3529242D01*
X2107460D01*
X2101032Y3527100D01*
X2098890Y3522815D01*
X2105000Y3585000D02*
Y3625000D01*
Y3585000D02*
X2045000D01*
Y3620000D01*
Y3670000D02*
Y3705000D01*
X2105000D01*
Y3670000D01*
X2132526Y3499249D02*
X2164662D01*
X2143238Y3529242D01*
Y3484252D01*
X2174731D02*
X2189728Y3507818D01*
X2185443D02*
X2204724D01*
X2185443D02*
X2179016Y3509961D01*
X2176873Y3512103D01*
X2174731Y3516388D01*
Y3520673D01*
X2176873Y3524958D01*
X2179016Y3527100D01*
X2185443Y3529242D01*
X2204724D01*
Y3484252D01*
X2196290Y3449276D02*
Y3427852D01*
X2177008Y3425710D01*
X2179150Y3427852D01*
X2181293Y3434280D01*
Y3440707D01*
X2179150Y3447134D01*
X2174866Y3451419D01*
X2168438Y3453561D01*
X2164154D01*
X2157726Y3451419D01*
X2153442Y3447134D01*
X2151299Y3440707D01*
Y3434280D01*
X2153442Y3427852D01*
X2155584Y3425710D01*
X2159869Y3423568D01*
X2031037Y3333740D02*
X2028895Y3335883D01*
X2024610Y3338025D01*
X2020325D01*
X2016040Y3335883D01*
X2013898Y3333740D01*
X2011755Y3327313D01*
Y3308032D01*
Y3323028D02*
X1988189Y3338025D01*
X1971982Y3333740D02*
X1969840Y3335883D01*
X1965555Y3338025D01*
X1961270D01*
X1956985Y3335883D01*
X1971982Y3333740D02*
X1974124Y3327313D01*
Y3308032D01*
X1929134D01*
X1919764Y3313652D02*
Y3268661D01*
Y3313652D02*
X1900482D01*
X1894055Y3311509D01*
X1891913Y3309367D01*
X1889770Y3305082D01*
Y3300797D01*
X1891913Y3296513D01*
X1885000Y3325000D02*
X1920000D01*
X1988189Y3308032D02*
X2033179D01*
Y3327313D01*
X2031037Y3333740D01*
X1971982Y3371661D02*
X1974124Y3365233D01*
Y3360949D01*
X1971982Y3371661D02*
X1967697Y3373803D01*
X1867244Y3392254D02*
X1862959Y3387969D01*
X1856532Y3385827D01*
X1854389D01*
X1847962Y3387969D01*
X1843677Y3392254D01*
X1841535Y3398681D01*
Y3400824D01*
X1843677Y3407251D01*
X1847962Y3411536D01*
X1854389Y3413678D01*
X1856532D01*
X1862959Y3411536D01*
X1867244Y3407251D01*
X1869386Y3400824D01*
X1867244Y3392254D01*
X1869386Y3400824D02*
Y3411536D01*
X1867244Y3422248D01*
X1862959Y3428675D01*
X1856532Y3430817D01*
X1852247D01*
X1845820Y3428675D01*
X1843677Y3424390D01*
X1829537Y3422248D02*
X1831680Y3411536D01*
Y3405108D01*
X1829537Y3394396D01*
X1825253Y3387969D01*
X1818825Y3385827D01*
X1814541D01*
X1808113Y3387969D01*
X1803829Y3394396D01*
X1801686Y3405108D01*
Y3411536D01*
X1803829Y3422248D01*
X1808113Y3428675D01*
X1814541Y3430817D01*
X1818825D01*
X1825253Y3428675D01*
X1829537Y3422248D01*
X1835000Y3385000D02*
X1800000D01*
Y3325000D01*
X1835000D01*
X1775000Y3330000D02*
Y3365000D01*
Y3330000D02*
X1715000D01*
Y3365000D01*
X1692913Y3273337D02*
Y3228347D01*
X1677917D01*
X1671489Y3230489D01*
X1667205Y3234774D01*
X1665062Y3239059D01*
X1662920Y3245486D01*
Y3256198D01*
X1665062Y3262625D01*
X1667205Y3266910D01*
X1671489Y3271195D01*
X1677917Y3273337D01*
X1692913D01*
X1715000Y3410000D02*
Y3450000D01*
X1775000D01*
Y3415000D01*
Y3465000D02*
Y3509990D01*
X1755718D01*
X1749291Y3507848D01*
X1747149Y3505706D01*
X1745006Y3501421D01*
Y3497136D01*
X1747149Y3492851D01*
X1749291Y3490709D01*
X1755718Y3488566D01*
X1775000D01*
X1760003D02*
X1745006Y3465000D01*
X1724225D02*
Y3509990D01*
X1730652Y3503563D01*
X1734937Y3501421D01*
X1699802Y3503563D02*
Y3499278D01*
X1697659Y3494994D01*
X1693375Y3492851D01*
X1684805Y3490709D01*
X1678378Y3488566D01*
X1674093Y3484282D01*
X1671951Y3479997D01*
Y3473570D01*
X1674093Y3469285D01*
X1676236Y3467142D01*
X1682663Y3465000D01*
X1691232D01*
X1697659Y3467142D01*
X1699802Y3469285D01*
X1701944Y3473570D01*
Y3479997D01*
X1699802Y3484282D01*
X1695517Y3488566D01*
X1689090Y3490709D01*
X1680520Y3492851D01*
X1676236Y3494994D01*
X1674093Y3499278D01*
Y3503563D01*
X1676236Y3507848D01*
X1682663Y3509990D01*
X1691232D01*
X1697659Y3507848D01*
X1699802Y3503563D01*
X1652851Y3273337D02*
X1622857D01*
X1652851Y3228347D01*
X1622857D01*
X1612788D02*
X1582794D01*
X1591364Y3249771D02*
X1612788Y3228347D01*
X1610645Y3262625D02*
Y3264767D01*
X1608503Y3269052D01*
X1606361Y3271195D01*
X1602076Y3273337D01*
X1593506D01*
X1589221Y3271195D01*
X1587079Y3269052D01*
X1584937Y3264767D01*
Y3260483D01*
X1587079Y3256198D01*
X1591364Y3249771D01*
X2037693Y3726900D02*
X2041977Y3722615D01*
X2048405Y3720472D01*
X2054832D01*
X2061259Y3722615D01*
X2063401Y3724757D01*
X2065544Y3729042D01*
X2073470Y3735469D02*
X2105606D01*
X2084182Y3765463D01*
Y3720472D01*
X2115676D02*
X2130673Y3744039D01*
X2126388D02*
X2145669D01*
Y3765463D02*
Y3720472D01*
Y3765463D02*
X2126388D01*
X2119961Y3763320D01*
X2117818Y3761178D01*
X2115676Y3756893D01*
Y3752608D01*
X2117818Y3748324D01*
X2119961Y3746181D01*
X2126388Y3744039D01*
X2063401Y3746181D02*
X2061259Y3748324D01*
X2054832Y3750466D01*
X2048405D01*
X2041977Y3748324D01*
X2037693Y3744039D01*
X2035550Y3737612D01*
Y3733327D01*
X2037693Y3726900D01*
X2039835Y3765463D02*
X2061259D01*
X2063401Y3746181D01*
X2153513Y3895000D02*
Y3939990D01*
X2174937Y3909997D01*
X2142801D01*
X2187149Y3922851D02*
X2189291Y3920709D01*
X2195718Y3918566D01*
X2215000D01*
X2200003D02*
X2185006Y3895000D01*
X2215000D02*
Y3939990D01*
X2195718D01*
X2189291Y3937848D01*
X2187149Y3935706D01*
X2185006Y3931421D01*
Y3927136D01*
X2187149Y3922851D01*
X2105000Y3995000D02*
Y4035000D01*
Y3995000D02*
X2045000D01*
Y4030000D01*
Y4080000D02*
Y4115000D01*
X2105000D01*
Y4080000D01*
X2110006Y4130000D02*
X2125003Y4153566D01*
X2120718D02*
X2140000D01*
X2120718D02*
X2114291Y4155709D01*
X2112149Y4157851D01*
X2110006Y4162136D01*
Y4166421D01*
X2112149Y4170706D01*
X2114291Y4172848D01*
X2120718Y4174990D01*
X2140000D01*
Y4130000D01*
X2078513D02*
Y4174990D01*
X2099937Y4144997D01*
X2067801D01*
X2059874Y4174990D02*
X2029881D01*
X2051305Y4130000D01*
X2050000Y3950000D02*
X2090000D01*
Y3890000D01*
X2055000D01*
X2005000D02*
X1970000D01*
Y3950000D01*
X2005000D01*
X2109166Y3937848D02*
X2115593Y3939990D01*
X2124162D01*
X2130590Y3937848D01*
X2132732Y3933563D01*
Y3929278D01*
X2130590Y3924994D01*
X2126305Y3922851D01*
X2117735Y3920709D01*
X2111308Y3918566D01*
X2107023Y3914282D01*
X2104881Y3909997D01*
Y3903570D01*
X2107023Y3899285D01*
X2109166Y3897142D01*
X2115593Y3895000D01*
X2124162D01*
X2130590Y3897142D01*
X2132732Y3899285D01*
X2134874Y3903570D01*
Y3909997D01*
X2132732Y3914282D01*
X2128447Y3918566D01*
X2122020Y3920709D01*
X2113450Y3922851D01*
X2109166Y3924994D01*
X2107023Y3929278D01*
Y3933563D01*
X2109166Y3937848D01*
X1890000Y3784990D02*
X1860006D01*
X1852508Y3778563D02*
X1848223Y3782848D01*
X1841796Y3784990D01*
X1839654D01*
X1833226Y3782848D01*
X1828942Y3778563D01*
X1826799Y3769994D01*
X1828942Y3763566D01*
X1833226Y3759282D01*
X1839654Y3757139D01*
X1841796D01*
X1848223Y3759282D01*
X1852508Y3763566D01*
X1854650Y3769994D01*
Y3772136D01*
X1852508Y3778563D01*
X1875003Y3784990D02*
Y3740000D01*
X1850366Y3742142D02*
X1852508Y3746427D01*
X1850366Y3742142D02*
X1843938Y3740000D01*
X1839654D01*
X1833226Y3742142D01*
X1828942Y3748570D01*
X1826799Y3759282D01*
Y3769994D01*
X1530500Y3847490D02*
Y3802500D01*
X1515503D01*
X1509076Y3804642D01*
X1504791Y3808927D01*
X1502649Y3813212D01*
X1500506Y3819639D01*
Y3830351D01*
X1502649Y3836778D01*
X1504791Y3841063D01*
X1509076Y3845348D01*
X1515503Y3847490D01*
X1530500D01*
X1490437Y3838921D02*
X1486152Y3841063D01*
X1479725Y3847490D01*
Y3802500D01*
X1457444Y3817497D02*
X1425308D01*
X1436020Y3802500D02*
Y3847490D01*
X1457444Y3817497D01*
X1839515Y4158570D02*
X1835230Y4152142D01*
X1828803Y4150000D01*
X1824518D01*
X1818091Y4152142D01*
X1813806Y4158570D01*
X1811664Y4169282D01*
Y4175709D01*
X1813806Y4186421D01*
X1818091Y4192848D01*
X1824518Y4194990D01*
X1828803D01*
X1835230Y4192848D01*
X1839515Y4186421D01*
X1841658Y4175709D01*
Y4169282D01*
X1839515Y4158570D01*
X1863938Y4150000D02*
Y4194990D01*
X1870366Y4188563D01*
X1874650Y4186421D01*
X1880006Y4194990D02*
X1910000D01*
X1895003D02*
Y4150000D01*
X1880000Y4340000D02*
Y4380000D01*
X1897373Y4396427D02*
X1901658Y4392142D01*
X1908085Y4390000D01*
X1914512D01*
X1920939Y4392142D01*
X1923082Y4394285D01*
X1925224Y4398570D01*
X1937864Y4400712D02*
X1940006Y4396427D01*
X1944291Y4392142D01*
X1948576Y4390000D01*
X1957146D01*
X1961430Y4392142D01*
X1965715Y4396427D01*
X1967858Y4400712D01*
X1970000Y4407139D01*
Y4417851D01*
X1967858Y4424278D01*
X1965715Y4428563D01*
X1961430Y4432848D01*
X1957146Y4434990D01*
X1948576D01*
X1944291Y4432848D01*
X1940006Y4428563D01*
X1937864Y4424278D01*
X1920939Y4434990D02*
X1897373D01*
X1910227Y4417851D01*
X1903800D01*
X1899515Y4415709D01*
X1897373Y4413566D01*
X1895230Y4407139D01*
Y4402854D01*
X1897373Y4396427D01*
X1880000Y4425000D02*
Y4460000D01*
X1820000D01*
Y4425000D01*
Y4375000D02*
Y4340000D01*
X1880000D01*
X2188800Y4400000D02*
Y4444990D01*
X2210224Y4414997D01*
X2178088D01*
X2222864Y4410712D02*
X2225006Y4406427D01*
X2229291Y4402142D01*
X2233576Y4400000D01*
X2242146D01*
X2246430Y4402142D01*
X2250715Y4406427D01*
X2252858Y4410712D01*
X2255000Y4417139D01*
Y4427851D01*
X2252858Y4434278D01*
X2250715Y4438563D01*
X2246430Y4442848D01*
X2242146Y4444990D01*
X2233576D01*
X2229291Y4442848D01*
X2225006Y4438563D01*
X2222864Y4434278D01*
X2270000Y4425000D02*
Y4460000D01*
X2330000D01*
Y4425000D01*
Y4380000D02*
Y4340000D01*
X2270000D01*
Y4375000D01*
X2575830Y4588757D02*
X2571545Y4595184D01*
X2569403Y4605896D01*
Y4612323D01*
X2571545Y4623035D01*
X2575830Y4629462D01*
X2582257Y4631605D01*
X2586542D01*
X2592969Y4629462D01*
X2597254Y4623035D01*
X2599396Y4612323D01*
Y4605896D01*
X2597254Y4595184D01*
X2592969Y4588757D01*
X2586542Y4586614D01*
X2582257D01*
X2575830Y4588757D01*
X2621677Y4586614D02*
Y4631605D01*
X2628104Y4625177D01*
X2632389Y4623035D01*
X2645029Y4620893D02*
X2647172Y4625177D01*
X2651457Y4629462D01*
X2655741Y4631605D01*
X2664311D01*
X2668596Y4629462D01*
X2672881Y4625177D01*
X2675023Y4620893D01*
X2677165Y4614465D01*
Y4603753D01*
X2675023Y4597326D01*
X2672881Y4593041D01*
X2668596Y4588757D01*
X2664311Y4586614D01*
X2655741D01*
X2651457Y4588757D01*
X2647172Y4593041D01*
X2645029Y4597326D01*
X2690000Y4655000D02*
X2740000D01*
Y4745000D01*
X2690000D01*
X2845000Y4740000D02*
X2895000D01*
X2845000D02*
Y4650000D01*
X2895000D01*
X2906191Y4601611D02*
X2908333Y4608038D01*
X2912618Y4612323D01*
X2919045Y4614465D01*
X2921188D01*
X2927615Y4612323D01*
X2931900Y4608038D01*
X2934042Y4601611D01*
X2931900Y4593041D01*
X2927615Y4588757D01*
X2921188Y4586614D01*
X2919045D01*
X2912618Y4588757D01*
X2908333Y4593041D01*
X2906191Y4599469D01*
Y4601611D01*
X2956323Y4586614D02*
Y4631605D01*
X2962750Y4625177D01*
X2967035Y4623035D01*
X2979675Y4620893D02*
X2981817Y4625177D01*
X2986102Y4629462D01*
X2990387Y4631605D01*
X2998957D01*
X3003241Y4629462D01*
X3007526Y4625177D01*
X3009669Y4620893D01*
X3011811Y4614465D01*
Y4603753D01*
X3009669Y4597326D01*
X3007526Y4593041D01*
X3003241Y4588757D01*
X2998957Y4586614D01*
X2990387D01*
X2986102Y4588757D01*
X2981817Y4593041D01*
X2979675Y4597326D01*
X2934042Y4601611D02*
Y4612323D01*
X2931900Y4623035D01*
X2927615Y4629462D01*
X2921188Y4631605D01*
X2916903D01*
X2910476Y4629462D01*
X2908333Y4625177D01*
X2995000Y4650000D02*
X3045000D01*
Y4740000D01*
X2995000D01*
X3075000Y4555000D02*
Y4520000D01*
X3135000D01*
Y4560000D01*
X3140747Y4559695D02*
X3142890Y4555410D01*
X3147175Y4548983D01*
X3168599Y4527559D01*
X3138605D01*
X3140747Y4559695D02*
Y4563980D01*
X3142890Y4568265D01*
X3145032Y4570407D01*
X3149317Y4572550D01*
X3157887D01*
X3162171Y4570407D01*
X3164314Y4568265D01*
X3166456Y4563980D01*
Y4561837D01*
X3178668Y4563980D02*
Y4559695D01*
X3180810Y4555410D01*
X3182953Y4553268D01*
X3189380Y4551126D01*
X3208661D01*
X3193665D02*
X3178668Y4527559D01*
X3208661D02*
Y4572550D01*
X3189380D01*
X3182953Y4570407D01*
X3180810Y4568265D01*
X3178668Y4563980D01*
X3185000Y4435000D02*
X3150000D01*
Y4375000D01*
X3185000D01*
X3180590Y4350706D02*
X3178447Y4352848D01*
X3174162Y4354990D01*
X3165593D01*
X3161308Y4352848D01*
X3159166Y4350706D01*
X3157023Y4346421D01*
Y4342136D01*
X3159166Y4337851D01*
X3163450Y4331424D01*
X3184874Y4310000D01*
X3154881D01*
X3129921Y4311024D02*
Y4356014D01*
X3110640D01*
X3104213Y4353872D01*
X3102070Y4351729D01*
X3099928Y4347444D01*
Y4343160D01*
X3102070Y4338875D01*
X3104213Y4336732D01*
X3110640Y4334590D01*
X3129921D01*
X3114925D02*
X3099928Y4311024D01*
X3085574Y4313166D02*
X3087716Y4315308D01*
X3089858Y4319593D01*
X3085574Y4313166D02*
X3079146Y4311024D01*
X3072719D01*
X3066292Y4313166D01*
X3062007Y4317451D01*
X3059865Y4323878D01*
Y4328163D01*
X3062007Y4334590D01*
X3066292Y4338875D01*
X3072719Y4341017D01*
X3079146D01*
X3085574Y4338875D01*
X3087716Y4336732D01*
X3085574Y4356014D01*
X3064150D01*
X3105000Y4375000D02*
X3140000D01*
Y4435000D01*
X3100000D01*
X3180590Y4350706D02*
X3182732Y4346421D01*
Y4344278D01*
X3201371Y4337851D02*
X3197086Y4333566D01*
X3194944Y4327139D01*
Y4322854D01*
X3197086Y4316427D01*
X3201371Y4312142D01*
X3207798Y4310000D01*
X3214225D01*
X3220652Y4312142D01*
X3222795Y4314285D01*
X3224937Y4318570D01*
X3235006Y4310000D02*
X3250003Y4333566D01*
X3245718D02*
X3265000D01*
X3245718D02*
X3239291Y4335709D01*
X3237149Y4337851D01*
X3235006Y4342136D01*
Y4346421D01*
X3237149Y4350706D01*
X3239291Y4352848D01*
X3245718Y4354990D01*
X3265000D01*
Y4310000D01*
X3297535Y4310620D02*
X3299677Y4299908D01*
X3303962Y4293481D01*
X3310389Y4291339D01*
X3314674D01*
X3321101Y4293481D01*
X3323244Y4297766D01*
X3318959Y4310620D02*
X3323244Y4314905D01*
X3325386Y4321332D01*
Y4323475D01*
X3323244Y4329902D01*
X3318959Y4334187D01*
X3312532Y4336329D01*
X3310389D01*
X3303962Y4334187D01*
X3299677Y4329902D01*
X3297535Y4321332D01*
X3299677Y4314905D01*
X3303962Y4310620D01*
X3310389Y4308478D01*
X3312532D01*
X3318959Y4310620D01*
X3333313Y4306335D02*
X3365449D01*
X3344025Y4336329D01*
Y4291339D01*
X3297535Y4310620D02*
Y4321332D01*
X3285000Y4375000D02*
Y4435000D01*
X3320000D01*
X3270000D02*
Y4375000D01*
X3235000D01*
X3220652Y4354990D02*
X3222795Y4335709D01*
X3220652Y4337851D01*
X3214225Y4339994D01*
X3207798D01*
X3201371Y4337851D01*
X3199228Y4354990D02*
X3220652D01*
X3285000Y4375000D02*
X3325000D01*
X3270000Y4435000D02*
X3230000D01*
X3370000D02*
X3405000D01*
Y4375000D01*
X3370000D01*
X3379803Y4334187D02*
X3377661Y4332044D01*
X3375518Y4327759D01*
Y4323475D01*
X3377661Y4319190D01*
X3379803Y4317047D01*
X3386230Y4314905D01*
X3405512D01*
X3390515D02*
X3375518Y4291339D01*
X3405512D02*
Y4336329D01*
X3386230D01*
X3379803Y4334187D01*
X3420000Y4345000D02*
Y4395000D01*
Y4345000D02*
X3510000D01*
Y4395000D01*
X3536162Y4490331D02*
X3542589Y4488189D01*
X3546874D01*
X3553301Y4490331D01*
X3555444Y4494616D01*
X3572369D02*
X3570226Y4498901D01*
X3572369Y4494616D02*
X3576653Y4490331D01*
X3580938Y4488189D01*
X3589508D01*
X3593793Y4490331D01*
X3598077Y4494616D01*
X3600220Y4498901D01*
X3602362Y4505328D01*
Y4516040D01*
X3600220Y4522467D01*
X3598077Y4526752D01*
X3593793Y4531037D01*
X3589508Y4533179D01*
X3580938D01*
X3576653Y4531037D01*
X3572369Y4526752D01*
X3570226Y4522467D01*
X3557586Y4520325D02*
X3555444Y4526752D01*
X3551159Y4531037D01*
X3544732Y4533179D01*
X3542589D01*
X3536162Y4531037D01*
X3531877Y4526752D01*
X3529735Y4518183D01*
X3531877Y4511755D01*
X3536162Y4507471D01*
X3542589Y4505328D01*
X3544732D01*
X3551159Y4507471D01*
X3555444Y4511755D01*
X3557586Y4518183D01*
Y4520325D01*
X3529735Y4518183D02*
Y4507471D01*
X3531877Y4496759D01*
X3536162Y4490331D01*
X3546874Y4566929D02*
Y4611919D01*
X3553301Y4605492D01*
X3557586Y4603350D01*
X3570226Y4601208D02*
X3572369Y4605492D01*
X3576653Y4609777D01*
X3580938Y4611919D01*
X3589508D01*
X3593793Y4609777D01*
X3598077Y4605492D01*
X3600220Y4601208D01*
X3602362Y4594780D01*
Y4584068D01*
X3600220Y4577641D01*
X3598077Y4573356D01*
X3593793Y4569072D01*
X3589508Y4566929D01*
X3580938D01*
X3576653Y4569072D01*
X3572369Y4573356D01*
X3570226Y4577641D01*
X3524593Y4575499D02*
Y4581926D01*
X3522451Y4586211D01*
X3518166Y4590495D01*
X3511739Y4592638D01*
X3503169Y4594780D01*
X3498884Y4596923D01*
X3496742Y4601208D01*
Y4605492D01*
X3498884Y4609777D01*
X3505312Y4611919D01*
X3513881D01*
X3520308Y4609777D01*
X3522451Y4605492D01*
Y4601208D01*
X3520308Y4596923D01*
X3516024Y4594780D01*
X3507454Y4592638D01*
X3501027Y4590495D01*
X3496742Y4586211D01*
X3494600Y4581926D01*
Y4575499D01*
X3496742Y4571214D01*
X3498884Y4569072D01*
X3505312Y4566929D01*
X3513881D01*
X3520308Y4569072D01*
X3522451Y4571214D01*
X3524593Y4575499D01*
X3735000Y4400000D02*
X3785000D01*
X3790354Y4413734D02*
X3792496Y4411591D01*
X3798923Y4409449D01*
X3807493D01*
X3813920Y4411591D01*
X3816062Y4413734D01*
X3818205Y4418018D01*
Y4424446D01*
X3816062Y4428730D01*
X3811778Y4433015D01*
X3805351Y4435158D01*
X3796781Y4437300D01*
X3792496Y4439442D01*
X3790354Y4443727D01*
Y4448012D01*
X3792496Y4452297D01*
X3798923Y4454439D01*
X3807493D01*
X3813920Y4452297D01*
X3816062Y4448012D01*
Y4443727D01*
X3813920Y4439442D01*
X3809635Y4437300D01*
X3801066Y4435158D01*
X3794639Y4433015D01*
X3790354Y4428730D01*
X3788211Y4424446D01*
Y4418018D01*
X3790354Y4413734D01*
X3735000Y4400000D02*
Y4310000D01*
X3785000D01*
X3779000Y4660000D02*
X3729000D01*
Y4750000D01*
X3779000D01*
X3711903Y4727887D02*
X3716188Y4723603D01*
X3718330Y4719318D01*
X3720472Y4712891D01*
Y4702179D01*
X3718330Y4695751D01*
X3716188Y4691467D01*
X3711903Y4687182D01*
X3707618Y4685039D01*
X3699048D01*
X3694764Y4687182D01*
X3690479Y4691467D01*
X3688336Y4695751D01*
X3675696Y4693609D02*
Y4700036D01*
X3673554Y4704321D01*
X3669269Y4708606D01*
X3662842Y4710748D01*
X3654272Y4712891D01*
X3649988Y4715033D01*
X3647845Y4719318D01*
Y4723603D01*
X3649988Y4727887D01*
X3656415Y4730030D01*
X3664984D01*
X3671412Y4727887D01*
X3673554Y4723603D01*
Y4719318D01*
X3671412Y4715033D01*
X3667127Y4712891D01*
X3658557Y4710748D01*
X3652130Y4708606D01*
X3647845Y4704321D01*
X3645703Y4700036D01*
Y4693609D01*
X3647845Y4689324D01*
X3649988Y4687182D01*
X3656415Y4685039D01*
X3664984D01*
X3671412Y4687182D01*
X3673554Y4689324D01*
X3675696Y4693609D01*
X3688336Y4719318D02*
X3690479Y4723603D01*
X3694764Y4727887D01*
X3699048Y4730030D01*
X3707618D01*
X3711903Y4727887D01*
X3879000Y4750000D02*
X3929000D01*
X3530000Y4897851D02*
Y4887139D01*
X3527858Y4880712D01*
X3525715Y4876427D01*
X3521430Y4872142D01*
X3517146Y4870000D01*
X3508576D01*
X3504291Y4872142D01*
X3500006Y4876427D01*
X3497864Y4880712D01*
X3474512Y4870000D02*
Y4914990D01*
X3480939Y4908563D01*
X3485224Y4906421D01*
X3497864Y4904278D02*
X3500006Y4908563D01*
X3504291Y4912848D01*
X3508576Y4914990D01*
X3517146D01*
X3521430Y4912848D01*
X3525715Y4908563D01*
X3527858Y4904278D01*
X3530000Y4897851D01*
X3447946D02*
X3441519Y4899994D01*
X3435092D01*
X3428665Y4897851D01*
X3424380Y4893566D01*
X3422237Y4887139D01*
Y4882854D01*
X3424380Y4876427D01*
X3428665Y4872142D01*
X3435092Y4870000D01*
X3441519D01*
X3447946Y4872142D01*
X3450089Y4874285D01*
X3452231Y4878570D01*
X3450089Y4895709D02*
X3447946Y4897851D01*
Y4914990D02*
X3450089Y4895709D01*
X3485000Y4850000D02*
X3395000D01*
Y4800000D01*
X3380000D02*
Y4850000D01*
X3290000D01*
Y4800000D01*
X3314225Y4865000D02*
Y4909990D01*
X3320652Y4903563D01*
X3324937Y4901421D01*
X3335006D02*
Y4897136D01*
X3337149Y4892851D01*
X3339291Y4890709D01*
X3345718Y4888566D01*
X3365000D01*
X3350003D02*
X3335006Y4865000D01*
X3365000D02*
Y4909990D01*
X3345718D01*
X3339291Y4907848D01*
X3337149Y4905706D01*
X3335006Y4901421D01*
X3485000Y4850000D02*
Y4800000D01*
Y4700000D02*
Y4650000D01*
X3395000D01*
Y4700000D01*
X3380000D02*
Y4650000D01*
X3290000D01*
X3340000D01*
X3290000D02*
Y4700000D01*
Y4650000D02*
Y4560000D01*
X3340000D01*
X3420000Y4545000D02*
X3510000D01*
Y4495000D01*
X3490000Y4560000D02*
Y4650000D01*
X3440000D01*
Y4560000D02*
X3490000D01*
X3420000Y4545000D02*
Y4495000D01*
X3243747Y4612726D02*
X3239462Y4608442D01*
X3235177Y4606299D01*
X3226608D01*
X3222323Y4608442D01*
X3218038Y4612726D01*
X3215896Y4617011D01*
Y4640578D02*
X3218038Y4644862D01*
X3222323Y4649147D01*
X3226608Y4651290D01*
X3235177D01*
X3239462Y4649147D01*
X3243747Y4644862D01*
X3245889Y4640578D01*
X3248032Y4634150D01*
Y4623438D01*
X3245889Y4617011D01*
X3243747Y4612726D01*
X3260000Y4650000D02*
Y4740000D01*
X3210000D01*
Y4650000D02*
X3260000D01*
X3203255Y4642720D02*
X3198971Y4644862D01*
X3192543Y4651290D01*
Y4606299D01*
X3159550D02*
Y4651290D01*
X3165978Y4644862D01*
X3170262Y4642720D01*
X3135000Y4640000D02*
Y4605000D01*
Y4640000D02*
X3075000D01*
Y4605000D01*
X3060000Y4650000D02*
Y4740000D01*
X3110000D01*
Y4650000D02*
X3060000D01*
X3055000Y4435000D02*
X3020000D01*
Y4375000D01*
X3055000D01*
X3049796Y4347444D02*
X3045511Y4349587D01*
X3039084Y4356014D01*
Y4311024D01*
X3010000Y4315000D02*
Y4359990D01*
X2990718D01*
X2984291Y4357848D01*
X2982149Y4355706D01*
X2980006Y4351421D01*
Y4347136D01*
X2982149Y4342851D01*
X2984291Y4340709D01*
X2990718Y4338566D01*
X3010000D01*
X2995003D02*
X2980006Y4315000D01*
X2965652Y4317142D02*
X2967795Y4319285D01*
X2969937Y4323570D01*
X2965652Y4317142D02*
X2959225Y4315000D01*
X2952798D01*
X2946371Y4317142D01*
X2942086Y4321427D01*
X2939944Y4327854D01*
Y4332139D01*
X2942086Y4338566D01*
X2946371Y4342851D01*
X2952798Y4344994D01*
X2959225D01*
X2965652Y4342851D01*
X2967795Y4340709D01*
X2965652Y4359990D01*
X2944228D01*
X2923447Y4357848D02*
X2927732Y4351421D01*
X2929874Y4340709D01*
Y4334282D01*
X2927732Y4323570D01*
X2923447Y4317142D01*
X2917020Y4315000D01*
X2912735D01*
X2906308Y4317142D01*
X2902023Y4323570D01*
X2899881Y4334282D01*
Y4340709D01*
X2902023Y4351421D01*
X2906308Y4357848D01*
X2912735Y4359990D01*
X2917020D01*
X2923447Y4357848D01*
X2930000Y4375000D02*
X2895000D01*
Y4435000D01*
X2930000D01*
X2975000D02*
X3015000D01*
Y4375000D01*
X2980000D01*
X2590000Y4745000D02*
X2540000D01*
Y4655000D01*
X2590000D01*
X2375000Y4835000D02*
Y4879990D01*
X2360003D01*
X2353576Y4877848D01*
X2349291Y4873563D01*
X2347149Y4869278D01*
X2345006Y4862851D01*
Y4852139D01*
X2347149Y4845712D01*
X2349291Y4841427D01*
X2353576Y4837142D01*
X2360003Y4835000D01*
X2375000D01*
X2324225D02*
Y4879990D01*
X2330652Y4873563D01*
X2334937Y4871421D01*
X1515500Y4247490D02*
Y4202500D01*
X1500503D01*
X1494076Y4204642D01*
X1489791Y4208927D01*
X1487649Y4213212D01*
X1485506Y4219639D01*
Y4230351D01*
X1487649Y4236778D01*
X1489791Y4241063D01*
X1494076Y4245348D01*
X1500503Y4247490D01*
X1515500D01*
X1475437Y4238921D02*
X1471152Y4241063D01*
X1464725Y4247490D01*
Y4202500D01*
X1438159Y4204642D02*
X1440302Y4206785D01*
X1442444Y4211070D01*
X1438159Y4204642D02*
X1431732Y4202500D01*
X1425305D01*
X1418878Y4204642D01*
X1414593Y4208927D01*
X1412451Y4215354D01*
Y4219639D01*
X1414593Y4226066D01*
X1418878Y4230351D01*
X1425305Y4232494D01*
X1431732D01*
X1438159Y4230351D01*
X1440302Y4228209D01*
X1438159Y4247490D01*
X1416736D01*
X2768450Y3192848D02*
X2764166Y3188563D01*
X2762023Y3179994D01*
X2764166Y3173566D01*
X2768450Y3169282D01*
X2774878Y3167139D01*
X2777020D01*
X2783447Y3169282D01*
X2787732Y3173566D01*
X2789874Y3179994D01*
Y3182136D01*
X2787732Y3188563D01*
X2783447Y3192848D01*
X2777020Y3194990D01*
X2774878D01*
X2768450Y3192848D01*
X2762023Y3179994D02*
Y3169282D01*
X2764166Y3158570D01*
X2768450Y3152142D01*
X2774878Y3150000D01*
X2779162D01*
X2785590Y3152142D01*
X2787732Y3156427D01*
X2799944Y3150000D02*
X2829937D01*
X2808513Y3171424D01*
X2804228Y3177851D01*
X2802086Y3182136D01*
Y3186421D01*
X2804228Y3190706D01*
X2806371Y3192848D01*
X2810656Y3194990D01*
X2819225D01*
X2823510Y3192848D01*
X2825652Y3190706D01*
X2827795Y3186421D01*
Y3184278D01*
X2840006Y3186421D02*
Y3182136D01*
X2842149Y3177851D01*
X2844291Y3175709D01*
X2850718Y3173566D01*
X2870000D01*
X2855003D02*
X2840006Y3150000D01*
X2850000Y3145000D02*
X2885000D01*
Y3085000D01*
X2850000D01*
X2805000D02*
X2765000D01*
Y3145000D01*
X2800000D01*
X2870000Y3150000D02*
Y3194990D01*
X2850718D01*
X2844291Y3192848D01*
X2842149Y3190706D01*
X2840006Y3186421D01*
X3465000Y3560000D02*
X3509990D01*
Y3579282D01*
X3507848Y3585709D01*
X3505706Y3587851D01*
X3501421Y3589994D01*
X3497136D01*
X3492851Y3587851D01*
X3490709Y3585709D01*
X3488566Y3579282D01*
Y3560000D01*
Y3574997D02*
X3465000Y3589994D01*
Y3610775D02*
X3509990D01*
X3503563Y3604348D01*
X3501421Y3600063D01*
X3479997Y3633056D02*
Y3665192D01*
X3465000Y3654480D02*
X3509990D01*
X3479997Y3633056D01*
X4303614Y4349587D02*
X4305757Y4353872D01*
X4312184Y4356014D01*
X4316469D01*
X4421020Y4375000D02*
X4456020D01*
X4467118Y4356014D02*
X4437125D01*
X4458549Y4311024D01*
X4479330Y4317451D02*
X4483615Y4313166D01*
X4490042Y4311024D01*
X4496469D01*
X4502896Y4313166D01*
X4505039Y4315308D01*
X4507181Y4319593D01*
X4517251Y4311024D02*
X4532247Y4334590D01*
X4527962D02*
X4547244D01*
X4527962D02*
X4521535Y4336732D01*
X4519393Y4338875D01*
X4517251Y4343160D01*
Y4347444D01*
X4519393Y4351729D01*
X4521535Y4353872D01*
X4527962Y4356014D01*
X4547244D01*
Y4311024D01*
X4505039Y4336732D02*
X4502896Y4338875D01*
X4496469Y4341017D01*
X4490042D01*
X4483615Y4338875D01*
X4479330Y4334590D01*
X4477188Y4328163D01*
Y4323878D01*
X4479330Y4317451D01*
X4481472Y4356014D02*
X4502896D01*
X4505039Y4336732D01*
X4506020Y4375000D02*
X4541020D01*
Y4435000D01*
X4501020D01*
X4456020D02*
X4421020D01*
Y4375000D01*
X4580000Y4453010D02*
X4630000D01*
X4580000D02*
Y4543010D01*
X3447946Y4914990D02*
X3426522D01*
D96*
X2035433Y2685630D02*
X2068898D01*
Y2662008D01*
X1980315Y2685630D02*
X1946850D01*
Y2662008D01*
X1940354Y3049213D02*
Y3082677D01*
Y3137795D02*
Y3171260D01*
X1963976D01*
Y3049213D02*
X1940354D01*
D97*
X2181220Y1982126D02*
Y1997874D01*
X2208780D02*
Y1982126D01*
X2209764Y2050039D02*
X2180236D01*
X2891220Y1982126D02*
Y1997874D01*
X2890236Y2050039D02*
X2919764D01*
X2918780Y1997874D02*
Y1982126D01*
X2981220D02*
Y1997874D01*
X3008780D02*
Y1982126D01*
X3009764Y2050039D02*
X2980236D01*
X3699449Y1959055D02*
X3880551D01*
Y1948228D01*
Y1851772D02*
Y1840945D01*
X3699449D01*
Y1851772D01*
Y1948228D02*
Y1959055D01*
X4099449D02*
X4280551D01*
Y1948228D01*
Y1851772D02*
Y1840945D01*
X4099449D01*
Y1851772D01*
Y1948228D02*
Y1959055D01*
X4719449Y2565945D02*
Y2576772D01*
Y2565945D02*
X4900551D01*
Y2576772D01*
Y2673228D02*
Y2684055D01*
X4719449D01*
Y2673228D01*
X4587165Y2801457D02*
X4482835D01*
Y2608543D01*
X4587165D01*
Y2801457D01*
X4183898Y2825551D02*
Y2644449D01*
X3890591D01*
Y2825551D01*
X4183898D01*
X3601457Y3295905D02*
Y3191575D01*
X3408543D01*
Y3295905D01*
X3601457D01*
X3873514Y3534449D02*
Y3715551D01*
X4166821D01*
Y3534449D01*
X3873514D01*
X4476338Y3548543D02*
Y3741457D01*
X4580669D01*
Y3548543D01*
X4476338D01*
X4719616Y3551772D02*
Y3540945D01*
X4900719D01*
Y3551772D01*
Y3648228D02*
Y3659055D01*
X4719616D01*
Y3648228D01*
X2440551Y4798228D02*
Y4809055D01*
X2259449D01*
Y4798228D01*
Y4701772D02*
Y4690945D01*
X2440551D01*
Y4701772D01*
X1514055Y4140551D02*
Y3959449D01*
X1503228D01*
X1406772D02*
X1395945D01*
Y4140551D01*
X1406772D01*
X1503228D02*
X1514055D01*
X1518228Y3740551D02*
X1529055D01*
Y3559449D01*
X1518228D01*
X1421772D02*
X1410945D01*
Y3740551D01*
X1421772D01*
D98*
X2295709Y2905197D02*
Y3054803D01*
X2134291D01*
Y2905197D01*
X2295709D01*
Y3175197D02*
Y3324803D01*
X2134291D01*
Y3175197D01*
X2295709D01*
X1945709Y3570197D02*
Y3719803D01*
X1784291D01*
Y3570197D01*
X1945709D01*
Y3975197D02*
Y4124803D01*
X1784291D01*
Y3975197D01*
X1945709D01*
X3271653Y3348425D02*
X3277559D01*
X3271653D02*
Y3462598D01*
X3277559D01*
X3336614D02*
X3342520D01*
Y3348425D01*
X3336614D01*
X3487913Y2810433D02*
X3602087D01*
Y2804528D01*
Y2745472D02*
Y2739567D01*
X3487913D01*
Y2745472D01*
Y2804528D02*
Y2810433D01*
X3715197Y2430709D02*
X3864803D01*
Y2269291D01*
X3715197D01*
Y2430709D01*
X4115197Y2269291D02*
X4264803D01*
Y2430709D01*
X4115197D01*
Y2269291D01*
%TF.MD5,c03aa6a6de1d146647bdfa6fe32eb377*%
M02*
