G04 Layer_Physical_Order=1*
G04 Layer_Color=255*
%FSLAX26Y26*%
%MOIN*%
%TF.FileFunction,Copper,L1,Top,Signal*%
%TF.Part,Single*%
G01*
G75*
%TA.AperFunction,SMDPad,CuDef*%
%ADD10R,0.060000X0.040000*%
%TA.AperFunction,Conductor*%
%ADD11C,0.050000*%
%ADD12C,0.015000*%
%ADD13C,0.020000*%
%ADD14C,0.150000*%
%ADD15C,0.120000*%
%ADD16C,0.030000*%
%ADD17C,0.200000*%
%ADD18C,0.180000*%
%ADD19C,0.010000*%
%TA.AperFunction,ComponentPad*%
%ADD20C,0.078740*%
%ADD21C,0.051181*%
G04:AMPARAMS|DCode=22|XSize=51.181mil|YSize=51.181mil|CornerRadius=0mil|HoleSize=0mil|Usage=FLASHONLY|Rotation=270.000|XOffset=0mil|YOffset=0mil|HoleType=Round|Shape=Octagon|*
%AMOCTAGOND22*
4,1,8,-0.012795,-0.025591,0.012795,-0.025591,0.025591,-0.012795,0.025591,0.012795,0.012795,0.025591,-0.012795,0.025591,-0.025591,0.012795,-0.025591,-0.012795,-0.012795,-0.025591,0.0*
%
%ADD22OCTAGOND22*%

%ADD23C,0.090551*%
%ADD24C,0.070866*%
%ADD25C,0.060000*%
G04:AMPARAMS|DCode=26|XSize=60mil|YSize=60mil|CornerRadius=0mil|HoleSize=0mil|Usage=FLASHONLY|Rotation=0.000|XOffset=0mil|YOffset=0mil|HoleType=Round|Shape=Octagon|*
%AMOCTAGOND26*
4,1,8,0.030000,-0.015000,0.030000,0.015000,0.015000,0.030000,-0.015000,0.030000,-0.030000,0.015000,-0.030000,-0.015000,-0.015000,-0.030000,0.015000,-0.030000,0.030000,-0.015000,0.0*
%
%ADD26OCTAGOND26*%

%ADD27C,0.065000*%
G04:AMPARAMS|DCode=28|XSize=65mil|YSize=65mil|CornerRadius=3.25mil|HoleSize=0mil|Usage=FLASHONLY|Rotation=180.000|XOffset=0mil|YOffset=0mil|HoleType=Round|Shape=RoundedRectangle|*
%AMROUNDEDRECTD28*
21,1,0.065000,0.058500,0,0,180.0*
21,1,0.058500,0.065000,0,0,180.0*
1,1,0.006500,-0.029250,0.029250*
1,1,0.006500,0.029250,0.029250*
1,1,0.006500,0.029250,-0.029250*
1,1,0.006500,-0.029250,-0.029250*
%
%ADD28ROUNDEDRECTD28*%
%ADD29C,0.118110*%
G04:AMPARAMS|DCode=30|XSize=118.11mil|YSize=118.11mil|CornerRadius=0mil|HoleSize=0mil|Usage=FLASHONLY|Rotation=270.000|XOffset=0mil|YOffset=0mil|HoleType=Round|Shape=Octagon|*
%AMOCTAGOND30*
4,1,8,-0.029527,-0.059055,0.029527,-0.059055,0.059055,-0.029528,0.059055,0.029528,0.029527,0.059055,-0.029527,0.059055,-0.059055,0.029528,-0.059055,-0.029528,-0.029527,-0.059055,0.0*
%
%ADD30OCTAGOND30*%

G04:AMPARAMS|DCode=31|XSize=65mil|YSize=65mil|CornerRadius=3.25mil|HoleSize=0mil|Usage=FLASHONLY|Rotation=90.000|XOffset=0mil|YOffset=0mil|HoleType=Round|Shape=RoundedRectangle|*
%AMROUNDEDRECTD31*
21,1,0.065000,0.058500,0,0,90.0*
21,1,0.058500,0.065000,0,0,90.0*
1,1,0.006500,0.029250,0.029250*
1,1,0.006500,0.029250,-0.029250*
1,1,0.006500,-0.029250,-0.029250*
1,1,0.006500,-0.029250,0.029250*
%
%ADD31ROUNDEDRECTD31*%
%ADD32C,0.098425*%
G04:AMPARAMS|DCode=33|XSize=98.425mil|YSize=98.425mil|CornerRadius=9.842mil|HoleSize=0mil|Usage=FLASHONLY|Rotation=0.000|XOffset=0mil|YOffset=0mil|HoleType=Round|Shape=RoundedRectangle|*
%AMROUNDEDRECTD33*
21,1,0.098425,0.078740,0,0,0.0*
21,1,0.078740,0.098425,0,0,0.0*
1,1,0.019685,0.039370,-0.039370*
1,1,0.019685,-0.039370,-0.039370*
1,1,0.019685,-0.039370,0.039370*
1,1,0.019685,0.039370,0.039370*
%
%ADD33ROUNDEDRECTD33*%
%ADD34C,0.062992*%
G04:AMPARAMS|DCode=35|XSize=118.11mil|YSize=118.11mil|CornerRadius=0mil|HoleSize=0mil|Usage=FLASHONLY|Rotation=180.000|XOffset=0mil|YOffset=0mil|HoleType=Round|Shape=Octagon|*
%AMOCTAGOND35*
4,1,8,-0.059055,0.029527,-0.059055,-0.029527,-0.029528,-0.059055,0.029528,-0.059055,0.059055,-0.029527,0.059055,0.029527,0.029528,0.059055,-0.029528,0.059055,-0.059055,0.029527,0.0*
%
%ADD35OCTAGOND35*%

G04:AMPARAMS|DCode=36|XSize=129.921mil|YSize=129.921mil|CornerRadius=0mil|HoleSize=0mil|Usage=FLASHONLY|Rotation=270.000|XOffset=0mil|YOffset=0mil|HoleType=Round|Shape=Octagon|*
%AMOCTAGOND36*
4,1,8,-0.032480,-0.064961,0.032480,-0.064961,0.064961,-0.032480,0.064961,0.032480,0.032480,0.064961,-0.032480,0.064961,-0.064961,0.032480,-0.064961,-0.032480,-0.032480,-0.064961,0.0*
%
%ADD36OCTAGOND36*%

%ADD37C,0.129921*%
%ADD38C,0.094488*%
%ADD39C,0.055118*%
%ADD40O,0.059055X0.047244*%
G04:AMPARAMS|DCode=41|XSize=129.921mil|YSize=129.921mil|CornerRadius=0mil|HoleSize=0mil|Usage=FLASHONLY|Rotation=180.000|XOffset=0mil|YOffset=0mil|HoleType=Round|Shape=Octagon|*
%AMOCTAGOND41*
4,1,8,-0.064961,0.032480,-0.064961,-0.032480,-0.032480,-0.064961,0.032480,-0.064961,0.064961,-0.032480,0.064961,0.032480,0.032480,0.064961,-0.032480,0.064961,-0.064961,0.032480,0.0*
%
%ADD41OCTAGOND41*%

%ADD42O,0.106299X0.088189*%
%ADD43O,0.064000X0.090000*%
%ADD44R,0.064000X0.090000*%
%TA.AperFunction,WasherPad*%
%ADD45C,0.177165*%
%TA.AperFunction,ViaPad*%
%ADD46C,0.118110*%
%ADD47C,0.045000*%
%ADD48C,0.025984*%
G36*
X6929134Y4512757D02*
Y4471227D01*
X6920701Y4466059D01*
X6907648Y4454911D01*
X6896500Y4441858D01*
X6887531Y4427222D01*
X6880962Y4411363D01*
X6876954Y4394672D01*
X6875608Y4377559D01*
X6876954Y4360446D01*
X6880962Y4343755D01*
X6887531Y4327896D01*
X6896500Y4313260D01*
X6907648Y4300207D01*
X6920701Y4289059D01*
X6929134Y4283891D01*
X6929134Y4183919D01*
X6922814Y4182002D01*
X6909340Y4174800D01*
X6897530Y4165108D01*
X6887838Y4153298D01*
X6880636Y4139824D01*
X6876201Y4125204D01*
X6874703Y4110000D01*
X6876201Y4094796D01*
X6880636Y4080176D01*
X6887838Y4066702D01*
X6897530Y4054892D01*
X6909340Y4045200D01*
X6922814Y4037998D01*
X6929133Y4036081D01*
Y3622047D01*
X7283465D01*
Y3575439D01*
X7278757Y3573755D01*
X7272420Y3581476D01*
X7257913Y3593382D01*
X7241361Y3602229D01*
X7223402Y3607677D01*
X7204724Y3609516D01*
X7186047Y3607677D01*
X7168088Y3602229D01*
X7151536Y3593382D01*
X7137028Y3581476D01*
X7125122Y3566968D01*
X7116275Y3550416D01*
X7110827Y3532457D01*
X7108988Y3513780D01*
X7110827Y3495102D01*
X7116275Y3477143D01*
X7125122Y3460591D01*
X7137028Y3446084D01*
X7151536Y3434177D01*
X7168088Y3425330D01*
X7186047Y3419883D01*
X7204724Y3418043D01*
X7223402Y3419883D01*
X7241361Y3425330D01*
X7257913Y3434177D01*
X7272420Y3446084D01*
X7278757Y3453805D01*
X7283465Y3452120D01*
Y2224409D01*
X6850394D01*
X6692913Y2066929D01*
Y1870079D01*
X5688976D01*
Y3876825D01*
X5693976Y3878077D01*
X5700398Y3866064D01*
X5712304Y3851556D01*
X5726812Y3839650D01*
X5743363Y3830803D01*
X5761323Y3825355D01*
X5780000Y3823515D01*
X5798677Y3825355D01*
X5816637Y3830803D01*
X5833188Y3839650D01*
X5847696Y3851556D01*
X5859602Y3866064D01*
X5868449Y3882615D01*
X5873897Y3900575D01*
X5875737Y3919252D01*
X5873897Y3937929D01*
X5868449Y3955889D01*
X5859602Y3972440D01*
X5847696Y3986948D01*
X5833188Y3998854D01*
X5816637Y4007701D01*
X5798677Y4013149D01*
X5780000Y4014989D01*
X5761323Y4013149D01*
X5743363Y4007701D01*
X5726812Y3998854D01*
X5712304Y3986948D01*
X5700398Y3972440D01*
X5693976Y3960427D01*
X5688976Y3961679D01*
Y4043912D01*
X5693976Y4046903D01*
X5704809Y4044302D01*
X5728346Y4042450D01*
X6062992D01*
X6086530Y4044302D01*
X6098009Y4047058D01*
X6109488Y4049814D01*
X6120395Y4054331D01*
X6131301Y4058849D01*
X6151433Y4071186D01*
X6169386Y4086519D01*
X6388402Y4305535D01*
X6403736Y4323489D01*
X6416072Y4343620D01*
X6420590Y4354527D01*
X6425108Y4365433D01*
X6430218Y4386722D01*
X6479647Y4436150D01*
X6539775D01*
X6541689Y4431531D01*
X6522244Y4412087D01*
Y4385059D01*
X6591299D01*
X6660354D01*
Y4412087D01*
X6640336Y4432105D01*
X6642066Y4436796D01*
X6657396Y4438003D01*
X6668875Y4440759D01*
X6680354Y4443515D01*
X6691261Y4448032D01*
X6702167Y4452550D01*
X6722299Y4464886D01*
X6740252Y4480220D01*
X6747495Y4487463D01*
X6751262Y4484159D01*
X6746441Y4477876D01*
X6740872Y4464430D01*
X6739959Y4457500D01*
X6787225D01*
Y4504765D01*
X6780295Y4503853D01*
X6766848Y4498283D01*
X6760566Y4493462D01*
X6757262Y4497230D01*
X6774923Y4514891D01*
X6909449D01*
X6925462Y4516151D01*
X6929134Y4512757D01*
D02*
G37*
%LPC*%
G36*
X6597500Y2734765D02*
Y2687500D01*
X6644765D01*
X6643853Y2694430D01*
X6638283Y2707876D01*
X6629423Y2719423D01*
X6617876Y2728283D01*
X6604430Y2733853D01*
X6597500Y2734765D01*
D02*
G37*
G36*
X6490000Y2934398D02*
X6471323Y2932558D01*
X6453363Y2927110D01*
X6436812Y2918264D01*
X6422304Y2906357D01*
X6410398Y2891850D01*
X6401551Y2875298D01*
X6396103Y2857339D01*
X6394263Y2838661D01*
X6396103Y2819984D01*
X6401551Y2802025D01*
X6410398Y2785473D01*
X6422304Y2770965D01*
X6436812Y2759059D01*
X6453363Y2750212D01*
X6471323Y2744764D01*
X6490000Y2742925D01*
X6508677Y2744764D01*
X6526637Y2750212D01*
X6543188Y2759059D01*
X6557696Y2770965D01*
X6569602Y2785473D01*
X6578449Y2802025D01*
X6583897Y2819984D01*
X6585737Y2838661D01*
X6583897Y2857339D01*
X6578449Y2875298D01*
X6569602Y2891850D01*
X6557696Y2906357D01*
X6543188Y2918264D01*
X6526637Y2927110D01*
X6508677Y2932558D01*
X6490000Y2934398D01*
D02*
G37*
G36*
X6644765Y2672500D02*
X6597500D01*
Y2625235D01*
X6604430Y2626147D01*
X6617876Y2631717D01*
X6629423Y2640577D01*
X6638283Y2652124D01*
X6643853Y2665570D01*
X6644765Y2672500D01*
D02*
G37*
G36*
X6582500Y2734765D02*
X6575570Y2733853D01*
X6562124Y2728283D01*
X6550577Y2719423D01*
X6541717Y2707876D01*
X6536147Y2694430D01*
X6535235Y2687500D01*
X6582500D01*
Y2734765D01*
D02*
G37*
G36*
X6587500Y3382500D02*
X6538249D01*
X6539229Y3375056D01*
X6544997Y3361131D01*
X6554173Y3349173D01*
X6566131Y3339997D01*
X6580056Y3334229D01*
X6587500Y3333249D01*
Y3382500D01*
D02*
G37*
G36*
X6602500Y3446751D02*
Y3397500D01*
X6651751D01*
X6650771Y3404944D01*
X6645003Y3418869D01*
X6635827Y3430827D01*
X6623869Y3440003D01*
X6609944Y3445771D01*
X6602500Y3446751D01*
D02*
G37*
G36*
X6632500Y3505177D02*
X6585235D01*
X6586147Y3498247D01*
X6591717Y3484801D01*
X6600577Y3473254D01*
X6612124Y3464394D01*
X6625570Y3458824D01*
X6632500Y3457912D01*
Y3505177D01*
D02*
G37*
G36*
X6651751Y3382500D02*
X6602500D01*
Y3333249D01*
X6609944Y3334229D01*
X6623869Y3339997D01*
X6635827Y3349173D01*
X6645003Y3361131D01*
X6650771Y3375056D01*
X6651751Y3382500D01*
D02*
G37*
G36*
X6587500Y3446751D02*
X6580056Y3445771D01*
X6566131Y3440003D01*
X6554173Y3430827D01*
X6544997Y3418869D01*
X6539229Y3404944D01*
X6538249Y3397500D01*
X6587500D01*
Y3446751D01*
D02*
G37*
G36*
X6582500Y2672500D02*
X6535235D01*
X6536147Y2665570D01*
X6541717Y2652124D01*
X6550577Y2640577D01*
X6562124Y2631717D01*
X6575570Y2626147D01*
X6582500Y2625235D01*
Y2672500D01*
D02*
G37*
G36*
X5772500Y2005513D02*
X5765570Y2004601D01*
X5752124Y1999031D01*
X5740577Y1990171D01*
X5731717Y1978624D01*
X5726147Y1965178D01*
X5725235Y1958248D01*
X5772500D01*
Y2005513D01*
D02*
G37*
G36*
X5787500D02*
Y1958248D01*
X5834765D01*
X5833853Y1965178D01*
X5828283Y1978624D01*
X5819423Y1990171D01*
X5807876Y1999031D01*
X5794430Y2004601D01*
X5787500Y2005513D01*
D02*
G37*
G36*
X5772500Y1943248D02*
X5725235D01*
X5726147Y1936318D01*
X5731717Y1922872D01*
X5740577Y1911325D01*
X5752124Y1902465D01*
X5765570Y1896895D01*
X5772500Y1895983D01*
Y1943248D01*
D02*
G37*
G36*
X5834765D02*
X5787500D01*
Y1895983D01*
X5794430Y1896895D01*
X5807876Y1902465D01*
X5819423Y1911325D01*
X5828283Y1922872D01*
X5833853Y1936318D01*
X5834765Y1943248D01*
D02*
G37*
G36*
X6640000Y2525737D02*
X6621323Y2523897D01*
X6603363Y2518449D01*
X6586812Y2509602D01*
X6572304Y2497696D01*
X6560398Y2483188D01*
X6551551Y2466637D01*
X6546103Y2448677D01*
X6544263Y2430000D01*
X6546103Y2411323D01*
X6551551Y2393363D01*
X6560398Y2376812D01*
X6572304Y2362304D01*
X6586812Y2350398D01*
X6603363Y2341551D01*
X6621323Y2336103D01*
X6640000Y2334263D01*
X6658677Y2336103D01*
X6676637Y2341551D01*
X6693188Y2350398D01*
X6707696Y2362304D01*
X6719602Y2376812D01*
X6728449Y2393363D01*
X6733897Y2411323D01*
X6735737Y2430000D01*
X6733897Y2448677D01*
X6728449Y2466637D01*
X6719602Y2483188D01*
X6707696Y2497696D01*
X6693188Y2509602D01*
X6676637Y2518449D01*
X6658677Y2523897D01*
X6640000Y2525737D01*
D02*
G37*
G36*
X7197225Y2485868D02*
X7190295Y2484955D01*
X7176848Y2479385D01*
X7165301Y2470525D01*
X7156441Y2458979D01*
X7150872Y2445532D01*
X7149959Y2438602D01*
X7197225D01*
Y2485868D01*
D02*
G37*
G36*
X7212225Y2485867D02*
Y2438602D01*
X7259490D01*
X7258577Y2445532D01*
X7253008Y2458979D01*
X7244147Y2470525D01*
X7232601Y2479385D01*
X7219154Y2484955D01*
X7212225Y2485867D01*
D02*
G37*
G36*
X7197225Y2423602D02*
X7149959D01*
X7150872Y2416673D01*
X7156441Y2403226D01*
X7165301Y2391679D01*
X7176848Y2382819D01*
X7190295Y2377249D01*
X7197225Y2376337D01*
Y2423602D01*
D02*
G37*
G36*
X7259490D02*
X7212225D01*
Y2376337D01*
X7219154Y2377249D01*
X7232601Y2382819D01*
X7244147Y2391679D01*
X7253008Y2403226D01*
X7258577Y2416673D01*
X7259490Y2423602D01*
D02*
G37*
G36*
X6694765Y3505177D02*
X6647500D01*
Y3457912D01*
X6654430Y3458824D01*
X6667876Y3464394D01*
X6679423Y3473254D01*
X6688283Y3484801D01*
X6693853Y3498247D01*
X6694765Y3505177D01*
D02*
G37*
G36*
X6649862Y4146896D02*
X6647557Y4146592D01*
X6638421Y4142808D01*
X6630575Y4136787D01*
X6624555Y4128942D01*
X6620770Y4119805D01*
X6620467Y4117500D01*
X6649862D01*
Y4146896D01*
D02*
G37*
G36*
X6664862D02*
Y4117500D01*
X6694258D01*
X6693954Y4119805D01*
X6690170Y4128942D01*
X6684150Y4136787D01*
X6676304Y4142808D01*
X6667167Y4146592D01*
X6664862Y4146896D01*
D02*
G37*
G36*
X6649862Y4102500D02*
X6620467D01*
X6620770Y4100195D01*
X6624555Y4091058D01*
X6630575Y4083213D01*
X6638421Y4077192D01*
X6647557Y4073408D01*
X6649862Y4073104D01*
Y4102500D01*
D02*
G37*
G36*
X6694258D02*
X6664862D01*
Y4073104D01*
X6667167Y4073408D01*
X6676304Y4077192D01*
X6684150Y4083213D01*
X6690170Y4091058D01*
X6693954Y4100195D01*
X6694258Y4102500D01*
D02*
G37*
G36*
X6583799Y4370059D02*
X6522244D01*
Y4343031D01*
X6556772Y4308504D01*
X6583799D01*
Y4370059D01*
D02*
G37*
G36*
X6849490Y4442500D02*
X6802225D01*
Y4395235D01*
X6809154Y4396147D01*
X6822601Y4401717D01*
X6834147Y4410577D01*
X6843008Y4422124D01*
X6848577Y4435570D01*
X6849490Y4442500D01*
D02*
G37*
G36*
X6802225Y4504765D02*
Y4457500D01*
X6849490D01*
X6848577Y4464430D01*
X6843008Y4477876D01*
X6834147Y4489423D01*
X6822601Y4498283D01*
X6809154Y4503853D01*
X6802225Y4504765D01*
D02*
G37*
G36*
X6660354Y4370059D02*
X6598799D01*
Y4308504D01*
X6625827D01*
X6660354Y4343031D01*
Y4370059D01*
D02*
G37*
G36*
X6787225Y4442500D02*
X6739959D01*
X6740872Y4435570D01*
X6746441Y4422124D01*
X6755301Y4410577D01*
X6766848Y4401717D01*
X6780295Y4396147D01*
X6787225Y4395235D01*
Y4442500D01*
D02*
G37*
G36*
X6497500Y3976104D02*
Y3928838D01*
X6544765D01*
X6543853Y3935768D01*
X6538283Y3949215D01*
X6529423Y3960762D01*
X6517876Y3969622D01*
X6504430Y3975191D01*
X6497500Y3976104D01*
D02*
G37*
G36*
X6587500Y3784075D02*
X6538249D01*
X6539229Y3776631D01*
X6544997Y3762706D01*
X6554173Y3750748D01*
X6566131Y3741572D01*
X6580056Y3735804D01*
X6587500Y3734824D01*
Y3784075D01*
D02*
G37*
G36*
X6651751D02*
X6602500D01*
Y3734824D01*
X6609944Y3735804D01*
X6623869Y3741572D01*
X6635827Y3750748D01*
X6645003Y3762706D01*
X6650771Y3776631D01*
X6651751Y3784075D01*
D02*
G37*
G36*
X6632500Y3567442D02*
X6625570Y3566530D01*
X6612124Y3560960D01*
X6600577Y3552100D01*
X6591717Y3540553D01*
X6586147Y3527107D01*
X6585235Y3520177D01*
X6632500D01*
Y3567442D01*
D02*
G37*
G36*
X6647500D02*
Y3520177D01*
X6694765D01*
X6693853Y3527107D01*
X6688283Y3540553D01*
X6679423Y3552100D01*
X6667876Y3560960D01*
X6654430Y3566530D01*
X6647500Y3567442D01*
D02*
G37*
G36*
X6587500Y3848325D02*
X6580056Y3847345D01*
X6566131Y3841577D01*
X6554173Y3832402D01*
X6544997Y3820444D01*
X6539229Y3806519D01*
X6538249Y3799075D01*
X6587500D01*
Y3848325D01*
D02*
G37*
G36*
X6544765Y3913838D02*
X6497500D01*
Y3866573D01*
X6504430Y3867486D01*
X6517876Y3873055D01*
X6529423Y3881916D01*
X6538283Y3893462D01*
X6543853Y3906909D01*
X6544765Y3913838D01*
D02*
G37*
G36*
X6482500Y3976104D02*
X6475570Y3975191D01*
X6462124Y3969622D01*
X6450577Y3960762D01*
X6441717Y3949215D01*
X6436147Y3935768D01*
X6435235Y3928838D01*
X6482500D01*
Y3976104D01*
D02*
G37*
G36*
X6602500Y3848325D02*
Y3799075D01*
X6651751D01*
X6650771Y3806519D01*
X6645003Y3820444D01*
X6635827Y3832402D01*
X6623869Y3841577D01*
X6609944Y3847345D01*
X6602500Y3848325D01*
D02*
G37*
G36*
X6482500Y3913838D02*
X6435235D01*
X6436147Y3906909D01*
X6441717Y3893462D01*
X6450577Y3881916D01*
X6462124Y3873055D01*
X6475570Y3867486D01*
X6482500Y3866573D01*
Y3913838D01*
D02*
G37*
%LPD*%
D10*
X2397835Y1867500D02*
D03*
Y2042500D02*
D03*
X2752165Y1867500D02*
D03*
Y2042500D02*
D03*
X3142835Y1867500D02*
D03*
Y2042500D02*
D03*
X3497165Y1867500D02*
D03*
Y2042500D02*
D03*
D11*
X1774000Y2625000D02*
Y2983481D01*
X1998480D01*
X2075000Y3060000D01*
Y3505000D01*
X2205000Y3635000D01*
X2335000D01*
X1774000Y2983481D02*
X1607480Y3150000D01*
X3105000Y4475000D02*
X3130000Y4500000D01*
X3330000D01*
X4380000Y4105000D02*
X4566339Y4291339D01*
X4821890D01*
X4970000Y4439449D01*
X4645472Y2927047D02*
X4645000Y2926575D01*
Y2855276D01*
Y2560000D02*
X4750000Y2455000D01*
X4825000D01*
D12*
X1880000Y1940000D02*
X2045000D01*
X2114921Y1870079D01*
X2165354D01*
X2342520Y1922815D02*
X2397835Y1867500D01*
X2342520Y1922815D02*
Y2086614D01*
X2362205Y2106299D01*
X2598425D01*
X2618110Y2086614D01*
X2752165Y2042500D02*
X3142835D01*
X3497165D01*
Y2099528D01*
X3457795Y1962677D02*
X3117323D01*
X3090000Y1990000D01*
X2795000D01*
X2762677Y1957677D01*
X2712795D01*
X2437205D01*
X2397835Y2042500D02*
X2752165D01*
Y1867500D02*
X2743917Y1859252D01*
X2661614D01*
X2775591Y2145669D02*
X3346457D01*
X3484252Y2283465D01*
X4350394D01*
X4535000Y2580000D02*
X4570000Y2545000D01*
X4535000Y2580000D02*
Y2681378D01*
Y2732559D01*
X4575000Y3470000D02*
X4528504Y3516496D01*
Y3621378D01*
Y3672559D01*
X4153543Y3484252D02*
X3956693D01*
X3307087Y3287402D02*
Y3110236D01*
X3087035Y2890185D01*
Y2700366D01*
X3136535Y2650866D01*
Y2480000D01*
X3149606Y2342520D02*
X3208661Y2401575D01*
Y2913386D01*
X2924941Y3106949D02*
Y2858074D01*
X2887035Y2820169D01*
Y2746497D01*
X2893701Y2739831D01*
Y2618110D01*
X2886535Y2550000D02*
X2700000D01*
X2670000Y2580000D01*
X2540000D01*
X2525000Y2365000D02*
X2710000D01*
X2736535Y2391535D01*
Y2480000D01*
X2525000Y2365000D02*
X2355000Y2535000D01*
X2075000D01*
X1905000Y2365000D01*
X1929134Y2145669D02*
X1988189Y2204724D01*
X2716535D01*
X2775591Y2145669D01*
X3073445Y1867500D02*
X3142835D01*
X3409862D02*
X3497165D01*
X3409862D02*
X3406614Y1864252D01*
X3149606Y2263780D02*
Y2342520D01*
X3287402Y2401575D02*
Y2736220D01*
X2924941Y3106949D02*
X2858465Y3173425D01*
Y3606496D01*
X2913386Y3661417D01*
X3530000Y4140000D02*
Y4595000D01*
X3570000Y4635000D01*
X3775000Y4795000D02*
Y4865000D01*
X3745000Y4895000D01*
X2685000D01*
X2585000Y4795000D01*
X1519291Y3350000D02*
X1607480D01*
X1519291D02*
X1417323Y3248032D01*
X1476378Y2952756D02*
Y2696850D01*
X1594488Y2578740D01*
Y2263780D01*
X1555118Y2224409D01*
X1805000Y1865000D02*
X1880000Y1940000D01*
X4310000Y4415000D02*
Y4555000D01*
X4518010Y4763010D01*
Y4913010D01*
X4441990Y4611990D02*
X4350000Y4520000D01*
Y4470000D01*
X4310000Y4415000D02*
X4225000Y4330000D01*
X4175000D01*
X4265000Y4285000D02*
X4065000D01*
D13*
X2636535Y2780000D02*
Y2912126D01*
X2754409Y3030000D01*
X2870000D01*
X3620000Y3003740D02*
Y3443740D01*
D14*
X5780000Y1950748D02*
X5883898D01*
X5962638D01*
X6045236D01*
D15*
X4704528Y3182953D02*
X4757480Y3130000D01*
X4850000D01*
X4855000Y3125000D01*
Y2655000D01*
X4975000Y2535000D01*
Y2057481D01*
X5015000Y3130000D02*
X4850000D01*
X4825000Y3155000D01*
X4962047Y3182953D02*
X5015000Y3130000D01*
X4962047Y3182953D02*
X4704528D01*
D16*
X2970000Y2230000D02*
X3036535Y2296535D01*
Y2480000D01*
Y2780000D02*
Y2863465D01*
X2970000Y2930000D01*
Y3030000D01*
D17*
X4970000Y4439449D02*
X5314961Y4094488D01*
Y3582677D01*
X5426055D01*
X5430622Y3587244D01*
X5594024D01*
X5598591Y3582677D01*
X6220472D01*
X6062992Y4192913D02*
X6282008Y4411929D01*
Y4451299D01*
X6417323Y4586614D01*
X6633858D01*
X6712598Y4665354D01*
X6909449D01*
X6985000Y4740905D01*
Y4850000D01*
X7068740D01*
X7090000Y4871260D01*
X6062992Y4192913D02*
X5728346D01*
X5629921Y4291338D01*
Y4547244D01*
Y4742520D01*
X5725000D01*
X5629921Y4744095D02*
Y4742520D01*
X5525000D01*
D18*
X4970000Y4439449D02*
Y4742520D01*
D19*
X4290394Y2560000D02*
Y3010866D01*
X4330709Y3051181D01*
D20*
X1456693Y2185039D02*
D03*
Y2578740D02*
D03*
X2437205Y1953740D02*
D03*
X2712795Y1957677D02*
D03*
X3182205Y1958740D02*
D03*
X3457795Y1962677D02*
D03*
X4645472Y2927047D02*
D03*
X4704528Y3182953D02*
D03*
X4645472Y3887047D02*
D03*
X4704528Y4142953D02*
D03*
D21*
X1407480Y2303150D02*
D03*
Y2381890D02*
D03*
X1505906D02*
D03*
Y2303150D02*
D03*
X1407480Y2460630D02*
D03*
D22*
X1505906Y2460630D02*
D03*
D23*
X2300000Y4254724D02*
D03*
Y4550000D02*
D03*
X1878740D02*
D03*
Y4254724D02*
D03*
X5507323Y2680000D02*
D03*
X5780000Y1950748D02*
D03*
X6640000Y2430000D02*
D03*
X6590000Y2680000D02*
D03*
X6490000Y2838661D02*
D03*
X6640000Y3512677D02*
D03*
X6490000Y3921339D02*
D03*
X7090000Y4450000D02*
D03*
Y4871260D02*
D03*
X6794724D02*
D03*
Y4450000D02*
D03*
X7204724Y3513780D02*
D03*
Y2431102D02*
D03*
X5780000Y3919252D02*
D03*
D24*
X2488386Y1859252D02*
D03*
X2661614D02*
D03*
X3233386Y1864252D02*
D03*
X3406614D02*
D03*
D25*
X4375000Y4795000D02*
D03*
X4275000D02*
D03*
X4175000D02*
D03*
X4075000D02*
D03*
X3875000D02*
D03*
X3185000D02*
D03*
X3085000D02*
D03*
X2985000D02*
D03*
X2885000D02*
D03*
X2685000D02*
D03*
D26*
X3775000Y4795000D02*
D03*
X2585000D02*
D03*
D27*
X2320000Y2475000D02*
D03*
X2330000Y2840000D02*
D03*
X2320000Y3530000D02*
D03*
Y3630000D02*
D03*
X3520000Y3003740D02*
D03*
X3620000D02*
D03*
X3720000D02*
D03*
X4725984Y2244095D02*
D03*
D28*
X2220000Y2475000D02*
D03*
X3420000Y3003740D02*
D03*
X3820000D02*
D03*
X4625984Y2244095D02*
D03*
D29*
X2580000Y3305000D02*
D03*
Y3705000D02*
D03*
Y4105000D02*
D03*
X4380000D02*
D03*
X4825000Y4135000D02*
D03*
X5229907Y4661123D02*
D03*
X4825000Y3435000D02*
D03*
Y3155000D02*
D03*
Y2455000D02*
D03*
X5230000Y2555000D02*
D03*
X6985000Y4377559D02*
D03*
Y4850000D02*
D03*
X6591299D02*
D03*
D30*
X6591299Y4377559D02*
D03*
D31*
X2330000Y2740000D02*
D03*
X2320000Y3430000D02*
D03*
D32*
X1805000Y1865000D02*
D03*
X2005000D02*
D03*
X2105000Y2365000D02*
D03*
X1905000D02*
D03*
X1705000D02*
D03*
X2990000Y4500000D02*
D03*
X4180000D02*
D03*
D33*
X4520000Y4500000D02*
D03*
X3330000D02*
D03*
D34*
X3600000Y4418150D02*
D03*
Y4811850D02*
D03*
X2891850Y4500000D02*
D03*
X2498150D02*
D03*
D35*
X4380000Y3305000D02*
D03*
D36*
X1607480Y2950000D02*
D03*
Y3350000D02*
D03*
Y3750000D02*
D03*
Y4150000D02*
D03*
Y4550000D02*
D03*
D37*
X1607480Y2750000D02*
D03*
Y3150000D02*
D03*
Y3550000D02*
D03*
Y3950000D02*
D03*
Y4350000D02*
D03*
X3890000Y2057481D02*
D03*
X4290000D02*
D03*
X4975000D02*
D03*
X5925000Y4742520D02*
D03*
X5525000D02*
D03*
X4770000D02*
D03*
D38*
X5512323Y3390000D02*
D03*
Y3791575D02*
D03*
X6595000Y3390000D02*
D03*
Y3791575D02*
D03*
D39*
X2870000Y2230000D02*
D03*
X2970000D02*
D03*
X3070000D02*
D03*
Y3030000D02*
D03*
X2970000D02*
D03*
X2870000D02*
D03*
X4645000Y2560000D02*
D03*
Y2855276D02*
D03*
Y3495000D02*
D03*
Y3790276D02*
D03*
X5674213Y4400000D02*
D03*
X5969488D02*
D03*
X6161417Y4320866D02*
D03*
Y4616142D02*
D03*
X6657362Y4110000D02*
D03*
X6952638D02*
D03*
D40*
X2270000Y1940000D02*
D03*
Y2040000D02*
D03*
X2840000Y1940000D02*
D03*
Y2040000D02*
D03*
X3060000Y1940000D02*
D03*
Y2040000D02*
D03*
D41*
X3690000Y2057481D02*
D03*
X4090000D02*
D03*
X4775000D02*
D03*
X6125000Y4742520D02*
D03*
X5725000D02*
D03*
X4970000D02*
D03*
D42*
X5015000Y2730000D02*
D03*
Y2830000D02*
D03*
Y2930000D02*
D03*
Y3130000D02*
D03*
Y3695000D02*
D03*
Y3795000D02*
D03*
Y3895000D02*
D03*
Y4095000D02*
D03*
D43*
X2636535Y2480000D02*
D03*
X2736535D02*
D03*
X2836535D02*
D03*
X2936535D02*
D03*
X3036535D02*
D03*
X3136535D02*
D03*
Y2780000D02*
D03*
X3036535D02*
D03*
X2936535D02*
D03*
X2836535D02*
D03*
X2736535D02*
D03*
X2636535D02*
D03*
X2536535D02*
D03*
D44*
X2536535Y2480000D02*
D03*
D45*
X1550000Y2000000D02*
D03*
Y4800000D02*
D03*
X7146850Y2000000D02*
D03*
Y3790000D02*
D03*
D46*
X5314961Y2047244D02*
D03*
Y4527559D02*
D03*
D47*
X2165354Y1870079D02*
D03*
X2520000Y2045000D02*
D03*
X2618110Y2086614D02*
D03*
X3073445Y1867500D02*
D03*
X3265000Y2040000D02*
D03*
X3497165Y2099528D02*
D03*
X3287402Y2401575D02*
D03*
X3149606Y2263780D02*
D03*
X2886535Y2550000D02*
D03*
X2893701Y2618110D02*
D03*
X3208661Y2913386D02*
D03*
X3287402Y2736220D02*
D03*
X2858465Y3173425D02*
D03*
X3307087Y3287402D02*
D03*
X3620000Y3443740D02*
D03*
X3956693Y3484252D02*
D03*
X4153543D02*
D03*
X4575000Y3470000D02*
D03*
X4330709Y3051181D02*
D03*
X4290394Y2560000D02*
D03*
X4570000Y2545000D02*
D03*
X4350394Y2283465D02*
D03*
X2913386Y3661417D02*
D03*
X3530000Y4140000D02*
D03*
X4065000Y4285000D02*
D03*
X4175000Y4330000D02*
D03*
X4265000Y4285000D02*
D03*
X4350000Y4470000D02*
D03*
X4441990Y4611990D02*
D03*
X4518010Y4913010D02*
D03*
X3570000Y4635000D02*
D03*
X3105000Y4475000D02*
D03*
X2086614Y3110236D02*
D03*
X1774000Y2625000D02*
D03*
X1476378Y2952756D02*
D03*
X1417323Y3248032D02*
D03*
X1555118Y2224409D02*
D03*
X1929134Y2145669D02*
D03*
X2540000Y2580000D02*
D03*
X5590551Y4389764D02*
D03*
X5669291Y4468504D02*
D03*
Y4547244D02*
D03*
X5590551D02*
D03*
Y4468504D02*
D03*
X5883898Y1950748D02*
D03*
X5962638D02*
D03*
X6045236D02*
D03*
X6139803D02*
D03*
D48*
X4503504Y2657756D02*
D03*
Y2705000D02*
D03*
Y2752244D02*
D03*
X4535000Y2732559D02*
D03*
Y2681378D02*
D03*
X4566496Y2705000D02*
D03*
Y2657756D02*
D03*
Y2752244D02*
D03*
X4560000Y3597756D02*
D03*
Y3645000D02*
D03*
X4528504Y3621378D02*
D03*
X4497008Y3645000D02*
D03*
Y3597756D02*
D03*
Y3692244D02*
D03*
X4528504Y3672559D02*
D03*
X4560000Y3692244D02*
D03*
%TF.MD5,9733e2f941a197d0be0886394bad8a8b*%
M02*
