G04 Layer_Color=2752767*
%FSLAX26Y26*%
%MOIN*%
%TF.FileFunction,Drawing*%
%TF.Part,Single*%
G01*
G75*
%TA.AperFunction,NonConductor*%
%ADD96C,0.004000*%
%ADD201C,0.005000*%
%ADD202C,0.006667*%
D96*
X1817000Y1865000D02*
G03*
X1817000Y1865000I-12000J0D01*
G01*
X2017000D02*
G03*
X2017000Y1865000I-12000J0D01*
G01*
X2117000Y2365000D02*
G03*
X2117000Y2365000I-12000J0D01*
G01*
X1917000D02*
G03*
X1917000Y2365000I-12000J0D01*
G01*
X1717000D02*
G03*
X1717000Y2365000I-12000J0D01*
G01*
X2312000Y4254724D02*
G03*
X2312000Y4254724I-12000J0D01*
G01*
Y4550000D02*
G03*
X2312000Y4550000I-12000J0D01*
G01*
X1890740D02*
G03*
X1890740Y4550000I-12000J0D01*
G01*
Y4254724D02*
G03*
X1890740Y4254724I-12000J0D01*
G01*
X5524323Y3390000D02*
G03*
X5524323Y3390000I-12000J0D01*
G01*
Y3791575D02*
G03*
X5524323Y3791575I-12000J0D01*
G01*
X6607000Y3390000D02*
G03*
X6607000Y3390000I-12000J0D01*
G01*
Y3791575D02*
G03*
X6607000Y3791575I-12000J0D01*
G01*
X7102000Y4450000D02*
G03*
X7102000Y4450000I-12000J0D01*
G01*
Y4871260D02*
G03*
X7102000Y4871260I-12000J0D01*
G01*
X6806724D02*
G03*
X6806724Y4871260I-12000J0D01*
G01*
Y4450000D02*
G03*
X6806724Y4450000I-12000J0D01*
G01*
D201*
X1550000Y2008331D02*
X1558331Y2000000D01*
X1574992D01*
X1583323Y2008331D01*
Y2041653D02*
X1574992Y2049984D01*
X1558331D01*
X1550000Y2041653D01*
Y2008331D01*
X1555118Y2224409D02*
X1580110D01*
X1588441Y2232740D01*
Y2266063D01*
X1580110Y2274393D01*
X1555118D01*
Y2224409D01*
X1476693Y2205039D02*
Y2165039D01*
X1436693D01*
Y2205039D01*
X1476693D01*
Y2558740D02*
X1436693D01*
Y2598740D01*
X1476693D01*
Y2558740D01*
X1607480Y2730000D02*
X1587480Y2770000D01*
X1627480D01*
X1607480Y2730000D01*
Y2738000D02*
X1595480Y2762000D01*
X1619480D01*
X1607480Y2738000D01*
X1774000Y2674984D02*
Y2625000D01*
X1798992D01*
X1807323Y2633331D01*
Y2666653D01*
X1798992Y2674984D01*
X1774000D01*
X1607480Y2930000D02*
X1587480Y2970000D01*
X1627480D01*
X1607480Y2930000D01*
Y2938000D02*
X1595480Y2962000D01*
X1619480D01*
X1607480Y2938000D01*
Y3130000D02*
X1587480Y3170000D01*
X1627480D01*
X1607480Y3130000D01*
Y3138000D02*
X1595480Y3162000D01*
X1619480D01*
X1607480Y3138000D01*
Y3330000D02*
X1587480Y3370000D01*
X1627480D01*
X1607480Y3330000D01*
Y3338000D02*
X1595480Y3362000D01*
X1619480D01*
X1607480Y3338000D01*
X1450645Y3289685D02*
X1442315Y3298015D01*
X1417323D01*
Y3248032D01*
X1442315D01*
X1450645Y3256362D01*
Y3289685D01*
X1476378Y3002740D02*
Y2952756D01*
X1501370D01*
X1509701Y2961086D01*
Y2994409D01*
X1501370Y3002740D01*
X1476378D01*
X2086614Y3110236D02*
X2111606D01*
X2119937Y3118567D01*
Y3151889D01*
X2111606Y3160220D01*
X2086614D01*
Y3110236D01*
X2320000Y2860000D02*
Y2850000D01*
X2310000D01*
Y2830000D01*
X2320000D01*
Y2820000D01*
X2340000D01*
Y2830000D01*
X2350000D01*
Y2850000D01*
X2340000D01*
Y2860000D01*
X2320000D01*
Y2760000D02*
Y2750000D01*
X2310000D01*
Y2730000D01*
X2320000D01*
Y2720000D01*
X2340000D01*
Y2730000D01*
X2350000D01*
Y2750000D01*
X2340000D01*
Y2760000D01*
X2320000D01*
X2540000Y2629984D02*
Y2580000D01*
X2564992D01*
X2573323Y2588331D01*
Y2621653D01*
X2564992Y2629984D01*
X2540000D01*
X2546535Y2500000D02*
X2536535Y2490000D01*
X2526535Y2500000D01*
X2516535D01*
Y2490000D01*
X2526535Y2480000D01*
X2516535Y2470000D01*
Y2460000D01*
X2526535D01*
X2536535Y2470000D01*
X2546535Y2460000D01*
X2556535D01*
Y2470000D01*
X2546535Y2480000D01*
X2556535Y2490000D01*
Y2500000D01*
X2546535D01*
X2548535Y2492000D02*
X2542535D01*
X2536535Y2486000D01*
X2530535Y2492000D01*
X2524535D01*
Y2486000D01*
X2530535Y2480000D01*
X2524535Y2474000D01*
Y2468000D01*
X2530535D01*
X2536535Y2474000D01*
X2542535Y2468000D01*
X2548535D01*
Y2474000D01*
X2542535Y2480000D01*
X2548535Y2486000D01*
Y2492000D01*
X2616535Y2490000D02*
X2626535Y2480000D01*
X2616535Y2470000D01*
Y2460000D01*
X2626535D01*
X2636535Y2470000D01*
X2646535Y2460000D01*
X2656535D01*
Y2470000D01*
X2646535Y2480000D01*
X2656535Y2490000D01*
Y2500000D01*
X2646535D01*
X2636535Y2490000D01*
X2626535Y2500000D01*
X2616535D01*
Y2490000D01*
X2624535Y2492000D02*
Y2486000D01*
X2630535Y2480000D01*
X2624535Y2474000D01*
Y2468000D01*
X2630535D01*
X2636535Y2474000D01*
X2642535Y2468000D01*
X2648535D01*
Y2474000D01*
X2642535Y2480000D01*
X2648535Y2486000D01*
Y2492000D01*
X2642535D01*
X2636535Y2486000D01*
X2630535Y2492000D01*
X2624535D01*
X2716535Y2490000D02*
X2726535Y2480000D01*
X2716535Y2470000D01*
Y2460000D01*
X2726535D01*
X2736535Y2470000D01*
X2746535Y2460000D01*
X2756535D01*
Y2470000D01*
X2746535Y2480000D01*
X2756535Y2490000D01*
Y2500000D01*
X2746535D01*
X2736535Y2490000D01*
X2726535Y2500000D01*
X2716535D01*
Y2490000D01*
X2724535Y2492000D02*
Y2486000D01*
X2730535Y2480000D01*
X2724535Y2474000D01*
Y2468000D01*
X2730535D01*
X2736535Y2474000D01*
X2742535Y2468000D01*
X2748535D01*
Y2474000D01*
X2742535Y2480000D01*
X2748535Y2486000D01*
Y2492000D01*
X2742535D01*
X2736535Y2486000D01*
X2730535Y2492000D01*
X2724535D01*
X2816535Y2490000D02*
X2826535Y2480000D01*
X2816535Y2470000D01*
Y2460000D01*
X2826535D01*
X2836535Y2470000D01*
X2846535Y2460000D01*
X2856535D01*
Y2470000D01*
X2846535Y2480000D01*
X2856535Y2490000D01*
Y2500000D01*
X2846535D01*
X2836535Y2490000D01*
X2826535Y2500000D01*
X2816535D01*
Y2490000D01*
X2824535Y2492000D02*
Y2486000D01*
X2830535Y2480000D01*
X2824535Y2474000D01*
Y2468000D01*
X2830535D01*
X2836535Y2474000D01*
X2842535Y2468000D01*
X2848535D01*
Y2474000D01*
X2842535Y2480000D01*
X2848535Y2486000D01*
Y2492000D01*
X2842535D01*
X2836535Y2486000D01*
X2830535Y2492000D01*
X2824535D01*
X2886535Y2550000D02*
X2911527D01*
X2919858Y2558331D01*
Y2591653D01*
X2911527Y2599984D01*
X2886535D01*
Y2550000D01*
X2916535Y2500000D02*
Y2490000D01*
X2926535Y2480000D01*
X2916535Y2470000D01*
Y2460000D01*
X2926535D01*
X2936535Y2470000D01*
X2946535Y2460000D01*
X2956535D01*
Y2470000D01*
X2946535Y2480000D01*
X2956535Y2490000D01*
Y2500000D01*
X2946535D01*
X2936535Y2490000D01*
X2926535Y2500000D01*
X2916535D01*
X2924535Y2492000D02*
Y2486000D01*
X2930535Y2480000D01*
X2924535Y2474000D01*
Y2468000D01*
X2930535D01*
X2936535Y2474000D01*
X2942535Y2468000D01*
X2948535D01*
Y2474000D01*
X2942535Y2480000D01*
X2948535Y2486000D01*
Y2492000D01*
X2942535D01*
X2936535Y2486000D01*
X2930535Y2492000D01*
X2924535D01*
X3016535Y2490000D02*
X3026535Y2480000D01*
X3016535Y2470000D01*
Y2460000D01*
X3026535D01*
X3036535Y2470000D01*
X3046535Y2460000D01*
X3056535D01*
Y2470000D01*
X3046535Y2480000D01*
X3056535Y2490000D01*
Y2500000D01*
X3046535D01*
X3036535Y2490000D01*
X3026535Y2500000D01*
X3016535D01*
Y2490000D01*
X3024535Y2492000D02*
Y2486000D01*
X3030535Y2480000D01*
X3024535Y2474000D01*
Y2468000D01*
X3030535D01*
X3036535Y2474000D01*
X3042535Y2468000D01*
X3048535D01*
Y2474000D01*
X3042535Y2480000D01*
X3048535Y2486000D01*
Y2492000D01*
X3042535D01*
X3036535Y2486000D01*
X3030535Y2492000D01*
X3024535D01*
X3149606Y2313763D02*
Y2263780D01*
X3174598D01*
X3182929Y2272110D01*
Y2305433D01*
X3174598Y2313763D01*
X3149606D01*
X3090000Y2250000D02*
X3080000Y2230000D01*
X3090000Y2210000D01*
X3070000Y2220000D01*
X3050000Y2210000D01*
X3060000Y2230000D01*
X3050000Y2250000D01*
X3070000Y2240000D01*
X3090000Y2250000D01*
X3082000Y2242000D02*
X3076000Y2230000D01*
X3082000Y2218000D01*
X3070000Y2224000D01*
X3058000Y2218000D01*
X3064000Y2230000D01*
X3058000Y2242000D01*
X3070000Y2236000D01*
X3082000Y2242000D01*
X3080000Y2060000D02*
Y2020000D01*
X3040000D01*
Y2060000D01*
X3080000D01*
X3072000Y2052000D02*
Y2028000D01*
X3048000D01*
Y2052000D01*
X3072000D01*
X3080000Y1960000D02*
Y1920000D01*
X3040000D01*
Y1960000D01*
X3080000D01*
X3072000Y1952000D02*
Y1928000D01*
X3048000D01*
Y1952000D01*
X3072000D01*
X3073445Y1917484D02*
Y1867500D01*
X3098437D01*
X3106767Y1875831D01*
Y1909153D01*
X3098437Y1917484D01*
X3073445D01*
X3182205Y1938740D02*
X3162205Y1978740D01*
X3202205D01*
X3182205Y1938740D01*
X3213386Y1874252D02*
X3223386Y1864252D01*
X3213386Y1854252D01*
X3223386D01*
X3233386Y1844252D01*
X3243386Y1854252D01*
X3253386D01*
X3243386Y1864252D01*
X3253386Y1874252D01*
X3243386D01*
X3233386Y1884252D01*
X3223386Y1874252D01*
X3213386D01*
X3386614D02*
X3396614Y1864252D01*
X3386614Y1854252D01*
X3396614D01*
X3406614Y1844252D01*
X3416614Y1854252D01*
X3426614D01*
X3416614Y1864252D01*
X3426614Y1874252D01*
X3416614D01*
X3406614Y1884252D01*
X3396614Y1874252D01*
X3386614D01*
X3457795Y1942677D02*
X3437795Y1982677D01*
X3477795D01*
X3457795Y1942677D01*
X3522157Y2099528D02*
X3530488Y2107858D01*
Y2141181D01*
X3522157Y2149511D01*
X3497165D01*
Y2099528D01*
X3522157D01*
X3670000Y2077481D02*
X3710000D01*
X3690000Y2037480D01*
X3670000Y2077481D01*
X3678000Y2069481D02*
X3702000D01*
X3690000Y2045480D01*
X3678000Y2069481D01*
X3870000Y2077481D02*
X3910000D01*
X3890000Y2037480D01*
X3870000Y2077481D01*
X3878000Y2069481D02*
X3902000D01*
X3890000Y2045480D01*
X3878000Y2069481D01*
X4070000Y2077481D02*
X4110000D01*
X4090000Y2037480D01*
X4070000Y2077481D01*
X4078000Y2069481D02*
X4102000D01*
X4090000Y2045480D01*
X4078000Y2069481D01*
X4270000Y2077481D02*
X4310000D01*
X4290000Y2037480D01*
X4270000Y2077481D01*
X4278000Y2069481D02*
X4302000D01*
X4290000Y2045480D01*
X4278000Y2069481D01*
X4350394Y2283465D02*
X4375386D01*
X4383716Y2291795D01*
Y2325118D01*
X4375386Y2333448D01*
X4350394D01*
Y2283465D01*
X4615984Y2264095D02*
Y2254095D01*
X4605984D01*
Y2234095D01*
X4615984D01*
Y2224095D01*
X4635984D01*
Y2234095D01*
X4645984D01*
Y2254095D01*
X4635984D01*
Y2264095D01*
X4615984D01*
X4715984D02*
Y2254095D01*
X4705984D01*
Y2234095D01*
X4715984D01*
Y2224095D01*
X4735984D01*
Y2234095D01*
X4745984D01*
Y2254095D01*
X4735984D01*
Y2264095D01*
X4715984D01*
X4755000Y2077481D02*
X4795000D01*
X4775000Y2037480D01*
X4755000Y2077481D01*
X4763000Y2069481D02*
X4787000D01*
X4775000Y2045480D01*
X4763000Y2069481D01*
X4955000Y2077481D02*
X4995000D01*
X4975000Y2037480D01*
X4955000Y2077481D01*
X4963000Y2069481D02*
X4987000D01*
X4975000Y2045480D01*
X4963000Y2069481D01*
X5314961Y2072236D02*
X5339953D01*
X5314961D01*
Y2097228D02*
Y2047244D01*
X5339953D01*
X5348283Y2055575D01*
Y2063905D01*
X5339953Y2072236D01*
X5348283Y2080567D01*
Y2088897D01*
X5339953Y2097228D01*
X5314961D01*
X5760000Y1970748D02*
X5800000D01*
X5780000Y1930748D01*
X5760000Y1970748D01*
X5883898Y1950748D02*
X5908890D01*
X5917220Y1959079D01*
Y1992401D01*
X5908890Y2000732D01*
X5883898D01*
Y1950748D01*
X5962638D02*
X5987630D01*
X5995960Y1959079D01*
Y1992401D01*
X5987630Y2000732D01*
X5962638D01*
Y1950748D01*
X6045236D02*
X6070228D01*
X6078559Y1959079D01*
Y1992401D01*
X6070228Y2000732D01*
X6045236D01*
Y1950748D01*
X6139803D02*
X6164795D01*
X6173126Y1959079D01*
Y1992401D01*
X6164795Y2000732D01*
X6139803D01*
Y1950748D01*
X6640000Y2410000D02*
X6620000Y2450000D01*
X6660000D01*
X6640000Y2410000D01*
X6590000Y2660000D02*
X6570000Y2700000D01*
X6610000D01*
X6590000Y2660000D01*
X6490000Y2818661D02*
X6470000Y2858661D01*
X6510000D01*
X6490000Y2818661D01*
X7184724Y2451102D02*
X7224724D01*
X7204724Y2411102D01*
X7184724Y2451102D01*
X7180173Y2041653D02*
X7171842Y2049984D01*
X7155181D01*
X7146850Y2041653D01*
Y2008331D01*
X7155181Y2000000D01*
X7171842D01*
X7180173Y2008331D01*
X7204724Y3493780D02*
X7184724Y3533780D01*
X7224724D01*
X7204724Y3493780D01*
X7180173Y3798331D02*
X7171842Y3790000D01*
X7155181D01*
X7146850Y3798331D01*
Y3831653D01*
X7155181Y3839984D01*
X7171842D01*
X7180173Y3831653D01*
X6972638Y4100000D02*
X6962638Y4110000D01*
X6972638Y4120000D01*
X6962638D01*
X6952638Y4130000D01*
X6942638Y4120000D01*
X6932638D01*
X6942638Y4110000D01*
X6932638Y4100000D01*
X6942638D01*
X6952638Y4090000D01*
X6962638Y4100000D01*
X6972638D01*
X6964638Y4104000D02*
X6958638Y4110000D01*
X6964638Y4116000D01*
X6958638D01*
X6952638Y4122000D01*
X6946638Y4116000D01*
X6940638D01*
X6946638Y4110000D01*
X6940638Y4104000D01*
X6946638D01*
X6952638Y4098000D01*
X6958638Y4104000D01*
X6964638D01*
X6965000Y4357559D02*
X6975000D01*
X6985000Y4367559D01*
X6995000Y4357559D01*
X7005000D01*
Y4367559D01*
X6995000Y4377559D01*
X7005000Y4387559D01*
Y4397559D01*
X6995000D01*
X6985000Y4387559D01*
X6975000Y4397559D01*
X6965000D01*
Y4387559D01*
X6975000Y4377559D01*
X6965000Y4367559D01*
Y4357559D01*
X6611299D02*
Y4367559D01*
X6601299Y4377559D01*
X6611299Y4387559D01*
Y4397559D01*
X6601299D01*
X6591299Y4387559D01*
X6581299Y4397559D01*
X6571299D01*
Y4387559D01*
X6581299Y4377559D01*
X6571299Y4367559D01*
Y4357559D01*
X6581299D01*
X6591299Y4367559D01*
X6601299Y4357559D01*
X6611299D01*
X6637362Y4120000D02*
X6647362Y4110000D01*
X6637362Y4100000D01*
X6647362D01*
X6657362Y4090000D01*
X6667362Y4100000D01*
X6677362D01*
X6667362Y4110000D01*
X6677362Y4120000D01*
X6667362D01*
X6657362Y4130000D01*
X6647362Y4120000D01*
X6637362D01*
X6645362Y4116000D02*
X6651362Y4110000D01*
X6645362Y4104000D01*
X6651362D01*
X6657362Y4098000D01*
X6663362Y4104000D01*
X6669362D01*
X6663362Y4110000D01*
X6669362Y4116000D01*
X6663362D01*
X6657362Y4122000D01*
X6651362Y4116000D01*
X6645362D01*
X6510000Y3941339D02*
X6490000Y3901339D01*
X6470000Y3941339D01*
X6510000D01*
X6620000Y3532677D02*
X6660000D01*
X6640000Y3492677D01*
X6620000Y3532677D01*
X6181417Y4310866D02*
X6171417Y4320866D01*
X6181417Y4330866D01*
X6171417D01*
X6161417Y4340866D01*
X6151417Y4330866D01*
X6141417D01*
X6151417Y4320866D01*
X6141417Y4310866D01*
X6151417D01*
X6161417Y4300866D01*
X6171417Y4310866D01*
X6181417D01*
X6173417Y4314866D02*
X6167417Y4320866D01*
X6173417Y4326866D01*
X6167417D01*
X6161417Y4332866D01*
X6155417Y4326866D01*
X6149417D01*
X6155417Y4320866D01*
X6149417Y4314866D01*
X6155417D01*
X6161417Y4308866D01*
X6167417Y4314866D01*
X6173417D01*
X5989488Y4390000D02*
X5979488Y4400000D01*
X5989488Y4410000D01*
X5979488D01*
X5969488Y4420000D01*
X5959488Y4410000D01*
X5949488D01*
X5959488Y4400000D01*
X5949488Y4390000D01*
X5959488D01*
X5969488Y4380000D01*
X5979488Y4390000D01*
X5989488D01*
X5981488Y4394000D02*
X5975488Y4400000D01*
X5981488Y4406000D01*
X5975488D01*
X5969488Y4412000D01*
X5963488Y4406000D01*
X5957488D01*
X5963488Y4400000D01*
X5957488Y4394000D01*
X5963488D01*
X5969488Y4388000D01*
X5975488Y4394000D01*
X5981488D01*
X6141417Y4606142D02*
X6151417D01*
X6161417Y4596142D01*
X6171417Y4606142D01*
X6181417D01*
X6171417Y4616142D01*
X6181417Y4626142D01*
X6171417D01*
X6161417Y4636142D01*
X6151417Y4626142D01*
X6141417D01*
X6151417Y4616142D01*
X6141417Y4606142D01*
X6149417Y4610142D02*
X6155417D01*
X6161417Y4604142D01*
X6167417Y4610142D01*
X6173417D01*
X6167417Y4616142D01*
X6173417Y4622142D01*
X6167417D01*
X6161417Y4628142D01*
X6155417Y4622142D01*
X6149417D01*
X6155417Y4616142D01*
X6149417Y4610142D01*
X6125000Y4722520D02*
X6105000Y4762520D01*
X6145000D01*
X6125000Y4722520D01*
Y4730520D02*
X6113000Y4754520D01*
X6137000D01*
X6125000Y4730520D01*
X6571299Y4830000D02*
X6581299D01*
X6591299Y4840000D01*
X6601299Y4830000D01*
X6611299D01*
Y4840000D01*
X6601299Y4850000D01*
X6611299Y4860000D01*
Y4870000D01*
X6601299D01*
X6591299Y4860000D01*
X6581299Y4870000D01*
X6571299D01*
Y4860000D01*
X6581299Y4850000D01*
X6571299Y4840000D01*
Y4830000D01*
X6965000D02*
X6975000D01*
X6985000Y4840000D01*
X6995000Y4830000D01*
X7005000D01*
Y4840000D01*
X6995000Y4850000D01*
X7005000Y4860000D01*
Y4870000D01*
X6995000D01*
X6985000Y4860000D01*
X6975000Y4870000D01*
X6965000D01*
Y4860000D01*
X6975000Y4850000D01*
X6965000Y4840000D01*
Y4830000D01*
X5945000Y4762520D02*
X5925000Y4722520D01*
X5905000Y4762520D01*
X5945000D01*
X5937000Y4754520D02*
X5925000Y4730520D01*
X5913000Y4754520D01*
X5937000D01*
X5745000Y4762520D02*
X5725000Y4722520D01*
X5705000Y4762520D01*
X5745000D01*
X5737000Y4754520D02*
X5725000Y4730520D01*
X5713000Y4754520D01*
X5737000D01*
X5694283Y4597228D02*
X5669291D01*
Y4547244D01*
X5694283D01*
X5702614Y4555575D01*
Y4588897D01*
X5694283Y4597228D01*
Y4518488D02*
X5669291D01*
Y4468504D01*
X5694283D01*
X5702614Y4476834D01*
Y4510157D01*
X5694283Y4518488D01*
X5694213Y4410000D02*
X5684213D01*
X5674213Y4420000D01*
X5664213Y4410000D01*
X5654213D01*
X5664213Y4400000D01*
X5654213Y4390000D01*
X5664213D01*
X5674213Y4380000D01*
X5684213Y4390000D01*
X5694213D01*
X5684213Y4400000D01*
X5694213Y4410000D01*
X5686213Y4406000D02*
X5680213D01*
X5674213Y4412000D01*
X5668213Y4406000D01*
X5662213D01*
X5668213Y4400000D01*
X5662213Y4394000D01*
X5668213D01*
X5674213Y4388000D01*
X5680213Y4394000D01*
X5686213D01*
X5680213Y4400000D01*
X5686213Y4406000D01*
X5615543Y4439748D02*
X5590551D01*
Y4389764D01*
X5615543D01*
X5623874Y4398094D01*
Y4431417D01*
X5615543Y4439748D01*
Y4468504D02*
X5623874Y4476834D01*
Y4510157D01*
X5615543Y4518488D01*
X5590551D01*
Y4468504D01*
X5615543D01*
Y4547244D02*
X5623874Y4555575D01*
Y4588897D01*
X5615543Y4597228D01*
X5590551D01*
Y4547244D01*
X5615543D01*
X5525000Y4722520D02*
X5505000Y4762520D01*
X5545000D01*
X5525000Y4722520D01*
Y4730520D02*
X5513000Y4754520D01*
X5537000D01*
X5525000Y4730520D01*
X5263230Y4702776D02*
X5254899Y4711107D01*
X5229907D01*
Y4661123D01*
X5254899D01*
X5263230Y4669454D01*
Y4677784D01*
X5254899Y4686115D01*
X5229907D01*
X5254899D01*
X5263230Y4694446D01*
Y4702776D01*
X5314961Y4577543D02*
Y4527559D01*
X5339953D01*
X5348283Y4535890D01*
Y4544220D01*
X5339953Y4552551D01*
X5314961D01*
X5339953D01*
X5348283Y4560882D01*
Y4569212D01*
X5339953Y4577543D01*
X5314961D01*
X4990000Y4762520D02*
X4970000Y4722520D01*
X4950000Y4762520D01*
X4990000D01*
X4982000Y4754520D02*
X4970000Y4730520D01*
X4958000Y4754520D01*
X4982000D01*
X4790000Y4762520D02*
X4770000Y4722520D01*
X4750000Y4762520D01*
X4790000D01*
X4782000Y4754520D02*
X4770000Y4730520D01*
X4758000Y4754520D01*
X4782000D01*
X4551333Y4921341D02*
Y4954663D01*
X4543002Y4962994D01*
X4518010D01*
Y4913010D01*
X4543002D01*
X4551333Y4921341D01*
X4395000Y4815000D02*
X4385000Y4795000D01*
X4395000Y4775000D01*
X4375000Y4785000D01*
X4355000Y4775000D01*
X4365000Y4795000D01*
X4355000Y4815000D01*
X4375000Y4805000D01*
X4395000Y4815000D01*
X4295000D02*
X4285000Y4795000D01*
X4295000Y4775000D01*
X4275000Y4785000D01*
X4255000Y4775000D01*
X4265000Y4795000D01*
X4255000Y4815000D01*
X4275000Y4805000D01*
X4295000Y4815000D01*
X4441990Y4661974D02*
Y4611990D01*
X4466982D01*
X4475313Y4620321D01*
Y4653643D01*
X4466982Y4661974D01*
X4441990D01*
X4500000Y4500000D02*
X4520000Y4520000D01*
X4540000Y4500000D01*
X4520000Y4480000D01*
X4500000Y4500000D01*
X4383323Y4511653D02*
X4374992Y4519984D01*
X4350000D01*
Y4470000D01*
X4374992D01*
X4383323Y4478331D01*
Y4511653D01*
X4298323Y4326653D02*
X4289992Y4334984D01*
X4265000D01*
Y4285000D01*
X4289992D01*
X4298323Y4293331D01*
Y4326653D01*
X4200000Y4500000D02*
X4180000Y4480000D01*
X4160000Y4500000D01*
X4180000Y4520000D01*
X4200000Y4500000D01*
X4199992Y4379984D02*
X4175000D01*
Y4330000D01*
X4199992D01*
X4208323Y4338331D01*
Y4371653D01*
X4199992Y4379984D01*
X4098323Y4326653D02*
X4089992Y4334984D01*
X4065000D01*
Y4285000D01*
X4089992D01*
X4098323Y4293331D01*
Y4326653D01*
X4360000Y4125000D02*
X4400000D01*
X4380000Y4085000D01*
X4360000Y4125000D01*
X4497008Y3742228D02*
Y3692244D01*
X4530330D01*
Y3694984D02*
X4497008D01*
Y3645000D01*
X4530330D01*
Y3647740D02*
X4497008D01*
Y3597756D01*
X4530330D01*
X4528504Y3621378D02*
X4561827D01*
X4560000Y3622748D02*
X4576661D01*
X4560000Y3645000D02*
X4593323D01*
Y3647740D02*
X4560000D01*
Y3597756D01*
X4593323D01*
X4599992Y3519984D02*
X4575000D01*
Y3470000D01*
X4599992D01*
X4608323Y3478331D01*
Y3511653D01*
X4599992Y3519984D01*
X4625000Y3505000D02*
X4635000Y3495000D01*
X4625000Y3485000D01*
X4635000D01*
X4645000Y3475000D01*
X4655000Y3485000D01*
X4665000D01*
X4655000Y3495000D01*
X4665000Y3505000D01*
X4655000D01*
X4645000Y3515000D01*
X4635000Y3505000D01*
X4625000D01*
X4633000Y3501000D02*
X4639000Y3495000D01*
X4633000Y3489000D01*
X4639000D01*
X4645000Y3483000D01*
X4651000Y3489000D01*
X4657000D01*
X4651000Y3495000D01*
X4657000Y3501000D01*
X4651000D01*
X4645000Y3507000D01*
X4639000Y3501000D01*
X4633000D01*
X4825000Y3468323D02*
X4841661Y3484984D01*
X4858323Y3468323D01*
Y3435000D01*
Y3459992D01*
X4825000D01*
Y3468323D02*
Y3435000D01*
X4724528Y3192953D02*
X4714528D01*
Y3202953D01*
X4694528D01*
Y3192953D01*
X4684528D01*
Y3172953D01*
X4694528D01*
Y3162953D01*
X4714528D01*
Y3172953D01*
X4724528D01*
Y3192953D01*
X4665472Y2937047D02*
X4655472D01*
Y2947047D01*
X4635472D01*
Y2937047D01*
X4625472D01*
Y2917047D01*
X4635472D01*
Y2907047D01*
X4655472D01*
Y2917047D01*
X4665472D01*
Y2937047D01*
X4665000Y2865276D02*
X4655000D01*
X4645000Y2875276D01*
X4635000Y2865276D01*
X4625000D01*
X4635000Y2855276D01*
X4625000Y2845276D01*
X4635000D01*
X4645000Y2835276D01*
X4655000Y2845276D01*
X4665000D01*
X4655000Y2855276D01*
X4665000Y2865276D01*
X4657000Y2861276D02*
X4651000D01*
X4645000Y2867276D01*
X4639000Y2861276D01*
X4633000D01*
X4639000Y2855276D01*
X4633000Y2849276D01*
X4639000D01*
X4645000Y2843276D01*
X4651000Y2849276D01*
X4657000D01*
X4651000Y2855276D01*
X4657000Y2861276D01*
X4599819Y2802228D02*
X4566496D01*
Y2752244D01*
X4599819D01*
Y2707740D02*
X4566496D01*
Y2657756D01*
X4599819D01*
Y2705000D02*
X4566496D01*
Y2754984D01*
X4599819D01*
X4583157Y2777236D02*
X4566496D01*
X4568323Y2782543D02*
X4535000D01*
Y2732559D01*
X4568323D01*
Y2731362D02*
X4535000D01*
Y2681378D01*
X4568323D01*
X4566496Y2682748D02*
X4583157D01*
Y2729992D02*
X4566496D01*
X4551661Y2706370D02*
X4535000D01*
X4536827Y2707740D02*
X4503504D01*
Y2657756D01*
X4536827D01*
X4520165Y2682748D02*
X4503504D01*
Y2705000D02*
X4536827D01*
X4503504D02*
Y2754984D01*
X4536827D01*
X4535000Y2757551D02*
X4551661D01*
X4520165Y2777236D02*
X4503504D01*
Y2802228D02*
Y2752244D01*
X4536827D01*
X4520165Y2729992D02*
X4503504D01*
X4570000Y2594984D02*
Y2545000D01*
X4594992D01*
X4603323Y2553331D01*
Y2586653D01*
X4594992Y2594984D01*
X4570000D01*
X4625000Y2570000D02*
X4635000Y2560000D01*
X4625000Y2550000D01*
X4635000D01*
X4645000Y2540000D01*
X4655000Y2550000D01*
X4665000D01*
X4655000Y2560000D01*
X4665000Y2570000D01*
X4655000D01*
X4645000Y2580000D01*
X4635000Y2570000D01*
X4625000D01*
X4633000Y2566000D02*
X4639000Y2560000D01*
X4633000Y2554000D01*
X4639000D01*
X4645000Y2548000D01*
X4651000Y2554000D01*
X4657000D01*
X4651000Y2560000D01*
X4657000Y2566000D01*
X4651000D01*
X4645000Y2572000D01*
X4639000Y2566000D01*
X4633000D01*
X4825000Y2488323D02*
X4841661Y2504984D01*
X4858323Y2488323D01*
Y2455000D01*
Y2479992D01*
X4825000D01*
Y2488323D02*
Y2455000D01*
X5005000Y2710000D02*
X5025000D01*
Y2720000D01*
X5035000D01*
Y2740000D01*
X5025000D01*
Y2750000D01*
X5005000D01*
Y2740000D01*
X4995000D01*
Y2720000D01*
X5005000D01*
Y2710000D01*
X5009000Y2718000D02*
X5021000D01*
Y2724000D01*
X5027000D01*
Y2736000D01*
X5021000D01*
Y2742000D01*
X5009000D01*
Y2736000D01*
X5003000D01*
Y2724000D01*
X5009000D01*
Y2718000D01*
X5005000Y2810000D02*
X5025000D01*
Y2820000D01*
X5035000D01*
Y2840000D01*
X5025000D01*
Y2850000D01*
X5005000D01*
Y2840000D01*
X4995000D01*
Y2820000D01*
X5005000D01*
Y2810000D01*
X5009000Y2818000D02*
X5021000D01*
Y2824000D01*
X5027000D01*
Y2836000D01*
X5021000D01*
Y2842000D01*
X5009000D01*
Y2836000D01*
X5003000D01*
Y2824000D01*
X5009000D01*
Y2818000D01*
X5005000Y2910000D02*
X5025000D01*
Y2920000D01*
X5035000D01*
Y2940000D01*
X5025000D01*
Y2950000D01*
X5005000D01*
Y2940000D01*
X4995000D01*
Y2920000D01*
X5005000D01*
Y2910000D01*
X5009000Y2918000D02*
X5021000D01*
Y2924000D01*
X5027000D01*
Y2936000D01*
X5021000D01*
Y2942000D01*
X5009000D01*
Y2936000D01*
X5003000D01*
Y2924000D01*
X5009000D01*
Y2918000D01*
X5005000Y3110000D02*
X5025000D01*
Y3120000D01*
X5035000D01*
Y3140000D01*
X5025000D01*
Y3150000D01*
X5005000D01*
Y3140000D01*
X4995000D01*
Y3120000D01*
X5005000D01*
Y3110000D01*
X5009000Y3118000D02*
X5021000D01*
Y3124000D01*
X5027000D01*
Y3136000D01*
X5021000D01*
Y3142000D01*
X5009000D01*
Y3136000D01*
X5003000D01*
Y3124000D01*
X5009000D01*
Y3118000D01*
X4858323Y3155000D02*
Y3179992D01*
X4825000D01*
Y3188323D02*
X4841661Y3204984D01*
X4858323Y3188323D01*
Y3155000D01*
X4825000D02*
Y3188323D01*
X4536827Y2802228D02*
X4503504D01*
X4364031Y3059512D02*
Y3092834D01*
X4355701Y3101165D01*
X4330709D01*
Y3051181D01*
X4355701D01*
X4364031Y3059512D01*
X4323716Y2601653D02*
X4315386Y2609984D01*
X4290394D01*
Y2560000D01*
X4315386D01*
X4323716Y2568331D01*
Y2601653D01*
X3830000Y2983740D02*
Y2993740D01*
X3840000D01*
Y3013740D01*
X3830000D01*
Y3023740D01*
X3810000D01*
Y3013740D01*
X3800000D01*
Y2993740D01*
X3810000D01*
Y2983740D01*
X3830000D01*
X3730000D02*
Y2993740D01*
X3740000D01*
Y3013740D01*
X3730000D01*
Y3023740D01*
X3710000D01*
Y3013740D01*
X3700000D01*
Y2993740D01*
X3710000D01*
Y2983740D01*
X3730000D01*
X3630000D02*
Y2993740D01*
X3640000D01*
Y3013740D01*
X3630000D01*
Y3023740D01*
X3610000D01*
Y3013740D01*
X3600000D01*
Y2993740D01*
X3610000D01*
Y2983740D01*
X3630000D01*
X3530000D02*
Y2993740D01*
X3540000D01*
Y3013740D01*
X3530000D01*
Y3023740D01*
X3510000D01*
Y3013740D01*
X3500000D01*
Y2993740D01*
X3510000D01*
Y2983740D01*
X3530000D01*
X3430000D02*
Y2993740D01*
X3440000D01*
Y3013740D01*
X3430000D01*
Y3023740D01*
X3410000D01*
Y3013740D01*
X3400000D01*
Y2993740D01*
X3410000D01*
Y2983740D01*
X3430000D01*
X3241984Y2955039D02*
X3233653Y2963370D01*
X3208661D01*
Y2913386D01*
X3233653D01*
X3241984Y2921716D01*
Y2955039D01*
X3287402Y2786204D02*
Y2736220D01*
X3312394D01*
X3320724Y2744551D01*
Y2777874D01*
X3312394Y2786204D01*
X3287402D01*
X3090000Y3010000D02*
X3070000Y3020000D01*
X3050000Y3010000D01*
X3060000Y3030000D01*
X3050000Y3050000D01*
X3070000Y3040000D01*
X3090000Y3050000D01*
X3080000Y3030000D01*
X3090000Y3010000D01*
X3082000Y3018000D02*
X3070000Y3024000D01*
X3058000Y3018000D01*
X3064000Y3030000D01*
X3058000Y3042000D01*
X3070000Y3036000D01*
X3082000Y3042000D01*
X3076000Y3030000D01*
X3082000Y3018000D01*
X3116535Y2800000D02*
Y2790000D01*
X3126535Y2780000D01*
X3116535Y2770000D01*
Y2760000D01*
X3126535D01*
X3136535Y2770000D01*
X3146535Y2760000D01*
X3156535D01*
Y2770000D01*
X3146535Y2780000D01*
X3156535Y2790000D01*
Y2800000D01*
X3146535D01*
X3136535Y2790000D01*
X3126535Y2800000D01*
X3116535D01*
X3124535Y2792000D02*
Y2786000D01*
X3130535Y2780000D01*
X3124535Y2774000D01*
Y2768000D01*
X3130535D01*
X3136535Y2774000D01*
X3142535Y2768000D01*
X3148535D01*
Y2774000D01*
X3142535Y2780000D01*
X3148535Y2786000D01*
Y2792000D01*
X3142535D01*
X3136535Y2786000D01*
X3130535Y2792000D01*
X3124535D01*
X2990000Y3010000D02*
X2970000Y3020000D01*
X2950000Y3010000D01*
X2960000Y3030000D01*
X2950000Y3050000D01*
X2970000Y3040000D01*
X2990000Y3050000D01*
X2980000Y3030000D01*
X2990000Y3010000D01*
X2982000Y3018000D02*
X2970000Y3024000D01*
X2958000Y3018000D01*
X2964000Y3030000D01*
X2958000Y3042000D01*
X2970000Y3036000D01*
X2982000Y3042000D01*
X2976000Y3030000D01*
X2982000Y3018000D01*
X2956535Y2800000D02*
X2946535D01*
X2936535Y2790000D01*
X2926535Y2800000D01*
X2916535D01*
Y2790000D01*
X2926535Y2780000D01*
X2916535Y2770000D01*
Y2760000D01*
X2926535D01*
X2936535Y2770000D01*
X2946535Y2760000D01*
X2956535D01*
Y2770000D01*
X2946535Y2780000D01*
X2956535Y2790000D01*
Y2800000D01*
X2948535Y2792000D02*
X2942535D01*
X2936535Y2786000D01*
X2930535Y2792000D01*
X2924535D01*
Y2786000D01*
X2930535Y2780000D01*
X2924535Y2774000D01*
Y2768000D01*
X2930535D01*
X2936535Y2774000D01*
X2942535Y2768000D01*
X2948535D01*
Y2774000D01*
X2942535Y2780000D01*
X2948535Y2786000D01*
Y2792000D01*
X3016535Y2790000D02*
X3026535Y2780000D01*
X3016535Y2770000D01*
Y2760000D01*
X3026535D01*
X3036535Y2770000D01*
X3046535Y2760000D01*
X3056535D01*
Y2770000D01*
X3046535Y2780000D01*
X3056535Y2790000D01*
Y2800000D01*
X3046535D01*
X3036535Y2790000D01*
X3026535Y2800000D01*
X3016535D01*
Y2790000D01*
X3024535Y2792000D02*
Y2786000D01*
X3030535Y2780000D01*
X3024535Y2774000D01*
Y2768000D01*
X3030535D01*
X3036535Y2774000D01*
X3042535Y2768000D01*
X3048535D01*
Y2774000D01*
X3042535Y2780000D01*
X3048535Y2786000D01*
Y2792000D01*
X3042535D01*
X3036535Y2786000D01*
X3030535Y2792000D01*
X3024535D01*
X2927023Y2659763D02*
X2918693Y2668094D01*
X2893701D01*
Y2618110D01*
X2918693D01*
X2927023Y2626441D01*
Y2659763D01*
X3116535Y2500000D02*
Y2490000D01*
X3126535Y2480000D01*
X3116535Y2470000D01*
Y2460000D01*
X3126535D01*
X3136535Y2470000D01*
X3146535Y2460000D01*
X3156535D01*
Y2470000D01*
X3146535Y2480000D01*
X3156535Y2490000D01*
Y2500000D01*
X3146535D01*
X3136535Y2490000D01*
X3126535Y2500000D01*
X3116535D01*
X3124535Y2492000D02*
Y2486000D01*
X3130535Y2480000D01*
X3124535Y2474000D01*
Y2468000D01*
X3130535D01*
X3136535Y2474000D01*
X3142535Y2468000D01*
X3148535D01*
Y2474000D01*
X3142535Y2480000D01*
X3148535Y2486000D01*
Y2492000D01*
X3142535D01*
X3136535Y2486000D01*
X3130535Y2492000D01*
X3124535D01*
X3320724Y2443228D02*
X3312394Y2451559D01*
X3287402D01*
Y2401575D01*
X3312394D01*
X3320724Y2409905D01*
Y2443228D01*
X3298323Y2081653D02*
X3289992Y2089984D01*
X3265000D01*
Y2040000D01*
X3289992D01*
X3298323Y2048331D01*
Y2081653D01*
X2990000Y2210000D02*
X2970000Y2220000D01*
X2950000Y2210000D01*
X2960000Y2230000D01*
X2950000Y2250000D01*
X2970000Y2240000D01*
X2990000Y2250000D01*
X2980000Y2230000D01*
X2990000Y2210000D01*
X2982000Y2218000D02*
X2970000Y2224000D01*
X2958000Y2218000D01*
X2964000Y2230000D01*
X2958000Y2242000D01*
X2970000Y2236000D01*
X2982000Y2242000D01*
X2976000Y2230000D01*
X2982000Y2218000D01*
X2890000Y2210000D02*
X2870000Y2220000D01*
X2850000Y2210000D01*
X2860000Y2230000D01*
X2850000Y2250000D01*
X2870000Y2240000D01*
X2890000Y2250000D01*
X2880000Y2230000D01*
X2890000Y2210000D01*
X2882000Y2218000D02*
X2870000Y2224000D01*
X2858000Y2218000D01*
X2864000Y2230000D01*
X2858000Y2242000D01*
X2870000Y2236000D01*
X2882000Y2242000D01*
X2876000Y2230000D01*
X2882000Y2218000D01*
X2860000Y2060000D02*
Y2020000D01*
X2820000D01*
Y2060000D01*
X2860000D01*
X2852000Y2052000D02*
Y2028000D01*
X2828000D01*
Y2052000D01*
X2852000D01*
X2860000Y1960000D02*
Y1920000D01*
X2820000D01*
Y1960000D01*
X2860000D01*
X2852000Y1952000D02*
Y1928000D01*
X2828000D01*
Y1952000D01*
X2852000D01*
X2651433Y2094945D02*
Y2128267D01*
X2643102Y2136598D01*
X2618110D01*
Y2086614D01*
X2643102D01*
X2651433Y2094945D01*
X2692795Y1977677D02*
X2732795D01*
X2712795Y1937677D01*
X2692795Y1977677D01*
X2681614Y1869252D02*
X2671614D01*
X2661614Y1879252D01*
X2651614Y1869252D01*
X2641614D01*
X2651614Y1859252D01*
X2641614Y1849252D01*
X2651614D01*
X2661614Y1839252D01*
X2671614Y1849252D01*
X2681614D01*
X2671614Y1859252D01*
X2681614Y1869252D01*
X2553323Y2053331D02*
Y2086653D01*
X2544992Y2094984D01*
X2520000D01*
Y2045000D01*
X2544992D01*
X2553323Y2053331D01*
X2457205Y1973740D02*
X2437205Y1933740D01*
X2417205Y1973740D01*
X2457205D01*
X2468386Y1869252D02*
X2478386Y1859252D01*
X2468386Y1849252D01*
X2478386D01*
X2488386Y1839252D01*
X2498386Y1849252D01*
X2508386D01*
X2498386Y1859252D01*
X2508386Y1869252D01*
X2498386D01*
X2488386Y1879252D01*
X2478386Y1869252D01*
X2468386D01*
X2290000Y2020000D02*
X2250000D01*
Y2060000D01*
X2290000D01*
Y2020000D01*
X2282000Y2028000D02*
X2258000D01*
Y2052000D01*
X2282000D01*
Y2028000D01*
X2290000Y1960000D02*
Y1920000D01*
X2250000D01*
Y1960000D01*
X2290000D01*
X2282000Y1952000D02*
Y1928000D01*
X2258000D01*
Y1952000D01*
X2282000D01*
X2198677Y1911732D02*
X2190346Y1920062D01*
X2165354D01*
Y1870079D01*
X2190346D01*
X2198677Y1878409D01*
Y1911732D01*
X1962457Y2154000D02*
Y2187323D01*
X1954126Y2195653D01*
X1929134D01*
Y2145669D01*
X1954126D01*
X1962457Y2154000D01*
X2210000Y2455000D02*
X2230000D01*
Y2465000D01*
X2240000D01*
Y2485000D01*
X2230000D01*
Y2495000D01*
X2210000D01*
Y2485000D01*
X2200000D01*
Y2465000D01*
X2210000D01*
Y2455000D01*
X2310000D02*
X2330000D01*
Y2465000D01*
X2340000D01*
Y2485000D01*
X2330000D01*
Y2495000D01*
X2310000D01*
Y2485000D01*
X2300000D01*
Y2465000D01*
X2310000D01*
Y2455000D01*
X2616535Y2760000D02*
X2626535D01*
X2636535Y2770000D01*
X2646535Y2760000D01*
X2656535D01*
Y2770000D01*
X2646535Y2780000D01*
X2656535Y2790000D01*
Y2800000D01*
X2646535D01*
X2636535Y2790000D01*
X2626535Y2800000D01*
X2616535D01*
Y2790000D01*
X2626535Y2780000D01*
X2616535Y2770000D01*
Y2760000D01*
X2624535Y2768000D02*
X2630535D01*
X2636535Y2774000D01*
X2642535Y2768000D01*
X2648535D01*
Y2774000D01*
X2642535Y2780000D01*
X2648535Y2786000D01*
Y2792000D01*
X2642535D01*
X2636535Y2786000D01*
X2630535Y2792000D01*
X2624535D01*
Y2786000D01*
X2630535Y2780000D01*
X2624535Y2774000D01*
Y2768000D01*
X2716535Y2770000D02*
Y2760000D01*
X2726535D01*
X2736535Y2770000D01*
X2746535Y2760000D01*
X2756535D01*
Y2770000D01*
X2746535Y2780000D01*
X2756535Y2790000D01*
Y2800000D01*
X2746535D01*
X2736535Y2790000D01*
X2726535Y2800000D01*
X2716535D01*
Y2790000D01*
X2726535Y2780000D01*
X2716535Y2770000D01*
X2724535Y2768000D02*
X2730535D01*
X2736535Y2774000D01*
X2742535Y2768000D01*
X2748535D01*
Y2774000D01*
X2742535Y2780000D01*
X2748535Y2786000D01*
Y2792000D01*
X2742535D01*
X2736535Y2786000D01*
X2730535Y2792000D01*
X2724535D01*
Y2786000D01*
X2730535Y2780000D01*
X2724535Y2774000D01*
Y2768000D01*
X2816535Y2770000D02*
Y2760000D01*
X2826535D01*
X2836535Y2770000D01*
X2846535Y2760000D01*
X2856535D01*
Y2770000D01*
X2846535Y2780000D01*
X2856535Y2790000D01*
Y2800000D01*
X2846535D01*
X2836535Y2790000D01*
X2826535Y2800000D01*
X2816535D01*
Y2790000D01*
X2826535Y2780000D01*
X2816535Y2770000D01*
X2824535Y2768000D02*
X2830535D01*
X2836535Y2774000D01*
X2842535Y2768000D01*
X2848535D01*
Y2774000D01*
X2842535Y2780000D01*
X2848535Y2786000D01*
Y2792000D01*
X2842535D01*
X2836535Y2786000D01*
X2830535Y2792000D01*
X2824535D01*
Y2786000D01*
X2830535Y2780000D01*
X2824535Y2774000D01*
Y2768000D01*
X2850000Y3010000D02*
X2860000Y3030000D01*
X2850000Y3050000D01*
X2870000Y3040000D01*
X2890000Y3050000D01*
X2880000Y3030000D01*
X2890000Y3010000D01*
X2870000Y3020000D01*
X2850000Y3010000D01*
X2858000Y3018000D02*
X2864000Y3030000D01*
X2858000Y3042000D01*
X2870000Y3036000D01*
X2882000Y3042000D01*
X2876000Y3030000D01*
X2882000Y3018000D01*
X2870000Y3024000D01*
X2858000Y3018000D01*
X2858465Y3173425D02*
X2883456D01*
X2891787Y3181756D01*
Y3215079D01*
X2883456Y3223409D01*
X2858465D01*
Y3173425D01*
X2580000Y3285000D02*
X2560000Y3325000D01*
X2600000D01*
X2580000Y3285000D01*
X2330000Y3410000D02*
Y3420000D01*
X2340000D01*
Y3440000D01*
X2330000D01*
Y3450000D01*
X2310000D01*
Y3440000D01*
X2300000D01*
Y3420000D01*
X2310000D01*
Y3410000D01*
X2330000D01*
Y3510000D02*
Y3520000D01*
X2340000D01*
Y3540000D01*
X2330000D01*
Y3550000D01*
X2310000D01*
Y3540000D01*
X2300000D01*
Y3520000D01*
X2310000D01*
Y3510000D01*
X2330000D01*
Y3610000D02*
Y3620000D01*
X2340000D01*
Y3640000D01*
X2330000D01*
Y3650000D01*
X2310000D01*
Y3640000D01*
X2300000D01*
Y3620000D01*
X2310000D01*
Y3610000D01*
X2330000D01*
X2580000Y3685000D02*
X2560000Y3725000D01*
X2600000D01*
X2580000Y3685000D01*
Y4085000D02*
X2560000Y4125000D01*
X2600000D01*
X2580000Y4085000D01*
X2913386Y3661417D02*
X2938378D01*
X2946708Y3669748D01*
Y3703070D01*
X2938378Y3711401D01*
X2913386D01*
Y3661417D01*
X3307087Y3337385D02*
Y3287402D01*
X3332079D01*
X3340409Y3295732D01*
Y3329055D01*
X3332079Y3337385D01*
X3307087D01*
X3620000Y3443740D02*
X3644992D01*
X3653323Y3452071D01*
Y3485393D01*
X3644992Y3493724D01*
X3620000D01*
Y3443740D01*
X3956693Y3484252D02*
X3981685D01*
X3990015Y3492583D01*
Y3525905D01*
X3981685Y3534236D01*
X3956693D01*
Y3484252D01*
X4153543D02*
X4178535D01*
X4186866Y3492583D01*
Y3525905D01*
X4178535Y3534236D01*
X4153543D01*
Y3484252D01*
X4360000Y3325000D02*
X4400000D01*
X4380000Y3285000D01*
X4360000Y3325000D01*
X4497008Y3622748D02*
X4513669D01*
X4528504Y3621378D02*
Y3671362D01*
X4561827D01*
X4560000Y3669992D02*
X4576661D01*
X4560000Y3645000D02*
Y3694984D01*
X4593323D01*
Y3692244D02*
X4560000D01*
Y3742228D01*
X4593323D01*
X4625000Y3780276D02*
X4635000D01*
X4645000Y3770276D01*
X4655000Y3780276D01*
X4665000D01*
X4655000Y3790276D01*
X4665000Y3800276D01*
X4655000D01*
X4645000Y3810276D01*
X4635000Y3800276D01*
X4625000D01*
X4635000Y3790276D01*
X4625000Y3780276D01*
X4633000Y3784276D02*
X4639000D01*
X4645000Y3778276D01*
X4651000Y3784276D01*
X4657000D01*
X4651000Y3790276D01*
X4657000Y3796276D01*
X4651000D01*
X4645000Y3802276D01*
X4639000Y3796276D01*
X4633000D01*
X4639000Y3790276D01*
X4633000Y3784276D01*
X4635472Y3867047D02*
X4655472D01*
Y3877047D01*
X4665472D01*
Y3897047D01*
X4655472D01*
Y3907047D01*
X4635472D01*
Y3897047D01*
X4625472D01*
Y3877047D01*
X4635472D01*
Y3867047D01*
X4694528Y4122953D02*
X4714528D01*
Y4132953D01*
X4724528D01*
Y4152953D01*
X4714528D01*
Y4162953D01*
X4694528D01*
Y4152953D01*
X4684528D01*
Y4132953D01*
X4694528D01*
Y4122953D01*
X4825000Y4135000D02*
Y4168323D01*
X4841661Y4184984D01*
X4858323Y4168323D01*
Y4135000D01*
Y4159992D01*
X4825000D01*
X5005000Y4115000D02*
Y4105000D01*
X4995000D01*
Y4085000D01*
X5005000D01*
Y4075000D01*
X5025000D01*
Y4085000D01*
X5035000D01*
Y4105000D01*
X5025000D01*
Y4115000D01*
X5005000D01*
X5009000Y4107000D02*
Y4101000D01*
X5003000D01*
Y4089000D01*
X5009000D01*
Y4083000D01*
X5021000D01*
Y4089000D01*
X5027000D01*
Y4101000D01*
X5021000D01*
Y4107000D01*
X5009000D01*
X5005000Y3915000D02*
Y3905000D01*
X4995000D01*
Y3885000D01*
X5005000D01*
Y3875000D01*
X5025000D01*
Y3885000D01*
X5035000D01*
Y3905000D01*
X5025000D01*
Y3915000D01*
X5005000D01*
X5009000Y3907000D02*
Y3901000D01*
X5003000D01*
Y3889000D01*
X5009000D01*
Y3883000D01*
X5021000D01*
Y3889000D01*
X5027000D01*
Y3901000D01*
X5021000D01*
Y3907000D01*
X5009000D01*
X5005000Y3815000D02*
Y3805000D01*
X4995000D01*
Y3785000D01*
X5005000D01*
Y3775000D01*
X5025000D01*
Y3785000D01*
X5035000D01*
Y3805000D01*
X5025000D01*
Y3815000D01*
X5005000D01*
X5009000Y3807000D02*
Y3801000D01*
X5003000D01*
Y3789000D01*
X5009000D01*
Y3783000D01*
X5021000D01*
Y3789000D01*
X5027000D01*
Y3801000D01*
X5021000D01*
Y3807000D01*
X5009000D01*
X5005000Y3715000D02*
Y3705000D01*
X4995000D01*
Y3685000D01*
X5005000D01*
Y3675000D01*
X5025000D01*
Y3685000D01*
X5035000D01*
Y3705000D01*
X5025000D01*
Y3715000D01*
X5005000D01*
X5009000Y3707000D02*
Y3701000D01*
X5003000D01*
Y3689000D01*
X5009000D01*
Y3683000D01*
X5021000D01*
Y3689000D01*
X5027000D01*
Y3701000D01*
X5021000D01*
Y3707000D01*
X5009000D01*
X4576661Y3717236D02*
X4560000D01*
X4561827Y3722543D02*
X4528504D01*
Y3672559D01*
X4561827D01*
X4545165Y3697551D02*
X4528504D01*
X4513669Y3717236D02*
X4497008D01*
Y3742228D02*
X4530330D01*
X4513669Y3669992D02*
X4497008D01*
X4528504Y3646370D02*
X4545165D01*
X5230000Y2604984D02*
Y2555000D01*
X5254992D01*
X5263323Y2563331D01*
Y2571661D01*
X5254992Y2579992D01*
X5230000D01*
X5254992D01*
X5263323Y2588323D01*
Y2596653D01*
X5254992Y2604984D01*
X5230000D01*
X5507323Y2660000D02*
X5487323Y2700000D01*
X5527323D01*
X5507323Y2660000D01*
X5780000Y3899252D02*
X5760000Y3939252D01*
X5800000D01*
X5780000Y3899252D01*
X4195000Y4775000D02*
X4175000Y4785000D01*
X4155000Y4775000D01*
X4165000Y4795000D01*
X4155000Y4815000D01*
X4175000Y4805000D01*
X4195000Y4815000D01*
X4185000Y4795000D01*
X4195000Y4775000D01*
X4095000D02*
X4075000Y4785000D01*
X4055000Y4775000D01*
X4065000Y4795000D01*
X4055000Y4815000D01*
X4075000Y4805000D01*
X4095000Y4815000D01*
X4085000Y4795000D01*
X4095000Y4775000D01*
X3895000D02*
X3875000Y4785000D01*
X3855000Y4775000D01*
X3865000Y4795000D01*
X3855000Y4815000D01*
X3875000Y4805000D01*
X3895000Y4815000D01*
X3885000Y4795000D01*
X3895000Y4775000D01*
X3795000D02*
X3775000Y4785000D01*
X3755000Y4775000D01*
X3765000Y4795000D01*
X3755000Y4815000D01*
X3775000Y4805000D01*
X3795000Y4815000D01*
X3785000Y4795000D01*
X3795000Y4775000D01*
X3620000Y4791850D02*
X3580000D01*
Y4831850D01*
X3620000D01*
Y4791850D01*
X3612000Y4799850D02*
X3588000D01*
Y4823850D01*
X3612000D01*
Y4799850D01*
X3603323Y4676653D02*
X3594992Y4684984D01*
X3570000D01*
Y4635000D01*
X3594992D01*
X3603323Y4643331D01*
Y4676653D01*
X3620000Y4438150D02*
Y4398150D01*
X3580000D01*
Y4438150D01*
X3620000D01*
X3612000Y4430150D02*
Y4406150D01*
X3588000D01*
Y4430150D01*
X3612000D01*
X3563323Y4181653D02*
X3554992Y4189984D01*
X3530000D01*
Y4140000D01*
X3554992D01*
X3563323Y4148331D01*
Y4181653D01*
X3350000Y4500000D02*
X3330000Y4480000D01*
X3310000Y4500000D01*
X3330000Y4520000D01*
X3350000Y4500000D01*
X3138323Y4516653D02*
X3129992Y4524984D01*
X3105000D01*
Y4475000D01*
X3129992D01*
X3138323Y4483331D01*
Y4516653D01*
X3010000Y4500000D02*
X2990000Y4480000D01*
X2970000Y4500000D01*
X2990000Y4520000D01*
X3010000Y4500000D01*
X2911850Y4520000D02*
Y4480000D01*
X2871850D01*
Y4520000D01*
X2911850D01*
X2903850Y4512000D02*
Y4488000D01*
X2879850D01*
Y4512000D01*
X2903850D01*
X3065000Y4775000D02*
X3075000Y4795000D01*
X3065000Y4815000D01*
X3085000Y4805000D01*
X3105000Y4815000D01*
X3095000Y4795000D01*
X3105000Y4775000D01*
X3085000Y4785000D01*
X3065000Y4775000D01*
X3165000D02*
X3175000Y4795000D01*
X3165000Y4815000D01*
X3185000Y4805000D01*
X3205000Y4815000D01*
X3195000Y4795000D01*
X3205000Y4775000D01*
X3185000Y4785000D01*
X3165000Y4775000D01*
X3005000D02*
X2985000Y4785000D01*
X2965000Y4775000D01*
X2975000Y4795000D01*
X2965000Y4815000D01*
X2985000Y4805000D01*
X3005000Y4815000D01*
X2995000Y4795000D01*
X3005000Y4775000D01*
X2905000D02*
X2885000Y4785000D01*
X2865000Y4775000D01*
X2875000Y4795000D01*
X2865000Y4815000D01*
X2885000Y4805000D01*
X2905000Y4815000D01*
X2895000Y4795000D01*
X2905000Y4775000D01*
X2705000D02*
X2685000Y4785000D01*
X2665000Y4775000D01*
X2675000Y4795000D01*
X2665000Y4815000D01*
X2685000Y4805000D01*
X2705000Y4815000D01*
X2695000Y4795000D01*
X2705000Y4775000D01*
X2605000D02*
X2585000Y4785000D01*
X2565000Y4775000D01*
X2575000Y4795000D01*
X2565000Y4815000D01*
X2585000Y4805000D01*
X2605000Y4815000D01*
X2595000Y4795000D01*
X2605000Y4775000D01*
X2518150Y4520000D02*
Y4480000D01*
X2478150D01*
Y4520000D01*
X2518150D01*
X2510150Y4512000D02*
Y4488000D01*
X2486150D01*
Y4512000D01*
X2510150D01*
X1583323Y4808331D02*
X1574992Y4800000D01*
X1558331D01*
X1550000Y4808331D01*
Y4841653D01*
X1558331Y4849984D01*
X1574992D01*
X1583323Y4841653D01*
X1587480Y4570000D02*
X1627480D01*
X1607480Y4530000D01*
X1587480Y4570000D01*
X1595480Y4562000D02*
X1619480D01*
X1607480Y4538000D01*
X1595480Y4562000D01*
X1587480Y4370000D02*
X1627480D01*
X1607480Y4330000D01*
X1587480Y4370000D01*
X1595480Y4362000D02*
X1619480D01*
X1607480Y4338000D01*
X1595480Y4362000D01*
X1587480Y4170000D02*
X1627480D01*
X1607480Y4130000D01*
X1587480Y4170000D01*
X1595480Y4162000D02*
X1619480D01*
X1607480Y4138000D01*
X1595480Y4162000D01*
X1587480Y3970000D02*
X1627480D01*
X1607480Y3930000D01*
X1587480Y3970000D01*
X1595480Y3962000D02*
X1619480D01*
X1607480Y3938000D01*
X1595480Y3962000D01*
X1587480Y3770000D02*
X1627480D01*
X1607480Y3730000D01*
X1587480Y3770000D01*
X1595480Y3762000D02*
X1619480D01*
X1607480Y3738000D01*
X1595480Y3762000D01*
X1587480Y3570000D02*
X1627480D01*
X1607480Y3530000D01*
X1587480Y3570000D01*
X1595480Y3562000D02*
X1619480D01*
X1607480Y3538000D01*
X1595480Y3562000D01*
X2516535Y2800000D02*
Y2790000D01*
X2526535Y2780000D01*
X2516535Y2770000D01*
Y2760000D01*
X2526535D01*
X2536535Y2770000D01*
X2546535Y2760000D01*
X2556535D01*
Y2770000D01*
X2546535Y2780000D01*
X2556535Y2790000D01*
Y2800000D01*
X2546535D01*
X2536535Y2790000D01*
X2526535Y2800000D01*
X2516535D01*
X2524535Y2792000D02*
Y2786000D01*
X2530535Y2780000D01*
X2524535Y2774000D01*
Y2768000D01*
X2530535D01*
X2536535Y2774000D01*
X2542535Y2768000D01*
X2548535D01*
Y2774000D01*
X2542535Y2780000D01*
X2548535Y2786000D01*
Y2792000D01*
X2542535D01*
X2536535Y2786000D01*
X2530535Y2792000D01*
X2524535D01*
D202*
X1825000Y1865000D02*
G03*
X1825000Y1865000I-20000J0D01*
G01*
X2025000D02*
G03*
X2025000Y1865000I-20000J0D01*
G01*
X2125000Y2365000D02*
G03*
X2125000Y2365000I-20000J0D01*
G01*
X1925000D02*
G03*
X1925000Y2365000I-20000J0D01*
G01*
X1725000D02*
G03*
X1725000Y2365000I-20000J0D01*
G01*
X1525906Y2460630D02*
G03*
X1525906Y2460630I-20000J0D01*
G01*
X1427480D02*
G03*
X1427480Y2460630I-20000J0D01*
G01*
Y2381890D02*
G03*
X1427480Y2381890I-20000J0D01*
G01*
Y2303150D02*
G03*
X1427480Y2303150I-20000J0D01*
G01*
X1525906D02*
G03*
X1525906Y2303150I-20000J0D01*
G01*
Y2381890D02*
G03*
X1525906Y2381890I-20000J0D01*
G01*
X2320000Y4254724D02*
G03*
X2320000Y4254724I-20000J0D01*
G01*
Y4550000D02*
G03*
X2320000Y4550000I-20000J0D01*
G01*
X1898740D02*
G03*
X1898740Y4550000I-20000J0D01*
G01*
Y4254724D02*
G03*
X1898740Y4254724I-20000J0D01*
G01*
X5532323Y3390000D02*
G03*
X5532323Y3390000I-20000J0D01*
G01*
Y3791575D02*
G03*
X5532323Y3791575I-20000J0D01*
G01*
X6615000Y3390000D02*
G03*
X6615000Y3390000I-20000J0D01*
G01*
Y3791575D02*
G03*
X6615000Y3791575I-20000J0D01*
G01*
X7110000Y4450000D02*
G03*
X7110000Y4450000I-20000J0D01*
G01*
Y4871260D02*
G03*
X7110000Y4871260I-20000J0D01*
G01*
X6814724D02*
G03*
X6814724Y4871260I-20000J0D01*
G01*
Y4450000D02*
G03*
X6814724Y4450000I-20000J0D01*
G01*
%TF.MD5,d7f7d1ddd0f9db342cb0f1145b9c07b2*%
M02*
