G04 Layer_Color=8388736*
%FSLAX26Y26*%
%MOIN*%
%TF.FileFunction,Soldermask,Top*%
%TF.Part,Single*%
G01*
G75*
%TA.AperFunction,NonConductor*%
%ADD102C,0.100000*%
%TA.AperFunction,SMDPad,CuDef*%
%ADD103R,0.068000X0.048000*%
%TA.AperFunction,ComponentPad*%
%ADD104C,0.086740*%
%ADD105C,0.059181*%
G04:AMPARAMS|DCode=106|XSize=59.181mil|YSize=59.181mil|CornerRadius=0mil|HoleSize=0mil|Usage=FLASHONLY|Rotation=270.000|XOffset=0mil|YOffset=0mil|HoleType=Round|Shape=Octagon|*
%AMOCTAGOND106*
4,1,8,-0.014795,-0.029591,0.014795,-0.029591,0.029591,-0.014795,0.029591,0.014795,0.014795,0.029591,-0.014795,0.029591,-0.029591,0.014795,-0.029591,-0.014795,-0.014795,-0.029591,0.0*
%
%ADD106OCTAGOND106*%

%ADD107C,0.098551*%
%ADD108C,0.078866*%
%ADD109C,0.068000*%
G04:AMPARAMS|DCode=110|XSize=68mil|YSize=68mil|CornerRadius=0mil|HoleSize=0mil|Usage=FLASHONLY|Rotation=0.000|XOffset=0mil|YOffset=0mil|HoleType=Round|Shape=Octagon|*
%AMOCTAGOND110*
4,1,8,0.034000,-0.017000,0.034000,0.017000,0.017000,0.034000,-0.017000,0.034000,-0.034000,0.017000,-0.034000,-0.017000,-0.017000,-0.034000,0.017000,-0.034000,0.034000,-0.017000,0.0*
%
%ADD110OCTAGOND110*%

%ADD111C,0.073000*%
G04:AMPARAMS|DCode=112|XSize=73mil|YSize=73mil|CornerRadius=7.25mil|HoleSize=0mil|Usage=FLASHONLY|Rotation=180.000|XOffset=0mil|YOffset=0mil|HoleType=Round|Shape=RoundedRectangle|*
%AMROUNDEDRECTD112*
21,1,0.073000,0.058500,0,0,180.0*
21,1,0.058500,0.073000,0,0,180.0*
1,1,0.014500,-0.029250,0.029250*
1,1,0.014500,0.029250,0.029250*
1,1,0.014500,0.029250,-0.029250*
1,1,0.014500,-0.029250,-0.029250*
%
%ADD112ROUNDEDRECTD112*%
%ADD113C,0.126110*%
G04:AMPARAMS|DCode=114|XSize=126.11mil|YSize=126.11mil|CornerRadius=0mil|HoleSize=0mil|Usage=FLASHONLY|Rotation=270.000|XOffset=0mil|YOffset=0mil|HoleType=Round|Shape=Octagon|*
%AMOCTAGOND114*
4,1,8,-0.031527,-0.063055,0.031527,-0.063055,0.063055,-0.031528,0.063055,0.031528,0.031527,0.063055,-0.031527,0.063055,-0.063055,0.031528,-0.063055,-0.031528,-0.031527,-0.063055,0.0*
%
%ADD114OCTAGOND114*%

G04:AMPARAMS|DCode=115|XSize=73mil|YSize=73mil|CornerRadius=7.25mil|HoleSize=0mil|Usage=FLASHONLY|Rotation=90.000|XOffset=0mil|YOffset=0mil|HoleType=Round|Shape=RoundedRectangle|*
%AMROUNDEDRECTD115*
21,1,0.073000,0.058500,0,0,90.0*
21,1,0.058500,0.073000,0,0,90.0*
1,1,0.014500,0.029250,0.029250*
1,1,0.014500,0.029250,-0.029250*
1,1,0.014500,-0.029250,-0.029250*
1,1,0.014500,-0.029250,0.029250*
%
%ADD115ROUNDEDRECTD115*%
%ADD116C,0.106425*%
G04:AMPARAMS|DCode=117|XSize=106.425mil|YSize=106.425mil|CornerRadius=13.842mil|HoleSize=0mil|Usage=FLASHONLY|Rotation=0.000|XOffset=0mil|YOffset=0mil|HoleType=Round|Shape=RoundedRectangle|*
%AMROUNDEDRECTD117*
21,1,0.106425,0.078740,0,0,0.0*
21,1,0.078740,0.106425,0,0,0.0*
1,1,0.027685,0.039370,-0.039370*
1,1,0.027685,-0.039370,-0.039370*
1,1,0.027685,-0.039370,0.039370*
1,1,0.027685,0.039370,0.039370*
%
%ADD117ROUNDEDRECTD117*%
%ADD118C,0.070992*%
G04:AMPARAMS|DCode=119|XSize=126.11mil|YSize=126.11mil|CornerRadius=0mil|HoleSize=0mil|Usage=FLASHONLY|Rotation=180.000|XOffset=0mil|YOffset=0mil|HoleType=Round|Shape=Octagon|*
%AMOCTAGOND119*
4,1,8,-0.063055,0.031527,-0.063055,-0.031527,-0.031528,-0.063055,0.031528,-0.063055,0.063055,-0.031527,0.063055,0.031527,0.031528,0.063055,-0.031528,0.063055,-0.063055,0.031527,0.0*
%
%ADD119OCTAGOND119*%

G04:AMPARAMS|DCode=120|XSize=137.921mil|YSize=137.921mil|CornerRadius=0mil|HoleSize=0mil|Usage=FLASHONLY|Rotation=270.000|XOffset=0mil|YOffset=0mil|HoleType=Round|Shape=Octagon|*
%AMOCTAGOND120*
4,1,8,-0.034480,-0.068961,0.034480,-0.068961,0.068961,-0.034480,0.068961,0.034480,0.034480,0.068961,-0.034480,0.068961,-0.068961,0.034480,-0.068961,-0.034480,-0.034480,-0.068961,0.0*
%
%ADD120OCTAGOND120*%

%ADD121C,0.137921*%
%ADD122C,0.102488*%
%ADD123C,0.063118*%
%ADD124O,0.067055X0.055244*%
G04:AMPARAMS|DCode=125|XSize=137.921mil|YSize=137.921mil|CornerRadius=0mil|HoleSize=0mil|Usage=FLASHONLY|Rotation=180.000|XOffset=0mil|YOffset=0mil|HoleType=Round|Shape=Octagon|*
%AMOCTAGOND125*
4,1,8,-0.068961,0.034480,-0.068961,-0.034480,-0.034480,-0.068961,0.034480,-0.068961,0.068961,-0.034480,0.068961,0.034480,0.034480,0.068961,-0.034480,0.068961,-0.068961,0.034480,0.0*
%
%ADD125OCTAGOND125*%

%ADD126O,0.114299X0.096189*%
%ADD127O,0.072000X0.098000*%
%ADD128R,0.072000X0.098000*%
%TA.AperFunction,WasherPad*%
%ADD129C,0.185165*%
%TA.AperFunction,ViaPad*%
%ADD130C,0.126110*%
%ADD131C,0.053000*%
D102*
X4862205Y2657480D02*
X4980315Y2539370D01*
Y2381890D01*
X4862205Y2657480D02*
Y3070866D01*
X5413386Y3582677D02*
X6496063D01*
Y3818898D01*
Y3602362D02*
Y3307087D01*
X6358268Y3602362D02*
Y4094488D01*
X6614173Y4350394D01*
X6692913D01*
X6791339Y4448819D01*
X6889764Y4645669D02*
X6948819Y4704724D01*
X6889764Y4645669D02*
X6673228D01*
X6614173Y4586614D01*
X6456693D01*
X6062992Y4192913D01*
X5728346D01*
X5629921Y4291338D01*
Y4468504D01*
X5314961Y4094488D02*
Y3681102D01*
X5413386Y3582677D01*
X5314961Y4094488D02*
X5000000Y4409449D01*
X6279528Y4015748D02*
Y1950748D01*
X6419252D02*
X6771654Y2303150D01*
X7076772D01*
X7204724Y2431102D01*
X6419252Y1950748D02*
X5780000D01*
D103*
X2397835Y1867500D02*
D03*
Y2042500D02*
D03*
X2752165Y1867500D02*
D03*
Y2042500D02*
D03*
X3142835Y1867500D02*
D03*
Y2042500D02*
D03*
X3497165Y1867500D02*
D03*
Y2042500D02*
D03*
D104*
X1456693Y2185039D02*
D03*
Y2578740D02*
D03*
X2437205Y1953740D02*
D03*
X2712795Y1957677D02*
D03*
X3182205Y1958740D02*
D03*
X3457795Y1962677D02*
D03*
X4645472Y2927047D02*
D03*
X4704528Y3182953D02*
D03*
X4645472Y3887047D02*
D03*
X4704528Y4142953D02*
D03*
D105*
X1407480Y2303150D02*
D03*
Y2381890D02*
D03*
X1505906D02*
D03*
Y2303150D02*
D03*
X1407480Y2460630D02*
D03*
D106*
X1505906Y2460630D02*
D03*
D107*
X2300000Y4254724D02*
D03*
Y4550000D02*
D03*
X1878740D02*
D03*
Y4254724D02*
D03*
X5507323Y2680000D02*
D03*
X5780000Y1950748D02*
D03*
X6640000Y2430000D02*
D03*
X6590000Y2680000D02*
D03*
X6490000Y2838661D02*
D03*
X6640000Y3512677D02*
D03*
X6490000Y3921339D02*
D03*
X7090000Y4450000D02*
D03*
Y4871260D02*
D03*
X6794724D02*
D03*
Y4450000D02*
D03*
X7204724Y3513780D02*
D03*
Y2431102D02*
D03*
X5780000Y3919252D02*
D03*
D108*
X2488386Y1859252D02*
D03*
X2661614D02*
D03*
X3233386Y1864252D02*
D03*
X3406614D02*
D03*
D109*
X4375000Y4795000D02*
D03*
X4275000D02*
D03*
X4175000D02*
D03*
X4075000D02*
D03*
X3875000D02*
D03*
X3185000D02*
D03*
X3085000D02*
D03*
X2985000D02*
D03*
X2885000D02*
D03*
X2685000D02*
D03*
D110*
X3775000Y4795000D02*
D03*
X2585000D02*
D03*
D111*
X2320000Y2475000D02*
D03*
X2330000Y2840000D02*
D03*
X2320000Y3530000D02*
D03*
Y3630000D02*
D03*
X3520000Y3003740D02*
D03*
X3620000D02*
D03*
X3720000D02*
D03*
X4725984Y2244095D02*
D03*
D112*
X2220000Y2475000D02*
D03*
X3420000Y3003740D02*
D03*
X3820000D02*
D03*
X4625984Y2244095D02*
D03*
D113*
X2580000Y3305000D02*
D03*
Y3705000D02*
D03*
Y4105000D02*
D03*
X4380000D02*
D03*
X4825000Y4135000D02*
D03*
X5229907Y4661123D02*
D03*
X4825000Y3435000D02*
D03*
Y3155000D02*
D03*
Y2455000D02*
D03*
X5230000Y2555000D02*
D03*
X6985000Y4377559D02*
D03*
Y4850000D02*
D03*
X6591299D02*
D03*
D114*
X6591299Y4377559D02*
D03*
D115*
X2330000Y2740000D02*
D03*
X2320000Y3430000D02*
D03*
D116*
X1805000Y1865000D02*
D03*
X2005000D02*
D03*
X2105000Y2365000D02*
D03*
X1905000D02*
D03*
X1705000D02*
D03*
X2990000Y4500000D02*
D03*
X4180000D02*
D03*
D117*
X4520000Y4500000D02*
D03*
X3330000D02*
D03*
D118*
X3600000Y4418150D02*
D03*
Y4811850D02*
D03*
X2891850Y4500000D02*
D03*
X2498150D02*
D03*
D119*
X4380000Y3305000D02*
D03*
D120*
X1607480Y2950000D02*
D03*
Y3350000D02*
D03*
Y3750000D02*
D03*
Y4150000D02*
D03*
Y4550000D02*
D03*
D121*
X1607480Y2750000D02*
D03*
Y3150000D02*
D03*
Y3550000D02*
D03*
Y3950000D02*
D03*
Y4350000D02*
D03*
X3890000Y2057481D02*
D03*
X4290000D02*
D03*
X4975000D02*
D03*
X5925000Y4742520D02*
D03*
X5525000D02*
D03*
X4770000D02*
D03*
D122*
X5512323Y3390000D02*
D03*
Y3791575D02*
D03*
X6595000Y3390000D02*
D03*
Y3791575D02*
D03*
D123*
X2870000Y2230000D02*
D03*
X2970000D02*
D03*
X3070000D02*
D03*
Y3030000D02*
D03*
X2970000D02*
D03*
X2870000D02*
D03*
X4645000Y2560000D02*
D03*
Y2855276D02*
D03*
Y3495000D02*
D03*
Y3790276D02*
D03*
X5674213Y4400000D02*
D03*
X5969488D02*
D03*
X6161417Y4320866D02*
D03*
Y4616142D02*
D03*
X6657362Y4110000D02*
D03*
X6952638D02*
D03*
D124*
X2270000Y1940000D02*
D03*
Y2040000D02*
D03*
X2840000Y1940000D02*
D03*
Y2040000D02*
D03*
X3060000Y1940000D02*
D03*
Y2040000D02*
D03*
D125*
X3690000Y2057481D02*
D03*
X4090000D02*
D03*
X4775000D02*
D03*
X6125000Y4742520D02*
D03*
X5725000D02*
D03*
X4970000D02*
D03*
D126*
X5015000Y2730000D02*
D03*
Y2830000D02*
D03*
Y2930000D02*
D03*
Y3130000D02*
D03*
Y3695000D02*
D03*
Y3795000D02*
D03*
Y3895000D02*
D03*
Y4095000D02*
D03*
D127*
X2636535Y2480000D02*
D03*
X2736535D02*
D03*
X2836535D02*
D03*
X2936535D02*
D03*
X3036535D02*
D03*
X3136535D02*
D03*
Y2780000D02*
D03*
X3036535D02*
D03*
X2936535D02*
D03*
X2836535D02*
D03*
X2736535D02*
D03*
X2636535D02*
D03*
X2536535D02*
D03*
D128*
X2536535Y2480000D02*
D03*
D129*
X1550000Y2000000D02*
D03*
Y4800000D02*
D03*
X7146850Y2000000D02*
D03*
Y3790000D02*
D03*
D130*
X5314961Y2047244D02*
D03*
Y4527559D02*
D03*
D131*
X1555118Y2224409D02*
D03*
X1476378Y2952756D02*
D03*
X1417323Y3248032D02*
D03*
%TF.MD5,805a96d3ca0fb26956c6815a0c1a20e9*%
M02*
