G04 Layer_Color=16711935*
%FSLAX26Y26*%
%MOIN*%
%TF.FileFunction,Soldermask,Bot*%
%TF.Part,Single*%
G01*
G75*
%TA.AperFunction,NonConductor*%
%ADD102C,0.100000*%
%TA.AperFunction,ComponentPad*%
%ADD104C,0.086740*%
%ADD105C,0.059181*%
G04:AMPARAMS|DCode=106|XSize=59.181mil|YSize=59.181mil|CornerRadius=0mil|HoleSize=0mil|Usage=FLASHONLY|Rotation=270.000|XOffset=0mil|YOffset=0mil|HoleType=Round|Shape=Octagon|*
%AMOCTAGOND106*
4,1,8,-0.014795,-0.029591,0.014795,-0.029591,0.029591,-0.014795,0.029591,0.014795,0.014795,0.029591,-0.014795,0.029591,-0.029591,0.014795,-0.029591,-0.014795,-0.014795,-0.029591,0.0*
%
%ADD106OCTAGOND106*%

%ADD107C,0.098551*%
%ADD108C,0.078866*%
%ADD109C,0.068000*%
G04:AMPARAMS|DCode=110|XSize=68mil|YSize=68mil|CornerRadius=0mil|HoleSize=0mil|Usage=FLASHONLY|Rotation=0.000|XOffset=0mil|YOffset=0mil|HoleType=Round|Shape=Octagon|*
%AMOCTAGOND110*
4,1,8,0.034000,-0.017000,0.034000,0.017000,0.017000,0.034000,-0.017000,0.034000,-0.034000,0.017000,-0.034000,-0.017000,-0.017000,-0.034000,0.017000,-0.034000,0.034000,-0.017000,0.0*
%
%ADD110OCTAGOND110*%

%ADD111C,0.073000*%
G04:AMPARAMS|DCode=112|XSize=73mil|YSize=73mil|CornerRadius=7.25mil|HoleSize=0mil|Usage=FLASHONLY|Rotation=180.000|XOffset=0mil|YOffset=0mil|HoleType=Round|Shape=RoundedRectangle|*
%AMROUNDEDRECTD112*
21,1,0.073000,0.058500,0,0,180.0*
21,1,0.058500,0.073000,0,0,180.0*
1,1,0.014500,-0.029250,0.029250*
1,1,0.014500,0.029250,0.029250*
1,1,0.014500,0.029250,-0.029250*
1,1,0.014500,-0.029250,-0.029250*
%
%ADD112ROUNDEDRECTD112*%
%ADD113C,0.126110*%
G04:AMPARAMS|DCode=114|XSize=126.11mil|YSize=126.11mil|CornerRadius=0mil|HoleSize=0mil|Usage=FLASHONLY|Rotation=270.000|XOffset=0mil|YOffset=0mil|HoleType=Round|Shape=Octagon|*
%AMOCTAGOND114*
4,1,8,-0.031527,-0.063055,0.031527,-0.063055,0.063055,-0.031528,0.063055,0.031528,0.031527,0.063055,-0.031527,0.063055,-0.063055,0.031528,-0.063055,-0.031528,-0.031527,-0.063055,0.0*
%
%ADD114OCTAGOND114*%

G04:AMPARAMS|DCode=115|XSize=73mil|YSize=73mil|CornerRadius=7.25mil|HoleSize=0mil|Usage=FLASHONLY|Rotation=90.000|XOffset=0mil|YOffset=0mil|HoleType=Round|Shape=RoundedRectangle|*
%AMROUNDEDRECTD115*
21,1,0.073000,0.058500,0,0,90.0*
21,1,0.058500,0.073000,0,0,90.0*
1,1,0.014500,0.029250,0.029250*
1,1,0.014500,0.029250,-0.029250*
1,1,0.014500,-0.029250,-0.029250*
1,1,0.014500,-0.029250,0.029250*
%
%ADD115ROUNDEDRECTD115*%
%ADD116C,0.106425*%
G04:AMPARAMS|DCode=117|XSize=106.425mil|YSize=106.425mil|CornerRadius=13.842mil|HoleSize=0mil|Usage=FLASHONLY|Rotation=0.000|XOffset=0mil|YOffset=0mil|HoleType=Round|Shape=RoundedRectangle|*
%AMROUNDEDRECTD117*
21,1,0.106425,0.078740,0,0,0.0*
21,1,0.078740,0.106425,0,0,0.0*
1,1,0.027685,0.039370,-0.039370*
1,1,0.027685,-0.039370,-0.039370*
1,1,0.027685,-0.039370,0.039370*
1,1,0.027685,0.039370,0.039370*
%
%ADD117ROUNDEDRECTD117*%
%ADD118C,0.070992*%
G04:AMPARAMS|DCode=119|XSize=126.11mil|YSize=126.11mil|CornerRadius=0mil|HoleSize=0mil|Usage=FLASHONLY|Rotation=180.000|XOffset=0mil|YOffset=0mil|HoleType=Round|Shape=Octagon|*
%AMOCTAGOND119*
4,1,8,-0.063055,0.031527,-0.063055,-0.031527,-0.031528,-0.063055,0.031528,-0.063055,0.063055,-0.031527,0.063055,0.031527,0.031528,0.063055,-0.031528,0.063055,-0.063055,0.031527,0.0*
%
%ADD119OCTAGOND119*%

G04:AMPARAMS|DCode=120|XSize=137.921mil|YSize=137.921mil|CornerRadius=0mil|HoleSize=0mil|Usage=FLASHONLY|Rotation=270.000|XOffset=0mil|YOffset=0mil|HoleType=Round|Shape=Octagon|*
%AMOCTAGOND120*
4,1,8,-0.034480,-0.068961,0.034480,-0.068961,0.068961,-0.034480,0.068961,0.034480,0.034480,0.068961,-0.034480,0.068961,-0.068961,0.034480,-0.068961,-0.034480,-0.034480,-0.068961,0.0*
%
%ADD120OCTAGOND120*%

%ADD121C,0.137921*%
%ADD122C,0.102488*%
%ADD123C,0.063118*%
%ADD124O,0.067055X0.055244*%
G04:AMPARAMS|DCode=125|XSize=137.921mil|YSize=137.921mil|CornerRadius=0mil|HoleSize=0mil|Usage=FLASHONLY|Rotation=180.000|XOffset=0mil|YOffset=0mil|HoleType=Round|Shape=Octagon|*
%AMOCTAGOND125*
4,1,8,-0.068961,0.034480,-0.068961,-0.034480,-0.034480,-0.068961,0.034480,-0.068961,0.068961,-0.034480,0.068961,0.034480,0.034480,0.068961,-0.034480,0.068961,-0.068961,0.034480,0.0*
%
%ADD125OCTAGOND125*%

%ADD126O,0.114299X0.096189*%
%ADD127O,0.072000X0.098000*%
%ADD128R,0.072000X0.098000*%
%TA.AperFunction,WasherPad*%
%ADD129C,0.185165*%
%TA.AperFunction,ViaPad*%
%ADD130C,0.126110*%
%ADD131C,0.053000*%
%TA.AperFunction,NonConductor*%
%ADD132C,0.080000*%
%TA.AperFunction,SMDPad,CuDef*%
G04:AMPARAMS|DCode=133|XSize=48mil|YSize=48mil|CornerRadius=7mil|HoleSize=0mil|Usage=FLASHONLY|Rotation=180.000|XOffset=0mil|YOffset=0mil|HoleType=Round|Shape=RoundedRectangle|*
%AMROUNDEDRECTD133*
21,1,0.048000,0.034000,0,0,180.0*
21,1,0.034000,0.048000,0,0,180.0*
1,1,0.014000,-0.017000,0.017000*
1,1,0.014000,0.017000,0.017000*
1,1,0.014000,0.017000,-0.017000*
1,1,0.014000,-0.017000,-0.017000*
%
%ADD133ROUNDEDRECTD133*%
%ADD134R,0.048000X0.038000*%
%ADD135O,0.048000X0.038000*%
%ADD136R,0.038000X0.048000*%
%ADD137O,0.038000X0.048000*%
%ADD138O,0.031622X0.043433*%
%ADD139R,0.031622X0.043433*%
%ADD140O,0.076898X0.031622*%
%ADD141R,0.076898X0.031622*%
%ADD142R,0.102488X0.130047*%
G04:AMPARAMS|DCode=143|XSize=31.622mil|YSize=88.709mil|CornerRadius=0mil|HoleSize=0mil|Usage=FLASHONLY|Rotation=270.000|XOffset=0mil|YOffset=0mil|HoleType=Round|Shape=Octagon|*
%AMOCTAGOND143*
4,1,8,0.044354,0.007905,0.044354,-0.007905,0.036449,-0.015811,-0.036449,-0.015811,-0.044354,-0.007905,-0.044354,0.007905,-0.036449,0.015811,0.036449,0.015811,0.044354,0.007905,0.0*
%
%ADD143OCTAGOND143*%

%ADD144R,0.088709X0.031622*%
%ADD145R,0.031622X0.076898*%
%ADD146O,0.031622X0.076898*%
G04:AMPARAMS|DCode=147|XSize=48mil|YSize=48mil|CornerRadius=7mil|HoleSize=0mil|Usage=FLASHONLY|Rotation=270.000|XOffset=0mil|YOffset=0mil|HoleType=Round|Shape=RoundedRectangle|*
%AMROUNDEDRECTD147*
21,1,0.048000,0.034000,0,0,270.0*
21,1,0.034000,0.048000,0,0,270.0*
1,1,0.014000,-0.017000,-0.017000*
1,1,0.014000,-0.017000,0.017000*
1,1,0.014000,0.017000,0.017000*
1,1,0.014000,0.017000,-0.017000*
%
%ADD147ROUNDEDRECTD147*%
G04:AMPARAMS|DCode=148|XSize=71mil|YSize=79mil|CornerRadius=8.725mil|HoleSize=0mil|Usage=FLASHONLY|Rotation=90.000|XOffset=0mil|YOffset=0mil|HoleType=Round|Shape=RoundedRectangle|*
%AMROUNDEDRECTD148*
21,1,0.071000,0.061550,0,0,90.0*
21,1,0.053550,0.079000,0,0,90.0*
1,1,0.017450,0.030775,0.026775*
1,1,0.017450,0.030775,-0.026775*
1,1,0.017450,-0.030775,-0.026775*
1,1,0.017450,-0.030775,0.026775*
%
%ADD148ROUNDEDRECTD148*%
G04:AMPARAMS|DCode=149|XSize=71mil|YSize=79mil|CornerRadius=8.725mil|HoleSize=0mil|Usage=FLASHONLY|Rotation=0.000|XOffset=0mil|YOffset=0mil|HoleType=Round|Shape=RoundedRectangle|*
%AMROUNDEDRECTD149*
21,1,0.071000,0.061550,0,0,0.0*
21,1,0.053550,0.079000,0,0,0.0*
1,1,0.017450,0.026775,-0.030775*
1,1,0.017450,-0.026775,-0.030775*
1,1,0.017450,-0.026775,0.030775*
1,1,0.017450,0.026775,0.030775*
%
%ADD149ROUNDEDRECTD149*%
%ADD150R,0.094614X0.088709*%
G04:AMPARAMS|DCode=151|XSize=94.614mil|YSize=88.709mil|CornerRadius=0mil|HoleSize=0mil|Usage=FLASHONLY|Rotation=0.000|XOffset=0mil|YOffset=0mil|HoleType=Round|Shape=Octagon|*
%AMOCTAGOND151*
4,1,8,0.047307,-0.022177,0.047307,0.022177,0.025130,0.044354,-0.025130,0.044354,-0.047307,0.022177,-0.047307,-0.022177,-0.025130,-0.044354,0.025130,-0.044354,0.047307,-0.022177,0.0*
%
%ADD151OCTAGOND151*%

%ADD152R,0.070992X0.031622*%
%ADD153O,0.070992X0.031622*%
%ADD154R,0.074929X0.070992*%
G04:AMPARAMS|DCode=155|XSize=74.929mil|YSize=70.992mil|CornerRadius=0mil|HoleSize=0mil|Usage=FLASHONLY|Rotation=0.000|XOffset=0mil|YOffset=0mil|HoleType=Round|Shape=Octagon|*
%AMOCTAGOND155*
4,1,8,0.037465,-0.017748,0.037465,0.017748,0.019717,0.035496,-0.019717,0.035496,-0.037465,0.017748,-0.037465,-0.017748,-0.019717,-0.035496,0.019717,-0.035496,0.037465,-0.017748,0.0*
%
%ADD155OCTAGOND155*%

G04:AMPARAMS|DCode=156|XSize=74.929mil|YSize=70.992mil|CornerRadius=0mil|HoleSize=0mil|Usage=FLASHONLY|Rotation=270.000|XOffset=0mil|YOffset=0mil|HoleType=Round|Shape=Octagon|*
%AMOCTAGOND156*
4,1,8,-0.017748,-0.037465,0.017748,-0.037465,0.035496,-0.019717,0.035496,0.019717,0.017748,0.037465,-0.017748,0.037465,-0.035496,0.019717,-0.035496,-0.019717,-0.017748,-0.037465,0.0*
%
%ADD156OCTAGOND156*%

%ADD157R,0.070992X0.074929*%
G04:AMPARAMS|DCode=158|XSize=43.433mil|YSize=43.433mil|CornerRadius=0mil|HoleSize=0mil|Usage=FLASHONLY|Rotation=270.000|XOffset=0mil|YOffset=0mil|HoleType=Round|Shape=Octagon|*
%AMOCTAGOND158*
4,1,8,-0.010858,-0.021717,0.010858,-0.021717,0.021717,-0.010858,0.021717,0.010858,0.010858,0.021717,-0.010858,0.021717,-0.021717,0.010858,-0.021717,-0.010858,-0.010858,-0.021717,0.0*
%
%ADD158OCTAGOND158*%

%ADD159R,0.043433X0.043433*%
G04:AMPARAMS|DCode=160|XSize=43.433mil|YSize=43.433mil|CornerRadius=0mil|HoleSize=0mil|Usage=FLASHONLY|Rotation=0.000|XOffset=0mil|YOffset=0mil|HoleType=Round|Shape=Octagon|*
%AMOCTAGOND160*
4,1,8,0.021717,-0.010858,0.021717,0.010858,0.010858,0.021717,-0.010858,0.021717,-0.021717,0.010858,-0.021717,-0.010858,-0.010858,-0.021717,0.010858,-0.021717,0.021717,-0.010858,0.0*
%
%ADD160OCTAGOND160*%

%ADD161R,0.043433X0.043433*%
G04:AMPARAMS|DCode=162|XSize=43.433mil|YSize=41.465mil|CornerRadius=0mil|HoleSize=0mil|Usage=FLASHONLY|Rotation=0.000|XOffset=0mil|YOffset=0mil|HoleType=Round|Shape=Octagon|*
%AMOCTAGOND162*
4,1,8,0.021717,-0.010366,0.021717,0.010366,0.011351,0.020732,-0.011351,0.020732,-0.021717,0.010366,-0.021717,-0.010366,-0.011351,-0.020732,0.011351,-0.020732,0.021717,-0.010366,0.0*
%
%ADD162OCTAGOND162*%

%ADD163R,0.043433X0.041465*%
%ADD164R,0.043433X0.031622*%
%ADD165O,0.043433X0.031622*%
G04:AMPARAMS|DCode=166|XSize=63.118mil|YSize=78.866mil|CornerRadius=8.134mil|HoleSize=0mil|Usage=FLASHONLY|Rotation=90.000|XOffset=0mil|YOffset=0mil|HoleType=Round|Shape=RoundedRectangle|*
%AMROUNDEDRECTD166*
21,1,0.063118,0.062599,0,0,90.0*
21,1,0.046850,0.078866,0,0,90.0*
1,1,0.016268,0.031299,0.023425*
1,1,0.016268,0.031299,-0.023425*
1,1,0.016268,-0.031299,-0.023425*
1,1,0.016268,-0.031299,0.023425*
%
%ADD166ROUNDEDRECTD166*%
G04:AMPARAMS|DCode=167|XSize=63.118mil|YSize=78.866mil|CornerRadius=8.134mil|HoleSize=0mil|Usage=FLASHONLY|Rotation=0.000|XOffset=0mil|YOffset=0mil|HoleType=Round|Shape=RoundedRectangle|*
%AMROUNDEDRECTD167*
21,1,0.063118,0.062599,0,0,0.0*
21,1,0.046850,0.078866,0,0,0.0*
1,1,0.016268,0.023425,-0.031299*
1,1,0.016268,-0.023425,-0.031299*
1,1,0.016268,-0.023425,0.031299*
1,1,0.016268,0.023425,0.031299*
%
%ADD167ROUNDEDRECTD167*%
%ADD168O,0.031622X0.070992*%
%ADD169R,0.031622X0.070992*%
D102*
X4783465Y2106299D02*
Y2145669D01*
X4881890Y2244095D01*
X5492126D01*
X5785472Y1950748D01*
X6139803D01*
X6850394Y2401575D02*
Y4015748D01*
X6948819Y4114173D01*
Y4308819D01*
X7090000Y4450000D01*
X6811024Y4862205D02*
X6614173D01*
X6496063Y4744095D01*
X6259842D01*
X6043307Y4527559D01*
X6023622Y4409449D02*
Y4744095D01*
X5629921D02*
Y4389764D01*
X5492126Y3799213D02*
X6082677D01*
X6181102Y3897638D01*
Y3897638D02*
X6417323Y4133858D01*
X6181102Y3897638D02*
Y3425197D01*
X5685905Y2930000D01*
X5511811Y2677165D02*
X5905512D01*
X6299212Y3070866D01*
X6830709D01*
X5015000Y4433819D02*
X4770000Y4678819D01*
X5015000Y4433819D02*
Y4095000D01*
D104*
X1456693Y2185039D02*
D03*
Y2578740D02*
D03*
X2437205Y1953740D02*
D03*
X2712795Y1957677D02*
D03*
X3182205Y1958740D02*
D03*
X3457795Y1962677D02*
D03*
X4645472Y2927047D02*
D03*
X4704528Y3182953D02*
D03*
X4645472Y3887047D02*
D03*
X4704528Y4142953D02*
D03*
D105*
X1407480Y2303150D02*
D03*
Y2381890D02*
D03*
X1505906D02*
D03*
Y2303150D02*
D03*
X1407480Y2460630D02*
D03*
D106*
X1505906Y2460630D02*
D03*
D107*
X2300000Y4254724D02*
D03*
Y4550000D02*
D03*
X1878740D02*
D03*
Y4254724D02*
D03*
X5507323Y2680000D02*
D03*
X5780000Y1950748D02*
D03*
X6640000Y2430000D02*
D03*
X6590000Y2680000D02*
D03*
X6490000Y2838661D02*
D03*
X6640000Y3512677D02*
D03*
X6490000Y3921339D02*
D03*
X7090000Y4450000D02*
D03*
Y4871260D02*
D03*
X6794724D02*
D03*
Y4450000D02*
D03*
X7204724Y3513780D02*
D03*
Y2431102D02*
D03*
X5780000Y3919252D02*
D03*
D108*
X2488386Y1859252D02*
D03*
X2661614D02*
D03*
X3233386Y1864252D02*
D03*
X3406614D02*
D03*
D109*
X4375000Y4795000D02*
D03*
X4275000D02*
D03*
X4175000D02*
D03*
X4075000D02*
D03*
X3875000D02*
D03*
X3185000D02*
D03*
X3085000D02*
D03*
X2985000D02*
D03*
X2885000D02*
D03*
X2685000D02*
D03*
D110*
X3775000Y4795000D02*
D03*
X2585000D02*
D03*
D111*
X2320000Y2475000D02*
D03*
X2330000Y2840000D02*
D03*
X2320000Y3530000D02*
D03*
Y3630000D02*
D03*
X3520000Y3003740D02*
D03*
X3620000D02*
D03*
X3720000D02*
D03*
X4725984Y2244095D02*
D03*
D112*
X2220000Y2475000D02*
D03*
X3420000Y3003740D02*
D03*
X3820000D02*
D03*
X4625984Y2244095D02*
D03*
D113*
X2580000Y3305000D02*
D03*
Y3705000D02*
D03*
Y4105000D02*
D03*
X4380000D02*
D03*
X4825000Y4135000D02*
D03*
X5229907Y4661123D02*
D03*
X4825000Y3435000D02*
D03*
Y3155000D02*
D03*
Y2455000D02*
D03*
X5230000Y2555000D02*
D03*
X6985000Y4377559D02*
D03*
Y4850000D02*
D03*
X6591299D02*
D03*
D114*
X6591299Y4377559D02*
D03*
D115*
X2330000Y2740000D02*
D03*
X2320000Y3430000D02*
D03*
D116*
X1805000Y1865000D02*
D03*
X2005000D02*
D03*
X2105000Y2365000D02*
D03*
X1905000D02*
D03*
X1705000D02*
D03*
X2990000Y4500000D02*
D03*
X4180000D02*
D03*
D117*
X4520000Y4500000D02*
D03*
X3330000D02*
D03*
D118*
X3600000Y4418150D02*
D03*
Y4811850D02*
D03*
X2891850Y4500000D02*
D03*
X2498150D02*
D03*
D119*
X4380000Y3305000D02*
D03*
D120*
X1607480Y2950000D02*
D03*
Y3350000D02*
D03*
Y3750000D02*
D03*
Y4150000D02*
D03*
Y4550000D02*
D03*
D121*
X1607480Y2750000D02*
D03*
Y3150000D02*
D03*
Y3550000D02*
D03*
Y3950000D02*
D03*
Y4350000D02*
D03*
X3890000Y2057481D02*
D03*
X4290000D02*
D03*
X4975000D02*
D03*
X5925000Y4742520D02*
D03*
X5525000D02*
D03*
X4770000D02*
D03*
D122*
X5512323Y3390000D02*
D03*
Y3791575D02*
D03*
X6595000Y3390000D02*
D03*
Y3791575D02*
D03*
D123*
X2870000Y2230000D02*
D03*
X2970000D02*
D03*
X3070000D02*
D03*
Y3030000D02*
D03*
X2970000D02*
D03*
X2870000D02*
D03*
X4645000Y2560000D02*
D03*
Y2855276D02*
D03*
Y3495000D02*
D03*
Y3790276D02*
D03*
X5674213Y4400000D02*
D03*
X5969488D02*
D03*
X6161417Y4320866D02*
D03*
Y4616142D02*
D03*
X6657362Y4110000D02*
D03*
X6952638D02*
D03*
D124*
X2270000Y1940000D02*
D03*
Y2040000D02*
D03*
X2840000Y1940000D02*
D03*
Y2040000D02*
D03*
X3060000Y1940000D02*
D03*
Y2040000D02*
D03*
D125*
X3690000Y2057481D02*
D03*
X4090000D02*
D03*
X4775000D02*
D03*
X6125000Y4742520D02*
D03*
X5725000D02*
D03*
X4970000D02*
D03*
D126*
X5015000Y2730000D02*
D03*
Y2830000D02*
D03*
Y2930000D02*
D03*
Y3130000D02*
D03*
Y3695000D02*
D03*
Y3795000D02*
D03*
Y3895000D02*
D03*
Y4095000D02*
D03*
D127*
X2636535Y2480000D02*
D03*
X2736535D02*
D03*
X2836535D02*
D03*
X2936535D02*
D03*
X3036535D02*
D03*
X3136535D02*
D03*
Y2780000D02*
D03*
X3036535D02*
D03*
X2936535D02*
D03*
X2836535D02*
D03*
X2736535D02*
D03*
X2636535D02*
D03*
X2536535D02*
D03*
D128*
X2536535Y2480000D02*
D03*
D129*
X1550000Y2000000D02*
D03*
Y4800000D02*
D03*
X7146850Y2000000D02*
D03*
Y3790000D02*
D03*
D130*
X5314961Y2047244D02*
D03*
Y4527559D02*
D03*
D131*
X1555118Y2224409D02*
D03*
X1476378Y2952756D02*
D03*
X1417323Y3248032D02*
D03*
D132*
X5015000Y2930000D02*
X5685905D01*
X5748032Y3897638D02*
X5019685D01*
D133*
X2350000Y1936535D02*
D03*
Y2003465D02*
D03*
X2836535Y2596535D02*
D03*
Y2663465D02*
D03*
X2736535D02*
D03*
X2670000D02*
D03*
Y2596535D02*
D03*
X2736535D02*
D03*
X2430000Y2755000D02*
D03*
Y2821929D02*
D03*
X2450000Y2991535D02*
D03*
Y3058465D02*
D03*
X2106299Y3372047D02*
D03*
Y3438976D02*
D03*
X2007874Y3281496D02*
D03*
Y3214567D02*
D03*
X1948819D02*
D03*
Y3281496D02*
D03*
X1889764Y3242126D02*
D03*
Y3175197D02*
D03*
X1965000Y3013465D02*
D03*
Y2946535D02*
D03*
X1948819Y2868110D02*
D03*
Y2801181D02*
D03*
X2027559Y2828740D02*
D03*
Y2761811D02*
D03*
X2106299Y2801181D02*
D03*
Y2868110D02*
D03*
X1740000Y2941535D02*
D03*
Y3008465D02*
D03*
X1745000Y3356535D02*
D03*
Y3423465D02*
D03*
X2075000Y3611535D02*
D03*
Y3678465D02*
D03*
Y4021535D02*
D03*
Y4088465D02*
D03*
X2300000Y4366535D02*
D03*
Y4433465D02*
D03*
X1850000D02*
D03*
Y4366535D02*
D03*
X3105000Y4546535D02*
D03*
Y4613465D02*
D03*
X3690167Y3658465D02*
D03*
Y3591535D02*
D03*
X3655000Y3357205D02*
D03*
Y3290276D02*
D03*
Y3197205D02*
D03*
Y3130276D02*
D03*
X3680000Y2773465D02*
D03*
X3745000D02*
D03*
Y2706535D02*
D03*
X3680000D02*
D03*
X3215000Y2781535D02*
D03*
Y2848465D02*
D03*
Y2483465D02*
D03*
Y2416535D02*
D03*
X4335000Y2716535D02*
D03*
X4515000Y2871535D02*
D03*
X4735000Y2731535D02*
D03*
X4815000D02*
D03*
X4895000D02*
D03*
Y2798465D02*
D03*
X4815000D02*
D03*
X4735000D02*
D03*
X4515000Y2938465D02*
D03*
X4335000Y2783465D02*
D03*
X4325167Y3626535D02*
D03*
X4515000Y3791535D02*
D03*
X4735167Y3773465D02*
D03*
Y3706535D02*
D03*
X4815167D02*
D03*
Y3773465D02*
D03*
X4895167D02*
D03*
Y3706535D02*
D03*
X4515000Y3858465D02*
D03*
X4325167Y3693465D02*
D03*
X4275000Y4528525D02*
D03*
Y4595455D02*
D03*
X1633858Y2592520D02*
D03*
Y2525590D02*
D03*
X1555118D02*
D03*
Y2592520D02*
D03*
D134*
X2011811Y3072834D02*
D03*
X1925197Y3110236D02*
D03*
D135*
X2011811Y3147638D02*
D03*
D136*
X2007874Y2700787D02*
D03*
X1970472Y2614173D02*
D03*
D137*
X2045276Y2614173D02*
D03*
D138*
X1797598Y2872244D02*
D03*
X1734252Y3275591D02*
D03*
X3802402Y3196496D02*
D03*
D139*
X1872401Y2777756D02*
D03*
Y2872244D02*
D03*
X1835000D02*
D03*
X1797598Y2777756D02*
D03*
X1809055Y3181102D02*
D03*
X1734252D02*
D03*
X1771653Y3275591D02*
D03*
X1809055D02*
D03*
X3727599Y3196496D02*
D03*
X3765000D02*
D03*
X3727599Y3290984D02*
D03*
X3802402D02*
D03*
D140*
X4428701Y2630000D02*
D03*
X4422205Y3570000D02*
D03*
D141*
X4428701Y2680000D02*
D03*
Y2730000D02*
D03*
Y2780000D02*
D03*
X4641299Y2730000D02*
D03*
Y2680000D02*
D03*
Y2630000D02*
D03*
Y2780000D02*
D03*
X4634803Y3570000D02*
D03*
Y3620000D02*
D03*
Y3670000D02*
D03*
Y3720000D02*
D03*
X4422205D02*
D03*
Y3670000D02*
D03*
Y3620000D02*
D03*
D142*
X4535000Y2705000D02*
D03*
X4528504Y3645000D02*
D03*
D143*
X3817412Y3575000D02*
D03*
X3834488Y2685000D02*
D03*
D144*
X3817412Y3625000D02*
D03*
Y3675000D02*
D03*
X4222923Y3625000D02*
D03*
Y3575000D02*
D03*
Y3675000D02*
D03*
X3834488Y2785000D02*
D03*
Y2735000D02*
D03*
X4240000D02*
D03*
Y2685000D02*
D03*
Y2785000D02*
D03*
D145*
X3430000Y3137441D02*
D03*
X3480000D02*
D03*
X3530000D02*
D03*
Y3350039D02*
D03*
X3580000D02*
D03*
X3480000D02*
D03*
X3430000D02*
D03*
D146*
X3580000Y3137441D02*
D03*
D147*
X2056535Y1965000D02*
D03*
X2123465D02*
D03*
X2886535Y2330000D02*
D03*
X2953465D02*
D03*
X3053071D02*
D03*
X3120000D02*
D03*
X3253071Y2580000D02*
D03*
X3320000D02*
D03*
Y2680000D02*
D03*
X3253071D02*
D03*
X3626535Y2565000D02*
D03*
X3693465D02*
D03*
X3756535D02*
D03*
X3823465D02*
D03*
X4021535Y2560000D02*
D03*
X4088465D02*
D03*
X4156535D02*
D03*
X4223465D02*
D03*
X3793465Y3353740D02*
D03*
X3726535D02*
D03*
X3618465Y3590000D02*
D03*
X3551535D02*
D03*
X3103465Y2930000D02*
D03*
X3036535D02*
D03*
X2953465D02*
D03*
X2858465Y3115000D02*
D03*
X2791535D02*
D03*
X2768465Y2985000D02*
D03*
X2886535Y2930000D02*
D03*
X2701535Y2985000D02*
D03*
X2698465Y2905000D02*
D03*
X2631535D02*
D03*
X2543465Y2910000D02*
D03*
X2476535D02*
D03*
X2063465Y3510000D02*
D03*
X1996535D02*
D03*
X1893465Y3355000D02*
D03*
X1826535D02*
D03*
X1821535Y3010000D02*
D03*
X1888465D02*
D03*
X1996535Y3920000D02*
D03*
X2063465D02*
D03*
X2921535Y4405000D02*
D03*
X2988465D02*
D03*
X3046535D02*
D03*
X3113465D02*
D03*
X3176535D02*
D03*
X3243465D02*
D03*
X3311535D02*
D03*
X3378465D02*
D03*
X4171535D02*
D03*
X4238465D02*
D03*
X4309545D02*
D03*
X4376475D02*
D03*
X4447555D02*
D03*
X4514485D02*
D03*
X4586535D02*
D03*
X4653465D02*
D03*
D148*
X2220000Y2254000D02*
D03*
Y2366000D02*
D03*
X2820000Y3449000D02*
D03*
Y3561000D02*
D03*
X3465000Y4389000D02*
D03*
Y4501000D02*
D03*
X3440000Y4694000D02*
D03*
Y4806000D02*
D03*
X4425000Y3906000D02*
D03*
Y3794000D02*
D03*
Y2986000D02*
D03*
Y2874000D02*
D03*
X4518010Y4719000D02*
D03*
Y4831000D02*
D03*
D149*
X2004000Y2250000D02*
D03*
X2116000D02*
D03*
X1891000Y2690000D02*
D03*
X1779000D02*
D03*
X1847339Y3090551D02*
D03*
X1735339D02*
D03*
X3216000Y4695000D02*
D03*
X3334000Y4605000D02*
D03*
X3446000D02*
D03*
X3773000Y4705000D02*
D03*
X3885000D02*
D03*
X4055990Y4685000D02*
D03*
X4167990D02*
D03*
X4274000D02*
D03*
X4386000D02*
D03*
X4519000Y4611990D02*
D03*
X4624000Y4498010D02*
D03*
X4736000D02*
D03*
X4631000Y4611990D02*
D03*
X4251000Y3795000D02*
D03*
X4139000D02*
D03*
X4389000Y3470000D02*
D03*
X4501000D02*
D03*
X4251000Y2905000D02*
D03*
X4139000D02*
D03*
X4389000Y2545000D02*
D03*
X4432189Y2342520D02*
D03*
X4544189D02*
D03*
X4501000Y2545000D02*
D03*
X3104000Y4695000D02*
D03*
X3001000D02*
D03*
X2889000D02*
D03*
X2696000Y4700000D02*
D03*
X2584000D02*
D03*
D150*
X2660000Y3598583D02*
D03*
X2496447D02*
D03*
D151*
X2660000Y3421417D02*
D03*
X2496447D02*
D03*
D152*
X2342953Y2930000D02*
D03*
Y3030000D02*
D03*
Y3200000D02*
D03*
Y3300000D02*
D03*
X1992953Y3595000D02*
D03*
X2087047Y3300000D02*
D03*
Y3030000D02*
D03*
X1737047Y3595000D02*
D03*
Y3695000D02*
D03*
X1992953Y4000000D02*
D03*
X1737047D02*
D03*
Y4100000D02*
D03*
D153*
X2087047Y2930000D02*
D03*
Y3200000D02*
D03*
X1992953Y3695000D02*
D03*
Y4100000D02*
D03*
D154*
X1470000Y3574213D02*
D03*
X1455000Y3974213D02*
D03*
D155*
X1470000Y3725787D02*
D03*
X1455000Y4125787D02*
D03*
D156*
X3714213Y1900000D02*
D03*
X4114213D02*
D03*
X4734213Y2625000D02*
D03*
X4734380Y3600000D02*
D03*
X2425787Y4750000D02*
D03*
D157*
X3865787Y1900000D02*
D03*
X4265787D02*
D03*
X4885787Y2625000D02*
D03*
X4885955Y3600000D02*
D03*
X2274213Y4750000D02*
D03*
D158*
X3608976Y2775000D02*
D03*
D159*
X3481024Y2775000D02*
D03*
D160*
X3307087Y3469488D02*
D03*
D161*
X3307087Y3341535D02*
D03*
D162*
X2195000Y2022480D02*
D03*
X2905000D02*
D03*
X2995000D02*
D03*
D163*
X2195000Y1957520D02*
D03*
X2905000D02*
D03*
X2995000D02*
D03*
D164*
X2617244Y2987599D02*
D03*
Y3025000D02*
D03*
X2522756Y3062402D02*
D03*
Y2987599D02*
D03*
D165*
X2617244Y3062402D02*
D03*
D166*
X2320000Y2245945D02*
D03*
Y2364055D02*
D03*
X4626020Y4715945D02*
D03*
Y4834055D02*
D03*
X3335000Y4809055D02*
D03*
Y4690945D02*
D03*
D167*
X2007874Y2145669D02*
D03*
X2125984D02*
D03*
X3894055Y4355000D02*
D03*
X3775945D02*
D03*
X4429134Y2244095D02*
D03*
X4547244D02*
D03*
D168*
X3740000Y2477953D02*
D03*
X4140000D02*
D03*
D169*
X3740000Y2222047D02*
D03*
X3840000D02*
D03*
X4140000D02*
D03*
X4240000D02*
D03*
Y2477953D02*
D03*
X3840000D02*
D03*
%TF.MD5,619d743cc612ec72e773107dc6052b09*%
M02*
