G04 Layer_Color=255*
%FSLAX26Y26*%
%MOIN*%
%TF.FileFunction,Pads,Bot*%
%TF.Part,Single*%
G01*
G75*
%TA.AperFunction,ComponentPad*%
%ADD20C,0.078740*%
%ADD21C,0.051181*%
G04:AMPARAMS|DCode=22|XSize=51.181mil|YSize=51.181mil|CornerRadius=0mil|HoleSize=0mil|Usage=FLASHONLY|Rotation=270.000|XOffset=0mil|YOffset=0mil|HoleType=Round|Shape=Octagon|*
%AMOCTAGOND22*
4,1,8,-0.012795,-0.025591,0.012795,-0.025591,0.025591,-0.012795,0.025591,0.012795,0.012795,0.025591,-0.012795,0.025591,-0.025591,0.012795,-0.025591,-0.012795,-0.012795,-0.025591,0.0*
%
%ADD22OCTAGOND22*%

%ADD23C,0.090551*%
%ADD24C,0.070866*%
%ADD25C,0.060000*%
G04:AMPARAMS|DCode=26|XSize=60mil|YSize=60mil|CornerRadius=0mil|HoleSize=0mil|Usage=FLASHONLY|Rotation=0.000|XOffset=0mil|YOffset=0mil|HoleType=Round|Shape=Octagon|*
%AMOCTAGOND26*
4,1,8,0.030000,-0.015000,0.030000,0.015000,0.015000,0.030000,-0.015000,0.030000,-0.030000,0.015000,-0.030000,-0.015000,-0.015000,-0.030000,0.015000,-0.030000,0.030000,-0.015000,0.0*
%
%ADD26OCTAGOND26*%

%ADD27C,0.065000*%
G04:AMPARAMS|DCode=28|XSize=65mil|YSize=65mil|CornerRadius=3.25mil|HoleSize=0mil|Usage=FLASHONLY|Rotation=180.000|XOffset=0mil|YOffset=0mil|HoleType=Round|Shape=RoundedRectangle|*
%AMROUNDEDRECTD28*
21,1,0.065000,0.058500,0,0,180.0*
21,1,0.058500,0.065000,0,0,180.0*
1,1,0.006500,-0.029250,0.029250*
1,1,0.006500,0.029250,0.029250*
1,1,0.006500,0.029250,-0.029250*
1,1,0.006500,-0.029250,-0.029250*
%
%ADD28ROUNDEDRECTD28*%
%ADD29C,0.118110*%
G04:AMPARAMS|DCode=30|XSize=118.11mil|YSize=118.11mil|CornerRadius=0mil|HoleSize=0mil|Usage=FLASHONLY|Rotation=270.000|XOffset=0mil|YOffset=0mil|HoleType=Round|Shape=Octagon|*
%AMOCTAGOND30*
4,1,8,-0.029527,-0.059055,0.029527,-0.059055,0.059055,-0.029528,0.059055,0.029528,0.029527,0.059055,-0.029527,0.059055,-0.059055,0.029528,-0.059055,-0.029528,-0.029527,-0.059055,0.0*
%
%ADD30OCTAGOND30*%

G04:AMPARAMS|DCode=31|XSize=65mil|YSize=65mil|CornerRadius=3.25mil|HoleSize=0mil|Usage=FLASHONLY|Rotation=90.000|XOffset=0mil|YOffset=0mil|HoleType=Round|Shape=RoundedRectangle|*
%AMROUNDEDRECTD31*
21,1,0.065000,0.058500,0,0,90.0*
21,1,0.058500,0.065000,0,0,90.0*
1,1,0.006500,0.029250,0.029250*
1,1,0.006500,0.029250,-0.029250*
1,1,0.006500,-0.029250,-0.029250*
1,1,0.006500,-0.029250,0.029250*
%
%ADD31ROUNDEDRECTD31*%
%ADD32C,0.098425*%
G04:AMPARAMS|DCode=33|XSize=98.425mil|YSize=98.425mil|CornerRadius=9.842mil|HoleSize=0mil|Usage=FLASHONLY|Rotation=0.000|XOffset=0mil|YOffset=0mil|HoleType=Round|Shape=RoundedRectangle|*
%AMROUNDEDRECTD33*
21,1,0.098425,0.078740,0,0,0.0*
21,1,0.078740,0.098425,0,0,0.0*
1,1,0.019685,0.039370,-0.039370*
1,1,0.019685,-0.039370,-0.039370*
1,1,0.019685,-0.039370,0.039370*
1,1,0.019685,0.039370,0.039370*
%
%ADD33ROUNDEDRECTD33*%
%ADD34C,0.062992*%
G04:AMPARAMS|DCode=35|XSize=118.11mil|YSize=118.11mil|CornerRadius=0mil|HoleSize=0mil|Usage=FLASHONLY|Rotation=180.000|XOffset=0mil|YOffset=0mil|HoleType=Round|Shape=Octagon|*
%AMOCTAGOND35*
4,1,8,-0.059055,0.029527,-0.059055,-0.029527,-0.029528,-0.059055,0.029528,-0.059055,0.059055,-0.029527,0.059055,0.029527,0.029528,0.059055,-0.029528,0.059055,-0.059055,0.029527,0.0*
%
%ADD35OCTAGOND35*%

G04:AMPARAMS|DCode=36|XSize=129.921mil|YSize=129.921mil|CornerRadius=0mil|HoleSize=0mil|Usage=FLASHONLY|Rotation=270.000|XOffset=0mil|YOffset=0mil|HoleType=Round|Shape=Octagon|*
%AMOCTAGOND36*
4,1,8,-0.032480,-0.064961,0.032480,-0.064961,0.064961,-0.032480,0.064961,0.032480,0.032480,0.064961,-0.032480,0.064961,-0.064961,0.032480,-0.064961,-0.032480,-0.032480,-0.064961,0.0*
%
%ADD36OCTAGOND36*%

%ADD37C,0.129921*%
%ADD38C,0.094488*%
%ADD39C,0.055118*%
%ADD40O,0.059055X0.047244*%
G04:AMPARAMS|DCode=41|XSize=129.921mil|YSize=129.921mil|CornerRadius=0mil|HoleSize=0mil|Usage=FLASHONLY|Rotation=180.000|XOffset=0mil|YOffset=0mil|HoleType=Round|Shape=Octagon|*
%AMOCTAGOND41*
4,1,8,-0.064961,0.032480,-0.064961,-0.032480,-0.032480,-0.064961,0.032480,-0.064961,0.064961,-0.032480,0.064961,0.032480,0.032480,0.064961,-0.032480,0.064961,-0.064961,0.032480,0.0*
%
%ADD41OCTAGOND41*%

%ADD42O,0.106299X0.088189*%
%ADD43O,0.064000X0.090000*%
%ADD44R,0.064000X0.090000*%
%TA.AperFunction,WasherPad*%
%ADD45C,0.177165*%
%TA.AperFunction,ViaPad*%
%ADD46C,0.118110*%
%TA.AperFunction,SMDPad,CuDef*%
G04:AMPARAMS|DCode=49|XSize=40mil|YSize=40mil|CornerRadius=3mil|HoleSize=0mil|Usage=FLASHONLY|Rotation=180.000|XOffset=0mil|YOffset=0mil|HoleType=Round|Shape=RoundedRectangle|*
%AMROUNDEDRECTD49*
21,1,0.040000,0.034000,0,0,180.0*
21,1,0.034000,0.040000,0,0,180.0*
1,1,0.006000,-0.017000,0.017000*
1,1,0.006000,0.017000,0.017000*
1,1,0.006000,0.017000,-0.017000*
1,1,0.006000,-0.017000,-0.017000*
%
%ADD49ROUNDEDRECTD49*%
%ADD50R,0.040000X0.030000*%
%ADD51O,0.040000X0.030000*%
%ADD52R,0.030000X0.040000*%
%ADD53O,0.030000X0.040000*%
%ADD54O,0.023622X0.035433*%
%ADD55R,0.023622X0.035433*%
%ADD56O,0.068898X0.023622*%
%ADD57R,0.068898X0.023622*%
%ADD58R,0.094488X0.122047*%
G04:AMPARAMS|DCode=59|XSize=23.622mil|YSize=80.709mil|CornerRadius=0mil|HoleSize=0mil|Usage=FLASHONLY|Rotation=270.000|XOffset=0mil|YOffset=0mil|HoleType=Round|Shape=Octagon|*
%AMOCTAGOND59*
4,1,8,0.040354,0.005905,0.040354,-0.005905,0.034449,-0.011811,-0.034449,-0.011811,-0.040354,-0.005905,-0.040354,0.005905,-0.034449,0.011811,0.034449,0.011811,0.040354,0.005905,0.0*
%
%ADD59OCTAGOND59*%

%ADD60R,0.080709X0.023622*%
%ADD61R,0.023622X0.068898*%
%ADD62O,0.023622X0.068898*%
G04:AMPARAMS|DCode=63|XSize=40mil|YSize=40mil|CornerRadius=3mil|HoleSize=0mil|Usage=FLASHONLY|Rotation=270.000|XOffset=0mil|YOffset=0mil|HoleType=Round|Shape=RoundedRectangle|*
%AMROUNDEDRECTD63*
21,1,0.040000,0.034000,0,0,270.0*
21,1,0.034000,0.040000,0,0,270.0*
1,1,0.006000,-0.017000,-0.017000*
1,1,0.006000,-0.017000,0.017000*
1,1,0.006000,0.017000,0.017000*
1,1,0.006000,0.017000,-0.017000*
%
%ADD63ROUNDEDRECTD63*%
G04:AMPARAMS|DCode=64|XSize=63mil|YSize=71mil|CornerRadius=4.725mil|HoleSize=0mil|Usage=FLASHONLY|Rotation=90.000|XOffset=0mil|YOffset=0mil|HoleType=Round|Shape=RoundedRectangle|*
%AMROUNDEDRECTD64*
21,1,0.063000,0.061550,0,0,90.0*
21,1,0.053550,0.071000,0,0,90.0*
1,1,0.009450,0.030775,0.026775*
1,1,0.009450,0.030775,-0.026775*
1,1,0.009450,-0.030775,-0.026775*
1,1,0.009450,-0.030775,0.026775*
%
%ADD64ROUNDEDRECTD64*%
G04:AMPARAMS|DCode=65|XSize=63mil|YSize=71mil|CornerRadius=4.725mil|HoleSize=0mil|Usage=FLASHONLY|Rotation=0.000|XOffset=0mil|YOffset=0mil|HoleType=Round|Shape=RoundedRectangle|*
%AMROUNDEDRECTD65*
21,1,0.063000,0.061550,0,0,0.0*
21,1,0.053550,0.071000,0,0,0.0*
1,1,0.009450,0.026775,-0.030775*
1,1,0.009450,-0.026775,-0.030775*
1,1,0.009450,-0.026775,0.030775*
1,1,0.009450,0.026775,0.030775*
%
%ADD65ROUNDEDRECTD65*%
%ADD66R,0.086614X0.080709*%
G04:AMPARAMS|DCode=67|XSize=86.614mil|YSize=80.709mil|CornerRadius=0mil|HoleSize=0mil|Usage=FLASHONLY|Rotation=0.000|XOffset=0mil|YOffset=0mil|HoleType=Round|Shape=Octagon|*
%AMOCTAGOND67*
4,1,8,0.043307,-0.020177,0.043307,0.020177,0.023130,0.040354,-0.023130,0.040354,-0.043307,0.020177,-0.043307,-0.020177,-0.023130,-0.040354,0.023130,-0.040354,0.043307,-0.020177,0.0*
%
%ADD67OCTAGOND67*%

%ADD68R,0.062992X0.023622*%
%ADD69O,0.062992X0.023622*%
%ADD70R,0.066929X0.062992*%
G04:AMPARAMS|DCode=71|XSize=66.929mil|YSize=62.992mil|CornerRadius=0mil|HoleSize=0mil|Usage=FLASHONLY|Rotation=0.000|XOffset=0mil|YOffset=0mil|HoleType=Round|Shape=Octagon|*
%AMOCTAGOND71*
4,1,8,0.033465,-0.015748,0.033465,0.015748,0.017717,0.031496,-0.017717,0.031496,-0.033465,0.015748,-0.033465,-0.015748,-0.017717,-0.031496,0.017717,-0.031496,0.033465,-0.015748,0.0*
%
%ADD71OCTAGOND71*%

G04:AMPARAMS|DCode=72|XSize=66.929mil|YSize=62.992mil|CornerRadius=0mil|HoleSize=0mil|Usage=FLASHONLY|Rotation=270.000|XOffset=0mil|YOffset=0mil|HoleType=Round|Shape=Octagon|*
%AMOCTAGOND72*
4,1,8,-0.015748,-0.033465,0.015748,-0.033465,0.031496,-0.017717,0.031496,0.017717,0.015748,0.033465,-0.015748,0.033465,-0.031496,0.017717,-0.031496,-0.017717,-0.015748,-0.033465,0.0*
%
%ADD72OCTAGOND72*%

%ADD73R,0.062992X0.066929*%
G04:AMPARAMS|DCode=74|XSize=35.433mil|YSize=35.433mil|CornerRadius=0mil|HoleSize=0mil|Usage=FLASHONLY|Rotation=270.000|XOffset=0mil|YOffset=0mil|HoleType=Round|Shape=Octagon|*
%AMOCTAGOND74*
4,1,8,-0.008858,-0.017717,0.008858,-0.017717,0.017717,-0.008858,0.017717,0.008858,0.008858,0.017717,-0.008858,0.017717,-0.017717,0.008858,-0.017717,-0.008858,-0.008858,-0.017717,0.0*
%
%ADD74OCTAGOND74*%

%ADD75R,0.035433X0.035433*%
G04:AMPARAMS|DCode=76|XSize=35.433mil|YSize=35.433mil|CornerRadius=0mil|HoleSize=0mil|Usage=FLASHONLY|Rotation=0.000|XOffset=0mil|YOffset=0mil|HoleType=Round|Shape=Octagon|*
%AMOCTAGOND76*
4,1,8,0.017717,-0.008858,0.017717,0.008858,0.008858,0.017717,-0.008858,0.017717,-0.017717,0.008858,-0.017717,-0.008858,-0.008858,-0.017717,0.008858,-0.017717,0.017717,-0.008858,0.0*
%
%ADD76OCTAGOND76*%

%ADD77R,0.035433X0.035433*%
G04:AMPARAMS|DCode=78|XSize=35.433mil|YSize=33.465mil|CornerRadius=0mil|HoleSize=0mil|Usage=FLASHONLY|Rotation=0.000|XOffset=0mil|YOffset=0mil|HoleType=Round|Shape=Octagon|*
%AMOCTAGOND78*
4,1,8,0.017717,-0.008366,0.017717,0.008366,0.009351,0.016732,-0.009351,0.016732,-0.017717,0.008366,-0.017717,-0.008366,-0.009351,-0.016732,0.009351,-0.016732,0.017717,-0.008366,0.0*
%
%ADD78OCTAGOND78*%

%ADD79R,0.035433X0.033465*%
%ADD80R,0.035433X0.023622*%
%ADD81O,0.035433X0.023622*%
G04:AMPARAMS|DCode=82|XSize=55.118mil|YSize=70.866mil|CornerRadius=4.134mil|HoleSize=0mil|Usage=FLASHONLY|Rotation=90.000|XOffset=0mil|YOffset=0mil|HoleType=Round|Shape=RoundedRectangle|*
%AMROUNDEDRECTD82*
21,1,0.055118,0.062599,0,0,90.0*
21,1,0.046850,0.070866,0,0,90.0*
1,1,0.008268,0.031299,0.023425*
1,1,0.008268,0.031299,-0.023425*
1,1,0.008268,-0.031299,-0.023425*
1,1,0.008268,-0.031299,0.023425*
%
%ADD82ROUNDEDRECTD82*%
G04:AMPARAMS|DCode=83|XSize=55.118mil|YSize=70.866mil|CornerRadius=4.134mil|HoleSize=0mil|Usage=FLASHONLY|Rotation=0.000|XOffset=0mil|YOffset=0mil|HoleType=Round|Shape=RoundedRectangle|*
%AMROUNDEDRECTD83*
21,1,0.055118,0.062599,0,0,0.0*
21,1,0.046850,0.070866,0,0,0.0*
1,1,0.008268,0.023425,-0.031299*
1,1,0.008268,-0.023425,-0.031299*
1,1,0.008268,-0.023425,0.031299*
1,1,0.008268,0.023425,0.031299*
%
%ADD83ROUNDEDRECTD83*%
%ADD84O,0.023622X0.062992*%
%ADD85R,0.023622X0.062992*%
D20*
X1456693Y2185039D02*
D03*
Y2578740D02*
D03*
X2437205Y1953740D02*
D03*
X2712795Y1957677D02*
D03*
X3182205Y1958740D02*
D03*
X3457795Y1962677D02*
D03*
X4645472Y2927047D02*
D03*
X4704528Y3182953D02*
D03*
X4645472Y3887047D02*
D03*
X4704528Y4142953D02*
D03*
D21*
X1407480Y2303150D02*
D03*
Y2381890D02*
D03*
X1505906D02*
D03*
Y2303150D02*
D03*
X1407480Y2460630D02*
D03*
D22*
X1505906Y2460630D02*
D03*
D23*
X2300000Y4254724D02*
D03*
Y4550000D02*
D03*
X1878740D02*
D03*
Y4254724D02*
D03*
X5507323Y2680000D02*
D03*
X5780000Y1950748D02*
D03*
X6640000Y2430000D02*
D03*
X6590000Y2680000D02*
D03*
X6490000Y2838661D02*
D03*
X6640000Y3512677D02*
D03*
X6490000Y3921339D02*
D03*
X7090000Y4450000D02*
D03*
Y4871260D02*
D03*
X6794724D02*
D03*
Y4450000D02*
D03*
X7204724Y3513780D02*
D03*
Y2431102D02*
D03*
X5780000Y3919252D02*
D03*
D24*
X2488386Y1859252D02*
D03*
X2661614D02*
D03*
X3233386Y1864252D02*
D03*
X3406614D02*
D03*
D25*
X4375000Y4795000D02*
D03*
X4275000D02*
D03*
X4175000D02*
D03*
X4075000D02*
D03*
X3875000D02*
D03*
X3185000D02*
D03*
X3085000D02*
D03*
X2985000D02*
D03*
X2885000D02*
D03*
X2685000D02*
D03*
D26*
X3775000Y4795000D02*
D03*
X2585000D02*
D03*
D27*
X2320000Y2475000D02*
D03*
X2330000Y2840000D02*
D03*
X2320000Y3530000D02*
D03*
Y3630000D02*
D03*
X3520000Y3003740D02*
D03*
X3620000D02*
D03*
X3720000D02*
D03*
X4725984Y2244095D02*
D03*
D28*
X2220000Y2475000D02*
D03*
X3420000Y3003740D02*
D03*
X3820000D02*
D03*
X4625984Y2244095D02*
D03*
D29*
X2580000Y3305000D02*
D03*
Y3705000D02*
D03*
Y4105000D02*
D03*
X4380000D02*
D03*
X4825000Y4135000D02*
D03*
X5229907Y4661123D02*
D03*
X4825000Y3435000D02*
D03*
Y3155000D02*
D03*
Y2455000D02*
D03*
X5230000Y2555000D02*
D03*
X6985000Y4377559D02*
D03*
Y4850000D02*
D03*
X6591299D02*
D03*
D30*
X6591299Y4377559D02*
D03*
D31*
X2330000Y2740000D02*
D03*
X2320000Y3430000D02*
D03*
D32*
X1805000Y1865000D02*
D03*
X2005000D02*
D03*
X2105000Y2365000D02*
D03*
X1905000D02*
D03*
X1705000D02*
D03*
X2990000Y4500000D02*
D03*
X4180000D02*
D03*
D33*
X4520000Y4500000D02*
D03*
X3330000D02*
D03*
D34*
X3600000Y4418150D02*
D03*
Y4811850D02*
D03*
X2891850Y4500000D02*
D03*
X2498150D02*
D03*
D35*
X4380000Y3305000D02*
D03*
D36*
X1607480Y2950000D02*
D03*
Y3350000D02*
D03*
Y3750000D02*
D03*
Y4150000D02*
D03*
Y4550000D02*
D03*
D37*
X1607480Y2750000D02*
D03*
Y3150000D02*
D03*
Y3550000D02*
D03*
Y3950000D02*
D03*
Y4350000D02*
D03*
X3890000Y2057481D02*
D03*
X4290000D02*
D03*
X4975000D02*
D03*
X5925000Y4742520D02*
D03*
X5525000D02*
D03*
X4770000D02*
D03*
D38*
X5512323Y3390000D02*
D03*
Y3791575D02*
D03*
X6595000Y3390000D02*
D03*
Y3791575D02*
D03*
D39*
X2870000Y2230000D02*
D03*
X2970000D02*
D03*
X3070000D02*
D03*
Y3030000D02*
D03*
X2970000D02*
D03*
X2870000D02*
D03*
X4645000Y2560000D02*
D03*
Y2855276D02*
D03*
Y3495000D02*
D03*
Y3790276D02*
D03*
X5674213Y4400000D02*
D03*
X5969488D02*
D03*
X6161417Y4320866D02*
D03*
Y4616142D02*
D03*
X6657362Y4110000D02*
D03*
X6952638D02*
D03*
D40*
X2270000Y1940000D02*
D03*
Y2040000D02*
D03*
X2840000Y1940000D02*
D03*
Y2040000D02*
D03*
X3060000Y1940000D02*
D03*
Y2040000D02*
D03*
D41*
X3690000Y2057481D02*
D03*
X4090000D02*
D03*
X4775000D02*
D03*
X6125000Y4742520D02*
D03*
X5725000D02*
D03*
X4970000D02*
D03*
D42*
X5015000Y2730000D02*
D03*
Y2830000D02*
D03*
Y2930000D02*
D03*
Y3130000D02*
D03*
Y3695000D02*
D03*
Y3795000D02*
D03*
Y3895000D02*
D03*
Y4095000D02*
D03*
D43*
X2636535Y2480000D02*
D03*
X2736535D02*
D03*
X2836535D02*
D03*
X2936535D02*
D03*
X3036535D02*
D03*
X3136535D02*
D03*
Y2780000D02*
D03*
X3036535D02*
D03*
X2936535D02*
D03*
X2836535D02*
D03*
X2736535D02*
D03*
X2636535D02*
D03*
X2536535D02*
D03*
D44*
X2536535Y2480000D02*
D03*
D45*
X1550000Y2000000D02*
D03*
Y4800000D02*
D03*
X7146850Y2000000D02*
D03*
Y3790000D02*
D03*
D46*
X5314961Y2047244D02*
D03*
Y4527559D02*
D03*
D49*
X2350000Y1936535D02*
D03*
Y2003465D02*
D03*
X2836535Y2596535D02*
D03*
Y2663465D02*
D03*
X2736535D02*
D03*
X2670000D02*
D03*
Y2596535D02*
D03*
X2736535D02*
D03*
X2430000Y2755000D02*
D03*
Y2821929D02*
D03*
X2450000Y2991535D02*
D03*
Y3058465D02*
D03*
X2106299Y3372047D02*
D03*
Y3438976D02*
D03*
X2007874Y3281496D02*
D03*
Y3214567D02*
D03*
X1948819D02*
D03*
Y3281496D02*
D03*
X1889764Y3242126D02*
D03*
Y3175197D02*
D03*
X1965000Y3013465D02*
D03*
Y2946535D02*
D03*
X1948819Y2868110D02*
D03*
Y2801181D02*
D03*
X2027559Y2828740D02*
D03*
Y2761811D02*
D03*
X2106299Y2801181D02*
D03*
Y2868110D02*
D03*
X1740000Y2941535D02*
D03*
Y3008465D02*
D03*
X1745000Y3356535D02*
D03*
Y3423465D02*
D03*
X2075000Y3611535D02*
D03*
Y3678465D02*
D03*
Y4021535D02*
D03*
Y4088465D02*
D03*
X2300000Y4366535D02*
D03*
Y4433465D02*
D03*
X1850000D02*
D03*
Y4366535D02*
D03*
X3105000Y4546535D02*
D03*
Y4613465D02*
D03*
X3690167Y3658465D02*
D03*
Y3591535D02*
D03*
X3655000Y3357205D02*
D03*
Y3290276D02*
D03*
Y3197205D02*
D03*
Y3130276D02*
D03*
X3680000Y2773465D02*
D03*
X3745000D02*
D03*
Y2706535D02*
D03*
X3680000D02*
D03*
X3215000Y2781535D02*
D03*
Y2848465D02*
D03*
Y2483465D02*
D03*
Y2416535D02*
D03*
X4335000Y2716535D02*
D03*
X4515000Y2871535D02*
D03*
X4735000Y2731535D02*
D03*
X4815000D02*
D03*
X4895000D02*
D03*
Y2798465D02*
D03*
X4815000D02*
D03*
X4735000D02*
D03*
X4515000Y2938465D02*
D03*
X4335000Y2783465D02*
D03*
X4325167Y3626535D02*
D03*
X4515000Y3791535D02*
D03*
X4735167Y3773465D02*
D03*
Y3706535D02*
D03*
X4815167D02*
D03*
Y3773465D02*
D03*
X4895167D02*
D03*
Y3706535D02*
D03*
X4515000Y3858465D02*
D03*
X4325167Y3693465D02*
D03*
X4275000Y4528525D02*
D03*
Y4595455D02*
D03*
X1633858Y2592520D02*
D03*
Y2525590D02*
D03*
X1555118D02*
D03*
Y2592520D02*
D03*
D50*
X2011811Y3072834D02*
D03*
X1925197Y3110236D02*
D03*
D51*
X2011811Y3147638D02*
D03*
D52*
X2007874Y2700787D02*
D03*
X1970472Y2614173D02*
D03*
D53*
X2045276Y2614173D02*
D03*
D54*
X1797598Y2872244D02*
D03*
X1734252Y3275591D02*
D03*
X3802402Y3196496D02*
D03*
D55*
X1872401Y2777756D02*
D03*
Y2872244D02*
D03*
X1835000D02*
D03*
X1797598Y2777756D02*
D03*
X1809055Y3181102D02*
D03*
X1734252D02*
D03*
X1771653Y3275591D02*
D03*
X1809055D02*
D03*
X3727599Y3196496D02*
D03*
X3765000D02*
D03*
X3727599Y3290984D02*
D03*
X3802402D02*
D03*
D56*
X4428701Y2630000D02*
D03*
X4422205Y3570000D02*
D03*
D57*
X4428701Y2680000D02*
D03*
Y2730000D02*
D03*
Y2780000D02*
D03*
X4641299Y2730000D02*
D03*
Y2680000D02*
D03*
Y2630000D02*
D03*
Y2780000D02*
D03*
X4634803Y3570000D02*
D03*
Y3620000D02*
D03*
Y3670000D02*
D03*
Y3720000D02*
D03*
X4422205D02*
D03*
Y3670000D02*
D03*
Y3620000D02*
D03*
D58*
X4535000Y2705000D02*
D03*
X4528504Y3645000D02*
D03*
D59*
X3817412Y3575000D02*
D03*
X3834488Y2685000D02*
D03*
D60*
X3817412Y3625000D02*
D03*
Y3675000D02*
D03*
X4222923Y3625000D02*
D03*
Y3575000D02*
D03*
Y3675000D02*
D03*
X3834488Y2785000D02*
D03*
Y2735000D02*
D03*
X4240000D02*
D03*
Y2685000D02*
D03*
Y2785000D02*
D03*
D61*
X3430000Y3137441D02*
D03*
X3480000D02*
D03*
X3530000D02*
D03*
Y3350039D02*
D03*
X3580000D02*
D03*
X3480000D02*
D03*
X3430000D02*
D03*
D62*
X3580000Y3137441D02*
D03*
D63*
X2056535Y1965000D02*
D03*
X2123465D02*
D03*
X2886535Y2330000D02*
D03*
X2953465D02*
D03*
X3053071D02*
D03*
X3120000D02*
D03*
X3253071Y2580000D02*
D03*
X3320000D02*
D03*
Y2680000D02*
D03*
X3253071D02*
D03*
X3626535Y2565000D02*
D03*
X3693465D02*
D03*
X3756535D02*
D03*
X3823465D02*
D03*
X4021535Y2560000D02*
D03*
X4088465D02*
D03*
X4156535D02*
D03*
X4223465D02*
D03*
X3793465Y3353740D02*
D03*
X3726535D02*
D03*
X3618465Y3590000D02*
D03*
X3551535D02*
D03*
X3103465Y2930000D02*
D03*
X3036535D02*
D03*
X2953465D02*
D03*
X2858465Y3115000D02*
D03*
X2791535D02*
D03*
X2768465Y2985000D02*
D03*
X2886535Y2930000D02*
D03*
X2701535Y2985000D02*
D03*
X2698465Y2905000D02*
D03*
X2631535D02*
D03*
X2543465Y2910000D02*
D03*
X2476535D02*
D03*
X2063465Y3510000D02*
D03*
X1996535D02*
D03*
X1893465Y3355000D02*
D03*
X1826535D02*
D03*
X1821535Y3010000D02*
D03*
X1888465D02*
D03*
X1996535Y3920000D02*
D03*
X2063465D02*
D03*
X2921535Y4405000D02*
D03*
X2988465D02*
D03*
X3046535D02*
D03*
X3113465D02*
D03*
X3176535D02*
D03*
X3243465D02*
D03*
X3311535D02*
D03*
X3378465D02*
D03*
X4171535D02*
D03*
X4238465D02*
D03*
X4309545D02*
D03*
X4376475D02*
D03*
X4447555D02*
D03*
X4514485D02*
D03*
X4586535D02*
D03*
X4653465D02*
D03*
D64*
X2220000Y2254000D02*
D03*
Y2366000D02*
D03*
X2820000Y3449000D02*
D03*
Y3561000D02*
D03*
X3465000Y4389000D02*
D03*
Y4501000D02*
D03*
X3440000Y4694000D02*
D03*
Y4806000D02*
D03*
X4425000Y3906000D02*
D03*
Y3794000D02*
D03*
Y2986000D02*
D03*
Y2874000D02*
D03*
X4518010Y4719000D02*
D03*
Y4831000D02*
D03*
D65*
X2004000Y2250000D02*
D03*
X2116000D02*
D03*
X1891000Y2690000D02*
D03*
X1779000D02*
D03*
X1847339Y3090551D02*
D03*
X1735339D02*
D03*
X3216000Y4695000D02*
D03*
X3334000Y4605000D02*
D03*
X3446000D02*
D03*
X3773000Y4705000D02*
D03*
X3885000D02*
D03*
X4055990Y4685000D02*
D03*
X4167990D02*
D03*
X4274000D02*
D03*
X4386000D02*
D03*
X4519000Y4611990D02*
D03*
X4624000Y4498010D02*
D03*
X4736000D02*
D03*
X4631000Y4611990D02*
D03*
X4251000Y3795000D02*
D03*
X4139000D02*
D03*
X4389000Y3470000D02*
D03*
X4501000D02*
D03*
X4251000Y2905000D02*
D03*
X4139000D02*
D03*
X4389000Y2545000D02*
D03*
X4432189Y2342520D02*
D03*
X4544189D02*
D03*
X4501000Y2545000D02*
D03*
X3104000Y4695000D02*
D03*
X3001000D02*
D03*
X2889000D02*
D03*
X2696000Y4700000D02*
D03*
X2584000D02*
D03*
D66*
X2660000Y3598583D02*
D03*
X2496447D02*
D03*
D67*
X2660000Y3421417D02*
D03*
X2496447D02*
D03*
D68*
X2342953Y2930000D02*
D03*
Y3030000D02*
D03*
Y3200000D02*
D03*
Y3300000D02*
D03*
X1992953Y3595000D02*
D03*
X2087047Y3300000D02*
D03*
Y3030000D02*
D03*
X1737047Y3595000D02*
D03*
Y3695000D02*
D03*
X1992953Y4000000D02*
D03*
X1737047D02*
D03*
Y4100000D02*
D03*
D69*
X2087047Y2930000D02*
D03*
Y3200000D02*
D03*
X1992953Y3695000D02*
D03*
Y4100000D02*
D03*
D70*
X1470000Y3574213D02*
D03*
X1455000Y3974213D02*
D03*
D71*
X1470000Y3725787D02*
D03*
X1455000Y4125787D02*
D03*
D72*
X3714213Y1900000D02*
D03*
X4114213D02*
D03*
X4734213Y2625000D02*
D03*
X4734380Y3600000D02*
D03*
X2425787Y4750000D02*
D03*
D73*
X3865787Y1900000D02*
D03*
X4265787D02*
D03*
X4885787Y2625000D02*
D03*
X4885955Y3600000D02*
D03*
X2274213Y4750000D02*
D03*
D74*
X3608976Y2775000D02*
D03*
D75*
X3481024Y2775000D02*
D03*
D76*
X3307087Y3469488D02*
D03*
D77*
X3307087Y3341535D02*
D03*
D78*
X2195000Y2022480D02*
D03*
X2905000D02*
D03*
X2995000D02*
D03*
D79*
X2195000Y1957520D02*
D03*
X2905000D02*
D03*
X2995000D02*
D03*
D80*
X2617244Y2987599D02*
D03*
Y3025000D02*
D03*
X2522756Y3062402D02*
D03*
Y2987599D02*
D03*
D81*
X2617244Y3062402D02*
D03*
D82*
X2320000Y2245945D02*
D03*
Y2364055D02*
D03*
X4626020Y4715945D02*
D03*
Y4834055D02*
D03*
X3335000Y4809055D02*
D03*
Y4690945D02*
D03*
D83*
X2007874Y2145669D02*
D03*
X2125984D02*
D03*
X3894055Y4355000D02*
D03*
X3775945D02*
D03*
X4429134Y2244095D02*
D03*
X4547244D02*
D03*
D84*
X3740000Y2477953D02*
D03*
X4140000D02*
D03*
D85*
X3740000Y2222047D02*
D03*
X3840000D02*
D03*
X4140000D02*
D03*
X4240000D02*
D03*
Y2477953D02*
D03*
X3840000D02*
D03*
%TF.MD5,70c3ca27682e17f7842986425c428069*%
M02*
