G04 Layer_Physical_Order=2*
G04 Layer_Color=16711680*
%FSLAX26Y26*%
%MOIN*%
%TF.FileFunction,Copper,L2,Bot,Signal*%
%TF.Part,Single*%
G01*
G75*
%TA.AperFunction,Conductor*%
%ADD11C,0.050000*%
%ADD12C,0.015000*%
%ADD13C,0.020000*%
%ADD14C,0.150000*%
%ADD15C,0.120000*%
%ADD16C,0.030000*%
%ADD17C,0.200000*%
%ADD19C,0.010000*%
%TA.AperFunction,ComponentPad*%
%ADD20C,0.078740*%
%ADD21C,0.051181*%
G04:AMPARAMS|DCode=22|XSize=51.181mil|YSize=51.181mil|CornerRadius=0mil|HoleSize=0mil|Usage=FLASHONLY|Rotation=270.000|XOffset=0mil|YOffset=0mil|HoleType=Round|Shape=Octagon|*
%AMOCTAGOND22*
4,1,8,-0.012795,-0.025591,0.012795,-0.025591,0.025591,-0.012795,0.025591,0.012795,0.012795,0.025591,-0.012795,0.025591,-0.025591,0.012795,-0.025591,-0.012795,-0.012795,-0.025591,0.0*
%
%ADD22OCTAGOND22*%

%ADD23C,0.090551*%
%ADD24C,0.070866*%
%ADD25C,0.060000*%
G04:AMPARAMS|DCode=26|XSize=60mil|YSize=60mil|CornerRadius=0mil|HoleSize=0mil|Usage=FLASHONLY|Rotation=0.000|XOffset=0mil|YOffset=0mil|HoleType=Round|Shape=Octagon|*
%AMOCTAGOND26*
4,1,8,0.030000,-0.015000,0.030000,0.015000,0.015000,0.030000,-0.015000,0.030000,-0.030000,0.015000,-0.030000,-0.015000,-0.015000,-0.030000,0.015000,-0.030000,0.030000,-0.015000,0.0*
%
%ADD26OCTAGOND26*%

%ADD27C,0.065000*%
G04:AMPARAMS|DCode=28|XSize=65mil|YSize=65mil|CornerRadius=3.25mil|HoleSize=0mil|Usage=FLASHONLY|Rotation=180.000|XOffset=0mil|YOffset=0mil|HoleType=Round|Shape=RoundedRectangle|*
%AMROUNDEDRECTD28*
21,1,0.065000,0.058500,0,0,180.0*
21,1,0.058500,0.065000,0,0,180.0*
1,1,0.006500,-0.029250,0.029250*
1,1,0.006500,0.029250,0.029250*
1,1,0.006500,0.029250,-0.029250*
1,1,0.006500,-0.029250,-0.029250*
%
%ADD28ROUNDEDRECTD28*%
%ADD29C,0.118110*%
G04:AMPARAMS|DCode=30|XSize=118.11mil|YSize=118.11mil|CornerRadius=0mil|HoleSize=0mil|Usage=FLASHONLY|Rotation=270.000|XOffset=0mil|YOffset=0mil|HoleType=Round|Shape=Octagon|*
%AMOCTAGOND30*
4,1,8,-0.029527,-0.059055,0.029527,-0.059055,0.059055,-0.029528,0.059055,0.029528,0.029527,0.059055,-0.029527,0.059055,-0.059055,0.029528,-0.059055,-0.029528,-0.029527,-0.059055,0.0*
%
%ADD30OCTAGOND30*%

G04:AMPARAMS|DCode=31|XSize=65mil|YSize=65mil|CornerRadius=3.25mil|HoleSize=0mil|Usage=FLASHONLY|Rotation=90.000|XOffset=0mil|YOffset=0mil|HoleType=Round|Shape=RoundedRectangle|*
%AMROUNDEDRECTD31*
21,1,0.065000,0.058500,0,0,90.0*
21,1,0.058500,0.065000,0,0,90.0*
1,1,0.006500,0.029250,0.029250*
1,1,0.006500,0.029250,-0.029250*
1,1,0.006500,-0.029250,-0.029250*
1,1,0.006500,-0.029250,0.029250*
%
%ADD31ROUNDEDRECTD31*%
%ADD32C,0.098425*%
G04:AMPARAMS|DCode=33|XSize=98.425mil|YSize=98.425mil|CornerRadius=9.842mil|HoleSize=0mil|Usage=FLASHONLY|Rotation=0.000|XOffset=0mil|YOffset=0mil|HoleType=Round|Shape=RoundedRectangle|*
%AMROUNDEDRECTD33*
21,1,0.098425,0.078740,0,0,0.0*
21,1,0.078740,0.098425,0,0,0.0*
1,1,0.019685,0.039370,-0.039370*
1,1,0.019685,-0.039370,-0.039370*
1,1,0.019685,-0.039370,0.039370*
1,1,0.019685,0.039370,0.039370*
%
%ADD33ROUNDEDRECTD33*%
%ADD34C,0.062992*%
G04:AMPARAMS|DCode=35|XSize=118.11mil|YSize=118.11mil|CornerRadius=0mil|HoleSize=0mil|Usage=FLASHONLY|Rotation=180.000|XOffset=0mil|YOffset=0mil|HoleType=Round|Shape=Octagon|*
%AMOCTAGOND35*
4,1,8,-0.059055,0.029527,-0.059055,-0.029527,-0.029528,-0.059055,0.029528,-0.059055,0.059055,-0.029527,0.059055,0.029527,0.029528,0.059055,-0.029528,0.059055,-0.059055,0.029527,0.0*
%
%ADD35OCTAGOND35*%

G04:AMPARAMS|DCode=36|XSize=129.921mil|YSize=129.921mil|CornerRadius=0mil|HoleSize=0mil|Usage=FLASHONLY|Rotation=270.000|XOffset=0mil|YOffset=0mil|HoleType=Round|Shape=Octagon|*
%AMOCTAGOND36*
4,1,8,-0.032480,-0.064961,0.032480,-0.064961,0.064961,-0.032480,0.064961,0.032480,0.032480,0.064961,-0.032480,0.064961,-0.064961,0.032480,-0.064961,-0.032480,-0.032480,-0.064961,0.0*
%
%ADD36OCTAGOND36*%

%ADD37C,0.129921*%
%ADD38C,0.094488*%
%ADD39C,0.055118*%
%ADD40O,0.059055X0.047244*%
G04:AMPARAMS|DCode=41|XSize=129.921mil|YSize=129.921mil|CornerRadius=0mil|HoleSize=0mil|Usage=FLASHONLY|Rotation=180.000|XOffset=0mil|YOffset=0mil|HoleType=Round|Shape=Octagon|*
%AMOCTAGOND41*
4,1,8,-0.064961,0.032480,-0.064961,-0.032480,-0.032480,-0.064961,0.032480,-0.064961,0.064961,-0.032480,0.064961,0.032480,0.032480,0.064961,-0.032480,0.064961,-0.064961,0.032480,0.0*
%
%ADD41OCTAGOND41*%

%ADD42O,0.106299X0.088189*%
%ADD43O,0.064000X0.090000*%
%ADD44R,0.064000X0.090000*%
%TA.AperFunction,WasherPad*%
%ADD45C,0.177165*%
%TA.AperFunction,ViaPad*%
%ADD46C,0.118110*%
%ADD47C,0.045000*%
%ADD48C,0.025984*%
%TA.AperFunction,SMDPad,CuDef*%
G04:AMPARAMS|DCode=49|XSize=40mil|YSize=40mil|CornerRadius=3mil|HoleSize=0mil|Usage=FLASHONLY|Rotation=180.000|XOffset=0mil|YOffset=0mil|HoleType=Round|Shape=RoundedRectangle|*
%AMROUNDEDRECTD49*
21,1,0.040000,0.034000,0,0,180.0*
21,1,0.034000,0.040000,0,0,180.0*
1,1,0.006000,-0.017000,0.017000*
1,1,0.006000,0.017000,0.017000*
1,1,0.006000,0.017000,-0.017000*
1,1,0.006000,-0.017000,-0.017000*
%
%ADD49ROUNDEDRECTD49*%
%ADD50R,0.040000X0.030000*%
%ADD51O,0.040000X0.030000*%
%ADD52R,0.030000X0.040000*%
%ADD53O,0.030000X0.040000*%
%ADD54O,0.023622X0.035433*%
%ADD55R,0.023622X0.035433*%
%ADD56O,0.068898X0.023622*%
%ADD57R,0.068898X0.023622*%
%ADD58R,0.094488X0.122047*%
G04:AMPARAMS|DCode=59|XSize=23.622mil|YSize=80.709mil|CornerRadius=0mil|HoleSize=0mil|Usage=FLASHONLY|Rotation=270.000|XOffset=0mil|YOffset=0mil|HoleType=Round|Shape=Octagon|*
%AMOCTAGOND59*
4,1,8,0.040354,0.005905,0.040354,-0.005905,0.034449,-0.011811,-0.034449,-0.011811,-0.040354,-0.005905,-0.040354,0.005905,-0.034449,0.011811,0.034449,0.011811,0.040354,0.005905,0.0*
%
%ADD59OCTAGOND59*%

%ADD60R,0.080709X0.023622*%
%ADD61R,0.023622X0.068898*%
%ADD62O,0.023622X0.068898*%
G04:AMPARAMS|DCode=63|XSize=40mil|YSize=40mil|CornerRadius=3mil|HoleSize=0mil|Usage=FLASHONLY|Rotation=270.000|XOffset=0mil|YOffset=0mil|HoleType=Round|Shape=RoundedRectangle|*
%AMROUNDEDRECTD63*
21,1,0.040000,0.034000,0,0,270.0*
21,1,0.034000,0.040000,0,0,270.0*
1,1,0.006000,-0.017000,-0.017000*
1,1,0.006000,-0.017000,0.017000*
1,1,0.006000,0.017000,0.017000*
1,1,0.006000,0.017000,-0.017000*
%
%ADD63ROUNDEDRECTD63*%
G04:AMPARAMS|DCode=64|XSize=63mil|YSize=71mil|CornerRadius=4.725mil|HoleSize=0mil|Usage=FLASHONLY|Rotation=90.000|XOffset=0mil|YOffset=0mil|HoleType=Round|Shape=RoundedRectangle|*
%AMROUNDEDRECTD64*
21,1,0.063000,0.061550,0,0,90.0*
21,1,0.053550,0.071000,0,0,90.0*
1,1,0.009450,0.030775,0.026775*
1,1,0.009450,0.030775,-0.026775*
1,1,0.009450,-0.030775,-0.026775*
1,1,0.009450,-0.030775,0.026775*
%
%ADD64ROUNDEDRECTD64*%
G04:AMPARAMS|DCode=65|XSize=63mil|YSize=71mil|CornerRadius=4.725mil|HoleSize=0mil|Usage=FLASHONLY|Rotation=0.000|XOffset=0mil|YOffset=0mil|HoleType=Round|Shape=RoundedRectangle|*
%AMROUNDEDRECTD65*
21,1,0.063000,0.061550,0,0,0.0*
21,1,0.053550,0.071000,0,0,0.0*
1,1,0.009450,0.026775,-0.030775*
1,1,0.009450,-0.026775,-0.030775*
1,1,0.009450,-0.026775,0.030775*
1,1,0.009450,0.026775,0.030775*
%
%ADD65ROUNDEDRECTD65*%
%ADD66R,0.086614X0.080709*%
G04:AMPARAMS|DCode=67|XSize=86.614mil|YSize=80.709mil|CornerRadius=0mil|HoleSize=0mil|Usage=FLASHONLY|Rotation=0.000|XOffset=0mil|YOffset=0mil|HoleType=Round|Shape=Octagon|*
%AMOCTAGOND67*
4,1,8,0.043307,-0.020177,0.043307,0.020177,0.023130,0.040354,-0.023130,0.040354,-0.043307,0.020177,-0.043307,-0.020177,-0.023130,-0.040354,0.023130,-0.040354,0.043307,-0.020177,0.0*
%
%ADD67OCTAGOND67*%

%ADD68R,0.062992X0.023622*%
%ADD69O,0.062992X0.023622*%
%ADD70R,0.066929X0.062992*%
G04:AMPARAMS|DCode=71|XSize=66.929mil|YSize=62.992mil|CornerRadius=0mil|HoleSize=0mil|Usage=FLASHONLY|Rotation=0.000|XOffset=0mil|YOffset=0mil|HoleType=Round|Shape=Octagon|*
%AMOCTAGOND71*
4,1,8,0.033465,-0.015748,0.033465,0.015748,0.017717,0.031496,-0.017717,0.031496,-0.033465,0.015748,-0.033465,-0.015748,-0.017717,-0.031496,0.017717,-0.031496,0.033465,-0.015748,0.0*
%
%ADD71OCTAGOND71*%

G04:AMPARAMS|DCode=72|XSize=66.929mil|YSize=62.992mil|CornerRadius=0mil|HoleSize=0mil|Usage=FLASHONLY|Rotation=270.000|XOffset=0mil|YOffset=0mil|HoleType=Round|Shape=Octagon|*
%AMOCTAGOND72*
4,1,8,-0.015748,-0.033465,0.015748,-0.033465,0.031496,-0.017717,0.031496,0.017717,0.015748,0.033465,-0.015748,0.033465,-0.031496,0.017717,-0.031496,-0.017717,-0.015748,-0.033465,0.0*
%
%ADD72OCTAGOND72*%

%ADD73R,0.062992X0.066929*%
G04:AMPARAMS|DCode=74|XSize=35.433mil|YSize=35.433mil|CornerRadius=0mil|HoleSize=0mil|Usage=FLASHONLY|Rotation=270.000|XOffset=0mil|YOffset=0mil|HoleType=Round|Shape=Octagon|*
%AMOCTAGOND74*
4,1,8,-0.008858,-0.017717,0.008858,-0.017717,0.017717,-0.008858,0.017717,0.008858,0.008858,0.017717,-0.008858,0.017717,-0.017717,0.008858,-0.017717,-0.008858,-0.008858,-0.017717,0.0*
%
%ADD74OCTAGOND74*%

%ADD75R,0.035433X0.035433*%
G04:AMPARAMS|DCode=76|XSize=35.433mil|YSize=35.433mil|CornerRadius=0mil|HoleSize=0mil|Usage=FLASHONLY|Rotation=0.000|XOffset=0mil|YOffset=0mil|HoleType=Round|Shape=Octagon|*
%AMOCTAGOND76*
4,1,8,0.017717,-0.008858,0.017717,0.008858,0.008858,0.017717,-0.008858,0.017717,-0.017717,0.008858,-0.017717,-0.008858,-0.008858,-0.017717,0.008858,-0.017717,0.017717,-0.008858,0.0*
%
%ADD76OCTAGOND76*%

%ADD77R,0.035433X0.035433*%
G04:AMPARAMS|DCode=78|XSize=35.433mil|YSize=33.465mil|CornerRadius=0mil|HoleSize=0mil|Usage=FLASHONLY|Rotation=0.000|XOffset=0mil|YOffset=0mil|HoleType=Round|Shape=Octagon|*
%AMOCTAGOND78*
4,1,8,0.017717,-0.008366,0.017717,0.008366,0.009351,0.016732,-0.009351,0.016732,-0.017717,0.008366,-0.017717,-0.008366,-0.009351,-0.016732,0.009351,-0.016732,0.017717,-0.008366,0.0*
%
%ADD78OCTAGOND78*%

%ADD79R,0.035433X0.033465*%
%ADD80R,0.035433X0.023622*%
%ADD81O,0.035433X0.023622*%
G04:AMPARAMS|DCode=82|XSize=55.118mil|YSize=70.866mil|CornerRadius=4.134mil|HoleSize=0mil|Usage=FLASHONLY|Rotation=90.000|XOffset=0mil|YOffset=0mil|HoleType=Round|Shape=RoundedRectangle|*
%AMROUNDEDRECTD82*
21,1,0.055118,0.062599,0,0,90.0*
21,1,0.046850,0.070866,0,0,90.0*
1,1,0.008268,0.031299,0.023425*
1,1,0.008268,0.031299,-0.023425*
1,1,0.008268,-0.031299,-0.023425*
1,1,0.008268,-0.031299,0.023425*
%
%ADD82ROUNDEDRECTD82*%
G04:AMPARAMS|DCode=83|XSize=55.118mil|YSize=70.866mil|CornerRadius=4.134mil|HoleSize=0mil|Usage=FLASHONLY|Rotation=0.000|XOffset=0mil|YOffset=0mil|HoleType=Round|Shape=RoundedRectangle|*
%AMROUNDEDRECTD83*
21,1,0.055118,0.062599,0,0,0.0*
21,1,0.046850,0.070866,0,0,0.0*
1,1,0.008268,0.023425,-0.031299*
1,1,0.008268,-0.023425,-0.031299*
1,1,0.008268,-0.023425,0.031299*
1,1,0.008268,0.023425,0.031299*
%
%ADD83ROUNDEDRECTD83*%
%ADD84O,0.023622X0.062992*%
%ADD85R,0.023622X0.062992*%
%TA.AperFunction,Conductor*%
%ADD86C,0.008000*%
%ADD87C,0.090000*%
%TA.AperFunction,NonConductor*%
%ADD88C,0.010000*%
%TA.AperFunction,Conductor*%
%ADD89C,0.100000*%
%ADD90C,0.080000*%
%ADD91C,0.040000*%
G36*
X7185039Y3996063D02*
X7066929Y3996063D01*
X6948819Y3877953D01*
X6948819Y3681102D01*
X7017717Y3612205D01*
X7283465Y3612205D01*
X7283465Y2492762D01*
X7278757Y2491077D01*
X7272420Y2498798D01*
X7257913Y2510704D01*
X7241361Y2519551D01*
X7223402Y2524999D01*
X7204724Y2526839D01*
X7186047Y2524999D01*
X7168088Y2519551D01*
X7151536Y2510704D01*
X7137028Y2498798D01*
X7125122Y2484291D01*
X7116275Y2467739D01*
X7110827Y2449780D01*
X7108988Y2431102D01*
X7110827Y2412425D01*
X7116275Y2394465D01*
X7125122Y2377914D01*
X7137028Y2363406D01*
X7151536Y2351500D01*
X7168088Y2342653D01*
X7186047Y2337205D01*
X7204724Y2335366D01*
X7223402Y2337205D01*
X7241361Y2342653D01*
X7257913Y2351500D01*
X7272420Y2363406D01*
X7278757Y2371127D01*
X7283465Y2369443D01*
X7283465Y2234252D01*
X6860236D01*
X5659607Y2234252D01*
X5557756Y2336103D01*
X5542794Y2348881D01*
X5526019Y2359161D01*
X5507841Y2366691D01*
X5488709Y2371284D01*
X5469094Y2372828D01*
X5137796D01*
X5137795Y3976378D01*
X5354331Y4192913D01*
X6358268D01*
X6485315Y4319961D01*
X6536772Y4268504D01*
X6645827D01*
X6700354Y4323031D01*
Y4415658D01*
X6705354Y4416399D01*
X6706275Y4413363D01*
X6715122Y4396812D01*
X6727028Y4382304D01*
X6741536Y4370398D01*
X6758088Y4361551D01*
X6776047Y4356103D01*
X6794724Y4354263D01*
X6813402Y4356103D01*
X6831361Y4361551D01*
X6847913Y4370398D01*
X6862420Y4382304D01*
X6874327Y4396812D01*
X6883173Y4413363D01*
X6888621Y4431323D01*
X6890461Y4450000D01*
X6888621Y4468677D01*
X6883173Y4486637D01*
X6874327Y4503188D01*
X6862420Y4517696D01*
X6847913Y4529602D01*
X6831361Y4538449D01*
X6813402Y4543897D01*
X6794724Y4545737D01*
X6776047Y4543897D01*
X6758088Y4538449D01*
X6741536Y4529602D01*
X6727028Y4517696D01*
X6715122Y4503188D01*
X6706275Y4486637D01*
X6700827Y4468677D01*
X6698988Y4450000D01*
X6700023Y4439489D01*
X6695222Y4437218D01*
X6648898Y4483543D01*
X6692913Y4527559D01*
X6791339Y4625984D01*
X7185039D01*
X7185039Y3996063D01*
D02*
G37*
%LPC*%
G36*
X6640000Y3608414D02*
X6621323Y3606574D01*
X6603363Y3601126D01*
X6586812Y3592279D01*
X6572304Y3580373D01*
X6560398Y3565866D01*
X6551551Y3549314D01*
X6546103Y3531354D01*
X6544263Y3512677D01*
X6546103Y3494000D01*
X6551290Y3476900D01*
X6540713Y3471247D01*
X6525905Y3459095D01*
X6513753Y3444287D01*
X6504724Y3427394D01*
X6499163Y3409063D01*
X6497285Y3390000D01*
X6499163Y3370937D01*
X6504724Y3352606D01*
X6513753Y3335713D01*
X6525905Y3320905D01*
X6540713Y3308753D01*
X6557606Y3299724D01*
X6575937Y3294163D01*
X6595000Y3292285D01*
X6614063Y3294163D01*
X6632394Y3299724D01*
X6649287Y3308753D01*
X6664095Y3320905D01*
X6676247Y3335713D01*
X6685276Y3352606D01*
X6690837Y3370937D01*
X6692715Y3390000D01*
X6690837Y3409063D01*
X6685276Y3427394D01*
X6684673Y3428523D01*
X6693188Y3433075D01*
X6707696Y3444981D01*
X6719602Y3459489D01*
X6728449Y3476040D01*
X6733897Y3494000D01*
X6735737Y3512677D01*
X6733897Y3531354D01*
X6728449Y3549314D01*
X6719602Y3565866D01*
X6707696Y3580373D01*
X6693188Y3592279D01*
X6676637Y3601126D01*
X6658677Y3606574D01*
X6640000Y3608414D01*
D02*
G37*
G36*
X5504823Y3382500D02*
X5455572D01*
X5456552Y3375056D01*
X5462320Y3361131D01*
X5471496Y3349173D01*
X5483454Y3339997D01*
X5497379Y3334229D01*
X5504823Y3333249D01*
Y3382500D01*
D02*
G37*
G36*
X6497500Y2893427D02*
Y2846161D01*
X6544765D01*
X6543853Y2853091D01*
X6538283Y2866538D01*
X6529423Y2878084D01*
X6517876Y2886945D01*
X6504430Y2892514D01*
X6497500Y2893427D01*
D02*
G37*
G36*
X6544765Y2831161D02*
X6497500D01*
Y2783896D01*
X6504430Y2784809D01*
X6517876Y2790378D01*
X6529423Y2799238D01*
X6538283Y2810785D01*
X6543853Y2824232D01*
X6544765Y2831161D01*
D02*
G37*
G36*
X6482500Y2893427D02*
X6475570Y2892514D01*
X6462124Y2886945D01*
X6450577Y2878084D01*
X6441717Y2866538D01*
X6436147Y2853091D01*
X6435235Y2846161D01*
X6482500D01*
Y2893427D01*
D02*
G37*
G36*
X5569074Y3382500D02*
X5519823D01*
Y3333249D01*
X5527266Y3334229D01*
X5541192Y3339997D01*
X5553150Y3349173D01*
X5562325Y3361131D01*
X5568093Y3375056D01*
X5569074Y3382500D01*
D02*
G37*
G36*
X7197225Y3506279D02*
X7149959D01*
X7150872Y3499350D01*
X7156441Y3485903D01*
X7165301Y3474356D01*
X7176848Y3465496D01*
X7190295Y3459927D01*
X7197225Y3459014D01*
Y3506279D01*
D02*
G37*
G36*
X7259490D02*
X7212225D01*
Y3459014D01*
X7219154Y3459927D01*
X7232601Y3465496D01*
X7244147Y3474356D01*
X7253008Y3485903D01*
X7258577Y3499350D01*
X7259490Y3506279D01*
D02*
G37*
G36*
X5519823Y3446751D02*
Y3397500D01*
X5569074D01*
X5568093Y3404944D01*
X5562325Y3418869D01*
X5553150Y3430827D01*
X5541192Y3440003D01*
X5527266Y3445771D01*
X5519823Y3446751D01*
D02*
G37*
G36*
X7197225Y3568545D02*
X7190295Y3567632D01*
X7176848Y3562063D01*
X7165301Y3553202D01*
X7156441Y3541656D01*
X7150872Y3528209D01*
X7149959Y3521279D01*
X7197225D01*
Y3568545D01*
D02*
G37*
G36*
X5504823Y3446751D02*
X5497379Y3445771D01*
X5483454Y3440003D01*
X5471496Y3430827D01*
X5462320Y3418869D01*
X5456552Y3404944D01*
X5455572Y3397500D01*
X5504823D01*
Y3446751D01*
D02*
G37*
G36*
X6647500Y2484765D02*
Y2437500D01*
X6694765D01*
X6693853Y2444430D01*
X6688283Y2457876D01*
X6679423Y2469423D01*
X6667876Y2478283D01*
X6654430Y2483853D01*
X6647500Y2484765D01*
D02*
G37*
G36*
X5230000Y2634438D02*
X5214502Y2632911D01*
X5199600Y2628391D01*
X5185867Y2621050D01*
X5173829Y2611171D01*
X5163950Y2599133D01*
X5156609Y2585399D01*
X5152089Y2570497D01*
X5150562Y2555000D01*
X5152089Y2539503D01*
X5156609Y2524601D01*
X5163950Y2510867D01*
X5173829Y2498829D01*
X5185867Y2488950D01*
X5199600Y2481609D01*
X5214502Y2477089D01*
X5230000Y2475562D01*
X5245498Y2477089D01*
X5260400Y2481609D01*
X5274133Y2488950D01*
X5286171Y2498829D01*
X5296050Y2510867D01*
X5303391Y2524601D01*
X5307911Y2539503D01*
X5309438Y2555000D01*
X5307911Y2570497D01*
X5303391Y2585399D01*
X5296050Y2599133D01*
X5286171Y2611171D01*
X5274133Y2621050D01*
X5260400Y2628391D01*
X5245498Y2632911D01*
X5230000Y2634438D01*
D02*
G37*
G36*
X6632500Y2484765D02*
X6625570Y2483853D01*
X6612124Y2478283D01*
X6600577Y2469423D01*
X6591717Y2457876D01*
X6586147Y2444430D01*
X6585235Y2437500D01*
X6632500D01*
Y2484765D01*
D02*
G37*
G36*
Y2422500D02*
X6585235D01*
X6586147Y2415570D01*
X6591717Y2402124D01*
X6600577Y2390577D01*
X6612124Y2381717D01*
X6625570Y2376147D01*
X6632500Y2375235D01*
Y2422500D01*
D02*
G37*
G36*
X6694765D02*
X6647500D01*
Y2375235D01*
X6654430Y2376147D01*
X6667876Y2381717D01*
X6679423Y2390577D01*
X6688283Y2402124D01*
X6693853Y2415570D01*
X6694765Y2422500D01*
D02*
G37*
G36*
X6590000Y2775737D02*
X6571323Y2773897D01*
X6553363Y2768449D01*
X6536812Y2759602D01*
X6522304Y2747696D01*
X6510398Y2733188D01*
X6501551Y2716637D01*
X6496103Y2698677D01*
X6494263Y2680000D01*
X6496103Y2661323D01*
X6501551Y2643363D01*
X6510398Y2626812D01*
X6522304Y2612304D01*
X6536812Y2600398D01*
X6553363Y2591551D01*
X6571323Y2586103D01*
X6590000Y2584263D01*
X6608677Y2586103D01*
X6626637Y2591551D01*
X6643188Y2600398D01*
X6657696Y2612304D01*
X6669602Y2626812D01*
X6678449Y2643363D01*
X6683897Y2661323D01*
X6685737Y2680000D01*
X6683897Y2698677D01*
X6678449Y2716637D01*
X6669602Y2733188D01*
X6657696Y2747696D01*
X6643188Y2759602D01*
X6626637Y2768449D01*
X6608677Y2773897D01*
X6590000Y2775737D01*
D02*
G37*
G36*
X5514823Y2734765D02*
Y2687500D01*
X5562088D01*
X5561176Y2694430D01*
X5555606Y2707876D01*
X5546746Y2719423D01*
X5535199Y2728283D01*
X5521753Y2733853D01*
X5514823Y2734765D01*
D02*
G37*
G36*
X6482500Y2831161D02*
X6435235D01*
X6436147Y2824232D01*
X6441717Y2810785D01*
X6450577Y2799238D01*
X6462124Y2790378D01*
X6475570Y2784809D01*
X6482500Y2783896D01*
Y2831161D01*
D02*
G37*
G36*
X5499823Y2734765D02*
X5492893Y2733853D01*
X5479447Y2728283D01*
X5467900Y2719423D01*
X5459040Y2707876D01*
X5453470Y2694430D01*
X5452558Y2687500D01*
X5499823D01*
Y2734765D01*
D02*
G37*
G36*
Y2672500D02*
X5452558D01*
X5453470Y2665570D01*
X5459040Y2652124D01*
X5467900Y2640577D01*
X5479447Y2631717D01*
X5492893Y2626147D01*
X5499823Y2625235D01*
Y2672500D01*
D02*
G37*
G36*
X5562088D02*
X5514823D01*
Y2625235D01*
X5521753Y2626147D01*
X5535199Y2631717D01*
X5546746Y2640577D01*
X5555606Y2652124D01*
X5561176Y2665570D01*
X5562088Y2672500D01*
D02*
G37*
G36*
X6960138Y4146896D02*
Y4117500D01*
X6989533D01*
X6989230Y4119805D01*
X6985445Y4128942D01*
X6979425Y4136787D01*
X6971579Y4142808D01*
X6962443Y4146592D01*
X6960138Y4146896D01*
D02*
G37*
G36*
X7053650Y4370059D02*
X6992500D01*
Y4308908D01*
X6998537Y4309503D01*
X7011554Y4313452D01*
X7023551Y4319864D01*
X7034066Y4328493D01*
X7042695Y4339008D01*
X7049107Y4351005D01*
X7053056Y4364022D01*
X7053650Y4370059D01*
D02*
G37*
G36*
X6945138Y4146896D02*
X6942833Y4146592D01*
X6933696Y4142808D01*
X6925850Y4136787D01*
X6919830Y4128942D01*
X6916046Y4119805D01*
X6915742Y4117500D01*
X6945138D01*
Y4146896D01*
D02*
G37*
G36*
Y4102500D02*
X6915742D01*
X6916046Y4100195D01*
X6919830Y4091058D01*
X6925850Y4083213D01*
X6933696Y4077192D01*
X6942833Y4073408D01*
X6945138Y4073104D01*
Y4102500D01*
D02*
G37*
G36*
X6989533D02*
X6960138D01*
Y4073104D01*
X6962443Y4073408D01*
X6971579Y4077192D01*
X6979425Y4083213D01*
X6985445Y4091058D01*
X6989230Y4100195D01*
X6989533Y4102500D01*
D02*
G37*
G36*
X6977500Y4370059D02*
X6916350D01*
X6916944Y4364022D01*
X6920893Y4351005D01*
X6927305Y4339008D01*
X6935934Y4328493D01*
X6946449Y4319864D01*
X6958446Y4313452D01*
X6971463Y4309503D01*
X6977500Y4308908D01*
Y4370059D01*
D02*
G37*
G36*
X7082500Y4504765D02*
X7075570Y4503853D01*
X7062124Y4498283D01*
X7050577Y4489423D01*
X7041717Y4477876D01*
X7036147Y4464430D01*
X7035235Y4457500D01*
X7082500D01*
Y4504765D01*
D02*
G37*
G36*
X7097500D02*
Y4457500D01*
X7144765D01*
X7143853Y4464430D01*
X7138283Y4477876D01*
X7129423Y4489423D01*
X7117876Y4498283D01*
X7104430Y4503853D01*
X7097500Y4504765D01*
D02*
G37*
G36*
X7144765Y4442500D02*
X7097500D01*
Y4395235D01*
X7104430Y4396147D01*
X7117876Y4401717D01*
X7129423Y4410577D01*
X7138283Y4422124D01*
X7143853Y4435570D01*
X7144765Y4442500D01*
D02*
G37*
G36*
X6977500Y4446209D02*
X6971463Y4445615D01*
X6958446Y4441666D01*
X6946449Y4435254D01*
X6935934Y4426625D01*
X6927305Y4416110D01*
X6920893Y4404113D01*
X6916944Y4391096D01*
X6916350Y4385059D01*
X6977500D01*
Y4446209D01*
D02*
G37*
G36*
X6992500D02*
Y4385059D01*
X7053650D01*
X7053056Y4391096D01*
X7049107Y4404113D01*
X7047939Y4406299D01*
X7051840Y4409608D01*
X7062124Y4401717D01*
X7075570Y4396147D01*
X7082500Y4395235D01*
Y4442500D01*
X7035235D01*
X7036147Y4435570D01*
X7039158Y4428301D01*
X7034823Y4425702D01*
X7034066Y4426625D01*
X7023551Y4435254D01*
X7011554Y4441666D01*
X6998537Y4445615D01*
X6992500Y4446209D01*
D02*
G37*
G36*
X5569074Y3784075D02*
X5519823D01*
Y3734824D01*
X5527266Y3735804D01*
X5541192Y3741572D01*
X5553150Y3750748D01*
X5562325Y3762706D01*
X5568093Y3776631D01*
X5569074Y3784075D01*
D02*
G37*
G36*
X5504823Y3848325D02*
X5497379Y3847345D01*
X5483454Y3841577D01*
X5471496Y3832402D01*
X5462320Y3820444D01*
X5456552Y3806519D01*
X5455572Y3799075D01*
X5504823D01*
Y3848325D01*
D02*
G37*
G36*
Y3784075D02*
X5455572D01*
X5456552Y3776631D01*
X5462320Y3762706D01*
X5471496Y3750748D01*
X5483454Y3741572D01*
X5497379Y3735804D01*
X5504823Y3734824D01*
Y3784075D01*
D02*
G37*
G36*
X7212225Y3568545D02*
Y3521279D01*
X7259490D01*
X7258577Y3528209D01*
X7253008Y3541656D01*
X7244147Y3553202D01*
X7232601Y3562063D01*
X7219154Y3567632D01*
X7212225Y3568545D01*
D02*
G37*
G36*
X6490000Y4017075D02*
X6471323Y4015236D01*
X6453363Y4009788D01*
X6436812Y4000941D01*
X6422304Y3989035D01*
X6410398Y3974527D01*
X6401551Y3957975D01*
X6396103Y3940016D01*
X6394263Y3921339D01*
X6396103Y3902661D01*
X6401551Y3884702D01*
X6410398Y3868150D01*
X6422304Y3853643D01*
X6436812Y3841736D01*
X6453363Y3832890D01*
X6471323Y3827442D01*
X6490000Y3825602D01*
X6499646Y3826552D01*
X6502818Y3822687D01*
X6499163Y3810638D01*
X6497285Y3791575D01*
X6499163Y3772512D01*
X6504724Y3754181D01*
X6513753Y3737287D01*
X6525905Y3722480D01*
X6540713Y3710328D01*
X6557606Y3701298D01*
X6575937Y3695738D01*
X6595000Y3693860D01*
X6614063Y3695738D01*
X6632394Y3701298D01*
X6649287Y3710328D01*
X6664095Y3722480D01*
X6676247Y3737287D01*
X6685276Y3754181D01*
X6690837Y3772512D01*
X6692715Y3791575D01*
X6690837Y3810638D01*
X6685276Y3828969D01*
X6676247Y3845862D01*
X6664095Y3860669D01*
X6649287Y3872822D01*
X6632394Y3881851D01*
X6614063Y3887412D01*
X6595000Y3889289D01*
X6583852Y3888191D01*
X6580680Y3892057D01*
X6583897Y3902661D01*
X6585737Y3921339D01*
X6583897Y3940016D01*
X6578449Y3957975D01*
X6569602Y3974527D01*
X6557696Y3989035D01*
X6543188Y4000941D01*
X6526637Y4009788D01*
X6508677Y4015236D01*
X6490000Y4017075D01*
D02*
G37*
G36*
X5519823Y3848325D02*
Y3799075D01*
X5569074D01*
X5568093Y3806519D01*
X5562325Y3820444D01*
X5553150Y3832402D01*
X5541192Y3841577D01*
X5527266Y3847345D01*
X5519823Y3848325D01*
D02*
G37*
G36*
X5787500Y3974017D02*
Y3926752D01*
X5834765D01*
X5833853Y3933682D01*
X5828283Y3947128D01*
X5819423Y3958675D01*
X5807876Y3967535D01*
X5794430Y3973105D01*
X5787500Y3974017D01*
D02*
G37*
G36*
X6657362Y4187934D02*
X6642158Y4186437D01*
X6627538Y4182002D01*
X6614064Y4174800D01*
X6602254Y4165108D01*
X6592562Y4153298D01*
X6585360Y4139824D01*
X6580925Y4125204D01*
X6579428Y4110000D01*
X6580925Y4094796D01*
X6585360Y4080176D01*
X6592562Y4066702D01*
X6602254Y4054892D01*
X6614064Y4045200D01*
X6627538Y4037998D01*
X6642158Y4033563D01*
X6657362Y4032066D01*
X6672566Y4033563D01*
X6687186Y4037998D01*
X6700660Y4045200D01*
X6712470Y4054892D01*
X6722162Y4066702D01*
X6729364Y4080176D01*
X6733799Y4094796D01*
X6735297Y4110000D01*
X6733799Y4125204D01*
X6729364Y4139824D01*
X6722162Y4153298D01*
X6712470Y4165108D01*
X6700660Y4174800D01*
X6687186Y4182002D01*
X6672566Y4186437D01*
X6657362Y4187934D01*
D02*
G37*
G36*
X5772500Y3974017D02*
X5765570Y3973105D01*
X5752124Y3967535D01*
X5740577Y3958675D01*
X5731717Y3947128D01*
X5726147Y3933682D01*
X5725235Y3926752D01*
X5772500D01*
Y3974017D01*
D02*
G37*
G36*
Y3911752D02*
X5725235D01*
X5726147Y3904822D01*
X5731717Y3891376D01*
X5740577Y3879829D01*
X5752124Y3870969D01*
X5765570Y3865399D01*
X5772500Y3864487D01*
Y3911752D01*
D02*
G37*
G36*
X5834765D02*
X5787500D01*
Y3864487D01*
X5794430Y3865399D01*
X5807876Y3870969D01*
X5819423Y3879829D01*
X5828283Y3891376D01*
X5833853Y3904822D01*
X5834765Y3911752D01*
D02*
G37*
%LPD*%
D11*
X1970472Y2614173D02*
X1784827D01*
X1774000Y2625000D01*
Y2690000D01*
Y2754157D01*
X1797598Y2777756D01*
X1774000Y2690000D02*
X1664016D01*
X1609016Y2745000D01*
X1736535Y2945000D02*
X1609016D01*
X1737047Y3595000D02*
X1652480D01*
X1607480Y3550000D01*
X1583268Y3574213D01*
X1470000D01*
X1583268Y3725787D02*
X1607480Y3750000D01*
X1682047D01*
X1737047Y3695000D01*
X1607480Y3950000D02*
X1657480Y4000000D01*
X1737047D01*
Y4100000D02*
X1657480D01*
X1607480Y4150000D01*
X1479213D01*
X1455000Y4125787D01*
Y3974213D02*
X1583268D01*
X1607480Y3950000D01*
X1583268Y3725787D02*
X1470000D01*
X1850000Y4433465D02*
Y4521260D01*
X1878740Y4550000D01*
X2274213Y4625787D02*
X2300000Y4600000D01*
Y4550000D01*
Y4433465D01*
Y4366535D02*
Y4254724D01*
X2274213Y4625787D02*
Y4750000D01*
X3001000Y4695000D02*
X3104000D01*
X3105000Y4613465D02*
Y4775000D01*
X3085000Y4795000D01*
X3335000Y4690945D02*
Y4505000D01*
X3330000Y4500000D01*
X3378465Y4451535D01*
Y4405000D01*
X3449000D01*
X3465000Y4389000D01*
X3105000Y4475000D02*
Y4546535D01*
X4645000Y3495000D02*
X4705000Y3435000D01*
X4825000D01*
X4645000Y3790276D02*
Y3886575D01*
X4645472Y3887047D01*
X4713819D01*
X4721772Y3895000D01*
X5015000D01*
X4140000Y2222047D02*
Y2107481D01*
X4090000Y2057481D01*
Y1924213D01*
X4114213Y1900000D01*
D12*
X1853898Y1965000D02*
X2056535D01*
X2123465D02*
X2187520D01*
X2195000Y1957520D01*
X2212520Y1940000D01*
X2270000D01*
X2283543Y1870079D02*
X2350000Y1936535D01*
X2381535D01*
X2398740Y1953740D01*
X2437205D01*
X2488386Y1859252D02*
X2520000Y1890866D01*
Y2045000D01*
X2391535D01*
X2350000Y2003465D01*
X2320000Y2245945D02*
X2311945Y2254000D01*
X2220000D01*
X2216000Y2250000D01*
X2116000D01*
X2125984Y2240016D01*
Y2145669D01*
X2007874D02*
Y2246126D01*
X2004000Y2250000D01*
X2007874Y2145669D02*
X1929134D01*
X1855473Y2022480D02*
X2195000D01*
X2212520Y2040000D01*
X2270000D01*
X2283543Y1870079D02*
X2165354D01*
X2005000Y1865000D02*
X1805000D01*
X1853898Y1965000D02*
X1594488Y2224409D01*
X1555118D01*
X1705000Y2365000D02*
X1795000Y2455000D01*
X2015000D01*
X2105000Y2365000D01*
X2219000D01*
X2220000Y2366000D01*
Y2475000D01*
X2320000Y2364055D02*
Y2475000D01*
X2440945Y2460630D02*
Y2598425D01*
X2536535Y2694016D01*
X2615276D01*
X2636535Y2715276D01*
Y2780000D01*
X2670000Y2663465D02*
X2736535D01*
X2610000Y2580000D02*
X2636535Y2553465D01*
Y2480000D01*
X2610000Y2580000D02*
X2540000D01*
X2536535Y2576535D01*
Y2480000D01*
X2500000Y2401575D02*
X2618110D01*
X2789685Y2230000D01*
X2870000D01*
X2874016Y2165354D02*
X2924941Y2216280D01*
Y2248664D01*
X2959742Y2283465D01*
X3016535D01*
X3070000Y2230000D01*
X3090551Y2145669D02*
X3149606Y2204724D01*
Y2263780D01*
X3090551Y2145669D02*
X3051181D01*
X2952756Y2047244D01*
Y1988189D01*
X2922087Y1957520D01*
X2905000D01*
X2887480Y1940000D01*
X2840000D01*
X2995000Y1957520D02*
X3012520Y1940000D01*
X3060000D01*
Y1942418D01*
X3110236Y1992654D01*
Y2106299D01*
X3215000Y2211063D01*
Y2416535D01*
X3497165Y2355433D02*
X3543307Y2401575D01*
X3838583D01*
X4271654D01*
X4290394Y2420315D01*
Y2560000D01*
Y2599370D01*
X4251968Y2637795D01*
X4133858D01*
X4094488Y2677165D01*
Y2755905D01*
X3976378Y2874016D01*
X3503937D01*
X3464567Y2834646D01*
X3385827D01*
X3248032Y2972441D01*
X3051181D01*
X3015059Y3008563D01*
Y3106988D01*
X2972441Y3149606D01*
X2924941D01*
Y3177421D01*
X2888937Y3213425D01*
X2841896D01*
X2797762Y3169291D01*
X2598425D01*
X2522756Y3093622D01*
Y3062402D01*
X2342953Y3300000D02*
X2296063D01*
X2263780Y3267716D01*
Y3051181D01*
X2284961Y3030000D01*
X2342953D01*
Y2930000D02*
X2280394D01*
X2263780Y2913386D01*
Y2696850D01*
X2283465Y2677165D01*
X2381890D01*
X2401575Y2657480D01*
Y2440945D01*
X2480315Y2362205D01*
X2598425D01*
X2795276Y2165354D01*
X2874016D01*
X2795276Y2106299D02*
X2933071D01*
X2970000Y2143228D01*
Y2230000D01*
X2995000Y2022480D02*
X3012520Y2040000D01*
X3060000D01*
X3233386Y1864252D02*
X3265000Y1895866D01*
Y2040000D01*
X3497165Y2099528D02*
Y2355433D01*
X3535512Y2630000D02*
X3543307Y2637795D01*
X3905000D01*
X3840000Y2477953D02*
Y2402992D01*
X3838583Y2401575D01*
X4021535Y2560000D02*
Y2733465D01*
X3915000Y2840000D01*
X3595000D01*
X3530000Y2775000D01*
X3481024D01*
X3479803Y2776220D01*
X3270833D01*
X3269613Y2775000D01*
X3141535D01*
X3136535Y2780000D01*
X3208661Y2854803D02*
Y2913386D01*
Y2854803D02*
X3215000Y2848465D01*
X3253071Y2701890D02*
X3287402Y2736220D01*
X3253071Y2701890D02*
Y2680000D01*
X3320000D02*
X3322835Y2677165D01*
X3320000Y2630000D02*
X3535512D01*
X3820000Y3003740D02*
Y3113740D01*
X3840000Y3133740D01*
Y3228740D01*
X3825000Y3243740D01*
X3735000D01*
X3726890Y3251850D01*
Y3290276D01*
X3727599Y3290984D01*
Y3352677D01*
X3726535Y3353740D01*
X3726890Y3290276D02*
X3655000D01*
X3585000Y3223740D02*
X3611535Y3197205D01*
X3655000D01*
X3655709Y3196496D01*
X3727599D01*
X3585000Y3223740D02*
X3530000D01*
X3455000D01*
X3430000Y3198740D01*
Y3137441D01*
X3385000Y3093740D02*
Y3218740D01*
X3430000Y3263740D01*
Y3350039D01*
X3438701Y3358740D01*
X3530000D01*
X3580000D01*
X3530000Y3223740D02*
Y3137441D01*
X3385000Y3093740D02*
X3420000Y3058740D01*
Y3003740D01*
X3307087Y3287402D02*
Y3341535D01*
X3618465Y3590000D02*
X3620000Y3591535D01*
X3690167D01*
X3706703Y3575000D01*
X3817412D01*
X3956693Y3484252D02*
Y3641732D01*
X3923425Y3675000D01*
X3817412D01*
X4085000Y3484252D02*
X4153543D01*
X4389000Y3470000D02*
Y3561000D01*
X4385000Y3565000D01*
X4629803D01*
X4634803Y3570000D01*
Y3620000D02*
X4714380D01*
X4734380Y3600000D01*
X4735167Y3600787D01*
Y3670000D01*
Y3706535D01*
Y3773465D02*
X4815167D01*
X4828238D01*
X4895167Y3706535D01*
X4906703Y3695000D01*
X5015000D01*
X4815167Y3706535D02*
Y3614833D01*
X4830000Y3600000D01*
X4885955D01*
X4634803Y3720000D02*
X4525000D01*
X4422205D01*
X4425000Y3722795D01*
Y3794000D01*
X4427465Y3791535D01*
X4515000D01*
X4525000Y3720000D02*
Y3676063D01*
X4528504Y3672559D01*
X4634803Y3670000D02*
X4735167D01*
X4575000Y3470000D02*
X4501000D01*
X4385000Y3565000D02*
X4320000D01*
X4310000Y3575000D01*
X4222923D01*
Y3625000D02*
X4323632D01*
X4325167Y3626535D01*
X4331703Y3620000D01*
X4422205D01*
Y3720000D02*
X4351703D01*
X4325167Y3693465D01*
X4306703Y3675000D01*
X4222923D01*
X4251000Y3795000D02*
X4424000D01*
X4425000Y3794000D01*
Y3906000D02*
X4269000D01*
X4220000Y3955000D01*
Y4240000D01*
X4265000Y4285000D01*
X4310000Y4330000D01*
X4470000D01*
X4514485Y4374485D01*
Y4405000D01*
X4447555D02*
X4376475D01*
Y4443525D01*
X4350000Y4470000D01*
X4376475Y4405000D02*
Y4371475D01*
X4365000Y4360000D01*
X4275000D01*
X4185000Y4270000D01*
Y3861000D01*
X4251000Y3795000D01*
X4139000D02*
Y4294000D01*
X4175000Y4330000D01*
X4060000Y4520000D02*
X3701850D01*
X3600000Y4418150D01*
X3530000Y4140000D02*
X3965000D01*
X4010000Y4095000D01*
Y3720472D01*
Y3150000D01*
X4139000Y3021000D01*
Y2905000D01*
Y2701000D01*
X4155000Y2685000D01*
X4240000D01*
X4270000D01*
X4327736Y2627264D01*
X4390000D01*
X4638563D01*
X4641299Y2630000D01*
Y2680000D02*
X4734213D01*
Y2730748D01*
X4735000Y2731535D01*
X4734213Y2730748D02*
X4733465Y2730000D01*
X4641299D01*
X4734213Y2680000D02*
Y2625000D01*
X4815000Y2695787D02*
X4885787Y2625000D01*
X4881929Y2731535D02*
X4895000D01*
X5013465D01*
X5015000Y2730000D01*
X4815000Y2798465D02*
X4881929Y2731535D01*
X4815000D02*
Y2695787D01*
Y2798465D02*
X4735000D01*
X4570000Y2545000D02*
X4501000D01*
X4544189Y2342520D02*
Y2247150D01*
X4547244Y2244095D01*
X4625984D01*
X4389000Y2545000D02*
Y2626264D01*
X4390000Y2627264D01*
X4371535Y2680000D02*
X4428701D01*
X4371535D02*
X4335000Y2716535D01*
X4316535Y2735000D01*
X4240000D01*
X4251000Y2905000D02*
Y2959000D01*
X4045000Y3165000D01*
Y4145000D01*
X3995000Y4195000D01*
X3335000D01*
X3176535Y4353465D01*
Y4405000D01*
X3465000Y4501000D02*
X3520000Y4556000D01*
Y4635000D01*
X3570000D01*
X3520000D02*
Y4726000D01*
X3440000Y4806000D01*
X3429000Y4795000D01*
X3185000D01*
X3216000Y4764000D01*
Y4695000D01*
X3775945Y4269055D02*
Y4355000D01*
Y4269055D02*
X3815000Y4230000D01*
X4020000D01*
X4085000Y4165000D01*
Y3484252D01*
Y3180000D01*
X4279000Y2986000D01*
X4330709D01*
X4425000D01*
X4432189Y2342520D02*
Y2283465D01*
X4350394D01*
X2913386Y3661417D02*
X2972441Y3720472D01*
X4010000D01*
X4065000Y4285000D02*
X3995000Y4355000D01*
X3894055D01*
X3885000Y4705000D02*
X3875000Y4715000D01*
Y4795000D01*
X3775000D02*
Y4707000D01*
X3773000Y4705000D01*
X4518010Y4719000D02*
Y4612980D01*
X4519000Y4611990D01*
X4441990D01*
X4518010Y4831000D02*
Y4834055D01*
Y4913010D01*
X2858465Y3173425D02*
Y3115000D01*
X2906201Y2984941D02*
X2924941Y3003681D01*
Y3149606D01*
X2906201Y2984941D02*
X2768465D01*
Y2985000D01*
Y2984941D02*
Y2926535D01*
X2836535Y2858465D01*
Y2780000D01*
X2893701Y2618701D02*
Y2618110D01*
Y2618701D02*
X2871535Y2596535D01*
X2836535D01*
X2536535Y2780000D02*
Y2694016D01*
X2440945Y2460630D02*
X2500000Y2401575D01*
X2618110Y2086614D02*
X2775591D01*
X2795276Y2106299D01*
X2840000Y2040000D02*
X2887480D01*
X2905000Y2022480D01*
X2618110Y2086614D02*
Y1902756D01*
X2661614Y1859252D01*
X1855473Y2022480D02*
X1574803Y2303150D01*
Y2381890D01*
X1732284Y2539370D01*
Y2583284D01*
X1774000Y2625000D01*
X1633858Y2598425D02*
X1515748Y2716535D01*
Y2858267D01*
X1607480Y2950000D01*
X1476378Y2952756D02*
Y3001378D01*
X1525000Y3050000D01*
X1417323Y2730315D02*
Y3248032D01*
Y2730315D02*
X1555118Y2592520D01*
Y2525590D02*
X1501968D01*
X1437008Y2460630D01*
X1407480D01*
X1505906D02*
X1594488D01*
X1633858Y2500000D01*
Y2525590D01*
Y2592520D02*
Y2598425D01*
X1574803Y2381890D02*
X1505906D01*
X1407480D01*
X2106299Y3438976D02*
X2125984Y3458662D01*
Y3627480D01*
X2075000Y3678465D01*
X2520000Y4700000D02*
X2584000D01*
X2585000Y4701000D01*
Y4795000D01*
X2470000Y4750000D02*
X2520000Y4700000D01*
X2470000Y4750000D02*
X2425787D01*
D13*
X2330000Y2740000D02*
X2385669D01*
X2401575Y2755905D01*
X2460630D01*
X2480315Y2775591D01*
Y2834646D01*
X2500669Y2855000D01*
X2688071D01*
X2701535Y2868465D01*
X2736535Y2833465D01*
Y2780000D01*
X2701535Y2868465D02*
Y2985000D01*
Y3025000D01*
X2791535Y3115000D01*
X2789580Y3200000D02*
X2830505Y3240925D01*
X2959862D01*
X3070000Y3130787D01*
Y3030000D01*
X2789580Y3200000D02*
X2342953D01*
X2450000Y2991535D02*
X2453937Y2987599D01*
X2522756D01*
Y2930709D01*
X2543465Y2910000D01*
X2548465Y2905000D01*
X2631535D01*
X2617244Y2987599D02*
X2698937D01*
X2701535Y2985000D01*
X2836535Y2596535D02*
Y2480000D01*
X2160000Y2910000D02*
Y3030000D01*
X2185039D01*
Y3694961D01*
X2063465Y3816535D01*
Y3920000D01*
X2320000Y3630000D02*
Y4136693D01*
X2300000Y4156693D01*
Y4254724D01*
Y4366535D02*
X2381535D01*
X2415000Y4400000D01*
Y4475000D01*
X2440000Y4500000D01*
X2498150D01*
X2585000D01*
X2696000Y4611000D01*
Y4700000D01*
X2685000Y4711000D01*
Y4795000D01*
X2785000Y4895000D01*
X3600000D01*
X3830000D01*
X3875000Y4850000D01*
Y4795000D01*
X4060000Y4680000D02*
X4175000Y4795000D01*
X4275000D02*
Y4595455D01*
X4274000Y4685000D02*
X4167990D01*
X4180000Y4500000D02*
X4238465Y4441535D01*
Y4405000D01*
X4309545D01*
X4520000Y4500000D02*
X4521990Y4498010D01*
X4624000D01*
X4653465Y4468545D01*
Y4405000D01*
X4624000Y4498010D02*
X4626020Y4500030D01*
Y4715945D01*
X4682500Y4551510D02*
X4736000Y4498010D01*
X4682500Y4551510D02*
Y4777575D01*
X4626020Y4834055D01*
X4518010D01*
X4414055D01*
X4375000Y4795000D01*
Y4696000D01*
X4386000Y4685000D01*
X4366475Y4528525D02*
X4395000Y4500000D01*
X4520000D01*
X4366475Y4528525D02*
X4275000D01*
X4171535Y4405000D02*
X4115000D01*
X4060000Y4460000D01*
Y4520000D01*
Y4680000D01*
X3600000Y4811850D02*
Y4895000D01*
X3379000Y4755000D02*
X3440000Y4694000D01*
Y4611000D01*
X3446000Y4605000D01*
X3379000Y4755000D02*
X3295000D01*
X3270000Y4730000D01*
Y4610000D01*
X3176535Y4516535D01*
Y4405000D01*
X3113465D01*
X2988465Y4498465D02*
X2990000Y4500000D01*
X2988465Y4498465D02*
Y4405000D01*
X3046535D01*
X2580000Y3705000D02*
Y3603583D01*
X2585000Y3598583D01*
X2660000D01*
X2697583Y3561000D01*
X2820000D01*
X3092543D01*
X3228346Y3425197D01*
X3346457D01*
X3365000Y3443740D01*
X3620000D01*
X3765000D01*
X3793465Y3415276D01*
Y3353740D01*
X3802402Y3344803D01*
Y3290984D01*
X3551535Y3590000D02*
X3353780D01*
X3307087Y3543307D01*
Y3469488D01*
X2585000Y3598583D02*
X2496447D01*
X2351417D01*
X2320000Y3630000D01*
X2145669Y3332677D02*
X2106299Y3372047D01*
X2063465Y3480787D02*
Y3510000D01*
Y3480787D02*
X2007874Y3425197D01*
Y3307087D01*
X2079961D01*
X2087047Y3300000D01*
X2007874Y3307087D02*
Y3281496D01*
X1948819D01*
Y3282126D01*
Y3346457D01*
X1940276Y3355000D01*
X1893465D01*
X1948819Y3282126D02*
X1815590D01*
X1809055Y3275591D01*
X1734252Y3181102D02*
Y3149606D01*
Y3091638D01*
X1735339Y3090551D01*
X1734252Y3149606D02*
X1607874D01*
X1607480Y3150000D01*
X1736535Y2945000D02*
Y2850079D01*
X1751968Y2834646D01*
X1784304D01*
X1784422Y2834528D01*
X1815630D01*
X1872401Y2777756D01*
X1895827Y2801181D01*
X1948819D01*
X1976378Y2828740D01*
X2027559D01*
Y2761811D02*
X2007874Y2742126D01*
Y2700787D01*
X2045276Y2694882D02*
X2106299Y2755905D01*
Y2801181D01*
X2122244Y2872244D02*
X2160000Y2910000D01*
Y3030000D02*
X2087047D01*
X2025000D01*
X2008465Y3013465D01*
X1965000D01*
X1872401Y2872244D02*
X2122244D01*
X2045276Y2694882D02*
Y2614173D01*
X1872401Y2777756D02*
Y2708599D01*
X1891000Y2690000D01*
X2011811Y3072834D02*
X2049213Y3110236D01*
X2086614D01*
X2087047Y3200000D02*
X2117323D01*
X2145669Y3228347D01*
Y3332677D01*
X2007874Y3214567D02*
X2022441Y3200000D01*
X2087047D01*
X3690000Y1924213D02*
Y2057481D01*
X3740000Y2107481D01*
Y2222047D01*
X3840000Y2107481D02*
X3890000Y2057481D01*
Y1924213D01*
X3865787Y1900000D01*
X3840000Y2107481D02*
Y2222047D01*
X3690000Y1924213D02*
X3714213Y1900000D01*
X4265787D02*
X4290000Y1924213D01*
Y2057481D01*
X4240000Y2107481D01*
Y2222047D01*
X4140000Y2477953D02*
Y2543465D01*
X4156535Y2560000D01*
X4088465D01*
X4333465Y2785000D02*
X4335000Y2783465D01*
X4338465Y2780000D01*
X4428701D01*
X4530000D01*
X4641299D01*
X4530000D02*
Y2710000D01*
X4535000Y2705000D01*
X4515000Y2871535D02*
X4427465D01*
X4428701Y2870299D01*
Y2780000D01*
X4427465Y2871535D02*
X4425000Y2874000D01*
X4427465Y2871535D02*
X4363465D01*
X4330000Y2905000D01*
X4251000D01*
X4240000Y2785000D02*
X4333465D01*
X4222923Y3575000D02*
X4155000D01*
X4139000Y3591000D01*
Y3795000D01*
X4895167Y3773465D02*
X4916703Y3795000D01*
X5015000D01*
D14*
X4785039Y2136165D02*
X4896316Y2247441D01*
X5469094D01*
X5679134Y2037401D01*
X5765787Y1950748D01*
X5780000D01*
X5883898D01*
X5962638D01*
X6045236D01*
X6139803D01*
X6053150Y2037401D01*
X5883898D01*
X5679134D01*
D15*
X4712480Y4135000D02*
X4825000D01*
X4975000D01*
X5015000Y4095000D01*
Y4430000D01*
X4770000Y4675000D01*
Y4742520D01*
X4704528Y4142953D02*
X4712480Y4135000D01*
X4752480Y4095000D01*
X5015000D01*
D16*
X2736535Y2480000D02*
Y2596535D01*
X2670000D01*
X2836535Y2663465D02*
Y2780000D01*
Y2663465D02*
X2736535D01*
X2953465Y2330000D02*
X3053071D01*
X2953465D02*
Y2463071D01*
X2936535Y2480000D01*
X3036535D02*
Y2546535D01*
X3070000Y2580000D01*
X3253071D01*
X3320000D02*
Y2630000D01*
Y2680000D01*
X3253071D02*
X3070000D01*
X3036535Y2713465D01*
Y2780000D01*
X2936535D02*
Y2879606D01*
X2953465Y2896535D01*
Y2930000D01*
X3036535D01*
X3136535Y2896929D02*
Y2780000D01*
Y2896929D02*
X3103465Y2930000D01*
X3326772Y2972441D02*
Y3228347D01*
X3366142Y3267716D01*
Y3366142D01*
X3346457Y3385827D01*
X3188976D01*
X3125803Y3449000D01*
X2820000D01*
X2792417Y3421417D01*
X2660000D01*
X2580000D01*
Y3305000D01*
X2522756Y3062402D02*
X2518819Y3058465D01*
X2450000D01*
X2408858D01*
X2380394Y3030000D01*
X2342953D01*
X2330000Y2840000D02*
X2411929D01*
X2430000Y2821929D01*
Y2863465D01*
X2476535Y2910000D01*
X2487864Y3430000D02*
X2496447Y3421417D01*
X2580000D01*
X2487864Y3430000D02*
X2320000D01*
X2244095Y3505905D01*
Y4055905D01*
X2170000Y4130000D01*
Y4790000D01*
X2220000Y4840000D01*
X2390000D01*
X2425787Y4804213D01*
Y4750000D01*
X2889000Y4437535D02*
X2921535Y4405000D01*
X2889000Y4437535D02*
Y4695000D01*
X2985000Y4791000D01*
Y4795000D01*
X2170000Y4130000D02*
X2128465Y4088465D01*
X2075000D01*
X2063465Y4100000D01*
X1992953D01*
X1940000D01*
X1915000Y4075000D01*
Y3695000D01*
X1992953D01*
X2058465D01*
X2075000Y3678465D01*
Y3611535D02*
X2009488D01*
X1992953Y3595000D01*
Y3513583D01*
X1996535Y3510000D01*
X1915000Y3565000D02*
Y3695000D01*
Y3565000D02*
X1826535Y3476535D01*
Y3425000D01*
X1825000Y3423465D01*
X1745000D01*
X1718465Y3450000D01*
X1525000D01*
X1485000Y3410000D01*
Y3090000D01*
X1525000Y3050000D01*
X1660000D01*
X1701535Y3008465D01*
X1740000D01*
X1820000D01*
X1821535Y3010000D01*
X1888465D02*
Y2966535D01*
X1908465Y2946535D01*
X1965000D01*
X1981535Y2930000D01*
X2087047D01*
X2011811Y3147638D02*
X1990157D01*
X1948819Y3188976D01*
Y3214567D01*
X1875984Y3228347D02*
X1889764Y3242126D01*
X1875984Y3228347D02*
X1811024D01*
X1712598D01*
X1633858Y3307087D01*
Y3355000D01*
X1826535D01*
X1811024Y3228347D02*
Y3126866D01*
X1847339Y3090551D01*
X1925197Y3110236D02*
Y3139764D01*
X1889764Y3175197D01*
X1633858Y3355000D02*
X1612480D01*
X1607480Y3350000D01*
X1996535Y3920000D02*
Y3996417D01*
X1992953Y4000000D01*
X2053465D01*
X2075000Y4021535D01*
X3326772Y2972441D02*
X3385827Y2913386D01*
X3700787D01*
X3720000Y2932599D01*
Y3003740D01*
Y3065276D01*
X3716535Y3068740D01*
X3655000Y3130276D01*
X3647835Y3137441D01*
X3580000D01*
X3716535Y3068740D02*
X3495000D01*
X3480000Y3083740D01*
Y3137441D01*
X3580000Y3350039D02*
X3587165Y3357205D01*
X3655000D01*
X3690167Y3658465D02*
X3706703Y3675000D01*
X3817412D01*
X4895000Y2798465D02*
X4926535Y2830000D01*
X5015000D01*
X3626535Y2565000D02*
X3570000D01*
X3488465Y2483465D01*
X3215000D01*
X3211535Y2480000D01*
X3136535D01*
Y2346535D01*
X3120000Y2330000D01*
D17*
X5625000Y4400000D02*
Y4547244D01*
Y4742520D01*
X5725000D01*
X5625000D02*
X5525000D01*
X6018701Y4400000D02*
Y4473425D01*
X6161417Y4616142D01*
X6125000Y4652559D01*
Y4742520D01*
X6279528D01*
X6483819D01*
X6591299Y4850000D01*
X6773465D01*
X6794724Y4871260D01*
X6279528Y4742520D02*
X6189567Y4652559D01*
X6125000D01*
Y4742520D02*
X5975000D01*
X6018701Y4636220D02*
X6125000Y4742520D01*
X6018701Y4636220D02*
Y4473425D01*
D19*
X3608976Y2775000D02*
X3678465D01*
X3680000Y2773465D01*
X3745000D02*
X3756535Y2785000D01*
X3834488D01*
X3895000D01*
X3905000Y2775000D01*
Y2637795D01*
Y2580000D01*
X3890000Y2565000D01*
X3823465D01*
X3840000Y2548465D01*
Y2477953D01*
X3834488Y2685000D02*
X3766535D01*
X3745000Y2706535D01*
X3680000D01*
X3693465Y2565000D02*
X3750000D01*
X3756535D01*
X3750000D02*
X3740000Y2555000D01*
Y2477953D01*
X4240000D02*
Y2543465D01*
X4223465Y2560000D01*
X4290394D01*
X4600000Y2810000D02*
X4680000D01*
X4720000Y2850000D01*
X4843465D01*
X4895000Y2798465D01*
X4600000Y2810000D02*
X4570000Y2840000D01*
Y2925000D01*
X4556535Y2938465D01*
X4515000D01*
X4467465Y2986000D01*
X4425000D01*
X4330709D02*
Y3051181D01*
X4895167Y3773465D02*
X4843632Y3825000D01*
X4715000D01*
X4695000Y3805000D01*
Y3770000D01*
X4670000Y3745000D01*
X4610000D01*
X4570000Y3785000D01*
Y3840000D01*
X4551535Y3858465D01*
X4515000D01*
X4467465Y3906000D01*
X4425000D01*
X4514485Y4405000D02*
X4586535D01*
X3775945Y4355000D02*
X3705000D01*
X3630000Y4280000D01*
X3365000D01*
X3311535Y4333465D01*
Y4405000D01*
X3243465D01*
D20*
X1456693Y2185039D02*
D03*
Y2578740D02*
D03*
X2437205Y1953740D02*
D03*
X2712795Y1957677D02*
D03*
X3182205Y1958740D02*
D03*
X3457795Y1962677D02*
D03*
X4645472Y2927047D02*
D03*
X4704528Y3182953D02*
D03*
X4645472Y3887047D02*
D03*
X4704528Y4142953D02*
D03*
D21*
X1407480Y2303150D02*
D03*
Y2381890D02*
D03*
X1505906D02*
D03*
Y2303150D02*
D03*
X1407480Y2460630D02*
D03*
D22*
X1505906Y2460630D02*
D03*
D23*
X2300000Y4254724D02*
D03*
Y4550000D02*
D03*
X1878740D02*
D03*
Y4254724D02*
D03*
X5507323Y2680000D02*
D03*
X5780000Y1950748D02*
D03*
X6640000Y2430000D02*
D03*
X6590000Y2680000D02*
D03*
X6490000Y2838661D02*
D03*
X6640000Y3512677D02*
D03*
X6490000Y3921339D02*
D03*
X7090000Y4450000D02*
D03*
Y4871260D02*
D03*
X6794724D02*
D03*
Y4450000D02*
D03*
X7204724Y3513780D02*
D03*
Y2431102D02*
D03*
X5780000Y3919252D02*
D03*
D24*
X2488386Y1859252D02*
D03*
X2661614D02*
D03*
X3233386Y1864252D02*
D03*
X3406614D02*
D03*
D25*
X4375000Y4795000D02*
D03*
X4275000D02*
D03*
X4175000D02*
D03*
X4075000D02*
D03*
X3875000D02*
D03*
X3185000D02*
D03*
X3085000D02*
D03*
X2985000D02*
D03*
X2885000D02*
D03*
X2685000D02*
D03*
D26*
X3775000Y4795000D02*
D03*
X2585000D02*
D03*
D27*
X2320000Y2475000D02*
D03*
X2330000Y2840000D02*
D03*
X2320000Y3530000D02*
D03*
Y3630000D02*
D03*
X3520000Y3003740D02*
D03*
X3620000D02*
D03*
X3720000D02*
D03*
X4725984Y2244095D02*
D03*
D28*
X2220000Y2475000D02*
D03*
X3420000Y3003740D02*
D03*
X3820000D02*
D03*
X4625984Y2244095D02*
D03*
D29*
X2580000Y3305000D02*
D03*
Y3705000D02*
D03*
Y4105000D02*
D03*
X4380000D02*
D03*
X4825000Y4135000D02*
D03*
X5229907Y4661123D02*
D03*
X4825000Y3435000D02*
D03*
Y3155000D02*
D03*
Y2455000D02*
D03*
X5230000Y2555000D02*
D03*
X6985000Y4377559D02*
D03*
Y4850000D02*
D03*
X6591299D02*
D03*
D30*
X6591299Y4377559D02*
D03*
D31*
X2330000Y2740000D02*
D03*
X2320000Y3430000D02*
D03*
D32*
X1805000Y1865000D02*
D03*
X2005000D02*
D03*
X2105000Y2365000D02*
D03*
X1905000D02*
D03*
X1705000D02*
D03*
X2990000Y4500000D02*
D03*
X4180000D02*
D03*
D33*
X4520000Y4500000D02*
D03*
X3330000D02*
D03*
D34*
X3600000Y4418150D02*
D03*
Y4811850D02*
D03*
X2891850Y4500000D02*
D03*
X2498150D02*
D03*
D35*
X4380000Y3305000D02*
D03*
D36*
X1607480Y2950000D02*
D03*
Y3350000D02*
D03*
Y3750000D02*
D03*
Y4150000D02*
D03*
Y4550000D02*
D03*
D37*
X1607480Y2750000D02*
D03*
Y3150000D02*
D03*
Y3550000D02*
D03*
Y3950000D02*
D03*
Y4350000D02*
D03*
X3890000Y2057481D02*
D03*
X4290000D02*
D03*
X4975000D02*
D03*
X5925000Y4742520D02*
D03*
X5525000D02*
D03*
X4770000D02*
D03*
D38*
X5512323Y3390000D02*
D03*
Y3791575D02*
D03*
X6595000Y3390000D02*
D03*
Y3791575D02*
D03*
D39*
X2870000Y2230000D02*
D03*
X2970000D02*
D03*
X3070000D02*
D03*
Y3030000D02*
D03*
X2970000D02*
D03*
X2870000D02*
D03*
X4645000Y2560000D02*
D03*
Y2855276D02*
D03*
Y3495000D02*
D03*
Y3790276D02*
D03*
X5674213Y4400000D02*
D03*
X5969488D02*
D03*
X6161417Y4320866D02*
D03*
Y4616142D02*
D03*
X6657362Y4110000D02*
D03*
X6952638D02*
D03*
D40*
X2270000Y1940000D02*
D03*
Y2040000D02*
D03*
X2840000Y1940000D02*
D03*
Y2040000D02*
D03*
X3060000Y1940000D02*
D03*
Y2040000D02*
D03*
D41*
X3690000Y2057481D02*
D03*
X4090000D02*
D03*
X4775000D02*
D03*
X6125000Y4742520D02*
D03*
X5725000D02*
D03*
X4970000D02*
D03*
D42*
X5015000Y2730000D02*
D03*
Y2830000D02*
D03*
Y2930000D02*
D03*
Y3130000D02*
D03*
Y3695000D02*
D03*
Y3795000D02*
D03*
Y3895000D02*
D03*
Y4095000D02*
D03*
D43*
X2636535Y2480000D02*
D03*
X2736535D02*
D03*
X2836535D02*
D03*
X2936535D02*
D03*
X3036535D02*
D03*
X3136535D02*
D03*
Y2780000D02*
D03*
X3036535D02*
D03*
X2936535D02*
D03*
X2836535D02*
D03*
X2736535D02*
D03*
X2636535D02*
D03*
X2536535D02*
D03*
D44*
X2536535Y2480000D02*
D03*
D45*
X1550000Y2000000D02*
D03*
Y4800000D02*
D03*
X7146850Y2000000D02*
D03*
Y3790000D02*
D03*
D46*
X5314961Y2047244D02*
D03*
Y4527559D02*
D03*
D47*
X2165354Y1870079D02*
D03*
X2520000Y2045000D02*
D03*
X2618110Y2086614D02*
D03*
X3073445Y1867500D02*
D03*
X3265000Y2040000D02*
D03*
X3497165Y2099528D02*
D03*
X3287402Y2401575D02*
D03*
X3149606Y2263780D02*
D03*
X2886535Y2550000D02*
D03*
X2893701Y2618110D02*
D03*
X3208661Y2913386D02*
D03*
X3287402Y2736220D02*
D03*
X2858465Y3173425D02*
D03*
X3307087Y3287402D02*
D03*
X3620000Y3443740D02*
D03*
X3956693Y3484252D02*
D03*
X4153543D02*
D03*
X4575000Y3470000D02*
D03*
X4330709Y3051181D02*
D03*
X4290394Y2560000D02*
D03*
X4570000Y2545000D02*
D03*
X4350394Y2283465D02*
D03*
X2913386Y3661417D02*
D03*
X3530000Y4140000D02*
D03*
X4065000Y4285000D02*
D03*
X4175000Y4330000D02*
D03*
X4265000Y4285000D02*
D03*
X4350000Y4470000D02*
D03*
X4441990Y4611990D02*
D03*
X4518010Y4913010D02*
D03*
X3570000Y4635000D02*
D03*
X3105000Y4475000D02*
D03*
X2086614Y3110236D02*
D03*
X1774000Y2625000D02*
D03*
X1476378Y2952756D02*
D03*
X1417323Y3248032D02*
D03*
X1555118Y2224409D02*
D03*
X1929134Y2145669D02*
D03*
X2540000Y2580000D02*
D03*
X5590551Y4389764D02*
D03*
X5669291Y4468504D02*
D03*
Y4547244D02*
D03*
X5590551D02*
D03*
Y4468504D02*
D03*
X5883898Y1950748D02*
D03*
X5962638D02*
D03*
X6045236D02*
D03*
X6139803D02*
D03*
D48*
X4503504Y2657756D02*
D03*
Y2705000D02*
D03*
Y2752244D02*
D03*
X4535000Y2732559D02*
D03*
Y2681378D02*
D03*
X4566496Y2705000D02*
D03*
Y2657756D02*
D03*
Y2752244D02*
D03*
X4560000Y3597756D02*
D03*
Y3645000D02*
D03*
X4528504Y3621378D02*
D03*
X4497008Y3645000D02*
D03*
Y3597756D02*
D03*
Y3692244D02*
D03*
X4528504Y3672559D02*
D03*
X4560000Y3692244D02*
D03*
D49*
X2350000Y1936535D02*
D03*
Y2003465D02*
D03*
X2836535Y2596535D02*
D03*
Y2663465D02*
D03*
X2736535D02*
D03*
X2670000D02*
D03*
Y2596535D02*
D03*
X2736535D02*
D03*
X2430000Y2755000D02*
D03*
Y2821929D02*
D03*
X2450000Y2991535D02*
D03*
Y3058465D02*
D03*
X2106299Y3372047D02*
D03*
Y3438976D02*
D03*
X2007874Y3281496D02*
D03*
Y3214567D02*
D03*
X1948819D02*
D03*
Y3281496D02*
D03*
X1889764Y3242126D02*
D03*
Y3175197D02*
D03*
X1965000Y3013465D02*
D03*
Y2946535D02*
D03*
X1948819Y2868110D02*
D03*
Y2801181D02*
D03*
X2027559Y2828740D02*
D03*
Y2761811D02*
D03*
X2106299Y2801181D02*
D03*
Y2868110D02*
D03*
X1740000Y2941535D02*
D03*
Y3008465D02*
D03*
X1745000Y3356535D02*
D03*
Y3423465D02*
D03*
X2075000Y3611535D02*
D03*
Y3678465D02*
D03*
Y4021535D02*
D03*
Y4088465D02*
D03*
X2300000Y4366535D02*
D03*
Y4433465D02*
D03*
X1850000D02*
D03*
Y4366535D02*
D03*
X3105000Y4546535D02*
D03*
Y4613465D02*
D03*
X3690167Y3658465D02*
D03*
Y3591535D02*
D03*
X3655000Y3357205D02*
D03*
Y3290276D02*
D03*
Y3197205D02*
D03*
Y3130276D02*
D03*
X3680000Y2773465D02*
D03*
X3745000D02*
D03*
Y2706535D02*
D03*
X3680000D02*
D03*
X3215000Y2781535D02*
D03*
Y2848465D02*
D03*
Y2483465D02*
D03*
Y2416535D02*
D03*
X4335000Y2716535D02*
D03*
X4515000Y2871535D02*
D03*
X4735000Y2731535D02*
D03*
X4815000D02*
D03*
X4895000D02*
D03*
Y2798465D02*
D03*
X4815000D02*
D03*
X4735000D02*
D03*
X4515000Y2938465D02*
D03*
X4335000Y2783465D02*
D03*
X4325167Y3626535D02*
D03*
X4515000Y3791535D02*
D03*
X4735167Y3773465D02*
D03*
Y3706535D02*
D03*
X4815167D02*
D03*
Y3773465D02*
D03*
X4895167D02*
D03*
Y3706535D02*
D03*
X4515000Y3858465D02*
D03*
X4325167Y3693465D02*
D03*
X4275000Y4528525D02*
D03*
Y4595455D02*
D03*
X1633858Y2592520D02*
D03*
Y2525590D02*
D03*
X1555118D02*
D03*
Y2592520D02*
D03*
D50*
X2011811Y3072834D02*
D03*
X1925197Y3110236D02*
D03*
D51*
X2011811Y3147638D02*
D03*
D52*
X2007874Y2700787D02*
D03*
X1970472Y2614173D02*
D03*
D53*
X2045276Y2614173D02*
D03*
D54*
X1797598Y2872244D02*
D03*
X1734252Y3275591D02*
D03*
X3802402Y3196496D02*
D03*
D55*
X1872401Y2777756D02*
D03*
Y2872244D02*
D03*
X1835000D02*
D03*
X1797598Y2777756D02*
D03*
X1809055Y3181102D02*
D03*
X1734252D02*
D03*
X1771653Y3275591D02*
D03*
X1809055D02*
D03*
X3727599Y3196496D02*
D03*
X3765000D02*
D03*
X3727599Y3290984D02*
D03*
X3802402D02*
D03*
D56*
X4428701Y2630000D02*
D03*
X4422205Y3570000D02*
D03*
D57*
X4428701Y2680000D02*
D03*
Y2730000D02*
D03*
Y2780000D02*
D03*
X4641299Y2730000D02*
D03*
Y2680000D02*
D03*
Y2630000D02*
D03*
Y2780000D02*
D03*
X4634803Y3570000D02*
D03*
Y3620000D02*
D03*
Y3670000D02*
D03*
Y3720000D02*
D03*
X4422205D02*
D03*
Y3670000D02*
D03*
Y3620000D02*
D03*
D58*
X4535000Y2705000D02*
D03*
X4528504Y3645000D02*
D03*
D59*
X3817412Y3575000D02*
D03*
X3834488Y2685000D02*
D03*
D60*
X3817412Y3625000D02*
D03*
Y3675000D02*
D03*
X4222923Y3625000D02*
D03*
Y3575000D02*
D03*
Y3675000D02*
D03*
X3834488Y2785000D02*
D03*
Y2735000D02*
D03*
X4240000D02*
D03*
Y2685000D02*
D03*
Y2785000D02*
D03*
D61*
X3430000Y3137441D02*
D03*
X3480000D02*
D03*
X3530000D02*
D03*
Y3350039D02*
D03*
X3580000D02*
D03*
X3480000D02*
D03*
X3430000D02*
D03*
D62*
X3580000Y3137441D02*
D03*
D63*
X2056535Y1965000D02*
D03*
X2123465D02*
D03*
X2886535Y2330000D02*
D03*
X2953465D02*
D03*
X3053071D02*
D03*
X3120000D02*
D03*
X3253071Y2580000D02*
D03*
X3320000D02*
D03*
Y2680000D02*
D03*
X3253071D02*
D03*
X3626535Y2565000D02*
D03*
X3693465D02*
D03*
X3756535D02*
D03*
X3823465D02*
D03*
X4021535Y2560000D02*
D03*
X4088465D02*
D03*
X4156535D02*
D03*
X4223465D02*
D03*
X3793465Y3353740D02*
D03*
X3726535D02*
D03*
X3618465Y3590000D02*
D03*
X3551535D02*
D03*
X3103465Y2930000D02*
D03*
X3036535D02*
D03*
X2953465D02*
D03*
X2858465Y3115000D02*
D03*
X2791535D02*
D03*
X2768465Y2985000D02*
D03*
X2886535Y2930000D02*
D03*
X2701535Y2985000D02*
D03*
X2698465Y2905000D02*
D03*
X2631535D02*
D03*
X2543465Y2910000D02*
D03*
X2476535D02*
D03*
X2063465Y3510000D02*
D03*
X1996535D02*
D03*
X1893465Y3355000D02*
D03*
X1826535D02*
D03*
X1821535Y3010000D02*
D03*
X1888465D02*
D03*
X1996535Y3920000D02*
D03*
X2063465D02*
D03*
X2921535Y4405000D02*
D03*
X2988465D02*
D03*
X3046535D02*
D03*
X3113465D02*
D03*
X3176535D02*
D03*
X3243465D02*
D03*
X3311535D02*
D03*
X3378465D02*
D03*
X4171535D02*
D03*
X4238465D02*
D03*
X4309545D02*
D03*
X4376475D02*
D03*
X4447555D02*
D03*
X4514485D02*
D03*
X4586535D02*
D03*
X4653465D02*
D03*
D64*
X2220000Y2254000D02*
D03*
Y2366000D02*
D03*
X2820000Y3449000D02*
D03*
Y3561000D02*
D03*
X3465000Y4389000D02*
D03*
Y4501000D02*
D03*
X3440000Y4694000D02*
D03*
Y4806000D02*
D03*
X4425000Y3906000D02*
D03*
Y3794000D02*
D03*
Y2986000D02*
D03*
Y2874000D02*
D03*
X4518010Y4719000D02*
D03*
Y4831000D02*
D03*
D65*
X2004000Y2250000D02*
D03*
X2116000D02*
D03*
X1891000Y2690000D02*
D03*
X1779000D02*
D03*
X1847339Y3090551D02*
D03*
X1735339D02*
D03*
X3216000Y4695000D02*
D03*
X3334000Y4605000D02*
D03*
X3446000D02*
D03*
X3773000Y4705000D02*
D03*
X3885000D02*
D03*
X4055990Y4685000D02*
D03*
X4167990D02*
D03*
X4274000D02*
D03*
X4386000D02*
D03*
X4519000Y4611990D02*
D03*
X4624000Y4498010D02*
D03*
X4736000D02*
D03*
X4631000Y4611990D02*
D03*
X4251000Y3795000D02*
D03*
X4139000D02*
D03*
X4389000Y3470000D02*
D03*
X4501000D02*
D03*
X4251000Y2905000D02*
D03*
X4139000D02*
D03*
X4389000Y2545000D02*
D03*
X4432189Y2342520D02*
D03*
X4544189D02*
D03*
X4501000Y2545000D02*
D03*
X3104000Y4695000D02*
D03*
X3001000D02*
D03*
X2889000D02*
D03*
X2696000Y4700000D02*
D03*
X2584000D02*
D03*
D66*
X2660000Y3598583D02*
D03*
X2496447D02*
D03*
D67*
X2660000Y3421417D02*
D03*
X2496447D02*
D03*
D68*
X2342953Y2930000D02*
D03*
Y3030000D02*
D03*
Y3200000D02*
D03*
Y3300000D02*
D03*
X1992953Y3595000D02*
D03*
X2087047Y3300000D02*
D03*
Y3030000D02*
D03*
X1737047Y3595000D02*
D03*
Y3695000D02*
D03*
X1992953Y4000000D02*
D03*
X1737047D02*
D03*
Y4100000D02*
D03*
D69*
X2087047Y2930000D02*
D03*
Y3200000D02*
D03*
X1992953Y3695000D02*
D03*
Y4100000D02*
D03*
D70*
X1470000Y3574213D02*
D03*
X1455000Y3974213D02*
D03*
D71*
X1470000Y3725787D02*
D03*
X1455000Y4125787D02*
D03*
D72*
X3714213Y1900000D02*
D03*
X4114213D02*
D03*
X4734213Y2625000D02*
D03*
X4734380Y3600000D02*
D03*
X2425787Y4750000D02*
D03*
D73*
X3865787Y1900000D02*
D03*
X4265787D02*
D03*
X4885787Y2625000D02*
D03*
X4885955Y3600000D02*
D03*
X2274213Y4750000D02*
D03*
D74*
X3608976Y2775000D02*
D03*
D75*
X3481024Y2775000D02*
D03*
D76*
X3307087Y3469488D02*
D03*
D77*
X3307087Y3341535D02*
D03*
D78*
X2195000Y2022480D02*
D03*
X2905000D02*
D03*
X2995000D02*
D03*
D79*
X2195000Y1957520D02*
D03*
X2905000D02*
D03*
X2995000D02*
D03*
D80*
X2617244Y2987599D02*
D03*
Y3025000D02*
D03*
X2522756Y3062402D02*
D03*
Y2987599D02*
D03*
D81*
X2617244Y3062402D02*
D03*
D82*
X2320000Y2245945D02*
D03*
Y2364055D02*
D03*
X4626020Y4715945D02*
D03*
Y4834055D02*
D03*
X3335000Y4809055D02*
D03*
Y4690945D02*
D03*
D83*
X2007874Y2145669D02*
D03*
X2125984D02*
D03*
X3894055Y4355000D02*
D03*
X3775945D02*
D03*
X4429134Y2244095D02*
D03*
X4547244D02*
D03*
D84*
X3740000Y2477953D02*
D03*
X4140000D02*
D03*
D85*
X3740000Y2222047D02*
D03*
X3840000D02*
D03*
X4140000D02*
D03*
X4240000D02*
D03*
Y2477953D02*
D03*
X3840000D02*
D03*
D86*
X2886535Y2330000D02*
Y2550000D01*
X2949886Y2613350D01*
Y2672599D01*
X2928505Y2693980D01*
X2921020D01*
X2886535Y2728465D01*
Y2930000D01*
X3287402Y2401575D02*
Y2263780D01*
X3248032Y2224409D01*
Y2086614D01*
X3326772D01*
X3346457Y2066929D01*
Y1924409D01*
X3406614Y1864252D01*
X3248032Y2086614D02*
X3208661D01*
X3131736Y2009689D01*
Y1983748D01*
X3128835Y1980847D01*
Y1922890D01*
X3073445Y1867500D01*
D87*
X4380000Y3265000D02*
Y3305000D01*
Y3265000D02*
X4645472Y2999528D01*
Y2927047D01*
X4648425Y2930000D01*
X5015000D01*
X5508740D01*
X5430000Y3895000D02*
X5015000D01*
D88*
X2320000Y2475000D02*
X2220000D01*
D89*
X1878740Y4550000D02*
X1607480D01*
D90*
X1878740Y4254724D02*
Y4321260D01*
X1850000Y4350000D01*
X1607480D01*
D91*
X4725984Y2244095D02*
X4785039Y2185039D01*
Y2136165D01*
%TF.MD5,30ad02d3768b61870c7d46db76ccde47*%
M02*
