G04 Layer_Color=32896*
%FSLAX25Y25*%
%MOIN*%
G70*
G01*
G75*
%ADD85C,0.00800*%
%ADD90C,0.00787*%
%ADD91C,0.00394*%
%ADD159C,0.00984*%
%ADD160C,0.02362*%
%ADD161C,0.00394*%
%ADD162C,0.00400*%
%ADD163C,0.00591*%
G54D85*
X203000Y193500D02*
Y199500D01*
X206500D01*
X207631Y200787D02*
X209130Y203144D01*
X208702D02*
X210630D01*
X208702D02*
X208059Y203358D01*
X207845Y203573D01*
X207631Y204001D01*
Y204430D01*
X207845Y204858D01*
X208059Y205072D01*
X208702Y205286D01*
X210630D01*
Y200787D01*
X211000Y199500D02*
X215000D01*
Y193500D01*
X211500D01*
X206500D02*
X203000D01*
X214105Y189579D02*
X214319Y190650D01*
X214747Y191293D01*
X215390Y191507D01*
X215818D01*
X216461Y191293D01*
X216890Y190650D01*
X217104Y189579D01*
Y188936D01*
X216890Y187865D01*
X216461Y187222D01*
X215818Y187008D01*
X215390D01*
X214747Y187222D01*
X214319Y187865D01*
X214105Y188936D01*
Y189579D01*
X219975Y190864D02*
X219332Y191507D01*
Y187008D01*
X221839Y187651D02*
X222267Y187222D01*
X222910Y187008D01*
X224410D01*
Y191507D01*
X222910D01*
X222267Y191293D01*
X221839Y190864D01*
X221624Y190436D01*
X221410Y189793D01*
Y188722D01*
X221624Y188079D01*
X221839Y187651D01*
X220403Y190650D02*
X219975Y190864D01*
X232000Y191000D02*
X238000D01*
Y194500D01*
X232000D02*
Y191000D01*
Y199000D02*
Y203000D01*
X238000D01*
Y199500D01*
X237906Y205367D02*
X237477Y204939D01*
X236834Y204724D01*
X236620D01*
X235977Y204939D01*
X235549Y205367D01*
X235335Y206010D01*
Y206224D01*
X235549Y206867D01*
X235977Y207295D01*
X236620Y207509D01*
X236834D01*
X237477Y207295D01*
X237906Y206867D01*
X238120Y206224D01*
X237906Y205367D01*
X238120Y206224D02*
Y207295D01*
X237906Y208366D01*
X237477Y209009D01*
X236834Y209224D01*
X236406D01*
X235763Y209009D01*
X235549Y208581D01*
X234349Y208366D02*
X233921Y208581D01*
X233278Y209224D01*
Y204724D01*
X239127D02*
X240626Y207081D01*
X240198D02*
X242126D01*
X240198D02*
X239555Y207295D01*
X239341Y207509D01*
X239127Y207938D01*
Y208366D01*
X239341Y208795D01*
X239555Y209009D01*
X240198Y209224D01*
X242126D01*
Y204724D01*
X246063Y214567D02*
Y219066D01*
X244135D01*
X243492Y218852D01*
X243278Y218637D01*
X243064Y218209D01*
Y217780D01*
X243278Y217352D01*
X243492Y217138D01*
X244135Y216924D01*
X246063D01*
X236500Y235500D02*
Y240500D01*
X227500D01*
Y235500D01*
X226500Y236000D02*
Y241000D01*
X217500D01*
Y236000D01*
X216000Y229500D02*
X211000D01*
X201000D02*
X196000D01*
Y220500D01*
X201000D01*
X201693Y219067D02*
X196693D01*
Y210067D01*
X201693D01*
X201332Y205286D02*
X201975Y205072D01*
X202403Y204430D01*
X202617Y203358D01*
Y202716D01*
X202403Y201644D01*
X201975Y201002D01*
X201332Y200787D01*
X200903D01*
X200261Y201002D01*
X199832Y201644D01*
X199618Y202716D01*
Y203358D01*
X199832Y204430D01*
X200261Y205072D01*
X200903Y205286D01*
X201332D01*
X204481D02*
X206624Y202287D01*
X203410D01*
X204481Y200787D02*
Y205286D01*
X211693Y210067D02*
X216693D01*
Y219067D01*
X211693D01*
X211000Y220500D02*
X216000D01*
Y229500D01*
X217500Y226000D02*
Y221000D01*
X226500D01*
Y226000D01*
X227500Y225500D02*
Y220500D01*
X236500D01*
Y225500D01*
X235908Y219066D02*
X238050Y216067D01*
X234837D01*
X235908Y214567D02*
Y219066D01*
X239700Y218852D02*
X239486Y218637D01*
X239272Y218209D01*
Y217780D01*
X239486Y217352D01*
X239914Y216709D01*
X242057Y214567D01*
X239057D01*
X243064D02*
X244563Y216924D01*
X241843Y217995D02*
Y218209D01*
X241628Y218637D01*
X241414Y218852D01*
X240985Y219066D01*
X240128D01*
X239700Y218852D01*
X229887Y218423D02*
X230101Y217995D01*
X230315Y217352D01*
Y216281D01*
X230101Y215638D01*
X229887Y215210D01*
X229458Y214781D01*
X229029Y214567D01*
X228173D01*
X227744Y214781D01*
X227316Y215210D01*
X227101Y215638D01*
X225837Y216067D02*
X222624D01*
X223695Y214567D02*
Y219066D01*
X225837Y216067D01*
X227101Y217995D02*
X227316Y218423D01*
X227744Y218852D01*
X228173Y219066D01*
X229029D01*
X229458Y218852D01*
X229887Y218423D01*
X221831Y219066D02*
X218832D01*
X220974Y214567D01*
X192485Y258517D02*
X192056Y258088D01*
X191628Y257874D01*
X190771D01*
X190342Y258088D01*
X189914Y258517D01*
X189700Y258945D01*
X188436Y258731D02*
X188222Y258302D01*
X188007Y258088D01*
X187365Y257874D01*
X186722D01*
X186079Y258088D01*
X185651Y258517D01*
X185436Y259159D01*
Y259588D01*
X185651Y260231D01*
X185865Y260445D01*
X186293Y260659D01*
X186936D01*
X185651Y262373D01*
X188007D01*
X189914Y261730D02*
X190342Y262159D01*
X190771Y262373D01*
X191628D01*
X192056Y262159D01*
X192485Y261730D01*
X192699Y261302D01*
X192913Y260659D01*
Y259588D01*
X192699Y258945D01*
X192485Y258517D01*
X184430Y257874D02*
X181430D01*
X182287Y260016D02*
X184430Y257874D01*
X208885Y262454D02*
X209313Y262025D01*
X209956Y261811D01*
X210598D01*
X211241Y262025D01*
X211455Y262240D01*
X211670Y262668D01*
X208885Y262454D02*
X208670Y263096D01*
Y263525D01*
X208885Y264168D01*
X209099Y264382D01*
X209527Y264596D01*
X210170D01*
X208885Y266310D01*
X211241D01*
X211568Y267717D02*
X213067Y270073D01*
X212639D02*
X214567D01*
Y272216D02*
Y267717D01*
X214541Y265667D02*
X213898Y266310D01*
Y261811D01*
X212639Y270073D02*
X211996Y270287D01*
X211782Y270502D01*
X211568Y270930D01*
Y271359D01*
X211782Y271787D01*
X211996Y272001D01*
X212639Y272216D01*
X214567D01*
X214490Y273836D02*
X214062Y274265D01*
X213847Y274907D01*
Y275122D01*
X214062Y275764D01*
X214490Y276193D01*
X215133Y276407D01*
X215347D01*
X215990Y276193D01*
X216418Y275764D01*
X216633Y275122D01*
X216418Y274265D01*
X215990Y273836D01*
X215347Y273622D01*
X215133D01*
X214490Y273836D01*
X216633Y275122D02*
Y276193D01*
X216418Y277264D01*
X215990Y277907D01*
X215347Y278121D01*
X214919D01*
X214276Y277907D01*
X214062Y277478D01*
X213630Y277465D02*
Y280965D01*
Y277465D02*
X207630D01*
Y280965D01*
X205756Y282028D02*
Y285528D01*
X199756D01*
Y281528D01*
Y277028D02*
Y273528D01*
X205756D01*
Y277028D01*
X207630Y285465D02*
Y289465D01*
X213630D01*
Y285965D01*
X209918Y272001D02*
X210346Y271359D01*
X210561Y270287D01*
Y269216D01*
X210346Y268359D01*
X209918Y267931D01*
X209275Y267717D01*
X209061D01*
X208418Y267931D01*
X207990Y268359D01*
X207775Y269002D01*
Y269216D01*
X207990Y269859D01*
X208418Y270287D01*
X209061Y270502D01*
X209275D01*
X209918Y270287D01*
X210346Y269859D01*
X210561Y269216D01*
X209918Y272001D02*
X209275Y272216D01*
X208847D01*
X208204Y272001D01*
X207990Y271573D01*
X206790Y272216D02*
X203791D01*
X205933Y267717D01*
X214541Y265667D02*
X214969Y265453D01*
X215505Y266310D02*
X218504D01*
X217004D02*
Y261811D01*
X218261Y273836D02*
X217832Y274265D01*
X217618Y274907D01*
Y275122D01*
X217832Y275764D01*
X218261Y276193D01*
X218903Y276407D01*
X219118D01*
X219760Y276193D01*
X220189Y275764D01*
X220403Y275122D01*
X220189Y274265D01*
X219760Y273836D01*
X219118Y273622D01*
X218903D01*
X218261Y273836D01*
X221410Y273622D02*
X222910Y275979D01*
X222481D02*
X224410D01*
X222481D02*
X221839Y276193D01*
X221624Y276407D01*
X221410Y276836D01*
Y277264D01*
X221624Y277693D01*
X221839Y277907D01*
X222481Y278121D01*
X224410D01*
Y273622D01*
X220403Y275122D02*
Y276193D01*
X220189Y277264D01*
X219760Y277907D01*
X219118Y278121D01*
X218689D01*
X218046Y277907D01*
X217832Y277478D01*
X218823Y284714D02*
X218394Y285143D01*
X218180Y285785D01*
Y286000D01*
X218394Y286642D01*
X218823Y287071D01*
X219465Y287285D01*
X219680D01*
X220322Y287071D01*
X220751Y286642D01*
X220965Y286000D01*
X220751Y285143D01*
X220322Y284714D01*
X219680Y284500D01*
X219465D01*
X218823Y284714D01*
X220965Y286000D02*
Y287071D01*
X220751Y288142D01*
X220322Y288785D01*
X219680Y288999D01*
X219251D01*
X218608Y288785D01*
X218394Y288356D01*
X221501Y288999D02*
X224500D01*
X223000D02*
Y284500D01*
X237448Y272001D02*
X238091Y272216D01*
X238948D01*
X239591Y272001D01*
X239805Y271573D01*
Y271144D01*
X239591Y270716D01*
X239162Y270502D01*
X238305Y270287D01*
X237662Y270073D01*
X237234Y269645D01*
X237020Y269216D01*
Y268573D01*
X237234Y268145D01*
X237448Y267931D01*
X238091Y267717D01*
X238948D01*
X239591Y267931D01*
X239805Y268145D01*
X240019Y268573D01*
Y269216D01*
X239805Y269645D01*
X239376Y270073D01*
X238734Y270287D01*
X237877Y270502D01*
X237448Y270716D01*
X237234Y271144D01*
Y271573D01*
X237448Y272001D01*
X240000Y272847D02*
X246000D01*
Y276847D01*
Y281347D02*
Y284846D01*
X240000D01*
Y281347D01*
Y276346D02*
Y272847D01*
X241669Y272001D02*
X241454Y271787D01*
X241240Y271359D01*
Y270930D01*
X241454Y270502D01*
X241883Y269859D01*
X244025Y267717D01*
X241026D01*
X241669Y272001D02*
X242097Y272216D01*
X242954D01*
X243383Y272001D01*
X243597Y271787D01*
X243811Y271359D01*
Y271144D01*
X245032Y271359D02*
Y270930D01*
X245246Y270502D01*
X245461Y270287D01*
X246103Y270073D01*
X248031D01*
X246532D02*
X245032Y267717D01*
X248031D02*
Y272216D01*
X246103D01*
X245461Y272001D01*
X245246Y271787D01*
X245032Y271359D01*
X252725Y266096D02*
X253367Y266310D01*
X254224D01*
X254867Y266096D01*
X255081Y265667D01*
Y265239D01*
X254867Y264810D01*
X254439Y264596D01*
X253582Y264382D01*
X252939Y264168D01*
X252510Y263739D01*
X252296Y263311D01*
Y262668D01*
X252510Y262240D01*
X252725Y262025D01*
X253367Y261811D01*
X254224D01*
X254867Y262025D01*
X255081Y262240D01*
X255296Y262668D01*
Y263311D01*
X255081Y263739D01*
X254653Y264168D01*
X254010Y264382D01*
X253153Y264596D01*
X252725Y264810D01*
X252510Y265239D01*
Y265667D01*
X252725Y266096D01*
X257159Y266310D02*
X259302Y263311D01*
X256088D01*
X257159Y261811D02*
Y266310D01*
X264000Y257000D02*
Y260500D01*
X263351Y262454D02*
X262923Y262025D01*
X262494Y261811D01*
X261637D01*
X261209Y262025D01*
X260780Y262454D01*
X260566Y262882D01*
Y265239D02*
X260780Y265667D01*
X261209Y266096D01*
X261637Y266310D01*
X262494D01*
X262923Y266096D01*
X263351Y265667D01*
X263565Y265239D01*
X263779Y264596D01*
Y263525D01*
X263565Y262882D01*
X263351Y262454D01*
X264000Y265000D02*
Y269000D01*
X270000D01*
Y265500D01*
X270654D02*
Y269000D01*
X276654D01*
Y265500D01*
X280654Y265000D02*
Y269000D01*
X286653D01*
Y265500D01*
X287660Y265714D02*
X287231Y266357D01*
X287017Y267428D01*
Y268071D01*
X287231Y269142D01*
X287660Y269785D01*
X288302Y269999D01*
X288731D01*
X289373Y269785D01*
X289802Y269142D01*
X290016Y268071D01*
Y267428D01*
X289802Y266357D01*
X289373Y265714D01*
X288731Y265500D01*
X288302D01*
X287660Y265714D01*
X286653Y260500D02*
Y257000D01*
X280654D01*
Y260500D01*
X276654Y261000D02*
Y257000D01*
X270654D01*
Y260500D01*
X270000D02*
Y257000D01*
X264000D01*
X271127Y256253D02*
X271770Y256468D01*
X272198D01*
X272841Y256253D01*
X273269Y255611D01*
X273483Y254539D01*
Y253468D01*
X273269Y252611D01*
X272841Y252183D01*
X272198Y251969D01*
X271984D01*
X271341Y252183D01*
X270913Y252611D01*
X270698Y253254D01*
Y253468D01*
X270913Y254111D01*
X271341Y254539D01*
X271984Y254754D01*
X272198D01*
X272841Y254539D01*
X273269Y254111D01*
X273483Y253468D01*
X275347Y254111D02*
X277490Y251969D01*
X274490D01*
X275347Y254111D02*
X274919Y254754D01*
X274705Y255182D01*
Y255611D01*
X274919Y256039D01*
X275133Y256253D01*
X275562Y256468D01*
X276419D01*
X276847Y256253D01*
X277061Y256039D01*
X277275Y255611D01*
Y255396D01*
X278497Y255611D02*
Y255182D01*
X278711Y254754D01*
X278925Y254539D01*
X279568Y254325D01*
X281496D01*
X279996D02*
X278497Y251969D01*
X281496D02*
Y256468D01*
X279568D01*
X278925Y256253D01*
X278711Y256039D01*
X278497Y255611D01*
X285917Y240999D02*
X288059D01*
X288273Y239071D01*
X288059Y239285D01*
X287416Y239499D01*
X286773D01*
X286131Y239285D01*
X285702Y238857D01*
X285488Y238214D01*
Y237785D01*
X285702Y237143D01*
X286131Y236714D01*
X286773Y236500D01*
X287416D01*
X288059Y236714D01*
X288273Y236929D01*
X288487Y237357D01*
X289494Y236500D02*
X292494D01*
X290351Y238642D01*
X289923Y239285D01*
X289709Y239714D01*
Y240142D01*
X289923Y240571D01*
X290137Y240785D01*
X290566Y240999D01*
X291423D01*
X291851Y240785D01*
X292065Y240571D01*
X292280Y240142D01*
Y239928D01*
X293501Y240142D02*
Y239714D01*
X293715Y239285D01*
X293929Y239071D01*
X294572Y238857D01*
X296500D01*
X295000D02*
X293501Y236500D01*
X294000Y236000D02*
X298000D01*
Y230000D01*
X294500D01*
X302654D02*
X306653D01*
X311154D02*
X314653D01*
Y236000D01*
X311154D01*
X310501Y237000D02*
X312000Y239357D01*
X311572D02*
X313500D01*
X311572D02*
X310929Y239571D01*
X310715Y239785D01*
X310501Y240214D01*
Y240642D01*
X310715Y241071D01*
X310929Y241285D01*
X311572Y241499D01*
X313500D01*
Y237000D01*
X309494D02*
X306494D01*
X306153Y236000D02*
X302654D01*
Y230000D01*
X304630Y237000D02*
X302488Y241499D01*
X305487D01*
X296500Y240999D02*
Y236500D01*
Y240999D02*
X294572D01*
X293929Y240785D01*
X293715Y240571D01*
X293501Y240142D01*
X306709Y240214D02*
X306923Y239785D01*
X307351Y239142D01*
X309494Y237000D01*
X309279Y240428D02*
Y240642D01*
X309065Y241071D01*
X308851Y241285D01*
X308422Y241499D01*
X307566D01*
X307137Y241285D01*
X306923Y241071D01*
X306709Y240642D01*
Y240214D01*
X318500Y239000D02*
X324500D01*
Y243000D01*
X324774Y236783D02*
X324346Y236568D01*
X324131Y236354D01*
X323917Y235926D01*
Y235497D01*
X324131Y235069D01*
X324560Y234426D01*
X326702Y232283D01*
X323703D01*
X322053Y232498D02*
X321411Y232283D01*
X320982D01*
X320339Y232498D01*
X319911Y233140D01*
X319697Y234212D01*
Y234854D01*
X319911Y235926D01*
X320339Y236568D01*
X320982Y236783D01*
X321411D01*
X322053Y236568D01*
X322482Y235926D01*
X322696Y234854D01*
Y234212D01*
X322482Y233140D01*
X322053Y232498D01*
X327709Y232283D02*
X329209Y234640D01*
X328781D02*
X330709D01*
X328781D02*
X328138Y234854D01*
X327923Y235069D01*
X327709Y235497D01*
Y235926D01*
X327923Y236354D01*
X328138Y236568D01*
X328781Y236783D01*
X330709D01*
Y232283D01*
X326488Y235711D02*
Y235926D01*
X326274Y236354D01*
X326060Y236568D01*
X325631Y236783D01*
X324774D01*
X324500Y247500D02*
Y251000D01*
X318500D01*
Y247500D01*
X317522Y257000D02*
X314523D01*
X313088Y257214D02*
X313302Y257643D01*
X313088Y257214D02*
X312445Y257000D01*
X312016D01*
X311374Y257214D01*
X310945Y257857D01*
X310731Y258928D01*
Y259999D01*
X310945Y259357D01*
X311374Y258928D01*
X312016Y258714D01*
X312231D01*
X312873Y258928D01*
X313302Y259357D01*
X313516Y259999D01*
Y260214D01*
X313302Y260856D01*
X312873Y261285D01*
X312231Y261499D01*
X312016D01*
X311374Y261285D01*
X310945Y260856D01*
X310731Y259999D01*
X314951Y259785D02*
X315380Y259142D01*
X317522Y257000D01*
X319429Y257214D02*
X319001Y257643D01*
X318786Y258071D01*
X319429Y257214D02*
X319858Y257000D01*
X320715D01*
X321143Y257214D01*
X321571Y257643D01*
X321786Y258071D01*
X322000Y258714D01*
Y259785D01*
X321786Y260428D01*
X321571Y260856D01*
X321143Y261285D01*
X320715Y261499D01*
X319858D01*
X319429Y261285D01*
X319001Y260856D01*
X318786Y260428D01*
X317308D02*
Y260642D01*
X317094Y261071D01*
X316880Y261285D01*
X316451Y261499D01*
X315594D01*
X315166Y261285D01*
X314951Y261071D01*
X314737Y260642D01*
Y260214D01*
X314951Y259785D01*
X318500Y242500D02*
Y239000D01*
X322654Y255000D02*
Y261000D01*
X326153D01*
X326654Y265000D02*
X322654D01*
Y271000D01*
X326153D01*
X331153D02*
X334653D01*
Y265000D01*
X331153D01*
Y261000D02*
X334653D01*
Y255000D01*
X331153D01*
X326654D02*
X322654D01*
X337159Y265500D02*
X335017Y269999D01*
X338016D01*
X339666Y269785D02*
X339452Y269571D01*
X339237Y269142D01*
Y268714D01*
X339452Y268285D01*
X339880Y267642D01*
X342022Y265500D01*
X339023D01*
X339666Y269785D02*
X340094Y269999D01*
X340951D01*
X341380Y269785D01*
X341594Y269571D01*
X341808Y269142D01*
Y268928D01*
X343286D02*
X343501Y269356D01*
X343929Y269785D01*
X344358Y269999D01*
X345215D01*
X345643Y269785D01*
X346072Y269356D01*
X346286Y268928D01*
X346500Y268285D01*
Y267214D01*
X346286Y266571D01*
X346072Y266143D01*
X345643Y265714D01*
X345215Y265500D01*
X344358D01*
X343929Y265714D01*
X343501Y266143D01*
X343286Y266571D01*
X360000Y259500D02*
X363500D01*
X360000D02*
Y253500D01*
X364000D01*
X368500D02*
X372000D01*
Y259500D01*
X368500D01*
X373000D02*
X376500D01*
X375672Y259842D02*
Y264342D01*
X377814Y261342D01*
X374601D01*
X371500Y260500D02*
Y264999D01*
X369572D01*
X368929Y264785D01*
X368715Y264571D01*
X368501Y264142D01*
Y263714D01*
X368715Y263285D01*
X368929Y263071D01*
X369572Y262857D01*
X371500D01*
X370000D02*
X368501Y260500D01*
X367494Y262000D02*
X364280D01*
X363487Y261357D02*
X363273Y260929D01*
X363059Y260714D01*
X362416Y260500D01*
X361773D01*
X361131Y260714D01*
X360702Y261143D01*
X360488Y261785D01*
Y262214D01*
X360702Y262857D01*
X360917Y263071D01*
X361345Y263285D01*
X361988D01*
X360702Y264999D01*
X363059D01*
X365351D02*
X367494Y262000D01*
X371000Y268000D02*
Y271500D01*
X371500D02*
Y268000D01*
X377500D01*
Y271500D01*
X379678Y264342D02*
X381821Y261342D01*
X378607D01*
X379678Y264342D02*
Y259842D01*
X381500Y259500D02*
X385000D01*
Y253500D01*
X381500D01*
X377000D02*
X373000D01*
Y259500D01*
X387894Y237785D02*
X388537Y237999D01*
X389394D01*
X390037Y237785D01*
X390251Y237356D01*
Y236928D01*
X390037Y236499D01*
X389608Y236285D01*
X388751Y236071D01*
X388108Y235857D01*
X387680Y235428D01*
X387466Y235000D01*
Y234357D01*
X387680Y233928D01*
X387894Y233714D01*
X388537Y233500D01*
X389394D01*
X390037Y233714D01*
X390251Y233928D01*
X390465Y234357D01*
Y235000D01*
X390251Y235428D01*
X389822Y235857D01*
X389180Y236071D01*
X388323Y236285D01*
X387894Y236499D01*
X387680Y236928D01*
Y237356D01*
X387894Y237785D01*
X391001Y237999D02*
X394000D01*
X392500D02*
Y233500D01*
X405608Y235000D02*
X403466Y239499D01*
X406465D01*
X407001D02*
X410000D01*
X408500D02*
Y235000D01*
X417000Y253000D02*
X413000D01*
Y259000D01*
X416500D01*
X416987D02*
X413988D01*
X416987D02*
X414845Y261142D01*
X414417Y261785D01*
X414202Y262214D01*
Y262642D01*
X414417Y263071D01*
X414631Y263285D01*
X415059Y263499D01*
X415916D01*
X416345Y263285D01*
X416559Y263071D01*
X416773Y262642D01*
Y262428D01*
X417780Y260500D02*
X420994D01*
X418851Y263499D01*
Y259000D01*
X421500D02*
X425000D01*
Y253000D01*
X421500D01*
X422001Y259000D02*
X423500Y261357D01*
X423072D02*
X425000D01*
X423072D02*
X422429Y261571D01*
X422215Y261785D01*
X422001Y262214D01*
Y262642D01*
X422215Y263071D01*
X422429Y263285D01*
X423072Y263499D01*
X425000D01*
Y259000D01*
X439733Y244656D02*
X441875D01*
X442089Y242728D01*
X441875Y242943D01*
X441232Y243157D01*
X440590D01*
X439947Y242943D01*
X439518Y242514D01*
X439304Y241871D01*
Y241443D01*
X439518Y240800D01*
X439947Y240372D01*
X440590Y240158D01*
X441232D01*
X441875Y240372D01*
X442089Y240586D01*
X442304Y241014D01*
X443096Y241657D02*
X446310D01*
X444167Y244656D01*
Y240158D01*
X443819Y238752D02*
X438819D01*
Y229752D01*
X443819D01*
X453819D02*
X458819D01*
Y238752D01*
X453819D01*
X450359Y240800D02*
X449930Y240372D01*
X449502Y240158D01*
X448645D01*
X448216Y240372D01*
X447788Y240800D01*
X447574Y241229D01*
Y243585D02*
X447788Y244014D01*
X448216Y244442D01*
X448645Y244656D01*
X449502D01*
X449930Y244442D01*
X450359Y244014D01*
X450573Y243585D01*
X450787Y242943D01*
Y241871D01*
X450573Y241229D01*
X450359Y240800D01*
X453819Y228909D02*
X458819D01*
Y219910D01*
X453819D01*
X454122Y218852D02*
X453908Y218637D01*
X453693Y218209D01*
Y217780D01*
X453908Y217352D01*
X454122Y217138D01*
X454765Y216924D01*
X456693D01*
X455193D02*
X453693Y214567D01*
X452687D02*
X449687D01*
X448680D02*
X445681D01*
X446538Y216709D02*
X448680Y214567D01*
X448466Y217995D02*
Y218209D01*
X448252Y218637D01*
X448038Y218852D01*
X447609Y219066D01*
X446752D01*
X446324Y218852D01*
X446109Y218637D01*
X445895Y218209D01*
Y217780D01*
X446109Y217352D01*
X446538Y216709D01*
X450544D02*
X452687Y214567D01*
X452472Y217995D02*
Y218209D01*
X452258Y218637D01*
X452044Y218852D01*
X451615Y219066D01*
X450759D01*
X450330Y218852D01*
X450116Y218637D01*
X449901Y218209D01*
Y217780D01*
X450116Y217352D01*
X450544Y216709D01*
X454122Y218852D02*
X454765Y219066D01*
X456693D01*
Y214567D01*
X443819Y219910D02*
X438819D01*
Y228909D01*
X443819D01*
X442500Y192999D02*
Y188500D01*
X441000D01*
X440358Y188714D01*
X439929Y189143D01*
X439715Y189571D01*
X439501Y190214D01*
Y191285D01*
X439715Y191928D01*
X439929Y192356D01*
X440358Y192785D01*
X441000Y192999D01*
X442500D01*
X438494Y192142D02*
X438065Y192356D01*
X437423Y192999D01*
Y188500D01*
X435194D02*
X432195D01*
X433052Y190642D02*
X435194Y188500D01*
X434980Y191928D02*
Y192142D01*
X434766Y192571D01*
X434552Y192785D01*
X434123Y192999D01*
X433266D01*
X432838Y192785D01*
X432623Y192571D01*
X432409Y192142D01*
Y191714D01*
X432623Y191285D01*
X433052Y190642D01*
X489914Y252142D02*
X492057Y250000D01*
X489057D01*
X489486Y252785D02*
X489914Y252142D01*
X489700Y254285D02*
X489486Y254071D01*
X489272Y253642D01*
Y253214D01*
X489486Y252785D01*
X489700Y254285D02*
X490129Y254499D01*
X490985D01*
X491414Y254285D01*
X491628Y254071D01*
X491843Y253642D01*
Y253428D01*
X493278D02*
X493064Y252785D01*
Y251714D01*
X493278Y251071D01*
X493492Y250643D01*
X493921Y250214D01*
X494563Y250000D01*
X496063D01*
Y254499D01*
X494563D01*
X493921Y254285D01*
X493492Y253856D01*
X493278Y253428D01*
X492500Y270500D02*
Y274500D01*
Y270500D02*
X486500D01*
Y274000D01*
X484500D02*
Y270500D01*
X478500D01*
Y274000D01*
X476500D02*
Y270500D01*
X470500D01*
Y274000D01*
X465679Y250348D02*
X466107Y249919D01*
X466321Y249491D01*
X466535Y248848D01*
Y247777D01*
X466321Y247134D01*
X466107Y246706D01*
X465679Y246277D01*
X465250Y246063D01*
X464393D01*
X463965Y246277D01*
X463536Y246706D01*
X463322Y247134D01*
X462058Y246920D02*
X461844Y246492D01*
X461629Y246277D01*
X460987Y246063D01*
X460344D01*
X459701Y246277D01*
X459273Y246706D01*
X459059Y247348D01*
Y247777D01*
X459273Y248420D01*
X459487Y248634D01*
X459915Y248848D01*
X460558D01*
X459273Y250562D01*
X461629D01*
X463536Y249919D02*
X463965Y250348D01*
X464393Y250562D01*
X465250D01*
X465679Y250348D01*
X463536Y249919D02*
X463322Y249491D01*
X458051Y249277D02*
X457837Y249919D01*
X457409Y250348D01*
X456766Y250562D01*
X456552D01*
X455909Y250348D01*
X455481Y249919D01*
X455266Y249062D01*
X455481Y248420D01*
X455909Y247991D01*
X456552Y247777D01*
X456766D01*
X457409Y247991D01*
X457837Y248420D01*
X458051Y249062D01*
Y249277D01*
X457837Y246706D02*
X457623Y246277D01*
X456980Y246063D01*
X456552D01*
X455909Y246277D01*
X455481Y246920D01*
X455266Y247991D01*
Y249062D01*
X454500Y250000D02*
Y259000D01*
X449500D01*
Y250000D02*
X454500D01*
X436500Y269000D02*
Y273000D01*
Y269000D02*
X430500D01*
Y272500D01*
X434500Y259000D02*
X439500D01*
X434500D02*
Y250000D01*
X439500D01*
X459344Y281496D02*
X458916D01*
X458273Y281710D01*
X457845Y282139D01*
X457631Y282782D01*
Y285995D01*
X455960Y285567D02*
X455745Y285781D01*
X455317Y285995D01*
X454460D01*
X454031Y285781D01*
X453817Y285567D01*
X453603Y285138D01*
Y284710D01*
X453817Y284281D01*
X454246Y283639D01*
X456388Y281496D01*
X453389D01*
X454500Y284500D02*
Y288500D01*
Y284500D02*
X448500D01*
Y288000D01*
X447000D02*
Y283000D01*
X438000D01*
Y288000D01*
X437500Y285999D02*
Y281500D01*
X436500Y281000D02*
Y277500D01*
Y281000D02*
X430500D01*
Y277500D01*
X431351Y281714D02*
X430923Y282143D01*
X430709Y282785D01*
Y283000D01*
X430923Y283642D01*
X431351Y284071D01*
X431994Y284285D01*
X432208D01*
X432851Y284071D01*
X433280Y283642D01*
X433494Y283000D01*
X433280Y282143D01*
X432851Y281714D01*
X432208Y281500D01*
X431994D01*
X431351Y281714D01*
X429295D02*
X429509Y281928D01*
X429723Y282357D01*
X429295Y281714D02*
X428652Y281500D01*
X428009D01*
X427366Y281714D01*
X426938Y282143D01*
X426724Y282785D01*
Y283214D01*
X426938Y283857D01*
X427152Y284071D01*
X427581Y284285D01*
X428223D01*
X426938Y285999D01*
X429295D01*
X429500Y286000D02*
Y295000D01*
X424500D01*
X426029Y296714D02*
X425601Y297143D01*
X425386Y297571D01*
X426029Y296714D02*
X426458Y296500D01*
X427315D01*
X427743Y296714D01*
X428171Y297143D01*
X428386Y297571D01*
X428600Y298214D01*
Y299285D01*
X428386Y299928D01*
X428171Y300356D01*
X427743Y300785D01*
X427315Y300999D01*
X426458D01*
X426029Y300785D01*
X425601Y300356D01*
X425386Y299928D01*
X424122Y298000D02*
X420909D01*
X420116Y298428D02*
X419902Y297357D01*
X419473Y296714D01*
X418831Y296500D01*
X418402D01*
X417760Y296714D01*
X417331Y297357D01*
X417117Y298428D01*
Y299071D01*
X417331Y300142D01*
X417760Y300785D01*
X418402Y300999D01*
X418831D01*
X419473Y300785D01*
X419902Y300142D01*
X420116Y299071D01*
Y298428D01*
X421980Y296500D02*
Y300999D01*
X424122Y298000D01*
X414500Y295000D02*
X409500D01*
Y286000D01*
X414500D01*
X424500D02*
X429500D01*
X431137Y285785D02*
X431780Y285999D01*
X432208D01*
X432851Y285785D01*
X433280Y285142D01*
X433494Y284071D01*
Y283000D01*
X434715Y284285D02*
X434929Y284071D01*
X435572Y283857D01*
X437500D01*
X436000D02*
X434501Y281500D01*
X434715Y284285D02*
X434501Y284714D01*
Y285142D01*
X434715Y285571D01*
X434929Y285785D01*
X435572Y285999D01*
X437500D01*
X431137Y285785D02*
X430923Y285356D01*
X455960Y285567D02*
X456174Y285138D01*
Y284924D01*
X460630Y285995D02*
Y282782D01*
X460416Y282139D01*
X459987Y281710D01*
X459344Y281496D01*
X470500Y282500D02*
X476500D01*
Y279000D01*
X478500Y278500D02*
Y282500D01*
X484500D01*
Y279000D01*
X486500D02*
Y282500D01*
X492500D01*
Y279000D01*
X491095Y283465D02*
X492595Y285821D01*
X492166D02*
X494095D01*
X492166D02*
X491524Y286035D01*
X491309Y286250D01*
X491095Y286678D01*
Y287107D01*
X491309Y287535D01*
X491524Y287749D01*
X492166Y287964D01*
X494095D01*
Y283465D01*
X489874Y284107D02*
X489445Y283679D01*
X488803Y283465D01*
X488588D01*
X487946Y283679D01*
X487517Y284107D01*
X487303Y284750D01*
Y284964D01*
X487517Y285607D01*
X487946Y286035D01*
X488588Y286250D01*
X488803D01*
X489445Y286035D01*
X489874Y285607D01*
X490088Y284964D01*
X489874Y284107D01*
X490088Y284964D02*
Y286035D01*
X489874Y287107D01*
X489445Y287749D01*
X488803Y287964D01*
X488374D01*
X487732Y287749D01*
X487517Y287321D01*
X484252Y287402D02*
Y291901D01*
X482324D01*
X481681Y291686D01*
X481467Y291472D01*
X481253Y291044D01*
Y290615D01*
X481467Y290187D01*
X481681Y289972D01*
X482324Y289758D01*
X484252D01*
X482752D02*
X481253Y287402D01*
X480246Y288901D02*
X477032D01*
X476378Y287964D02*
Y283465D01*
Y285821D02*
X474450D01*
X473807Y286035D01*
X473593Y286250D01*
X473379Y286678D01*
Y287107D01*
X473593Y287535D01*
X473807Y287749D01*
X474450Y287964D01*
X476378D01*
X478103Y287402D02*
Y291901D01*
X480246Y288901D01*
X474878Y285821D02*
X473379Y283465D01*
X471515D02*
X469372Y287964D01*
X472372D01*
X470500Y282500D02*
Y278500D01*
X460201Y297887D02*
X459773Y297458D01*
X459344Y297244D01*
X458488D01*
X458059Y297458D01*
X457631Y297887D01*
X457416Y298315D01*
X456152Y297244D02*
X453153D01*
X451503Y297458D02*
X450861Y297244D01*
X450432D01*
X449789Y297458D01*
X449361Y298101D01*
X449147Y299172D01*
Y299815D01*
X449361Y300886D01*
X449789Y301529D01*
X450432Y301743D01*
X450861D01*
X451503Y301529D01*
X451932Y300886D01*
X452146Y299815D01*
Y299172D01*
X451932Y298101D01*
X451503Y297458D01*
X454500Y296500D02*
X448500D01*
Y293000D01*
X454500D02*
Y296500D01*
X456152Y297244D02*
X454010Y299387D01*
X453581Y300029D01*
X453367Y300458D01*
Y300886D01*
X453581Y301315D01*
X453796Y301529D01*
X454224Y301743D01*
X455081D01*
X455510Y301529D01*
X455724Y301315D01*
X455938Y300886D01*
Y300672D01*
X457416D02*
X457631Y301100D01*
X458059Y301529D01*
X458488Y301743D01*
X459344D01*
X459773Y301529D01*
X460201Y301100D01*
X460416Y300672D01*
X460630Y300029D01*
Y298958D01*
X460416Y298315D01*
X460201Y297887D01*
X446636Y306189D02*
X446422Y305761D01*
X445993Y305332D01*
X445565Y305118D01*
X444708D01*
X444279Y305332D01*
X443851Y305761D01*
X443637Y306189D01*
Y308546D02*
X443851Y308974D01*
X444279Y309403D01*
X444708Y309617D01*
X445565D01*
X445993Y309403D01*
X446422Y308974D01*
X446636Y308546D01*
X446850Y307903D01*
Y306832D01*
X446636Y306189D01*
X447000Y303000D02*
Y298000D01*
Y303000D02*
X438000D01*
Y298000D01*
X437295Y305118D02*
Y309617D01*
X437938Y308974D01*
X438367Y308760D01*
X439588D02*
Y308332D01*
X439802Y307903D01*
X440230Y307260D01*
X442373Y305118D01*
X439373D01*
X439588Y308760D02*
X439802Y309189D01*
X440016Y309403D01*
X440445Y309617D01*
X441302D01*
X441730Y309403D01*
X441944Y309189D01*
X442159Y308760D01*
Y308546D01*
X460242Y348639D02*
X459813Y349068D01*
X459599Y349711D01*
Y352924D01*
X462598D02*
Y349711D01*
X462384Y349068D01*
X461956Y348639D01*
X461313Y348425D01*
X460885D01*
X460242Y348639D01*
X457928Y352924D02*
X455571D01*
X456857Y351210D01*
X456214D01*
X455786Y350996D01*
X455571Y350782D01*
X455357Y350139D01*
Y349711D01*
X455571Y349068D01*
X456000Y348639D01*
X456643Y348425D01*
X457285D01*
X457928Y348639D01*
X458142Y348854D01*
X458357Y349282D01*
X454500Y351500D02*
X449500D01*
X454500D02*
Y342500D01*
X449500D01*
X449502Y341113D02*
X449930Y340899D01*
X450359Y340471D01*
X450573Y340042D01*
X450787Y339399D01*
Y338328D01*
X450573Y337685D01*
X450359Y337257D01*
X449930Y336828D01*
X449502Y336614D01*
X448645D01*
X448216Y336828D01*
X447788Y337257D01*
X447574Y337685D01*
X446310Y337471D02*
X446096Y337043D01*
X445881Y336828D01*
X445239Y336614D01*
X444596D01*
X443953Y336828D01*
X443525Y337257D01*
X443310Y337900D01*
Y338328D01*
X443525Y338971D01*
X443739Y339185D01*
X444167Y339399D01*
X444810D01*
X443525Y341113D01*
X445881D01*
X447788Y340471D02*
X448216Y340899D01*
X448645Y341113D01*
X449502D01*
X447788Y340471D02*
X447574Y340042D01*
X437008Y354331D02*
Y358830D01*
X435080D01*
X434437Y358615D01*
X434223Y358401D01*
X434009Y357973D01*
Y357544D01*
X434223Y357116D01*
X434437Y356902D01*
X435080Y356687D01*
X437008D01*
X435508D02*
X434009Y354331D01*
X431930D02*
Y358830D01*
X432573Y358187D01*
X433002Y357973D01*
X429702D02*
X429274Y358187D01*
X428631Y358830D01*
Y354331D01*
X429517Y360000D02*
X435517D01*
Y364000D01*
X429517Y363500D02*
Y360000D01*
X434500Y351500D02*
X439500D01*
X434500D02*
Y342500D01*
X439500D01*
X439733Y340899D02*
X440375Y341113D01*
X441232D01*
X441875Y340899D01*
X442089Y340471D01*
Y340042D01*
X441875Y339614D01*
X441447Y339399D01*
X440590Y339185D01*
X439947Y338971D01*
X439518Y338542D01*
X439304Y338114D01*
Y337471D01*
X439518Y337043D01*
X439733Y336828D01*
X440375Y336614D01*
X441232D01*
X441875Y336828D01*
X442089Y337043D01*
X442304Y337471D01*
Y338114D01*
X442089Y338542D01*
X441661Y338971D01*
X441018Y339185D01*
X440161Y339399D01*
X439733Y339614D01*
X439518Y340042D01*
Y340471D01*
X439733Y340899D01*
X470517Y368000D02*
Y371500D01*
Y368000D02*
X476517D01*
Y371500D01*
X478517D02*
Y368000D01*
X484517D01*
Y371500D01*
X486517D02*
Y368000D01*
X492517D01*
Y372000D01*
Y376500D02*
Y380000D01*
X486517D01*
Y376500D01*
X484517D02*
Y380000D01*
X478517D01*
Y376000D01*
X476517Y376500D02*
Y380000D01*
X470517D01*
Y376000D01*
X470472Y381890D02*
X474971D01*
Y383818D01*
X474757Y384461D01*
X474543Y384675D01*
X474115Y384889D01*
X473686D01*
X473258Y384675D01*
X473043Y384461D01*
X472829Y383818D01*
Y381890D01*
X480315D02*
X484814D01*
Y383818D01*
X484600Y384461D01*
X484385Y384675D01*
X483957Y384889D01*
X483529D01*
X483100Y384675D01*
X482886Y384461D01*
X482672Y383818D01*
Y381890D01*
X488189D02*
X492688D01*
Y383818D01*
X492474Y384461D01*
X492260Y384675D01*
X491831Y384889D01*
X491403D01*
X490974Y384675D01*
X490760Y384461D01*
X490546Y383818D01*
Y381890D01*
X494440Y361499D02*
X496582D01*
X496796Y359571D01*
X496582Y359785D01*
X495939Y359999D01*
X495296D01*
X494654Y359785D01*
X494225Y359357D01*
X494011Y358714D01*
Y358285D01*
X494225Y357643D01*
X494654Y357214D01*
X495296Y357000D01*
X495939D01*
X496582Y357214D01*
X496796Y357429D01*
X497011Y357857D01*
X498232Y358071D02*
X498446Y357643D01*
X498874Y357214D01*
X499517Y357000D01*
X501017D01*
Y361499D01*
X499517D01*
X498874Y361285D01*
X498446Y360856D01*
X498232Y360428D01*
X498017Y359785D01*
Y358714D01*
X498232Y358071D01*
X490546Y383389D02*
X488189Y384889D01*
Y386967D02*
X492688D01*
X492045Y386325D01*
X491831Y385896D01*
Y389410D02*
X492260Y389624D01*
X492474Y389838D01*
X492688Y390266D01*
Y391124D01*
X492474Y391552D01*
X492260Y391766D01*
X491831Y391981D01*
X491403D01*
X490974Y391766D01*
X490331Y391338D01*
X488189Y389195D01*
Y392195D01*
X484814Y391981D02*
X483100Y390695D01*
Y391338D01*
X482886Y391766D01*
X482672Y391981D01*
X482029Y392195D01*
X481600D01*
X480958Y391981D01*
X480529Y391552D01*
X480315Y390909D01*
Y390266D01*
X480529Y389624D01*
X480743Y389410D01*
X481172Y389195D01*
X480315Y386967D02*
X484814D01*
X484171Y386325D01*
X483957Y385896D01*
X482672Y383389D02*
X480315Y384889D01*
X474329Y386325D02*
X474971Y386967D01*
X470472D01*
Y384889D02*
X472829Y383389D01*
X474115Y385896D02*
X474329Y386325D01*
X474757Y389838D02*
X474115Y389410D01*
X473043Y389195D01*
X472401D01*
X471329Y389410D01*
X470687Y389838D01*
X470472Y390481D01*
Y390909D01*
X470687Y391552D01*
X471329Y391981D01*
X472401Y392195D01*
X473043D01*
X474115Y391981D01*
X474757Y391552D01*
X474971Y390909D01*
Y390481D01*
X474757Y389838D01*
X484814Y389624D02*
Y391981D01*
X491617Y389410D02*
X491831D01*
X483823Y439619D02*
X483395Y439191D01*
X482967Y438976D01*
X482110D01*
X481681Y439191D01*
X481253Y439619D01*
X481038Y440048D01*
X479774Y438976D02*
X476775D01*
X475768D02*
X472769D01*
X473626Y441119D02*
X475768Y438976D01*
X475554Y442404D02*
Y442619D01*
X475340Y443047D01*
X475125Y443261D01*
X474697Y443475D01*
X473840D01*
X473411Y443261D01*
X473197Y443047D01*
X472983Y442619D01*
Y442190D01*
X473197Y441761D01*
X473626Y441119D01*
X468000Y443500D02*
X464500D01*
X468000D02*
Y437500D01*
X464500D01*
X464069Y435601D02*
X464283Y433673D01*
X464069Y433887D01*
X463426Y434102D01*
X462784D01*
X462141Y433887D01*
X461713Y433459D01*
X461498Y432816D01*
Y432388D01*
X461713Y431745D01*
X462141Y431317D01*
X462784Y431102D01*
X463426D01*
X464069Y431317D01*
X464283Y431531D01*
X464498Y431959D01*
X465505Y431102D02*
X467004Y433459D01*
X466576D02*
X468504D01*
X466576D02*
X465933Y433673D01*
X465719Y433887D01*
X465505Y434316D01*
Y434744D01*
X465719Y435173D01*
X465933Y435387D01*
X466576Y435601D01*
X468504D01*
Y431102D01*
X464069Y435601D02*
X461927D01*
X460000Y437500D02*
X456000D01*
Y443500D01*
X459500D01*
X460491Y432602D02*
X457278D01*
X458349Y431102D02*
Y435601D01*
X460491Y432602D01*
X477632Y441119D02*
X479774Y438976D01*
X479560Y442404D02*
Y442619D01*
X479346Y443047D01*
X479132Y443261D01*
X478703Y443475D01*
X477846D01*
X477418Y443261D01*
X477204Y443047D01*
X476989Y442619D01*
Y442190D01*
X477204Y441761D01*
X477632Y441119D01*
X481038Y442404D02*
X481253Y442833D01*
X481681Y443261D01*
X482110Y443475D01*
X482967D01*
X483395Y443261D01*
X483823Y442833D01*
X484038Y442404D01*
X484252Y441761D01*
Y440690D01*
X484038Y440048D01*
X483823Y439619D01*
X478000Y445301D02*
Y454301D01*
X473000D01*
X471727Y456693D02*
Y461192D01*
X473869Y458193D01*
X470655D01*
X469863D02*
X466649D01*
X467500Y456699D02*
Y465699D01*
X462500D01*
X467102Y467500D02*
Y472500D01*
Y467500D02*
X458102D01*
Y472500D01*
X456301D02*
Y467500D01*
X447301D01*
Y472500D01*
X447500Y465699D02*
X452500D01*
X447500D02*
Y456699D01*
X452500D01*
X458000Y454301D02*
X463000D01*
X462500Y456699D02*
X467500D01*
X467720Y456693D02*
Y461192D01*
X469863Y458193D01*
X473000Y445301D02*
X478000D01*
X477918Y457336D02*
X477490Y456907D01*
X477061Y456693D01*
X476204D01*
X475776Y456907D01*
X475347Y457336D01*
X475133Y457764D01*
X478132D02*
X477918Y457336D01*
X478132Y457764D02*
X478346Y458407D01*
Y459478D01*
X478132Y460121D01*
X477918Y460549D01*
X477490Y460978D01*
X477061Y461192D01*
X476204D01*
X475776Y460978D01*
X475347Y460549D01*
X475133Y460121D01*
X467102Y482500D02*
Y487500D01*
X458102D01*
Y482500D01*
X456301D02*
Y487500D01*
X447301D01*
Y482500D01*
X447534Y488189D02*
X446676D01*
X446248Y488403D01*
X445820Y488832D01*
X445605Y489260D01*
X448605D02*
X448390Y488832D01*
X447962Y488403D01*
X447534Y488189D01*
X448605Y489260D02*
X448819Y489903D01*
Y490974D01*
X448605Y491617D01*
X448390Y492045D01*
X447962Y492474D01*
X447534Y492688D01*
X446676D01*
X446248Y492474D01*
X445820Y492045D01*
X445605Y491617D01*
X444341Y489689D02*
X441128D01*
X438835Y490974D02*
X438193D01*
X437764Y490760D01*
X437550Y490546D01*
X437336Y489903D01*
Y489474D01*
X437550Y488832D01*
X437978Y488403D01*
X438621Y488189D01*
X439264D01*
X439907Y488403D01*
X440121Y488618D01*
X440335Y489046D01*
X442199Y488189D02*
Y492688D01*
X444341Y489689D01*
X459958Y489046D02*
X460387Y488403D01*
X461029Y488189D01*
X461458D01*
X462101Y488403D01*
X462315Y488832D01*
X463536Y488189D02*
X465036Y490546D01*
X464607D02*
X466535D01*
X464607D02*
X463965Y490760D01*
X463750Y490974D01*
X463536Y491403D01*
Y491831D01*
X463750Y492260D01*
X463965Y492474D01*
X464607Y492688D01*
X466535D01*
Y488189D01*
X459958Y489046D02*
X459744Y490117D01*
Y491188D01*
X459958Y490546D01*
X460387Y490117D01*
X461029Y489903D01*
X461244D01*
X461886Y490117D01*
X462315Y490546D01*
X462529Y491188D01*
Y491403D01*
X462315Y492045D01*
X461886Y492474D01*
X461244Y492688D01*
X461029D01*
X460387Y492474D01*
X459958Y492045D01*
X459744Y491188D01*
X438835Y490974D02*
X437550Y492688D01*
X439907D01*
X428000Y473000D02*
X423000D01*
Y464000D01*
X428000D01*
X424500Y462199D02*
X430500D01*
Y458699D01*
X432073Y458876D02*
X432716Y458661D01*
X433358D01*
X434001Y458876D01*
X434215Y459090D01*
X434430Y459518D01*
X431644Y459304D02*
X432073Y458876D01*
X435436Y458661D02*
X438436D01*
X436293Y460804D01*
X435865Y461447D01*
X435651Y461875D01*
Y462303D01*
X435865Y462732D01*
X436079Y462946D01*
X436508Y463161D01*
X437365D01*
X437793Y462946D01*
X438007Y462732D01*
X438222Y462303D01*
Y462089D01*
X439700D02*
X439914Y462518D01*
X440343Y462946D01*
X440771Y463161D01*
X441628D01*
X442056Y462946D01*
X442485Y462518D01*
X442699Y462089D01*
X442913Y461447D01*
Y460375D01*
X442699Y459733D01*
X442485Y459304D01*
X442056Y458876D01*
X441628Y458661D01*
X440771D01*
X440343Y458876D01*
X439914Y459304D01*
X439700Y459733D01*
X438000Y464000D02*
X443000D01*
Y473000D01*
X438000D01*
X434001Y463161D02*
X431644D01*
X432930Y461447D01*
X432287D01*
X431859Y461232D01*
X431644Y461018D01*
X431430Y460375D01*
Y459947D01*
X431644Y459304D01*
X430500Y454199D02*
Y450199D01*
X424500D01*
Y453699D01*
X423228Y456693D02*
Y461192D01*
X421300D01*
X420657Y460978D01*
X420443Y460764D01*
X420229Y460335D01*
Y459906D01*
X420443Y459478D01*
X420657Y459264D01*
X421300Y459050D01*
X423228D01*
X421729D02*
X420229Y456693D01*
X418794Y456907D02*
X419008Y457121D01*
X419222Y457550D01*
X418794Y456907D02*
X418151Y456693D01*
X417508D01*
X416865Y456907D01*
X416437Y457336D01*
X416223Y457978D01*
Y458407D01*
X416437Y459050D01*
X416865Y459478D01*
X417508Y459692D01*
X418151D01*
X418794Y459478D01*
X419008Y459264D01*
X418794Y461192D01*
X416651D01*
X414787D02*
X412431D01*
X413716Y459478D01*
X413073D01*
X412645Y459264D01*
X412431Y459050D01*
X412216Y458407D01*
Y457978D01*
X412431Y457336D01*
X412859Y456907D01*
X413502Y456693D01*
X414145D01*
X414787Y456907D01*
X415002Y457121D01*
X415216Y457550D01*
X424500Y458699D02*
Y462199D01*
X421199Y464000D02*
Y473000D01*
X416199D01*
Y464000D02*
X421199D01*
X410560Y462946D02*
X410989Y462518D01*
X411203Y462089D01*
X411417Y461447D01*
Y460375D01*
X411203Y459733D01*
X410989Y459304D01*
X410560Y458876D01*
X410132Y458661D01*
X409275D01*
X408846Y458876D01*
X408418Y459304D01*
X408204Y459733D01*
X406940Y460161D02*
X403726D01*
X402719Y462089D02*
Y462303D01*
X402505Y462732D01*
X402291Y462946D01*
X401862Y463161D01*
X401005D01*
X400577Y462946D01*
X400363Y462732D01*
X400148Y462303D01*
Y461875D01*
X400363Y461447D01*
X400791Y460804D01*
X402933Y458661D01*
X399934D01*
X404797D02*
Y463161D01*
X406940Y460161D01*
X408204Y462089D02*
X408418Y462518D01*
X408846Y462946D01*
X409275Y463161D01*
X410132D01*
X410560Y462946D01*
X406199Y464000D02*
X401199D01*
Y473000D01*
X406199D01*
X392900Y475000D02*
Y466000D01*
X387900D01*
X385827Y445444D02*
Y440945D01*
Y443301D02*
X383899D01*
X383256Y443516D01*
X383042Y443730D01*
X382827Y444159D01*
Y444587D01*
X383042Y445015D01*
X383256Y445230D01*
X383899Y445444D01*
X385827D01*
X384327Y443301D02*
X382827Y440945D01*
X388500Y440000D02*
X393500D01*
Y431000D01*
X388500D01*
X402588Y439619D02*
X403017Y439191D01*
X403659Y438976D01*
X404302D01*
X404945Y439191D01*
X405159Y439405D01*
X405373Y439833D01*
X406380Y440262D02*
X406594Y439619D01*
X407023Y439191D01*
X407666Y438976D01*
X408308D01*
X408951Y439191D01*
X409165Y439405D01*
X409380Y439833D01*
X410387Y438976D02*
X411886Y441333D01*
X411458D02*
X413386D01*
Y443475D02*
Y438976D01*
X414500Y437500D02*
X418000D01*
X414500D02*
Y443500D01*
X418000D01*
X422500D02*
X426500D01*
Y437500D01*
X423000D01*
X428301D02*
X431801D01*
X431647Y435601D02*
X432290Y435387D01*
X432718Y434744D01*
X432932Y433673D01*
Y432602D01*
X432718Y431745D01*
X432290Y431317D01*
X431647Y431102D01*
X431433D01*
X430790Y431317D01*
X430361Y431745D01*
X430147Y432388D01*
Y432602D01*
X430361Y433245D01*
X430790Y433673D01*
X431433Y433887D01*
X431647D01*
X432290Y433673D01*
X432718Y433245D01*
X432932Y432602D01*
X433939Y432816D02*
Y432388D01*
X434154Y431745D01*
X434582Y431317D01*
X435225Y431102D01*
X435867D01*
X436510Y431317D01*
X436724Y431531D01*
X436939Y431959D01*
X437946Y431102D02*
X439445Y433459D01*
X439017D02*
X440945D01*
X439017D02*
X438374Y433673D01*
X438160Y433887D01*
X437946Y434316D01*
Y434744D01*
X438160Y435173D01*
X438374Y435387D01*
X439017Y435601D01*
X440945D01*
Y431102D01*
X436724Y433673D02*
X436510Y433887D01*
X435867Y434102D01*
X435225D01*
X434582Y433887D01*
X434154Y433459D01*
X433939Y432816D01*
X434368Y435601D02*
X436510D01*
X436724Y433673D01*
X436801Y437500D02*
X440301D01*
Y443500D01*
X436301D01*
X431801D02*
X428301D01*
Y437500D01*
X413386Y443475D02*
X411458D01*
X410815Y443261D01*
X410601Y443047D01*
X410387Y442619D01*
Y442190D01*
X410601Y441761D01*
X410815Y441547D01*
X411458Y441333D01*
X409165Y441547D02*
X408951Y441761D01*
X408308Y441976D01*
X407666D01*
X407023Y441761D01*
X406594Y441333D01*
X406380Y440690D01*
Y440262D01*
X405159Y441547D02*
X404945Y441761D01*
X404302Y441976D01*
X403659D01*
X403017Y441761D01*
X402588Y441333D01*
X402374Y440690D01*
Y440262D01*
X402588Y439619D01*
X402802Y443475D02*
X404945D01*
X405159Y441547D01*
X406809Y443475D02*
X408951D01*
X409165Y441547D01*
X434256Y400168D02*
X436398Y397169D01*
X433184D01*
X434256Y395669D02*
Y400168D01*
X438048Y399954D02*
X437833Y399740D01*
X437619Y399311D01*
Y398883D01*
X437833Y398454D01*
X438262Y397812D01*
X440404Y395669D01*
X437405D01*
X438000Y395000D02*
X447000D01*
Y390000D01*
X448500Y388500D02*
X454500D01*
Y385000D01*
X454082Y390306D02*
X454510Y390734D01*
X454724Y391377D01*
Y392020D01*
X454510Y392662D01*
X454296Y392877D01*
X453867Y393091D01*
X454724Y394098D02*
Y397097D01*
X452582Y394955D01*
X451939Y394526D01*
X451511Y394312D01*
X451082D01*
X450654Y394526D01*
X450440Y394741D01*
X450225Y395169D01*
Y396026D01*
X450440Y396455D01*
X450654Y396669D01*
X451082Y396883D01*
X451297D01*
X452153Y392877D02*
X451939Y392662D01*
X451725Y392020D01*
Y391377D01*
X451939Y390734D01*
X452368Y390306D01*
X453011Y390092D01*
X453439D01*
X454082Y390306D01*
X450225Y390520D02*
Y392662D01*
X452153Y392877D01*
X448500Y388500D02*
Y385000D01*
X444453Y396312D02*
X444025Y395883D01*
X443597Y395669D01*
X442739D01*
X442311Y395883D01*
X441883Y396312D01*
X441668Y396741D01*
X438000Y395000D02*
Y390000D01*
X429500Y384000D02*
X424500D01*
X424215Y385000D02*
X423358D01*
X422929Y385214D01*
X422501Y385643D01*
X422286Y386071D01*
X421022Y385857D02*
X420808Y385429D01*
X420594Y385214D01*
X419951Y385000D01*
X419309D01*
X418666Y385214D01*
X418237Y385643D01*
X418023Y386285D01*
Y386714D01*
X418237Y387357D01*
X418451Y387571D01*
X418880Y387785D01*
X419523D01*
X418237Y389499D01*
X420594D01*
X422501Y388856D02*
X422929Y389285D01*
X423358Y389499D01*
X424215D01*
X424643Y389285D01*
X425071Y388856D01*
X425286Y388428D01*
X425500Y387785D01*
Y386714D01*
X425286Y386071D01*
X425071Y385643D01*
X424643Y385214D01*
X424215Y385000D01*
X422286Y388428D02*
X422501Y388856D01*
X417016Y389499D02*
X414017D01*
X416159Y385000D01*
X414500Y384000D02*
X409500D01*
Y375000D01*
X414500D01*
X424500D02*
X429500D01*
Y384000D01*
X429517Y372000D02*
X435517D01*
Y368500D01*
X429517D02*
Y372000D01*
X438000Y375000D02*
X447000D01*
Y380000D01*
X448500D02*
Y376500D01*
X454500D01*
Y380500D01*
X444453Y396312D02*
X444668Y396741D01*
X444882Y397383D01*
Y398454D01*
X444668Y399097D01*
X444453Y399526D01*
X444025Y399954D01*
X443597Y400168D01*
X442739D01*
X442311Y399954D01*
X441883Y399526D01*
X441668Y399097D01*
X440190D02*
Y399311D01*
X439976Y399740D01*
X439762Y399954D01*
X439333Y400168D01*
X438476D01*
X438048Y399954D01*
X450225Y400289D02*
X450440Y400718D01*
X450868Y401146D01*
X451297Y401361D01*
X451939Y401575D01*
X453011D01*
X453653Y401361D01*
X454082Y401146D01*
X454510Y400718D01*
X454724Y400289D01*
Y399432D01*
X454510Y399004D01*
X454082Y398575D01*
X453653Y398361D01*
X451297D02*
X450868Y398575D01*
X450440Y399004D01*
X450225Y399432D01*
Y400289D01*
X438000Y380000D02*
Y375000D01*
X398107Y374016D02*
Y378515D01*
X399606D02*
X396607D01*
X393929D02*
X396071Y375515D01*
X392858D01*
X393929Y374016D02*
Y378515D01*
X373660Y373785D02*
X374088Y373356D01*
X374303Y372928D01*
X374517Y372285D01*
Y371214D01*
X374303Y370571D01*
X374088Y370143D01*
X373660Y369714D01*
X373231Y369500D01*
X372374D01*
X371946Y369714D01*
X371517Y370143D01*
X371303Y370571D01*
X370039Y369500D02*
X367040D01*
X365819Y370143D02*
X365390Y369714D01*
X364747Y369500D01*
X364533D01*
X363891Y369714D01*
X363462Y370143D01*
X363248Y370785D01*
Y371000D01*
X363462Y371642D01*
X363891Y372071D01*
X364533Y372285D01*
X364747D01*
X365390Y372071D01*
X365819Y371642D01*
X366033Y371000D01*
X365819Y370143D01*
X366033Y371000D02*
Y372071D01*
X365819Y373142D01*
X365390Y373785D01*
X364747Y373999D01*
X364319D01*
X363676Y373785D01*
X363462Y373356D01*
X366017Y368500D02*
X372017D01*
Y365000D01*
Y360000D02*
Y356500D01*
X366017D01*
Y360000D01*
X364500Y362000D02*
Y356000D01*
X361000D01*
X356500D02*
X352500D01*
Y362000D01*
X356000D01*
X361000D02*
X364500D01*
X366017Y364500D02*
Y368500D01*
X367897Y371642D02*
X370039Y369500D01*
X369825Y372928D02*
Y373142D01*
X369611Y373571D01*
X369396Y373785D01*
X368968Y373999D01*
X368111D01*
X367683Y373785D01*
X367468Y373571D01*
X367254Y373142D01*
Y372714D01*
X367468Y372285D01*
X367897Y371642D01*
X371303Y372928D02*
X371517Y373356D01*
X371946Y373785D01*
X372374Y373999D01*
X373231D01*
X373660Y373785D01*
X367079Y342225D02*
Y341796D01*
X367294Y341368D01*
X367508Y341154D01*
X368151Y340939D01*
X370079D01*
X368579D02*
X367079Y338583D01*
X365644Y338797D02*
X365858Y339011D01*
X366073Y339440D01*
X365644Y338797D02*
X365001Y338583D01*
X364358D01*
X363716Y338797D01*
X363287Y339225D01*
X363073Y339868D01*
Y340297D01*
X363287Y340939D01*
X363716Y341368D01*
X364358Y341582D01*
X365001D01*
X365644Y341368D01*
X365858Y341154D01*
X365644Y343082D01*
X363502D01*
X361852Y342439D02*
X361423Y342867D01*
X360781Y343082D01*
X360566D01*
X359924Y342867D01*
X359495Y342439D01*
X359281Y341582D01*
X359495Y340939D01*
X359924Y340511D01*
X360566Y340297D01*
X360781D01*
X361423Y340511D01*
X361852Y340939D01*
X362066Y341582D01*
Y341796D01*
X361852Y342439D01*
Y339225D02*
X361638Y338797D01*
X360995Y338583D01*
X360566D01*
X359924Y338797D01*
X359495Y339440D01*
X359281Y340511D01*
Y341582D01*
X362500Y338374D02*
X368500D01*
Y334874D01*
X370000Y332374D02*
Y338374D01*
X373500D01*
X370079Y338583D02*
Y343082D01*
X368151D01*
X367508Y342867D01*
X367294Y342653D01*
X367079Y342225D01*
X362500Y338374D02*
Y334374D01*
Y329874D02*
Y326374D01*
X368500D01*
Y329874D01*
X370000Y332374D02*
X374000D01*
X378500D02*
X382000D01*
Y338374D01*
X378500D01*
X378890Y340551D02*
X380390Y342908D01*
X379962D02*
X381890D01*
X379962D02*
X379319Y343122D01*
X379105Y343336D01*
X378890Y343765D01*
Y344193D01*
X379105Y344622D01*
X379319Y344836D01*
X379962Y345050D01*
X381890D01*
Y340551D01*
X377455Y340765D02*
X377669Y340980D01*
X377884Y341408D01*
X377455Y340765D02*
X376812Y340551D01*
X376170D01*
X375527Y340765D01*
X375098Y341194D01*
X374884Y341837D01*
Y342265D01*
X375098Y342908D01*
X375527Y343336D01*
X376170Y343550D01*
X376812D01*
X377455Y343336D01*
X377669Y343122D01*
X377455Y345050D01*
X375313D01*
X368500Y322374D02*
Y318874D01*
Y313874D02*
Y310374D01*
X362500D01*
Y313874D01*
Y318374D02*
Y322374D01*
X368500D01*
X368869Y309617D02*
X369512Y309403D01*
X369726Y308974D01*
Y308546D01*
X369512Y308118D01*
X369083Y307903D01*
X368226Y307689D01*
X367584Y307475D01*
X367155Y307046D01*
X366941Y306618D01*
Y305975D01*
X367155Y305547D01*
X367369Y305332D01*
X368012Y305118D01*
X368869D01*
X369512Y305332D01*
X369726Y305547D01*
X369940Y305975D01*
Y306618D01*
X369726Y307046D01*
X369298Y307475D01*
X368655Y307689D01*
X367798Y307903D01*
X367369Y308118D01*
X367155Y308546D01*
Y308974D01*
X367369Y309403D01*
X368012Y309617D01*
X368869D01*
X371376D02*
X373518D01*
X373732Y307689D01*
X373518Y307903D01*
X372875Y308118D01*
X372233D01*
X371590Y307903D01*
X371161Y307475D01*
X370947Y306832D01*
Y306403D01*
X371161Y305761D01*
X371590Y305332D01*
X372233Y305118D01*
X372875D01*
X373518Y305332D01*
X373732Y305547D01*
X373946Y305975D01*
X374953Y305118D02*
X376453Y307475D01*
X376025D02*
X377953D01*
X376025D02*
X375382Y307689D01*
X375168Y307903D01*
X374953Y308332D01*
Y308760D01*
X375168Y309189D01*
X375382Y309403D01*
X376025Y309617D01*
X377953D01*
Y305118D01*
X377779Y285995D02*
X378636D01*
X379064Y285781D01*
X379493Y285352D01*
X379707Y284924D01*
X379921Y284281D01*
Y283210D01*
X379707Y282567D01*
X379493Y282139D01*
X379064Y281710D01*
X378636Y281496D01*
X377779D01*
X377350Y281710D01*
X376922Y282139D01*
X376708Y282567D01*
Y284924D02*
X376922Y285352D01*
X377350Y285781D01*
X377779Y285995D01*
X375444Y285138D02*
X375015Y285352D01*
X374372Y285995D01*
Y281496D01*
X371716Y281710D02*
X371930Y282139D01*
X371716Y281710D02*
X371073Y281496D01*
X370645D01*
X370002Y281710D01*
X369573Y282353D01*
X369359Y283424D01*
Y284495D01*
X369573Y283853D01*
X370002Y283424D01*
X370645Y283210D01*
X370859D01*
X371502Y283424D01*
X371930Y283853D01*
X372144Y284495D01*
Y284710D01*
X371930Y285352D01*
X371502Y285781D01*
X370859Y285995D01*
X370645D01*
X370002Y285781D01*
X369573Y285352D01*
X369359Y284495D01*
X371000Y280000D02*
X365000D01*
Y276000D01*
X354331Y283465D02*
Y287964D01*
X352831D01*
X352188Y287749D01*
X351760Y287321D01*
X351546Y286892D01*
X351331Y286250D01*
Y285178D01*
X351546Y284536D01*
X351760Y284107D01*
X352188Y283679D01*
X352831Y283465D01*
X354331D01*
X357382Y272216D02*
X358667Y270502D01*
X358025D01*
X357596Y270287D01*
X357382Y270073D01*
X357168Y269430D01*
Y269002D01*
X357382Y268359D01*
X357810Y267931D01*
X358453Y267717D01*
X359096D01*
X359738Y267931D01*
X359953Y268145D01*
X360167Y268573D01*
X361174Y267717D02*
X362673Y270073D01*
X362245D02*
X364173D01*
X362245D02*
X361602Y270287D01*
X361388Y270502D01*
X361174Y270930D01*
Y271359D01*
X361388Y271787D01*
X361602Y272001D01*
X362245Y272216D01*
X364173D01*
Y267717D01*
X365000Y268000D02*
Y271500D01*
Y268000D02*
X371000D01*
X382827Y259842D02*
X384327Y262199D01*
X383899D02*
X385827D01*
X383899D02*
X383256Y262413D01*
X383042Y262628D01*
X382827Y263056D01*
Y263485D01*
X383042Y263913D01*
X383256Y264127D01*
X383899Y264342D01*
X385827D01*
Y259842D01*
X390416Y258499D02*
Y254000D01*
X393351D02*
Y258499D01*
X395494Y255500D01*
X392280D01*
X391487Y257642D02*
X391059Y257856D01*
X390416Y258499D01*
X396929Y258285D02*
X396715Y258071D01*
X396501Y257642D01*
Y257214D01*
X396715Y256785D01*
X396929Y256571D01*
X397572Y256357D01*
X399500D01*
X398000D02*
X396501Y254000D01*
X396929Y258285D02*
X397572Y258499D01*
X399500D01*
Y254000D01*
Y253000D02*
X403500D01*
X399500D02*
Y259000D01*
X403000D01*
X408000D02*
X411500D01*
Y253000D01*
X408000D01*
X403725Y284500D02*
Y288999D01*
X405224D02*
X402225D01*
X401689Y288142D02*
X401261Y288356D01*
X400618Y288999D01*
Y284500D01*
X385827Y311024D02*
Y315523D01*
X384327D01*
X383684Y315308D01*
X383256Y314880D01*
X383042Y314452D01*
X382827Y313809D01*
Y312737D01*
X383042Y312095D01*
X383256Y311666D01*
X383684Y311238D01*
X384327Y311024D01*
X385827D01*
X381821D02*
X378821D01*
X377600Y311666D02*
X377171Y311238D01*
X376529Y311024D01*
X376314D01*
X375672Y311238D01*
X375243Y311666D01*
X375029Y312309D01*
Y312523D01*
X375243Y313166D01*
X375672Y313595D01*
X376314Y313809D01*
X376529D01*
X377171Y313595D01*
X377600Y313166D01*
X377814Y312523D01*
X377600Y311666D01*
X377814Y312523D02*
Y313595D01*
X377600Y314666D01*
X377171Y315308D01*
X376529Y315523D01*
X376100D01*
X375458Y315308D01*
X375243Y314880D01*
X378821Y315523D02*
X381821Y311024D01*
Y315523D02*
X378821D01*
X377500Y280000D02*
Y276500D01*
Y280000D02*
X371500D01*
Y276000D01*
X371000Y276500D02*
Y280000D01*
X359738Y272216D02*
X357382D01*
X365351Y264999D02*
Y260500D01*
X349896Y283679D02*
X350110Y283893D01*
X350324Y284321D01*
X349896Y283679D02*
X349253Y283465D01*
X348610D01*
X347968Y283679D01*
X347539Y284107D01*
X347325Y284750D01*
Y285178D01*
X347539Y285821D01*
X347754Y286035D01*
X348182Y286250D01*
X348825D01*
X347539Y287964D01*
X349896D01*
X334646Y291901D02*
Y287402D01*
Y289758D02*
X332717D01*
X332075Y289972D01*
X331861Y290187D01*
X331646Y290615D01*
Y291044D01*
X331861Y291472D01*
X332075Y291686D01*
X332717Y291901D01*
X334646D01*
X330639Y291044D02*
X330211Y291258D01*
X329568Y291901D01*
Y287402D01*
X331646D02*
X333146Y289758D01*
X327126D02*
X327340Y290401D01*
Y290615D01*
X327126Y291258D01*
X326697Y291686D01*
X326055Y291901D01*
X325840D01*
X325198Y291686D01*
X324769Y291258D01*
X324555Y290401D01*
X324769Y289758D01*
X325198Y289330D01*
X325840Y289116D01*
X326055D01*
X326697Y289330D01*
X327126Y289758D01*
Y288044D02*
X326912Y287616D01*
X326269Y287402D01*
X325840D01*
X325198Y287616D01*
X324769Y288259D01*
X324555Y289330D01*
Y290401D01*
X324500Y287500D02*
X318500D01*
Y283500D01*
Y279000D02*
Y275500D01*
X324500D01*
Y279000D01*
Y284000D02*
Y287500D01*
X313000Y296000D02*
Y290000D01*
X309500D01*
X309929Y289285D02*
X309715Y289071D01*
X309501Y288642D01*
Y288214D01*
X309715Y287785D01*
X309929Y287571D01*
X310572Y287357D01*
X312500D01*
X311000D02*
X309501Y285000D01*
X308494D02*
X305494D01*
X304059Y285214D02*
X304273Y285429D01*
X304487Y285857D01*
X304059Y285214D02*
X303416Y285000D01*
X302773D01*
X302131Y285214D01*
X301702Y285643D01*
X301488Y286285D01*
Y286714D01*
X301702Y287357D01*
X301917Y287571D01*
X302345Y287785D01*
X302988D01*
X301702Y289499D01*
X304059D01*
X305000Y290000D02*
X301000D01*
Y296000D01*
X304500D01*
X298000D02*
X294000D01*
X298000D02*
Y290000D01*
X294500D01*
X295000Y289499D02*
Y285000D01*
Y287357D02*
X293072D01*
X292429Y287571D01*
X292215Y287785D01*
X292001Y288214D01*
Y288642D01*
X292215Y289071D01*
X292429Y289285D01*
X293072Y289499D01*
X295000D01*
X293500Y287357D02*
X292001Y285000D01*
X290994Y288642D02*
X290565Y288856D01*
X289922Y289499D01*
Y285000D01*
X287480Y285643D02*
X287052Y285214D01*
X286409Y285000D01*
X286195D01*
X285552Y285214D01*
X285123Y285643D01*
X284909Y286285D01*
Y286500D01*
X285123Y287142D01*
X285552Y287571D01*
X286195Y287785D01*
X286409D01*
X287052Y287571D01*
X287480Y287142D01*
X287694Y286500D01*
X287480Y285643D01*
X287694Y286500D02*
Y287571D01*
X287480Y288642D01*
X287052Y289285D01*
X286409Y289499D01*
X285981D01*
X285338Y289285D01*
X285123Y288856D01*
X286000Y290000D02*
Y296000D01*
X289500D01*
X279500Y295500D02*
Y301500D01*
X275500D01*
X275929Y302214D02*
X275501Y302643D01*
X275286Y303071D01*
X274022Y302857D02*
X273808Y302429D01*
X273594Y302214D01*
X272951Y302000D01*
X272308D01*
X271666Y302214D01*
X271237Y302643D01*
X271023Y303285D01*
Y303714D01*
X271237Y304357D01*
X271451Y304571D01*
X271880Y304785D01*
X272523D01*
X271237Y306499D01*
X273594D01*
X268945D02*
Y302000D01*
X267500Y301500D02*
X271000D01*
X267500D02*
Y295500D01*
X271000D01*
X272500Y293500D02*
X268500D01*
X272500D02*
Y287500D01*
X269000D01*
X268572Y287499D02*
X267929Y287285D01*
X267715Y287071D01*
X267501Y286642D01*
Y286214D01*
X267715Y285785D01*
X267929Y285571D01*
X268572Y285357D01*
X270500D01*
X269000D02*
X267501Y283000D01*
X266065Y283214D02*
X266280Y283429D01*
X266494Y283857D01*
X266065Y283214D02*
X265423Y283000D01*
X264780D01*
X264137Y283214D01*
X263709Y283643D01*
X263494Y284285D01*
Y284714D01*
X263709Y285357D01*
X263923Y285571D01*
X264351Y285785D01*
X264994D01*
X263709Y287499D01*
X266065D01*
X264000Y287500D02*
X260500D01*
Y293500D01*
X264000D01*
X269588Y305856D02*
X268945Y306499D01*
X262500Y311500D02*
Y315999D01*
X261000D01*
X260358Y315785D01*
X259929Y315356D01*
X259715Y314928D01*
X259501Y314285D01*
Y313214D01*
X259715Y312571D01*
X259929Y312143D01*
X260358Y311714D01*
X261000Y311500D01*
X262500D01*
X269588Y305856D02*
X270016Y305642D01*
X275286Y305428D02*
X275501Y305856D01*
X275929Y306285D01*
X276358Y306499D01*
X277215D01*
X277643Y306285D01*
X278071Y305856D01*
X278286Y305428D01*
X278500Y304785D01*
Y303714D01*
X278286Y303071D01*
X278071Y302643D01*
X277643Y302214D01*
X277215Y302000D01*
X276358D01*
X275929Y302214D01*
X276000Y295500D02*
X279500D01*
X286000Y290000D02*
X289500D01*
X291237Y269999D02*
X292523Y268285D01*
X291880D01*
X291452Y268071D01*
X291237Y267857D01*
X291023Y267214D01*
Y266785D01*
X291237Y266143D01*
X291666Y265714D01*
X292308Y265500D01*
X292951D01*
X293594Y265714D01*
X293808Y265929D01*
X294022Y266357D01*
X295286Y266571D02*
X295501Y266143D01*
X295929Y265714D01*
X296358Y265500D01*
X297215D01*
X297643Y265714D01*
X298072Y266143D01*
X298286Y266571D01*
X298500Y267214D01*
Y268285D01*
X298286Y268928D01*
X298072Y269356D01*
X297643Y269785D01*
X297215Y269999D01*
X296358D01*
X295929Y269785D01*
X295501Y269356D01*
X295286Y268928D01*
X293594Y269999D02*
X291237D01*
X306351Y287142D02*
X308494Y285000D01*
X308279Y288428D02*
Y288642D01*
X308065Y289071D01*
X307851Y289285D01*
X307422Y289499D01*
X306566D01*
X306137Y289285D01*
X305923Y289071D01*
X305709Y288642D01*
Y288214D01*
X305923Y287785D01*
X306351Y287142D01*
X309929Y289285D02*
X310572Y289499D01*
X312500D01*
Y285000D01*
X313000Y296000D02*
X309500D01*
X330677Y318898D02*
Y323397D01*
X331320Y322754D01*
X331748Y322540D01*
X334619Y322754D02*
X333977Y323397D01*
Y318898D01*
X337083D02*
Y323397D01*
X338583D02*
X335583D01*
X335048Y322540D02*
X334619Y322754D01*
X324708Y337551D02*
X320209D01*
Y339051D01*
X320423Y339694D01*
X320851Y340122D01*
X321280Y340336D01*
X321923Y340550D01*
X322994D01*
X323637Y340336D01*
X324065Y340122D01*
X324494Y339694D01*
X324708Y339051D01*
Y337551D01*
Y343700D02*
X321708Y341558D01*
Y344771D01*
X324708Y343700D02*
X320209D01*
X298072Y360143D02*
X297643Y359714D01*
X297215Y359500D01*
X296358D01*
X295929Y359714D01*
X295501Y360143D01*
X295286Y360571D01*
X294022Y360357D02*
X293808Y359928D01*
X293594Y359714D01*
X292951Y359500D01*
X292308D01*
X291666Y359714D01*
X291237Y360143D01*
X291023Y360785D01*
Y361214D01*
X291237Y361857D01*
X291452Y362071D01*
X291880Y362285D01*
X292523D01*
X291237Y363999D01*
X293594D01*
X295501Y363356D02*
X295929Y363785D01*
X296358Y363999D01*
X297215D01*
X297643Y363785D01*
X298072Y363356D01*
X298286Y362928D01*
X298500Y362285D01*
Y361214D01*
X298286Y360571D01*
X298072Y360143D01*
X295286Y362928D02*
X295501Y363356D01*
X289802Y363142D02*
X290016Y362071D01*
Y361000D01*
X289802Y360143D01*
X289373Y359714D01*
X288731Y359500D01*
X288516D01*
X287874Y359714D01*
X287445Y360143D01*
X287231Y360785D01*
Y361000D01*
X287445Y361642D01*
X287874Y362071D01*
X288516Y362285D01*
X288731D01*
X289373Y362071D01*
X289802Y361642D01*
X290016Y361000D01*
X289802Y363142D02*
X289373Y363785D01*
X288731Y363999D01*
X288302D01*
X287660Y363785D01*
X287445Y363356D01*
X286500Y360500D02*
X277500D01*
Y355500D01*
X286500D02*
Y360500D01*
Y345500D02*
Y340500D01*
X277500D01*
Y345500D01*
X276702Y336962D02*
X277131Y336533D01*
X277345Y336105D01*
X277559Y335462D01*
Y334391D01*
X277345Y333748D01*
X277131Y333320D01*
X276702Y332891D01*
X276274Y332677D01*
X275417D01*
X274988Y332891D01*
X274560Y333320D01*
X274345Y333748D01*
X273081Y333534D02*
X272867Y333106D01*
X272653Y332891D01*
X272010Y332677D01*
X271368D01*
X270725Y332891D01*
X270296Y333320D01*
X270082Y333963D01*
Y334391D01*
X270296Y335034D01*
X270511Y335248D01*
X270939Y335462D01*
X271582D01*
X270296Y337176D01*
X272653D01*
X274988Y336962D02*
X275417Y337176D01*
X276274D01*
X276702Y336962D01*
X274988D02*
X274560Y336533D01*
X274345Y336105D01*
X268861Y335248D02*
X268647Y335462D01*
X268004Y335677D01*
X267361D01*
X266719Y335462D01*
X266290Y335034D01*
X266076Y334391D01*
Y333963D01*
X266290Y333320D01*
X266719Y332891D01*
X267361Y332677D01*
X268004D01*
X268647Y332891D01*
X268861Y333106D01*
X269075Y333534D01*
X268861Y335248D02*
X268647Y337176D01*
X266504D01*
X247603Y366785D02*
X247175Y366356D01*
X246746Y366142D01*
X245889D01*
X245461Y366356D01*
X245032Y366785D01*
X244818Y367213D01*
Y369570D02*
X245032Y369998D01*
X245461Y370427D01*
X245889Y370641D01*
X246746D01*
X247175Y370427D01*
X247603Y369998D01*
X247817Y369570D01*
X248031Y368927D01*
Y367856D01*
X247817Y367213D01*
X247603Y366785D01*
X243340Y369570D02*
Y369784D01*
X243125Y370212D01*
X242911Y370427D01*
X242483Y370641D01*
X241626D01*
X241197Y370427D01*
X240983Y370212D01*
X240769Y369784D01*
Y369355D01*
X240983Y368927D01*
X241411Y368284D01*
X243554Y366142D01*
X240554D01*
X230315Y337176D02*
X227316D01*
X226351D02*
X226566Y335248D01*
X226351Y335462D01*
X225709Y335677D01*
X225066D01*
X224423Y335462D01*
X223995Y335034D01*
X223781Y334391D01*
Y333963D01*
X223995Y333320D01*
X224423Y332891D01*
X225066Y332677D01*
X225709D01*
X226351Y332891D01*
X226566Y333106D01*
X226780Y333534D01*
X228815Y332677D02*
Y337176D01*
X226351D02*
X224209D01*
X219629Y336979D02*
X219415Y337622D01*
X219200Y337836D01*
X218772Y338051D01*
X218343D01*
X217915Y337836D01*
X217701Y337622D01*
X217487Y336979D01*
Y335051D01*
Y336551D02*
X215130Y338051D01*
Y340129D02*
X219629D01*
X218986Y339486D01*
X218772Y339057D01*
X219629Y336979D02*
Y335051D01*
X215130D01*
X214567Y313554D02*
X211568D01*
X211032Y312697D02*
X210603Y312911D01*
X209961Y313554D01*
Y309055D01*
X207733D02*
X204733D01*
X205590Y311197D02*
X207733Y309055D01*
X207518Y312483D02*
Y312697D01*
X207304Y313126D01*
X207090Y313340D01*
X206662Y313554D01*
X205804D01*
X205376Y313340D01*
X205162Y313126D01*
X204948Y312697D01*
Y312269D01*
X205162Y311840D01*
X205590Y311197D01*
X203787Y318803D02*
Y322803D01*
Y327303D02*
Y330803D01*
X197787D01*
Y327303D01*
X197882D02*
Y330803D01*
X191882D01*
Y327303D01*
X191976Y326866D02*
X185976D01*
Y323366D01*
X185828Y327080D02*
X185399Y327509D01*
X185185Y328152D01*
Y328366D01*
X185399Y329009D01*
X185828Y329437D01*
X186470Y329651D01*
X186685D01*
X187327Y329437D01*
X187756Y329009D01*
X187970Y328366D01*
X187756Y327509D01*
X187327Y327080D01*
X186685Y326866D01*
X186470D01*
X185828Y327080D01*
X184200Y328366D02*
X180986D01*
X182057Y326866D02*
Y331365D01*
X184200Y328366D01*
X185399Y330722D02*
X185614Y331151D01*
X186256Y331365D01*
X186685D01*
X187327Y331151D01*
X187756Y330508D01*
X187970Y329437D01*
Y328366D01*
X189191Y329651D02*
X189406Y329437D01*
X190048Y329223D01*
X191976D01*
X190477D02*
X188977Y326866D01*
X191976D02*
Y323366D01*
X191882Y322303D02*
Y318803D01*
X197882D01*
Y322803D01*
X197787Y322303D02*
Y318803D01*
X203787D01*
X213067Y313554D02*
Y309055D01*
X210630Y299775D02*
Y295276D01*
Y297632D02*
X208702D01*
X208059Y297847D01*
X207845Y298061D01*
X207631Y298489D01*
Y298918D01*
X207845Y299346D01*
X208059Y299560D01*
X208702Y299775D01*
X210630D01*
X209130Y297632D02*
X207631Y295276D01*
X206195Y295490D02*
X206409Y295704D01*
X206624Y296132D01*
X206195Y295490D02*
X205552Y295276D01*
X204910D01*
X204267Y295490D01*
X203838Y295918D01*
X203624Y296561D01*
Y296989D01*
X203838Y297632D01*
X204053Y297847D01*
X204481Y298061D01*
X205124D01*
X203838Y299775D01*
X206195D01*
X202189D02*
X202403Y297847D01*
X202189Y298061D01*
X201546Y298275D01*
X200903D01*
X200261Y298061D01*
X199832Y297632D01*
X199618Y296989D01*
Y296561D01*
X199832Y295918D01*
X200261Y295490D01*
X200903Y295276D01*
X201546D01*
X202189Y295490D01*
X202403Y295704D01*
X202617Y296132D01*
X199500Y296000D02*
Y292000D01*
X193500D01*
Y295500D01*
X190945Y295664D02*
X189017D01*
X188374Y295878D01*
X188160Y296092D01*
X187945Y296521D01*
Y296949D01*
X188160Y297378D01*
X188374Y297592D01*
X189017Y297806D01*
X190945D01*
Y293307D01*
X187945D02*
X189445Y295664D01*
X188000Y298000D02*
X191500D01*
Y304000D01*
X188000D01*
X189134Y304555D02*
Y313555D01*
X184134D01*
X185976Y314866D02*
Y318366D01*
Y314866D02*
X191976D01*
Y318866D01*
X193500Y304000D02*
X199500D01*
Y300500D01*
X200046Y299775D02*
X202189D01*
X193500Y300500D02*
Y304000D01*
X189134Y304555D02*
X184134D01*
X184153Y297806D02*
X185439Y296092D01*
X184796D01*
X184368Y295878D01*
X184153Y295664D01*
X183939Y295021D01*
Y294592D01*
X184153Y293950D01*
X184582Y293521D01*
X185225Y293307D01*
X185867D01*
X186510Y293521D01*
X186724Y293736D01*
X186939Y294164D01*
X186510Y297806D02*
X184153D01*
X191882Y289465D02*
X197882D01*
Y285965D01*
Y280965D02*
Y277465D01*
X191882D01*
Y280965D01*
Y285465D02*
Y289465D01*
X193500Y276524D02*
Y273525D01*
X195642Y275667D01*
X196285Y276096D01*
X196714Y276310D01*
X197142D01*
X197571Y276096D01*
X197785Y275882D01*
X197999Y275453D01*
Y274596D01*
X197785Y274168D01*
X197571Y273953D01*
X197142Y273739D01*
X196928D01*
X197356Y272325D02*
X197785Y272111D01*
X197999Y271468D01*
Y271040D01*
X197785Y270397D01*
X197142Y269969D01*
X196071Y269754D01*
X195000D01*
X194143Y269969D01*
X193714Y270397D01*
X193500Y271040D01*
Y271254D01*
X193714Y271897D01*
X194143Y272325D01*
X194785Y272539D01*
X195000D01*
X195642Y272325D01*
X196071Y271897D01*
X196285Y271254D01*
Y271040D01*
X196071Y270397D01*
X195642Y269969D01*
X195000Y269754D01*
X196285Y268533D02*
X196071Y268319D01*
X195857Y267676D01*
Y265748D01*
Y267248D02*
X193500Y268747D01*
Y265748D02*
X197999D01*
Y267676D01*
X197785Y268319D01*
X197571Y268533D01*
X197142Y268747D01*
X196714D01*
X196285Y268533D01*
X193500Y264500D02*
Y273500D01*
X188500D01*
Y264500D02*
X193500D01*
X189914Y261730D02*
X189700Y261302D01*
X184215D02*
Y261516D01*
X184001Y261945D01*
X183787Y262159D01*
X183358Y262373D01*
X182501D01*
X182073Y262159D01*
X181859Y261945D01*
X181644Y261516D01*
Y261088D01*
X181859Y260659D01*
X182287Y260016D01*
X178500Y264500D02*
X173500D01*
Y273500D01*
X178500D01*
X177165Y277559D02*
Y282058D01*
X175666D01*
X175023Y281844D01*
X174594Y281415D01*
X174380Y280987D01*
X174166Y280344D01*
Y279273D01*
X174380Y278630D01*
X174594Y278202D01*
X175023Y277773D01*
X175666Y277559D01*
X177165D01*
X173159D02*
X170160D01*
X169153Y279059D02*
X165939D01*
X167010Y277559D02*
Y282058D01*
X169153Y279059D01*
X170160Y282058D02*
X173159Y277559D01*
Y282058D02*
X170160D01*
X170229Y283465D02*
X171729Y285821D01*
X171300D02*
X173228D01*
X171300D02*
X170658Y286035D01*
X170443Y286250D01*
X170229Y286678D01*
Y287107D01*
X170443Y287535D01*
X170658Y287749D01*
X171300Y287964D01*
X173228D01*
Y283465D01*
X168794Y283679D02*
X169008Y283893D01*
X169222Y284321D01*
X168794Y283679D02*
X168151Y283465D01*
X167508D01*
X166865Y283679D01*
X166437Y284107D01*
X166223Y284750D01*
Y285178D01*
X166437Y285821D01*
X166651Y286035D01*
X167080Y286250D01*
X167722D01*
X166437Y287964D01*
X168794D01*
X171000Y291500D02*
Y295000D01*
Y291500D02*
X177000D01*
Y295000D01*
X179933Y295235D02*
Y295878D01*
X180147Y296949D01*
X180576Y297592D01*
X181218Y297806D01*
X181647D01*
X182290Y297592D01*
X182718Y296949D01*
X182932Y295878D01*
Y295235D01*
X182718Y294164D01*
X182290Y293521D01*
X181647Y293307D01*
X181218D01*
X180576Y293521D01*
X180147Y294164D01*
X179933Y295235D01*
X179500Y298000D02*
X183500D01*
X179500D02*
Y304000D01*
X183000D01*
X177000Y303500D02*
X171000D01*
Y299500D01*
X168863Y303792D02*
X168434Y303364D01*
X168006Y303150D01*
X167149D01*
X166720Y303364D01*
X166292Y303792D01*
X166078Y304221D01*
X164814Y303150D02*
X161814D01*
X160379Y303364D02*
X160593Y303578D01*
X160807Y304007D01*
Y304649D01*
X160593Y305078D01*
X160165Y305506D01*
X159522Y305720D01*
X158665Y305935D01*
X158237Y306149D01*
X158022Y306577D01*
Y307006D01*
X158237Y307434D01*
X158879Y307649D01*
X159736D01*
X160379Y307434D01*
X160593Y307006D01*
Y306577D01*
X160379Y306149D01*
X159950Y305935D01*
X159093Y305720D01*
X158451Y305506D01*
X158022Y305078D01*
X157808Y304649D01*
Y304007D01*
X158022Y303578D01*
X158237Y303364D01*
X158879Y303150D01*
X159736D01*
X160379Y303364D01*
X162671Y305292D02*
X164814Y303150D01*
X162671Y305292D02*
X162243Y305935D01*
X162029Y306363D01*
Y306792D01*
X162243Y307220D01*
X162457Y307434D01*
X162886Y307649D01*
X163742D01*
X164171Y307434D01*
X164385Y307220D01*
X164600Y306792D01*
Y306577D01*
X166078D02*
X166292Y307006D01*
X166720Y307434D01*
X167149Y307649D01*
X168006D01*
X168434Y307434D01*
X168863Y307006D01*
X169077Y306577D01*
X169291Y305935D01*
Y304864D01*
X169077Y304221D01*
X168863Y303792D01*
X169134Y304555D02*
Y313555D01*
X174134D01*
Y304555D02*
X169134D01*
X177000Y303500D02*
Y300000D01*
X164573Y287749D02*
X165001Y287107D01*
X165216Y286035D01*
Y284964D01*
X165001Y284107D01*
X164573Y283679D01*
X163930Y283465D01*
X163716D01*
X163073Y283679D01*
X162645Y284107D01*
X162431Y284750D01*
Y284964D01*
X162645Y285607D01*
X163073Y286035D01*
X163716Y286250D01*
X163930D01*
X164573Y286035D01*
X165001Y285607D01*
X165216Y284964D01*
X164573Y287749D02*
X163930Y287964D01*
X163502D01*
X162859Y287749D01*
X162645Y287321D01*
X163379Y269411D02*
X163164Y269197D01*
X162950Y268768D01*
Y268340D01*
X163164Y267911D01*
X163379Y267697D01*
X164022Y267483D01*
X165950D01*
X164450D02*
X162950Y265126D01*
X161729Y265769D02*
X161301Y265340D01*
X160658Y265126D01*
X160444D01*
X159801Y265340D01*
X159372Y265769D01*
X159158Y266411D01*
Y266626D01*
X159372Y267268D01*
X159801Y267697D01*
X160444Y267911D01*
X160658D01*
X161301Y267697D01*
X161729Y267268D01*
X161943Y266626D01*
X161729Y265769D01*
X161943Y266626D02*
Y267697D01*
X161729Y268768D01*
X161301Y269411D01*
X160658Y269625D01*
X160229D01*
X159587Y269411D01*
X159372Y268982D01*
X157958D02*
Y268554D01*
X157744Y268125D01*
X157316Y267911D01*
X156459Y267697D01*
X155816Y267483D01*
X155388Y267054D01*
X155173Y266626D01*
Y265983D01*
X155388Y265554D01*
X155602Y265340D01*
X156245Y265126D01*
X157102D01*
X157744Y265340D01*
X157958Y265554D01*
X158173Y265983D01*
Y266626D01*
X157958Y267054D01*
X157530Y267483D01*
X156887Y267697D01*
X156030Y267911D01*
X155602Y268125D01*
X155388Y268554D01*
Y268982D01*
X155602Y269411D01*
X156245Y269625D01*
X157102D01*
X157744Y269411D01*
X157958Y268982D01*
X158120Y269594D02*
Y265095D01*
Y267452D02*
X156192D01*
X155549Y267666D01*
X155335Y267880D01*
X155120Y268309D01*
Y268737D01*
X155335Y269165D01*
X155549Y269380D01*
X156192Y269594D01*
X158120D01*
X156620Y267452D02*
X155120Y265095D01*
X153899Y265738D02*
X153471Y265309D01*
X152828Y265095D01*
X152614D01*
X151971Y265309D01*
X151543Y265738D01*
X151328Y266380D01*
Y266595D01*
X151543Y267237D01*
X151971Y267666D01*
X152614Y267880D01*
X152828D01*
X153471Y267666D01*
X153899Y267237D01*
X154113Y266595D01*
X153899Y265738D01*
X154113Y266595D02*
Y267666D01*
X153899Y268737D01*
X153471Y269380D01*
X152828Y269594D01*
X152400D01*
X151757Y269380D01*
X151543Y268951D01*
X150129D02*
X149700Y269380D01*
X149057Y269594D01*
X148843D01*
X148201Y269380D01*
X147772Y268951D01*
X147558Y268094D01*
X147772Y267452D01*
X148201Y267023D01*
X148843Y266809D01*
X149057D01*
X149700Y267023D01*
X150129Y267452D01*
X150343Y268094D01*
Y268309D01*
X150129Y268951D01*
Y265738D02*
X149914Y265309D01*
X149272Y265095D01*
X148843D01*
X148201Y265309D01*
X147772Y265952D01*
X147558Y267023D01*
Y268094D01*
X152512Y261906D02*
X158512D01*
Y258405D01*
X160386Y257906D02*
Y261906D01*
X166386D01*
Y258405D01*
Y253405D02*
Y249905D01*
X160386D01*
Y253405D01*
X158512D02*
Y249905D01*
X152512D01*
Y253405D01*
Y257906D02*
Y261906D01*
X165950Y265126D02*
Y269625D01*
X164022D01*
X163379Y269411D01*
X184041Y226726D02*
X184684Y226940D01*
X185113D01*
X185755Y226726D01*
X186184Y226083D01*
X186398Y225012D01*
Y223941D01*
X186184Y223084D01*
X185755Y222655D01*
X185113Y222441D01*
X184898D01*
X184256Y222655D01*
X183827Y223084D01*
X183613Y223726D01*
Y223941D01*
X183827Y224583D01*
X184256Y225012D01*
X184898Y225226D01*
X185113D01*
X185755Y225012D01*
X186184Y224583D01*
X186398Y223941D01*
X187191D02*
X190404D01*
X188262Y226940D01*
Y222441D01*
X192311Y222655D02*
X191883Y223084D01*
X191668Y223512D01*
X192311Y222655D02*
X192739Y222441D01*
X193596D01*
X194025Y222655D01*
X194453Y223084D01*
X194668Y223512D01*
X194882Y224155D01*
Y225226D01*
X194668Y225869D01*
X194453Y226297D01*
X194025Y226726D01*
X193596Y226940D01*
X192739D01*
X192311Y226726D01*
X191883Y226297D01*
X191668Y225869D01*
X183827Y226297D02*
X184041Y226726D01*
X187767Y211192D02*
Y206693D01*
X189845D02*
X192844D01*
X190702Y208835D01*
X190273Y209478D01*
X190059Y209907D01*
Y210335D01*
X190273Y210764D01*
X190488Y210978D01*
X190916Y211192D01*
X191773D01*
X192201Y210978D01*
X192416Y210764D01*
X192630Y210335D01*
Y210121D01*
X193851Y210335D02*
Y209907D01*
X194065Y209478D01*
X194280Y209264D01*
X194922Y209050D01*
X196850D01*
X195351D02*
X193851Y206693D01*
X196850D02*
Y211192D01*
X194922D01*
X194280Y210978D01*
X194065Y210764D01*
X193851Y210335D01*
X188838D02*
X188409Y210549D01*
X187767Y211192D01*
X270913Y255825D02*
X271127Y256253D01*
X286000Y236000D02*
X289500D01*
X286000D02*
Y230000D01*
X289500D01*
X288658Y191293D02*
X289087Y190650D01*
X289301Y189579D01*
Y188507D01*
X289087Y187651D01*
X288658Y187222D01*
X288015Y187008D01*
X287801D01*
X287158Y187222D01*
X286730Y187651D01*
X286516Y188293D01*
Y188507D01*
X286730Y189150D01*
X287158Y189579D01*
X287801Y189793D01*
X288015D01*
X288658Y189579D01*
X289087Y189150D01*
X289301Y188507D01*
X290308Y188722D02*
X290522Y188079D01*
X290736Y187651D01*
X291165Y187222D01*
X291807Y187008D01*
X293307D01*
Y191507D01*
X291807D01*
X291165Y191293D01*
X290736Y190864D01*
X290522Y190436D01*
X290308Y189793D01*
Y188722D01*
X288658Y191293D02*
X288015Y191507D01*
X287587D01*
X286944Y191293D01*
X286730Y190864D01*
X296362Y190928D02*
Y191356D01*
X296576Y191785D01*
X297219Y191999D01*
X298076D01*
X298719Y191785D01*
X298933Y191356D01*
Y190928D01*
X298719Y190499D01*
X298290Y190285D01*
X297433Y190071D01*
X296791Y189857D01*
X296362Y189428D01*
X296148Y189000D01*
Y188357D01*
X296362Y187928D01*
X296576Y187714D01*
X297219Y187500D01*
X298076D01*
X298719Y187714D01*
X298933Y187928D01*
X299147Y188357D01*
Y189000D01*
X298933Y189428D01*
X298504Y189857D01*
X297862Y190071D01*
X297005Y190285D01*
X296576Y190499D01*
X296362Y190928D01*
X300368D02*
X300154Y190285D01*
Y189214D01*
X300368Y188571D01*
X300583Y188143D01*
X301011Y187714D01*
X301654Y187500D01*
X303153D01*
Y191999D01*
X301654D01*
X301011Y191785D01*
X300583Y191356D01*
X300368Y190928D01*
X355624Y190571D02*
X355409Y190357D01*
X355195Y189714D01*
Y189285D01*
X355409Y188643D01*
X355838Y188214D01*
X356481Y188000D01*
X357123D01*
X357766Y188214D01*
X357980Y188428D01*
X358194Y188857D01*
X360422Y188000D02*
Y192499D01*
X361065Y191856D01*
X361494Y191642D01*
X362715Y191428D02*
X362501Y190785D01*
Y189714D01*
X362715Y189071D01*
X362929Y188643D01*
X363358Y188214D01*
X364000Y188000D01*
X365500D01*
Y192499D01*
X364000D01*
X363358Y192285D01*
X362929Y191856D01*
X362715Y191428D01*
X357766Y192499D02*
X355409D01*
X356695Y190785D01*
X356052D01*
X355624Y190571D01*
X270500Y283000D02*
Y287499D01*
X268572D01*
X262487Y286642D02*
X262059Y286856D01*
X261416Y287499D01*
Y283000D01*
X257000Y294000D02*
Y288000D01*
X253500D01*
X249000D02*
X245000D01*
Y294000D01*
X248500D01*
X248000Y296500D02*
Y300500D01*
Y296500D02*
X242000D01*
Y300000D01*
Y305000D02*
Y308500D01*
X248000D01*
Y305000D01*
X253500Y294000D02*
X257000D01*
X258494Y311500D02*
X255494D01*
X254059Y311714D02*
X254273Y311929D01*
X254487Y312357D01*
X254059Y311714D02*
X253416Y311500D01*
X252773D01*
X252131Y311714D01*
X251702Y312143D01*
X251488Y312785D01*
Y313214D01*
X251702Y313857D01*
X251917Y314071D01*
X252345Y314285D01*
X252988D01*
X251702Y315999D01*
X254059D01*
X255494D02*
X258494Y311500D01*
Y315999D02*
X255494D01*
X247000Y313499D02*
Y309000D01*
Y311357D02*
X245072D01*
X244429Y311571D01*
X244215Y311785D01*
X244001Y312214D01*
Y312642D01*
X244215Y313071D01*
X244429Y313285D01*
X245072Y313499D01*
X247000D01*
X245500Y311357D02*
X244001Y309000D01*
X242565Y309214D02*
X242779Y309429D01*
X242994Y309857D01*
X242565Y309214D02*
X241922Y309000D01*
X241280D01*
X240637Y309214D01*
X240209Y309643D01*
X239994Y310285D01*
Y310714D01*
X240209Y311357D01*
X240423Y311571D01*
X240851Y311785D01*
X241494D01*
X240209Y313499D01*
X242565D01*
X238987D02*
X235988D01*
X238130Y309000D01*
X237303Y291901D02*
X238589Y290187D01*
X237946D01*
X237517Y289972D01*
X237303Y289758D01*
X237089Y289116D01*
Y288687D01*
X237303Y288044D01*
X237732Y287616D01*
X238374Y287402D01*
X239017D01*
X239660Y287616D01*
X239874Y287830D01*
X240088Y288259D01*
X241095Y287402D02*
X242595Y289758D01*
X242166D02*
X244094D01*
X242166D02*
X241524Y289972D01*
X241309Y290187D01*
X241095Y290615D01*
Y291044D01*
X241309Y291472D01*
X241524Y291686D01*
X242166Y291901D01*
X244094D01*
Y287402D01*
X236082D02*
X233083D01*
X233940Y289544D02*
X236082Y287402D01*
X233940Y289544D02*
X233511Y290187D01*
X233297Y290615D01*
Y291044D01*
X233511Y291472D01*
X233725Y291686D01*
X234154Y291901D01*
X235011D01*
X235439Y291686D01*
X235653Y291472D01*
X235868Y291044D01*
Y290829D01*
X237303Y291901D02*
X239660D01*
X213630Y334551D02*
Y338051D01*
Y343051D02*
Y346551D01*
X207630D01*
Y342551D01*
Y338051D02*
Y334551D01*
X213630D01*
X202461Y334809D02*
X202675Y335238D01*
X203318Y335881D01*
X198819D01*
X197412Y336095D02*
X197198Y335452D01*
X196555Y335024D01*
X195484Y334809D01*
X194413D01*
X193556Y335024D01*
X193128Y335452D01*
X192913Y336095D01*
Y336309D01*
X193128Y336952D01*
X193556Y337380D01*
X194199Y337595D01*
X194413D01*
X195056Y337380D01*
X195484Y336952D01*
X195698Y336309D01*
Y336095D01*
X195484Y335452D01*
X195056Y335024D01*
X194413Y334809D01*
X195698Y333588D02*
X195484Y333374D01*
X195270Y332731D01*
Y330803D01*
Y332303D02*
X192913Y333803D01*
X192000Y332500D02*
Y338500D01*
X188000D01*
X187945Y338583D02*
X189445Y340939D01*
X189017D02*
X190945D01*
X189017D02*
X188374Y341154D01*
X188160Y341368D01*
X187945Y341796D01*
Y342225D01*
X188160Y342653D01*
X188374Y342867D01*
X189017Y343082D01*
X190945D01*
Y338583D01*
X193128Y339008D02*
X193342Y338794D01*
X193770Y338580D01*
X193128Y339008D02*
X192913Y339651D01*
Y340294D01*
X193128Y340937D01*
X193556Y341365D01*
X194199Y341579D01*
X194627D01*
X195270Y341365D01*
X195698Y340937D01*
X195913Y340294D01*
Y339651D01*
X195698Y339008D01*
X195484Y338794D01*
X197412Y339008D01*
Y341151D01*
X198819Y338966D02*
X203318Y341108D01*
Y338109D01*
X205500Y348000D02*
X209000D01*
Y354000D01*
X205000D01*
X200500D02*
X197000D01*
Y348000D01*
X200500D01*
X210317Y348639D02*
X209889Y349068D01*
X209675Y349711D01*
Y349925D01*
X209889Y350568D01*
X210317Y350996D01*
X210960Y351210D01*
X211174D01*
X211817Y350996D01*
X212246Y350568D01*
X212460Y349925D01*
X212246Y349068D01*
X211817Y348639D01*
X211174Y348425D01*
X210960D01*
X210317Y348639D01*
X212460Y349925D02*
Y350996D01*
X212246Y352067D01*
X211817Y352710D01*
X211174Y352924D01*
X210746D01*
X210103Y352710D01*
X209889Y352281D01*
X210500Y358500D02*
Y362500D01*
Y358500D02*
X204500D01*
Y362000D01*
Y367000D02*
Y370500D01*
X210500D01*
Y367000D01*
X213253Y349925D02*
X216466D01*
X214324Y352924D01*
Y348425D01*
X217473D02*
X218973Y350782D01*
X218544D02*
X220472D01*
X218544D02*
X217902Y350996D01*
X217687Y351210D01*
X217473Y351639D01*
Y352067D01*
X217687Y352496D01*
X217902Y352710D01*
X218544Y352924D01*
X220472D01*
Y348425D01*
X219629Y344928D02*
Y342785D01*
X217701Y342571D01*
X217915Y342785D01*
X218129Y343428D01*
Y344071D01*
X217915Y344713D01*
X217487Y345142D01*
X216844Y345356D01*
X216415D01*
X215773Y345142D01*
X215344Y344713D01*
X215130Y344071D01*
Y343428D01*
X215344Y342785D01*
X215558Y342571D01*
X215987Y342357D01*
X203104Y333374D02*
X202889Y333588D01*
X202461Y333803D01*
X202032D01*
X201604Y333588D01*
X201390Y333374D01*
X201175Y332731D01*
Y330803D01*
Y332303D02*
X198819Y333803D01*
X197198Y333374D02*
X196984Y333588D01*
X196555Y333803D01*
X196127D01*
X195698Y333588D01*
X197198Y333374D02*
X197412Y332731D01*
Y330803D01*
X192913D01*
X191976Y331365D02*
Y326866D01*
Y331365D02*
X190048D01*
X189406Y331151D01*
X189191Y330937D01*
X188977Y330508D01*
Y330080D01*
X189191Y329651D01*
X188500Y332500D02*
X192000D01*
X198819Y330803D02*
X203318D01*
Y332731D01*
X203104Y333374D01*
X197198Y337166D02*
X197412Y336523D01*
Y336095D01*
X197198Y337166D02*
X196770Y337380D01*
X186724Y339225D02*
X186296Y338797D01*
X185653Y338583D01*
X185439D01*
X184796Y338797D01*
X184368Y339225D01*
X184153Y339868D01*
Y340082D01*
X184368Y340725D01*
X184796Y341154D01*
X185439Y341368D01*
X185653D01*
X186296Y341154D01*
X186724Y340725D01*
X186939Y340082D01*
X186724Y339225D01*
X186939Y340082D02*
Y341154D01*
X186724Y342225D01*
X186296Y342867D01*
X185653Y343082D01*
X185225D01*
X184582Y342867D01*
X184368Y342439D01*
X182954Y342225D02*
X183168Y341154D01*
Y340511D01*
X182954Y339440D01*
X182525Y338797D01*
X181883Y338583D01*
X181454D01*
X180811Y338797D01*
X180383Y339440D01*
X180169Y340511D01*
Y341154D01*
X180383Y342225D01*
X180811Y342867D01*
X181454Y343082D01*
X181883D01*
X182525Y342867D01*
X182954Y342225D01*
X183500Y338500D02*
X180000D01*
Y332500D01*
X183500D01*
X177500Y333000D02*
Y336500D01*
Y333000D02*
X171500D01*
Y336500D01*
X169291Y327334D02*
Y322835D01*
X167792D01*
X167149Y323049D01*
X166720Y323477D01*
X166506Y323906D01*
X166292Y324549D01*
Y325620D01*
X166506Y326262D01*
X166720Y326691D01*
X167149Y327119D01*
X167792Y327334D01*
X169291D01*
X171500Y341000D02*
Y345000D01*
X177500D01*
Y341500D01*
Y346500D02*
Y350999D01*
X175572D01*
X174929Y350785D01*
X174715Y350571D01*
X174501Y350142D01*
Y349714D01*
X174715Y349285D01*
X174929Y349071D01*
X175572Y348857D01*
X177500D01*
X176000D02*
X174501Y346500D01*
X172423D02*
Y350999D01*
X173065Y350356D01*
X173494Y350142D01*
X169980Y350356D02*
Y349928D01*
X169766Y349499D01*
X169337Y349285D01*
X168481Y349071D01*
X167838Y348857D01*
X167409Y348428D01*
X167195Y348000D01*
Y347357D01*
X167409Y346929D01*
X167624Y346714D01*
X168266Y346500D01*
X169123D01*
X169766Y346714D01*
X169980Y346929D01*
X170194Y347357D01*
Y348000D01*
X169980Y348428D01*
X169552Y348857D01*
X168909Y349071D01*
X168052Y349285D01*
X167624Y349499D01*
X167409Y349928D01*
Y350356D01*
X167624Y350785D01*
X168266Y350999D01*
X169123D01*
X169766Y350785D01*
X169980Y350356D01*
X165285Y327334D02*
X162286D01*
X165285Y322835D01*
X162286D01*
X161279D02*
X158279D01*
X159136Y324977D02*
X161279Y322835D01*
X161065Y326262D02*
Y326477D01*
X160850Y326905D01*
X160636Y327119D01*
X160208Y327334D01*
X159351D01*
X158922Y327119D01*
X158708Y326905D01*
X158494Y326477D01*
Y326048D01*
X158708Y325620D01*
X159136Y324977D01*
X203769Y372690D02*
X204198Y372262D01*
X204840Y372047D01*
X205483D01*
X206126Y372262D01*
X206340Y372476D01*
X206554Y372904D01*
X207347Y373547D02*
X210561D01*
X208418Y376546D01*
Y372047D01*
X211568D02*
X213067Y374404D01*
X212639D02*
X214567D01*
Y376546D02*
Y372047D01*
Y376546D02*
X212639D01*
X211996Y376332D01*
X211782Y376118D01*
X211568Y375689D01*
Y375261D01*
X211782Y374832D01*
X211996Y374618D01*
X212639Y374404D01*
X206340Y374618D02*
X206126Y374832D01*
X205483Y375047D01*
X204840D01*
X204198Y374832D01*
X203769Y374404D01*
X203555Y373761D01*
Y373333D01*
X203769Y372690D01*
X203983Y376546D02*
X206126D01*
X206340Y374618D01*
X215351Y389500D02*
Y393999D01*
X217494Y391000D01*
X214280D01*
X218715Y392285D02*
X218929Y392071D01*
X219572Y391857D01*
X221500D01*
X220000D02*
X218501Y389500D01*
X221500D02*
Y393999D01*
X219572D01*
X218929Y393785D01*
X218715Y393571D01*
X218501Y393142D01*
Y392714D01*
X218715Y392285D01*
X210500Y399500D02*
Y403500D01*
Y399500D02*
X204500D01*
Y403000D01*
Y408000D02*
Y411500D01*
X210500D01*
Y408000D01*
X211001Y413000D02*
X212500Y415357D01*
X212072D02*
X214000D01*
X212072D02*
X211429Y415571D01*
X211215Y415785D01*
X211001Y416214D01*
Y416642D01*
X211215Y417071D01*
X211429Y417285D01*
X212072Y417499D01*
X214000D01*
Y413000D01*
X207851D02*
Y417499D01*
X209994Y414500D01*
X206780D01*
X205987Y417499D02*
X202988D01*
X205131Y413000D01*
X205000Y395000D02*
X209000D01*
Y389000D01*
X205500D01*
X200500D02*
X197000D01*
Y395000D01*
X200500D01*
X210917Y393785D02*
X211559Y393999D01*
X212416D01*
X213059Y393785D01*
X213273Y393356D01*
Y392928D01*
X213059Y392499D01*
X212631Y392285D01*
X211773Y392071D01*
X211131Y391857D01*
X210702Y391428D01*
X210488Y391000D01*
Y390357D01*
X210702Y389929D01*
X210917Y389714D01*
X211559Y389500D01*
X212416D01*
X213059Y389714D01*
X213273Y389929D01*
X213487Y390357D01*
Y391000D01*
X213273Y391428D01*
X212845Y391857D01*
X212202Y392071D01*
X211345Y392285D01*
X210917Y392499D01*
X210702Y392928D01*
Y393356D01*
X210917Y393785D01*
X189000Y378499D02*
X186001D01*
X185251Y377856D02*
X184822Y378285D01*
X184180Y378499D01*
X183965D01*
X183323Y378285D01*
X182894Y377856D01*
X182680Y376999D01*
X182894Y376357D01*
X183323Y375928D01*
X183965Y375714D01*
X184180D01*
X184822Y375928D01*
X185251Y376357D01*
X185465Y376999D01*
Y377214D01*
X185251Y377856D01*
X187500Y378499D02*
Y374000D01*
X185037Y374214D02*
X185251Y374643D01*
X185037Y374214D02*
X184394Y374000D01*
X183965D01*
X183323Y374214D01*
X182894Y374857D01*
X182680Y375928D01*
Y376999D01*
X153050Y384749D02*
Y380250D01*
X151550D01*
X150908Y380464D01*
X150479Y380893D01*
X150265Y381321D01*
X150051Y381964D01*
Y383035D01*
X150265Y383678D01*
X150479Y384106D01*
X150908Y384535D01*
X151550Y384749D01*
X153050D01*
X149044Y383892D02*
X148615Y384106D01*
X147973Y384749D01*
Y380250D01*
X145744Y381750D02*
X142531D01*
X143602Y380250D02*
Y384749D01*
X145744Y381750D01*
X183951Y415857D02*
X183523Y415214D01*
X182880Y415000D01*
X182452D01*
X181809Y415214D01*
X181381Y415857D01*
X181166Y416928D01*
Y417571D01*
X181381Y418642D01*
X181809Y419285D01*
X182452Y419499D01*
X182880D01*
X183523Y419285D01*
X183951Y418642D01*
X184166Y417571D01*
Y416928D01*
X183951Y415857D01*
X186394Y415000D02*
Y419499D01*
X187037Y418856D01*
X187465Y418642D01*
X188001Y419499D02*
X191000D01*
X189500D02*
Y415000D01*
X188000Y434000D02*
Y438000D01*
X189737Y439643D02*
X190166Y439214D01*
X190808Y439000D01*
X191451D01*
X192094Y439214D01*
X192308Y439429D01*
X192522Y439857D01*
X193786Y440071D02*
X194001Y439643D01*
X194429Y439214D01*
X194858Y439000D01*
X195715D01*
X196143Y439214D01*
X196572Y439643D01*
X196786Y440071D01*
X197000Y440714D01*
Y441785D01*
X196786Y442428D01*
X196572Y442856D01*
X196143Y443285D01*
X195715Y443499D01*
X194858D01*
X194429Y443285D01*
X194001Y442856D01*
X193786Y442428D01*
X192094Y443499D02*
X189737D01*
X191023Y441785D01*
X190380D01*
X189952Y441571D01*
X189737Y441357D01*
X189523Y440714D01*
Y440285D01*
X189737Y439643D01*
X188000Y442500D02*
Y446000D01*
X182000D01*
Y442500D01*
Y437500D02*
Y434000D01*
X188000D01*
X218880Y440000D02*
Y444499D01*
X221022Y441500D01*
X217809D01*
X222286Y441071D02*
X222501Y440643D01*
X222929Y440214D01*
X223358Y440000D01*
X224215D01*
X224643Y440214D01*
X225072Y440643D01*
X225286Y441071D01*
X225500Y441714D01*
Y442785D01*
X225286Y443428D01*
X225072Y443856D01*
X224643Y444285D01*
X224215Y444499D01*
X223358D01*
X222929Y444285D01*
X222501Y443856D01*
X222286Y443428D01*
X227000Y442500D02*
Y446000D01*
X233000D01*
Y442500D01*
Y438000D02*
Y434000D01*
X227000D01*
Y437500D01*
X257583Y458876D02*
X257154Y459518D01*
X256940Y460590D01*
Y461232D01*
X257154Y462303D01*
X257583Y462946D01*
X258226Y463161D01*
X258654D01*
X259297Y462946D01*
X259725Y462303D01*
X259940Y461232D01*
Y460590D01*
X259725Y459518D01*
X259297Y458876D01*
X258654Y458661D01*
X258226D01*
X257583Y458876D01*
X262168Y458661D02*
Y463161D01*
X262810Y462518D01*
X263239Y462303D01*
X264503Y462089D02*
X264717Y462518D01*
X265146Y462946D01*
X265574Y463161D01*
X266431D01*
X266860Y462946D01*
X267288Y462518D01*
X267502Y462089D01*
X267717Y461447D01*
Y460375D01*
X267502Y459733D01*
X267288Y459304D01*
X266860Y458876D01*
X266431Y458661D01*
X265574D01*
X265146Y458876D01*
X264717Y459304D01*
X264503Y459733D01*
X269000Y465500D02*
X274000D01*
Y474500D01*
X269000D01*
X284500Y474000D02*
X289500D01*
X284500D02*
Y465000D01*
X289500D01*
X290619Y460161D02*
X290833Y460804D01*
X291262Y461232D01*
X291904Y461447D01*
X292119D01*
X292761Y461232D01*
X293190Y460804D01*
X293404Y460161D01*
X293190Y459304D01*
X292761Y458876D01*
X292119Y458661D01*
X291904D01*
X291262Y458876D01*
X290833Y459304D01*
X290619Y459947D01*
Y460161D01*
X295632Y458661D02*
Y463161D01*
X296275Y462518D01*
X296704Y462303D01*
X297968Y462089D02*
X298182Y462518D01*
X298610Y462946D01*
X299039Y463161D01*
X299896D01*
X300324Y462946D01*
X300753Y462518D01*
X300967Y462089D01*
X301181Y461447D01*
Y460375D01*
X300967Y459733D01*
X300753Y459304D01*
X300324Y458876D01*
X299896Y458661D01*
X299039D01*
X298610Y458876D01*
X298182Y459304D01*
X297968Y459733D01*
X293404Y460161D02*
Y461232D01*
X293190Y462303D01*
X292761Y462946D01*
X292119Y463161D01*
X291690D01*
X291048Y462946D01*
X290833Y462518D01*
X299500Y465000D02*
X304500D01*
Y474000D01*
X299500D01*
X307500Y455500D02*
Y452000D01*
X313500D01*
Y456000D01*
X314075Y455969D02*
X314289Y455541D01*
X314718Y454898D01*
X316860Y452756D01*
X313861D01*
X314075Y455969D02*
Y456398D01*
X314289Y456826D01*
X314503Y457041D01*
X314932Y457255D01*
X315789D01*
X316217Y457041D01*
X316431Y456826D01*
X316646Y456398D01*
Y456184D01*
X317867Y456398D02*
Y455969D01*
X318081Y455541D01*
X318295Y455327D01*
X318938Y455113D01*
X320866D01*
X319367D02*
X317867Y452756D01*
X320866D02*
Y457255D01*
X318938D01*
X318295Y457041D01*
X318081Y456826D01*
X317867Y456398D01*
X318500Y443500D02*
X315000D01*
Y437500D01*
X318500D01*
X318059Y435071D02*
X317845Y435285D01*
X317416Y435499D01*
X316559D01*
X316131Y435285D01*
X315917Y435071D01*
X315702Y434642D01*
Y434214D01*
X315917Y433785D01*
X316345Y433142D01*
X318487Y431000D01*
X315488D01*
X312992Y431102D02*
Y435601D01*
X311064D01*
X310421Y435387D01*
X310207Y435173D01*
X309993Y434744D01*
Y434316D01*
X310207Y433887D01*
X310421Y433673D01*
X311064Y433459D01*
X312992D01*
X311492D02*
X309993Y431102D01*
X308557Y431317D02*
X308772Y431531D01*
X308986Y431959D01*
X308557Y431317D02*
X307915Y431102D01*
X307272D01*
X306629Y431317D01*
X306201Y431745D01*
X305986Y432388D01*
Y432816D01*
X306201Y433459D01*
X306629Y433887D01*
X307272Y434102D01*
X307915D01*
X308557Y433887D01*
X308772Y433673D01*
X308557Y435601D01*
X306415D01*
X310500Y437500D02*
X314000D01*
Y443500D01*
X310000D01*
X318059Y435071D02*
X318273Y434642D01*
Y434428D01*
X320137Y433785D02*
X319709Y433357D01*
X319494Y432714D01*
Y432285D01*
X319709Y431643D01*
X320137Y431214D01*
X320780Y431000D01*
X321423D01*
X322065Y431214D01*
X322280Y431428D01*
X322494Y431857D01*
X323501Y431000D02*
X325000Y433357D01*
X324572D02*
X326500D01*
X324572D02*
X323929Y433571D01*
X323715Y433785D01*
X323501Y434214D01*
Y434642D01*
X323715Y435071D01*
X323929Y435285D01*
X324572Y435499D01*
X326500D01*
Y431000D01*
X329753Y431062D02*
X329968Y429991D01*
X330396Y429348D01*
X331039Y429134D01*
X331467D01*
X332110Y429348D01*
X332324Y429777D01*
X331896Y431062D02*
X332324Y431491D01*
X332539Y432133D01*
Y432347D01*
X332324Y432990D01*
X331896Y433419D01*
X331253Y433633D01*
X331039D01*
X330396Y433419D01*
X329968Y432990D01*
X329753Y432133D01*
X329968Y431491D01*
X330396Y431062D01*
X331039Y430848D01*
X331253D01*
X331896Y431062D01*
X333331Y430633D02*
X336545D01*
X334402Y433633D01*
Y429134D01*
X329753Y431062D02*
Y432133D01*
X328500Y437500D02*
Y443500D01*
X332000D01*
X327000D02*
Y437500D01*
X323500D01*
X322065Y435499D02*
X322280Y433571D01*
X322065Y433785D01*
X321423Y433999D01*
X320780D01*
X320137Y433785D01*
X319923Y435499D02*
X322065D01*
X328500Y437500D02*
X332500D01*
X327000Y443500D02*
X323000D01*
X337000D02*
X340500D01*
Y437500D01*
X337000D01*
X337980Y433419D02*
X337766Y433204D01*
X337552Y432776D01*
Y432347D01*
X337766Y431919D01*
X337980Y431705D01*
X338623Y431491D01*
X340551D01*
X339052D02*
X337552Y429134D01*
X340551D02*
Y433633D01*
X338623D01*
X337980Y433419D01*
X342000Y434500D02*
Y439500D01*
Y434500D02*
X351000D01*
Y439500D01*
X353616Y449033D02*
X354259Y448819D01*
X354687D01*
X355330Y449033D01*
X355544Y449462D01*
X357237D02*
X357023Y449890D01*
X357237Y449462D02*
X357665Y449033D01*
X358094Y448819D01*
X358951D01*
X359379Y449033D01*
X359808Y449462D01*
X360022Y449890D01*
X360236Y450533D01*
Y451604D01*
X360022Y452247D01*
X359808Y452675D01*
X359379Y453104D01*
X358951Y453318D01*
X358094D01*
X357665Y453104D01*
X357237Y452675D01*
X357023Y452247D01*
X355759Y452033D02*
X355544Y452675D01*
X355116Y453104D01*
X354473Y453318D01*
X354259D01*
X353616Y453104D01*
X353188Y452675D01*
X352974Y451818D01*
X353188Y451175D01*
X353616Y450747D01*
X354259Y450533D01*
X354473D01*
X355116Y450747D01*
X355544Y451175D01*
X355759Y451818D01*
Y452033D01*
X352974Y451818D02*
Y450747D01*
X353188Y449676D01*
X353616Y449033D01*
X354687Y456693D02*
Y461192D01*
X355330Y460549D01*
X355759Y460335D01*
X357023Y460121D02*
X357237Y460549D01*
X357665Y460978D01*
X358094Y461192D01*
X358951D01*
X359379Y460978D01*
X359808Y460549D01*
X360022Y460121D01*
X360236Y459478D01*
Y458407D01*
X360022Y457764D01*
X359808Y457336D01*
X359379Y456907D01*
X358951Y456693D01*
X358094D01*
X357665Y456907D01*
X357237Y457336D01*
X357023Y457764D01*
X352459Y457550D02*
Y458193D01*
X352245Y458621D01*
X351817Y459050D01*
X351174Y459264D01*
X350317Y459478D01*
X349888Y459692D01*
X349674Y460121D01*
Y460549D01*
X349888Y460978D01*
X350531Y461192D01*
X351388D01*
X352031Y460978D01*
X352245Y460549D01*
Y460121D01*
X352031Y459692D01*
X351602Y459478D01*
X350745Y459264D01*
X350103Y459050D01*
X349674Y458621D01*
X349460Y458193D01*
Y457550D01*
X349674Y457121D01*
X349888Y456907D01*
X350531Y456693D01*
X351388D01*
X352031Y456907D01*
X352245Y457121D01*
X352459Y457550D01*
X373500Y440000D02*
X378500D01*
X379035Y441373D02*
X379250Y441159D01*
X379892Y440945D01*
X380749D01*
X381392Y441159D01*
X381606Y441373D01*
X381821Y441802D01*
Y442445D01*
X381606Y442873D01*
X381178Y443301D01*
X380535Y443516D01*
X379678Y443730D01*
X379250Y443944D01*
X379035Y444373D01*
Y444801D01*
X379250Y445230D01*
X379892Y445444D01*
X380749D01*
X381392Y445230D01*
X381606Y444801D01*
Y444373D01*
X381392Y443944D01*
X380963Y443730D01*
X380107Y443516D01*
X379464Y443301D01*
X379035Y442873D01*
X378821Y442445D01*
Y441802D01*
X379035Y441373D01*
X373500Y440000D02*
Y431000D01*
X378500D01*
X377900Y466000D02*
X372900D01*
Y475000D01*
X377900D01*
X371190Y472789D02*
X371619Y472360D01*
X371833Y471932D01*
X372047Y471289D01*
Y470218D01*
X371833Y469575D01*
X371619Y469147D01*
X371190Y468718D01*
X370762Y468504D01*
X369905D01*
X369476Y468718D01*
X369048Y469147D01*
X368834Y469575D01*
X367570Y469361D02*
Y470004D01*
X367355Y470432D01*
X366927Y470861D01*
X366284Y471075D01*
X365427Y471289D01*
X364999Y471503D01*
X364785Y471932D01*
Y472360D01*
X364999Y472789D01*
X365641Y473003D01*
X366498D01*
X367141Y472789D01*
X367355Y472360D01*
Y471932D01*
X367141Y471503D01*
X366713Y471289D01*
X365856Y471075D01*
X365213Y470861D01*
X364785Y470432D01*
X364570Y470004D01*
Y469361D01*
X364785Y468932D01*
X364999Y468718D01*
X365641Y468504D01*
X366498D01*
X367141Y468718D01*
X367355Y468932D01*
X367570Y469361D01*
X368834Y471932D02*
X369048Y472360D01*
X369476Y472789D01*
X369905Y473003D01*
X370762D01*
X371190Y472789D01*
X387900Y475000D02*
X392900D01*
X353000Y489785D02*
Y488714D01*
X352786Y488071D01*
X352572Y487643D01*
X352143Y487214D01*
X351715Y487000D01*
X350858D01*
X350429Y487214D01*
X350001Y487643D01*
X349786Y488071D01*
X347451Y487000D02*
Y491499D01*
X348094Y490856D01*
X348522Y490642D01*
X349786Y490428D02*
X350001Y490856D01*
X350429Y491285D01*
X350858Y491499D01*
X351715D01*
X352143Y491285D01*
X352572Y490856D01*
X352786Y490428D01*
X353000Y489785D01*
X344795D02*
X344152Y489999D01*
X343509D01*
X342866Y489785D01*
X342438Y489357D01*
X342224Y488714D01*
Y488285D01*
X342438Y487643D01*
X342866Y487214D01*
X343509Y487000D01*
X344152D01*
X344795Y487214D01*
X345009Y487429D01*
X345223Y487857D01*
X345009Y489571D02*
X344795Y489785D01*
Y491499D02*
X345009Y489571D01*
X348500Y485000D02*
X339500D01*
Y480000D01*
X338000D02*
Y485000D01*
X329000D01*
Y480000D01*
X331422Y486500D02*
Y490999D01*
X332065Y490356D01*
X332494Y490142D01*
X333501D02*
Y489714D01*
X333715Y489285D01*
X333929Y489071D01*
X334572Y488857D01*
X336500D01*
X335000D02*
X333501Y486500D01*
X336500D02*
Y490999D01*
X334572D01*
X333929Y490785D01*
X333715Y490571D01*
X333501Y490142D01*
X348500Y485000D02*
Y480000D01*
Y470000D02*
Y465000D01*
X339500D01*
Y470000D01*
X338000D02*
Y465000D01*
X329000D01*
X334000D01*
X329000D02*
Y470000D01*
Y465000D02*
Y456000D01*
X334000D01*
X342000Y454500D02*
X351000D01*
Y449500D01*
X349000Y456000D02*
Y465000D01*
X344000D01*
Y456000D02*
X349000D01*
X342000Y454500D02*
Y449500D01*
X324375Y461273D02*
X323946Y460844D01*
X323518Y460630D01*
X322661D01*
X322232Y460844D01*
X321804Y461273D01*
X321590Y461701D01*
Y464058D02*
X321804Y464486D01*
X322232Y464915D01*
X322661Y465129D01*
X323518D01*
X323946Y464915D01*
X324375Y464486D01*
X324589Y464058D01*
X324803Y463415D01*
Y462344D01*
X324589Y461701D01*
X324375Y461273D01*
X326000Y465000D02*
Y474000D01*
X321000D01*
Y465000D02*
X326000D01*
X320325Y464272D02*
X319897Y464486D01*
X319254Y465129D01*
Y460630D01*
X315955D02*
Y465129D01*
X316598Y464486D01*
X317026Y464272D01*
X313500Y464000D02*
Y460500D01*
Y464000D02*
X307500D01*
Y460500D01*
X306000Y465000D02*
Y474000D01*
X311000D01*
Y465000D02*
X306000D01*
X305500Y443500D02*
X302000D01*
Y437500D01*
X305500D01*
X304980Y434744D02*
X304551Y434959D01*
X303908Y435601D01*
Y431102D01*
X301000Y431500D02*
Y435999D01*
X299072D01*
X298429Y435785D01*
X298215Y435571D01*
X298001Y435142D01*
Y434714D01*
X298215Y434285D01*
X298429Y434071D01*
X299072Y433857D01*
X301000D01*
X299500D02*
X298001Y431500D01*
X296565Y431714D02*
X296779Y431928D01*
X296994Y432357D01*
X296565Y431714D02*
X295922Y431500D01*
X295280D01*
X294637Y431714D01*
X294209Y432143D01*
X293994Y432785D01*
Y433214D01*
X294209Y433857D01*
X294637Y434285D01*
X295280Y434499D01*
X295922D01*
X296565Y434285D01*
X296779Y434071D01*
X296565Y435999D01*
X294423D01*
X292345Y435785D02*
X292773Y435142D01*
X292987Y434071D01*
Y433428D01*
X292773Y432357D01*
X292345Y431714D01*
X291702Y431500D01*
X291273D01*
X290631Y431714D01*
X290202Y432357D01*
X289988Y433428D01*
Y434071D01*
X290202Y435142D01*
X290631Y435785D01*
X291273Y435999D01*
X291702D01*
X292345Y435785D01*
X293000Y437500D02*
X289500D01*
Y443500D01*
X293000D01*
X297500D02*
X301500D01*
Y437500D01*
X298000D01*
X259000Y474500D02*
X254000D01*
Y465500D01*
X259000D01*
X237500Y483500D02*
Y487999D01*
X236000D01*
X235358Y487785D01*
X234929Y487356D01*
X234715Y486928D01*
X234501Y486285D01*
Y485214D01*
X234715Y484571D01*
X234929Y484143D01*
X235358Y483714D01*
X236000Y483500D01*
X237500D01*
X232422D02*
Y487999D01*
X233065Y487356D01*
X233494Y487142D01*
X151550Y424749D02*
Y420250D01*
X150050D01*
X149408Y420464D01*
X148979Y420893D01*
X148765Y421321D01*
X148551Y421964D01*
Y423035D01*
X148765Y423678D01*
X148979Y424106D01*
X149408Y424535D01*
X150050Y424749D01*
X151550D01*
X147544Y423892D02*
X147115Y424106D01*
X146473Y424749D01*
Y420250D01*
X143816Y420464D02*
X144030Y420679D01*
X144244Y421107D01*
X143816Y420464D02*
X143173Y420250D01*
X142531D01*
X141888Y420464D01*
X141459Y420893D01*
X141245Y421535D01*
Y421964D01*
X141459Y422607D01*
X141888Y423035D01*
X142531Y423249D01*
X143173D01*
X143816Y423035D01*
X144030Y422821D01*
X143816Y424749D01*
X141674D01*
X276845Y319285D02*
X276417Y318856D01*
X276202Y317999D01*
X276417Y317357D01*
X276845Y316928D01*
X277488Y316714D01*
X277702D01*
X278345Y316928D01*
X278773Y317357D01*
X278987Y317999D01*
Y318214D01*
X278773Y318856D01*
X278345Y319285D01*
X277702Y319499D01*
X277488D01*
X276845Y319285D01*
X276202Y317999D02*
Y316928D01*
X276417Y315857D01*
X276845Y315214D01*
X277488Y315000D01*
X277916D01*
X278559Y315214D01*
X278773Y315643D01*
X279994Y315000D02*
X282994D01*
X280851Y317142D01*
X280423Y317785D01*
X280209Y318214D01*
Y318642D01*
X280423Y319071D01*
X280637Y319285D01*
X281066Y319499D01*
X281923D01*
X282351Y319285D01*
X282565Y319071D01*
X282780Y318642D01*
Y318428D01*
X284001Y318642D02*
Y318214D01*
X284215Y317785D01*
X284429Y317571D01*
X285072Y317357D01*
X287000D01*
X285500D02*
X284001Y315000D01*
X285000Y314500D02*
X288500D01*
Y308500D01*
X285000D01*
X280500D02*
X276500D01*
Y314500D01*
X280000D01*
X287000Y315000D02*
Y319499D01*
X285072D01*
X284429Y319285D01*
X284215Y319071D01*
X284001Y318642D01*
X346500Y356000D02*
X350999D01*
Y357928D01*
X350785Y358571D01*
X350571Y358785D01*
X350142Y358999D01*
X349714D01*
X349285Y358785D01*
X349071Y358571D01*
X348857Y357928D01*
Y356000D01*
Y357500D02*
X346500Y358999D01*
Y361077D02*
X350999D01*
X350356Y360435D01*
X350142Y360006D01*
X348000Y363306D02*
Y366519D01*
X346500Y365448D02*
X350999D01*
X348000Y363306D01*
X430361Y434959D02*
X430576Y435387D01*
X431218Y435601D01*
X431647D01*
X442102Y437500D02*
X445602D01*
X446712Y435601D02*
X443713D01*
X445855Y431102D01*
X447933Y431745D02*
X448361Y431317D01*
X449004Y431102D01*
X449647D01*
X450290Y431317D01*
X450504Y431531D01*
X450718Y431959D01*
X451725Y431102D02*
X453225Y433459D01*
X452796D02*
X454724D01*
X452796D02*
X452153Y433673D01*
X451939Y433887D01*
X451725Y434316D01*
Y434744D01*
X451939Y435173D01*
X452153Y435387D01*
X452796Y435601D01*
X454724D01*
Y431102D01*
X450504Y433673D02*
X450290Y433887D01*
X449647Y434102D01*
X449004D01*
X448361Y433887D01*
X447933Y433459D01*
X447719Y432816D01*
Y432388D01*
X447933Y431745D01*
X448147Y435601D02*
X450290D01*
X450504Y433673D01*
X450602Y437500D02*
X454102D01*
Y443500D01*
X450102D01*
X445602D02*
X442102D01*
Y437500D01*
X458000Y445301D02*
X463000D01*
X458000D02*
Y454301D01*
X344795Y491499D02*
X342652D01*
G54D90*
X229571Y290520D02*
Y305480D01*
X213429D01*
Y290520D01*
X229571D01*
Y317520D02*
Y332480D01*
X213429D01*
Y317520D01*
X229571D01*
X194571Y357020D02*
Y371980D01*
X178429D01*
Y357020D01*
X194571D01*
Y397520D02*
Y412480D01*
X178429D01*
Y397520D01*
X194571D01*
X327165Y334842D02*
X327756D01*
X327165D02*
Y346260D01*
X327756D01*
X333661D02*
X334252D01*
Y334842D01*
X333661D01*
X348791Y281043D02*
X360209D01*
Y280453D01*
Y274547D02*
Y273957D01*
X348791D01*
Y274547D01*
Y280453D02*
Y281043D01*
X371520Y243071D02*
X386480D01*
Y226929D01*
X371520D01*
Y243071D01*
X411520Y226929D02*
X426480D01*
Y243071D01*
X411520D01*
Y226929D01*
G54D91*
X189406Y281122D02*
Y283878D01*
X177594D01*
Y281122D01*
X189406D01*
X183071Y321457D02*
Y324213D01*
X171260D01*
Y321457D01*
X183071D01*
X242755Y338795D02*
X243936D01*
X242755D02*
Y363205D01*
X243936D01*
X255353Y338795D02*
X256534D01*
Y363205D01*
X255353D01*
X259110D02*
X260291D01*
X271709D02*
X272890D01*
Y338795D01*
X271709D01*
X260291D02*
X259110D01*
Y363205D01*
X258378Y308405D02*
Y296595D01*
X255622D01*
Y308405D01*
X258378D01*
X370595Y322996D02*
Y325752D01*
X382405D01*
Y322996D01*
X370595D01*
G54D159*
X208459Y289227D02*
X209197Y289653D01*
X208459Y290080D01*
Y289227D01*
Y316227D02*
X209197Y316653D01*
X208459Y317080D01*
Y316227D01*
X170571Y327559D02*
X169833Y327985D01*
Y327133D01*
X170571Y327559D01*
X176167Y287651D02*
Y286798D01*
X176906Y287224D01*
X176167Y287651D01*
X255895Y336007D02*
X256633Y336433D01*
X255895Y336859D01*
Y336007D01*
X261478Y310013D02*
Y309160D01*
X262216Y309587D01*
X261478Y310013D01*
X272250Y336007D02*
X272988Y336433D01*
X272250Y336859D01*
Y336007D01*
X199787Y372847D02*
X199049Y373273D01*
Y372420D01*
X199787Y372847D01*
X199049Y412920D02*
X199787Y413346D01*
X199049Y413773D01*
Y412920D01*
X245500Y470000D02*
X244762Y470426D01*
Y469574D01*
X245500Y470000D01*
X150992Y415008D02*
X150254Y415434D01*
Y414582D01*
X150992Y415008D01*
X151754Y375434D02*
Y374582D01*
X152492Y375008D01*
X151754Y375434D01*
X361100Y314564D02*
Y313712D01*
X361839Y314138D01*
X361100Y314564D01*
X383341Y319223D02*
X384079Y319650D01*
X383341Y320076D01*
Y319223D01*
X383203Y265580D02*
Y264727D01*
X383941Y265154D01*
X383203Y265580D01*
X410407Y248221D02*
Y247369D01*
X411146Y247795D01*
X410407Y248221D01*
X443018Y259227D02*
X443756Y259653D01*
X443018Y260080D01*
Y259227D01*
X470746Y267074D02*
X471484Y267500D01*
X470746Y267926D01*
Y267074D01*
X409484Y195000D02*
X408746Y195426D01*
Y194574D01*
X409484Y195000D01*
X369484D02*
X368746Y195426D01*
Y194574D01*
X369484Y195000D01*
X370408Y247369D02*
X371146Y247795D01*
X370408Y248221D01*
Y247369D01*
X470763Y364574D02*
X471501Y365000D01*
X470763Y365426D01*
Y364574D01*
X443106Y353654D02*
X442368Y354080D01*
Y353227D01*
X443106Y353654D01*
X382233Y354153D02*
X381495Y354580D01*
Y353727D01*
X382233Y354153D01*
G54D160*
X216302Y293944D02*
X217103Y293305D01*
X218103Y293533D01*
X218547Y294457D01*
X218103Y295380D01*
X217103Y295608D01*
X216302Y294969D01*
Y293944D01*
Y320944D02*
X217103Y320305D01*
X218103Y320533D01*
X218547Y321457D01*
X218103Y322380D01*
X217103Y322608D01*
X216302Y321969D01*
Y320944D01*
X191370Y367120D02*
X191815Y368043D01*
X191370Y368967D01*
X190371Y369195D01*
X189570Y368556D01*
Y367531D01*
X190371Y366892D01*
X191370Y367120D01*
Y407620D02*
X191815Y408543D01*
X191370Y409467D01*
X190371Y409695D01*
X189570Y409056D01*
Y408031D01*
X190371Y407392D01*
X191370Y407620D01*
X355145Y323607D02*
Y322582D01*
X355946Y321943D01*
X356945Y322171D01*
X357390Y323095D01*
X356945Y324018D01*
X355946Y324246D01*
X355145Y323607D01*
X390126Y356771D02*
X390927Y356132D01*
X391926Y356360D01*
X392371Y357283D01*
X391926Y358207D01*
X390927Y358435D01*
X390126Y357796D01*
Y356771D01*
X450507Y358279D02*
X451308Y357640D01*
X452307Y357868D01*
X452752Y358791D01*
X452307Y359715D01*
X451308Y359943D01*
X450507Y359304D01*
Y358279D01*
X393634Y269207D02*
X392635Y269435D01*
X391833Y268796D01*
Y267771D01*
X392635Y267132D01*
X393634Y267360D01*
X394079Y268284D01*
X393634Y269207D01*
X376193Y240057D02*
X375194Y240285D01*
X374393Y239646D01*
Y238621D01*
X375194Y237982D01*
X376193Y238210D01*
X376638Y239134D01*
X376193Y240057D01*
X414393Y239646D02*
Y238621D01*
X415194Y237982D01*
X416193Y238210D01*
X416638Y239134D01*
X416193Y240057D01*
X415194Y240285D01*
X414393Y239646D01*
X451156Y264279D02*
X451958Y263640D01*
X452957Y263868D01*
X453402Y264791D01*
X452957Y265715D01*
X451958Y265943D01*
X451156Y265304D01*
Y264279D01*
G54D161*
X333858Y347835D02*
D03*
X361980Y274547D02*
D03*
G54D162*
X203543Y268563D02*
X206890D01*
Y266201D01*
X198031Y268563D02*
X194685D01*
Y266201D01*
X194035Y304921D02*
Y308268D01*
Y313779D02*
Y317126D01*
X196398D01*
Y304921D02*
X194035D01*
G54D163*
X218122Y198213D02*
Y199787D01*
X220878D02*
Y198213D01*
X220976Y205004D02*
X218024D01*
X289122Y198213D02*
Y199787D01*
X289024Y205004D02*
X291976D01*
X291878Y199787D02*
Y198213D01*
X298122D02*
Y199787D01*
X300878D02*
Y198213D01*
X300976Y205004D02*
X298024D01*
X369945Y195905D02*
X388055D01*
Y194823D01*
Y185177D02*
Y184095D01*
X369945D01*
Y185177D01*
Y194823D02*
Y195905D01*
X409945D02*
X428055D01*
Y194823D01*
Y185177D02*
Y184095D01*
X409945D01*
Y185177D01*
Y194823D02*
Y195905D01*
X471945Y256594D02*
Y257677D01*
Y256594D02*
X490055D01*
Y257677D01*
Y267323D02*
Y268406D01*
X471945D01*
Y267323D01*
X458716Y280146D02*
X448283D01*
Y260854D01*
X458716D01*
Y280146D01*
X418390Y282555D02*
Y264445D01*
X389059D01*
Y282555D01*
X418390D01*
X360146Y329591D02*
Y319158D01*
X340854D01*
Y329591D01*
X360146D01*
X387351Y353445D02*
Y371555D01*
X416682D01*
Y353445D01*
X387351D01*
X447634Y354854D02*
Y374146D01*
X458067D01*
Y354854D01*
X447634D01*
X471962Y355177D02*
Y354095D01*
X490072D01*
Y355177D01*
Y364823D02*
Y365905D01*
X471962D01*
Y364823D01*
X244055Y479823D02*
Y480905D01*
X225945D01*
Y479823D01*
Y470177D02*
Y469095D01*
X244055D01*
Y470177D01*
X151406Y414055D02*
Y395945D01*
X150323D01*
X140677D02*
X139594D01*
Y414055D01*
X140677D01*
X150323D02*
X151406D01*
X151823Y374055D02*
X152905D01*
Y355945D01*
X151823D01*
X142177D02*
X141095D01*
Y374055D01*
X142177D01*
M02*
