G04 Layer_Color=8388736*
%FSLAX25Y25*%
%MOIN*%
G70*
G01*
G75*
%ADD87C,0.10000*%
%ADD94R,0.06800X0.04800*%
%ADD95C,0.08674*%
%ADD96C,0.05918*%
%ADD97P,0.06406X8X292.5*%
%ADD98C,0.09855*%
%ADD99C,0.07887*%
%ADD100C,0.06800*%
%ADD101P,0.07360X8X22.5*%
%ADD102C,0.07300*%
G04:AMPARAMS|DCode=103|XSize=73mil|YSize=73mil|CornerRadius=7.25mil|HoleSize=0mil|Usage=FLASHONLY|Rotation=180.000|XOffset=0mil|YOffset=0mil|HoleType=Round|Shape=RoundedRectangle|*
%AMROUNDEDRECTD103*
21,1,0.07300,0.05850,0,0,180.0*
21,1,0.05850,0.07300,0,0,180.0*
1,1,0.01450,-0.02925,0.02925*
1,1,0.01450,0.02925,0.02925*
1,1,0.01450,0.02925,-0.02925*
1,1,0.01450,-0.02925,-0.02925*
%
%ADD103ROUNDEDRECTD103*%
%ADD104C,0.12611*%
%ADD105P,0.13650X8X292.5*%
G04:AMPARAMS|DCode=106|XSize=73mil|YSize=73mil|CornerRadius=7.25mil|HoleSize=0mil|Usage=FLASHONLY|Rotation=90.000|XOffset=0mil|YOffset=0mil|HoleType=Round|Shape=RoundedRectangle|*
%AMROUNDEDRECTD106*
21,1,0.07300,0.05850,0,0,90.0*
21,1,0.05850,0.07300,0,0,90.0*
1,1,0.01450,0.02925,0.02925*
1,1,0.01450,0.02925,-0.02925*
1,1,0.01450,-0.02925,-0.02925*
1,1,0.01450,-0.02925,0.02925*
%
%ADD106ROUNDEDRECTD106*%
%ADD107C,0.10642*%
G04:AMPARAMS|DCode=108|XSize=106.42mil|YSize=106.42mil|CornerRadius=13.84mil|HoleSize=0mil|Usage=FLASHONLY|Rotation=0.000|XOffset=0mil|YOffset=0mil|HoleType=Round|Shape=RoundedRectangle|*
%AMROUNDEDRECTD108*
21,1,0.10642,0.07874,0,0,0.0*
21,1,0.07874,0.10642,0,0,0.0*
1,1,0.02769,0.03937,-0.03937*
1,1,0.02769,-0.03937,-0.03937*
1,1,0.02769,-0.03937,0.03937*
1,1,0.02769,0.03937,0.03937*
%
%ADD108ROUNDEDRECTD108*%
%ADD109C,0.07099*%
%ADD110P,0.13650X8X202.5*%
%ADD111P,0.14929X8X292.5*%
%ADD112C,0.13792*%
%ADD113C,0.10249*%
%ADD114C,0.06312*%
%ADD115O,0.06706X0.05524*%
%ADD116P,0.14929X8X202.5*%
%ADD117O,0.11430X0.09619*%
%ADD118O,0.07200X0.09800*%
%ADD119R,0.07200X0.09800*%
%ADD120C,0.18517*%
%ADD121C,0.05300*%
G54D87*
X486221Y265748D02*
X498032Y253937D01*
Y238189D01*
X486221Y265748D02*
Y307087D01*
X541339Y358268D02*
X649606D01*
Y381890D01*
Y360236D02*
Y330709D01*
X635827Y360236D02*
Y409449D01*
X661417Y435039D01*
X669291D01*
X679134Y444882D01*
X688976Y464567D02*
X694882Y470472D01*
X688976Y464567D02*
X667323D01*
X661417Y458661D01*
X645669D01*
X606299Y419291D01*
X572835D01*
X562992Y429134D01*
Y446850D01*
X531496Y409449D02*
Y368110D01*
X541339Y358268D01*
X531496Y409449D02*
X500000Y440945D01*
X627953Y401575D02*
Y195075D01*
X641925D02*
X677165Y230315D01*
X707677D01*
X720472Y243110D01*
X641925Y195075D02*
X578000D01*
G54D94*
X239784Y186750D02*
D03*
Y204250D02*
D03*
X275217Y186750D02*
D03*
Y204250D02*
D03*
X314283Y186750D02*
D03*
Y204250D02*
D03*
X349716Y186750D02*
D03*
Y204250D02*
D03*
G54D95*
X145669Y218504D02*
D03*
Y257874D02*
D03*
X243721Y195374D02*
D03*
X271280Y195768D02*
D03*
X318220Y195874D02*
D03*
X345779Y196268D02*
D03*
X464547Y292705D02*
D03*
X470453Y318295D02*
D03*
X464547Y388705D02*
D03*
X470453Y414295D02*
D03*
G54D96*
X140748Y230315D02*
D03*
Y238189D02*
D03*
X150591D02*
D03*
Y230315D02*
D03*
X140748Y246063D02*
D03*
G54D97*
X150591Y246063D02*
D03*
G54D98*
X230000Y425472D02*
D03*
Y455000D02*
D03*
X187874D02*
D03*
Y425472D02*
D03*
X550732Y268000D02*
D03*
X578000Y195075D02*
D03*
X664000Y243000D02*
D03*
X659000Y268000D02*
D03*
X649000Y283866D02*
D03*
X664000Y351268D02*
D03*
X649000Y392134D02*
D03*
X709000Y445000D02*
D03*
Y487126D02*
D03*
X679472D02*
D03*
Y445000D02*
D03*
X720472Y351378D02*
D03*
Y243110D02*
D03*
X578000Y391925D02*
D03*
G54D99*
X248839Y185925D02*
D03*
X266161D02*
D03*
X323339Y186425D02*
D03*
X340661D02*
D03*
G54D100*
X437500Y479500D02*
D03*
X427500D02*
D03*
X417500D02*
D03*
X407500D02*
D03*
X387500D02*
D03*
X318500D02*
D03*
X308500D02*
D03*
X298500D02*
D03*
X288500D02*
D03*
X268500D02*
D03*
G54D101*
X377500Y479500D02*
D03*
X258500D02*
D03*
G54D102*
X232000Y247500D02*
D03*
X233000Y284000D02*
D03*
X232000Y353000D02*
D03*
Y363000D02*
D03*
X352000Y300374D02*
D03*
X362000D02*
D03*
X372000D02*
D03*
X472598Y224410D02*
D03*
G54D103*
X222000Y247500D02*
D03*
X342000Y300374D02*
D03*
X382000D02*
D03*
X462598Y224410D02*
D03*
G54D104*
X258000Y330500D02*
D03*
Y370500D02*
D03*
Y410500D02*
D03*
X438000D02*
D03*
X482500Y413500D02*
D03*
X531496Y452756D02*
D03*
X522991Y466112D02*
D03*
X482500Y343500D02*
D03*
Y315500D02*
D03*
Y245500D02*
D03*
X531496Y204724D02*
D03*
X523000Y255500D02*
D03*
X698500Y437756D02*
D03*
Y485000D02*
D03*
X659130D02*
D03*
G54D105*
X659130Y437756D02*
D03*
G54D106*
X233000Y274000D02*
D03*
X232000Y343000D02*
D03*
G54D107*
X180500Y186500D02*
D03*
X200500D02*
D03*
X210500Y236500D02*
D03*
X190500D02*
D03*
X170500D02*
D03*
X299000Y450000D02*
D03*
X418000D02*
D03*
G54D108*
X452000Y450000D02*
D03*
X333000D02*
D03*
G54D109*
X360000Y441815D02*
D03*
Y481185D02*
D03*
X289185Y450000D02*
D03*
X249815D02*
D03*
G54D110*
X438000Y330500D02*
D03*
G54D111*
X160748Y295000D02*
D03*
Y335000D02*
D03*
Y375000D02*
D03*
Y415000D02*
D03*
Y455000D02*
D03*
G54D112*
X160748Y275000D02*
D03*
Y315000D02*
D03*
Y355000D02*
D03*
Y395000D02*
D03*
Y435000D02*
D03*
X389000Y205748D02*
D03*
X429000D02*
D03*
X497500D02*
D03*
X592500Y474252D02*
D03*
X552500D02*
D03*
X477000D02*
D03*
G54D113*
X551232Y339000D02*
D03*
Y379157D02*
D03*
X659500Y339000D02*
D03*
Y379157D02*
D03*
G54D114*
X287000Y223000D02*
D03*
X297000D02*
D03*
X307000D02*
D03*
Y303000D02*
D03*
X297000D02*
D03*
X287000D02*
D03*
X464500Y256000D02*
D03*
Y285528D02*
D03*
Y349500D02*
D03*
Y379028D02*
D03*
X567421Y440000D02*
D03*
X596949D02*
D03*
X616142Y432087D02*
D03*
Y461614D02*
D03*
X665736Y411000D02*
D03*
X695264D02*
D03*
G54D115*
X227000Y194000D02*
D03*
Y204000D02*
D03*
X284000Y194000D02*
D03*
Y204000D02*
D03*
X306000Y194000D02*
D03*
Y204000D02*
D03*
G54D116*
X369000Y205748D02*
D03*
X409000D02*
D03*
X477500D02*
D03*
X612500Y474252D02*
D03*
X572500D02*
D03*
X497000D02*
D03*
G54D117*
X501500Y273000D02*
D03*
Y283000D02*
D03*
Y293000D02*
D03*
Y313000D02*
D03*
Y369500D02*
D03*
Y379500D02*
D03*
Y389500D02*
D03*
Y409500D02*
D03*
G54D118*
X263653Y248000D02*
D03*
X273654D02*
D03*
X283653D02*
D03*
X293653D02*
D03*
X303654D02*
D03*
X313653D02*
D03*
Y278000D02*
D03*
X303654D02*
D03*
X293653D02*
D03*
X283653D02*
D03*
X273654D02*
D03*
X263653D02*
D03*
X253654D02*
D03*
G54D119*
X253654Y248000D02*
D03*
G54D120*
X155000Y200000D02*
D03*
Y480000D02*
D03*
X714685Y200000D02*
D03*
Y379000D02*
D03*
G54D121*
X155512Y222441D02*
D03*
X147638Y295276D02*
D03*
X141732Y324803D02*
D03*
M02*
