G04 Layer_Physical_Order=2*
G04 Layer_Color=16711680*
%FSLAX25Y25*%
%MOIN*%
G70*
G01*
G75*
%ADD11C,0.05000*%
%ADD12C,0.01500*%
%ADD13C,0.02000*%
%ADD14C,0.15000*%
%ADD15C,0.12000*%
%ADD16C,0.03000*%
%ADD17C,0.20000*%
%ADD19C,0.01000*%
%ADD20C,0.07874*%
%ADD21C,0.05118*%
%ADD22P,0.05540X8X292.5*%
%ADD23C,0.09055*%
%ADD24C,0.07087*%
%ADD25C,0.06000*%
%ADD26P,0.06494X8X22.5*%
%ADD27C,0.06500*%
G04:AMPARAMS|DCode=28|XSize=65mil|YSize=65mil|CornerRadius=3.25mil|HoleSize=0mil|Usage=FLASHONLY|Rotation=180.000|XOffset=0mil|YOffset=0mil|HoleType=Round|Shape=RoundedRectangle|*
%AMROUNDEDRECTD28*
21,1,0.06500,0.05850,0,0,180.0*
21,1,0.05850,0.06500,0,0,180.0*
1,1,0.00650,-0.02925,0.02925*
1,1,0.00650,0.02925,0.02925*
1,1,0.00650,0.02925,-0.02925*
1,1,0.00650,-0.02925,-0.02925*
%
%ADD28ROUNDEDRECTD28*%
%ADD29C,0.11811*%
%ADD30P,0.12784X8X292.5*%
G04:AMPARAMS|DCode=31|XSize=65mil|YSize=65mil|CornerRadius=3.25mil|HoleSize=0mil|Usage=FLASHONLY|Rotation=90.000|XOffset=0mil|YOffset=0mil|HoleType=Round|Shape=RoundedRectangle|*
%AMROUNDEDRECTD31*
21,1,0.06500,0.05850,0,0,90.0*
21,1,0.05850,0.06500,0,0,90.0*
1,1,0.00650,0.02925,0.02925*
1,1,0.00650,0.02925,-0.02925*
1,1,0.00650,-0.02925,-0.02925*
1,1,0.00650,-0.02925,0.02925*
%
%ADD31ROUNDEDRECTD31*%
%ADD32C,0.09843*%
G04:AMPARAMS|DCode=33|XSize=98.43mil|YSize=98.43mil|CornerRadius=9.84mil|HoleSize=0mil|Usage=FLASHONLY|Rotation=0.000|XOffset=0mil|YOffset=0mil|HoleType=Round|Shape=RoundedRectangle|*
%AMROUNDEDRECTD33*
21,1,0.09843,0.07874,0,0,0.0*
21,1,0.07874,0.09843,0,0,0.0*
1,1,0.01969,0.03937,-0.03937*
1,1,0.01969,-0.03937,-0.03937*
1,1,0.01969,-0.03937,0.03937*
1,1,0.01969,0.03937,0.03937*
%
%ADD33ROUNDEDRECTD33*%
%ADD34C,0.06299*%
%ADD35P,0.12784X8X202.5*%
%ADD36P,0.14063X8X292.5*%
%ADD37C,0.12992*%
%ADD38C,0.09449*%
%ADD39C,0.05512*%
%ADD40O,0.05906X0.04724*%
%ADD41P,0.14063X8X202.5*%
%ADD42O,0.10630X0.08819*%
%ADD43O,0.06400X0.09000*%
%ADD44R,0.06400X0.09000*%
%ADD45C,0.17716*%
%ADD46C,0.04500*%
%ADD47C,0.02598*%
G04:AMPARAMS|DCode=48|XSize=40mil|YSize=40mil|CornerRadius=3mil|HoleSize=0mil|Usage=FLASHONLY|Rotation=180.000|XOffset=0mil|YOffset=0mil|HoleType=Round|Shape=RoundedRectangle|*
%AMROUNDEDRECTD48*
21,1,0.04000,0.03400,0,0,180.0*
21,1,0.03400,0.04000,0,0,180.0*
1,1,0.00600,-0.01700,0.01700*
1,1,0.00600,0.01700,0.01700*
1,1,0.00600,0.01700,-0.01700*
1,1,0.00600,-0.01700,-0.01700*
%
%ADD48ROUNDEDRECTD48*%
%ADD49R,0.04000X0.03000*%
%ADD50O,0.04000X0.03000*%
%ADD51R,0.03000X0.04000*%
%ADD52O,0.03000X0.04000*%
%ADD53O,0.02362X0.03543*%
%ADD54R,0.02362X0.03543*%
%ADD55O,0.06890X0.02362*%
%ADD56R,0.06890X0.02362*%
%ADD57R,0.09449X0.12205*%
G04:AMPARAMS|DCode=58|XSize=23.62mil|YSize=80.71mil|CornerRadius=0mil|HoleSize=0mil|Usage=FLASHONLY|Rotation=270.000|XOffset=0mil|YOffset=0mil|HoleType=Round|Shape=Octagon|*
%AMOCTAGOND58*
4,1,8,0.04035,0.00591,0.04035,-0.00591,0.03445,-0.01181,-0.03445,-0.01181,-0.04035,-0.00591,-0.04035,0.00591,-0.03445,0.01181,0.03445,0.01181,0.04035,0.00591,0.0*
%
%ADD58OCTAGOND58*%

%ADD59R,0.08071X0.02362*%
%ADD60R,0.02362X0.06890*%
%ADD61O,0.02362X0.06890*%
G04:AMPARAMS|DCode=62|XSize=40mil|YSize=40mil|CornerRadius=3mil|HoleSize=0mil|Usage=FLASHONLY|Rotation=270.000|XOffset=0mil|YOffset=0mil|HoleType=Round|Shape=RoundedRectangle|*
%AMROUNDEDRECTD62*
21,1,0.04000,0.03400,0,0,270.0*
21,1,0.03400,0.04000,0,0,270.0*
1,1,0.00600,-0.01700,-0.01700*
1,1,0.00600,-0.01700,0.01700*
1,1,0.00600,0.01700,0.01700*
1,1,0.00600,0.01700,-0.01700*
%
%ADD62ROUNDEDRECTD62*%
G04:AMPARAMS|DCode=63|XSize=63mil|YSize=71mil|CornerRadius=4.73mil|HoleSize=0mil|Usage=FLASHONLY|Rotation=90.000|XOffset=0mil|YOffset=0mil|HoleType=Round|Shape=RoundedRectangle|*
%AMROUNDEDRECTD63*
21,1,0.06300,0.06155,0,0,90.0*
21,1,0.05355,0.07100,0,0,90.0*
1,1,0.00945,0.03078,0.02678*
1,1,0.00945,0.03078,-0.02678*
1,1,0.00945,-0.03078,-0.02678*
1,1,0.00945,-0.03078,0.02678*
%
%ADD63ROUNDEDRECTD63*%
G04:AMPARAMS|DCode=64|XSize=63mil|YSize=71mil|CornerRadius=4.73mil|HoleSize=0mil|Usage=FLASHONLY|Rotation=0.000|XOffset=0mil|YOffset=0mil|HoleType=Round|Shape=RoundedRectangle|*
%AMROUNDEDRECTD64*
21,1,0.06300,0.06155,0,0,0.0*
21,1,0.05355,0.07100,0,0,0.0*
1,1,0.00945,0.02678,-0.03078*
1,1,0.00945,-0.02678,-0.03078*
1,1,0.00945,-0.02678,0.03078*
1,1,0.00945,0.02678,0.03078*
%
%ADD64ROUNDEDRECTD64*%
%ADD65R,0.08661X0.08071*%
G04:AMPARAMS|DCode=66|XSize=86.61mil|YSize=80.71mil|CornerRadius=0mil|HoleSize=0mil|Usage=FLASHONLY|Rotation=0.000|XOffset=0mil|YOffset=0mil|HoleType=Round|Shape=Octagon|*
%AMOCTAGOND66*
4,1,8,0.04331,-0.02018,0.04331,0.02018,0.02313,0.04035,-0.02313,0.04035,-0.04331,0.02018,-0.04331,-0.02018,-0.02313,-0.04035,0.02313,-0.04035,0.04331,-0.02018,0.0*
%
%ADD66OCTAGOND66*%

%ADD67R,0.06299X0.02362*%
%ADD68O,0.06299X0.02362*%
%ADD69R,0.06693X0.06299*%
G04:AMPARAMS|DCode=70|XSize=66.93mil|YSize=62.99mil|CornerRadius=0mil|HoleSize=0mil|Usage=FLASHONLY|Rotation=0.000|XOffset=0mil|YOffset=0mil|HoleType=Round|Shape=Octagon|*
%AMOCTAGOND70*
4,1,8,0.03347,-0.01575,0.03347,0.01575,0.01772,0.03150,-0.01772,0.03150,-0.03347,0.01575,-0.03347,-0.01575,-0.01772,-0.03150,0.01772,-0.03150,0.03347,-0.01575,0.0*
%
%ADD70OCTAGOND70*%

G04:AMPARAMS|DCode=71|XSize=66.93mil|YSize=62.99mil|CornerRadius=0mil|HoleSize=0mil|Usage=FLASHONLY|Rotation=270.000|XOffset=0mil|YOffset=0mil|HoleType=Round|Shape=Octagon|*
%AMOCTAGOND71*
4,1,8,-0.01575,-0.03347,0.01575,-0.03347,0.03150,-0.01772,0.03150,0.01772,0.01575,0.03347,-0.01575,0.03347,-0.03150,0.01772,-0.03150,-0.01772,-0.01575,-0.03347,0.0*
%
%ADD71OCTAGOND71*%

%ADD72R,0.06299X0.06693*%
%ADD73P,0.03835X8X292.5*%
%ADD74R,0.03543X0.03543*%
%ADD75P,0.03835X8X22.5*%
%ADD76R,0.03543X0.03543*%
G04:AMPARAMS|DCode=77|XSize=35.43mil|YSize=33.47mil|CornerRadius=0mil|HoleSize=0mil|Usage=FLASHONLY|Rotation=0.000|XOffset=0mil|YOffset=0mil|HoleType=Round|Shape=Octagon|*
%AMOCTAGOND77*
4,1,8,0.01772,-0.00837,0.01772,0.00837,0.00935,0.01673,-0.00935,0.01673,-0.01772,0.00837,-0.01772,-0.00837,-0.00935,-0.01673,0.00935,-0.01673,0.01772,-0.00837,0.0*
%
%ADD77OCTAGOND77*%

%ADD78R,0.03543X0.03347*%
%ADD79R,0.03543X0.02362*%
%ADD80O,0.03543X0.02362*%
G04:AMPARAMS|DCode=81|XSize=55.12mil|YSize=70.87mil|CornerRadius=4.13mil|HoleSize=0mil|Usage=FLASHONLY|Rotation=90.000|XOffset=0mil|YOffset=0mil|HoleType=Round|Shape=RoundedRectangle|*
%AMROUNDEDRECTD81*
21,1,0.05512,0.06260,0,0,90.0*
21,1,0.04685,0.07087,0,0,90.0*
1,1,0.00827,0.03130,0.02343*
1,1,0.00827,0.03130,-0.02343*
1,1,0.00827,-0.03130,-0.02343*
1,1,0.00827,-0.03130,0.02343*
%
%ADD81ROUNDEDRECTD81*%
G04:AMPARAMS|DCode=82|XSize=55.12mil|YSize=70.87mil|CornerRadius=4.13mil|HoleSize=0mil|Usage=FLASHONLY|Rotation=0.000|XOffset=0mil|YOffset=0mil|HoleType=Round|Shape=RoundedRectangle|*
%AMROUNDEDRECTD82*
21,1,0.05512,0.06260,0,0,0.0*
21,1,0.04685,0.07087,0,0,0.0*
1,1,0.00827,0.02343,-0.03130*
1,1,0.00827,-0.02343,-0.03130*
1,1,0.00827,-0.02343,0.03130*
1,1,0.00827,0.02343,0.03130*
%
%ADD82ROUNDEDRECTD82*%
%ADD83O,0.02362X0.06299*%
%ADD84R,0.02362X0.06299*%
%ADD85C,0.00800*%
%ADD86C,0.09000*%
%ADD87C,0.10000*%
%ADD88C,0.08000*%
%ADD89C,0.04000*%
G36*
X718504Y399606D02*
X706693Y399606D01*
X694882Y387795D01*
X694882Y368110D01*
X701772Y361221D01*
X728346Y361221D01*
X728346Y249276D01*
X727876Y249108D01*
X727242Y249880D01*
X725791Y251070D01*
X724136Y251955D01*
X722340Y252500D01*
X720472Y252684D01*
X718605Y252500D01*
X716809Y251955D01*
X715154Y251070D01*
X713703Y249880D01*
X712512Y248429D01*
X711627Y246774D01*
X711083Y244978D01*
X710899Y243110D01*
X711083Y241243D01*
X711627Y239446D01*
X712512Y237791D01*
X713703Y236341D01*
X715154Y235150D01*
X716809Y234265D01*
X718605Y233720D01*
X720472Y233537D01*
X722340Y233720D01*
X724136Y234265D01*
X725791Y235150D01*
X727242Y236341D01*
X727876Y237113D01*
X728346Y236944D01*
X728346Y223425D01*
X686024D01*
X565961Y223425D01*
X555776Y233610D01*
X554279Y234888D01*
X552602Y235916D01*
X550784Y236669D01*
X548871Y237128D01*
X546909Y237283D01*
X513780D01*
X513779Y397638D01*
X535433Y419291D01*
X635827D01*
X648531Y431996D01*
X653677Y426850D01*
X664583D01*
X670035Y432303D01*
Y441566D01*
X670535Y441640D01*
X670627Y441336D01*
X671512Y439681D01*
X672703Y438230D01*
X674154Y437040D01*
X675809Y436155D01*
X677605Y435610D01*
X679472Y435426D01*
X681340Y435610D01*
X683136Y436155D01*
X684791Y437040D01*
X686242Y438230D01*
X687433Y439681D01*
X688317Y441336D01*
X688862Y443132D01*
X689046Y445000D01*
X688862Y446868D01*
X688317Y448664D01*
X687433Y450319D01*
X686242Y451770D01*
X684791Y452960D01*
X683136Y453845D01*
X681340Y454390D01*
X679472Y454574D01*
X677605Y454390D01*
X675809Y453845D01*
X674154Y452960D01*
X672703Y451770D01*
X671512Y450319D01*
X670627Y448664D01*
X670083Y446868D01*
X669899Y445000D01*
X670002Y443949D01*
X669522Y443722D01*
X664890Y448354D01*
X669291Y452756D01*
X679134Y462598D01*
X718504D01*
X718504Y399606D01*
D02*
G37*
%LPC*%
G36*
X664000Y360841D02*
X662132Y360657D01*
X660336Y360113D01*
X658681Y359228D01*
X657230Y358037D01*
X656040Y356587D01*
X655155Y354931D01*
X654610Y353135D01*
X654426Y351268D01*
X654610Y349400D01*
X655129Y347690D01*
X654071Y347125D01*
X652591Y345910D01*
X651375Y344429D01*
X650472Y342739D01*
X649916Y340906D01*
X649728Y339000D01*
X649916Y337094D01*
X650472Y335261D01*
X651375Y333571D01*
X652591Y332090D01*
X654071Y330875D01*
X655761Y329972D01*
X657594Y329416D01*
X659500Y329228D01*
X661406Y329416D01*
X663239Y329972D01*
X664929Y330875D01*
X666409Y332090D01*
X667625Y333571D01*
X668528Y335261D01*
X669084Y337094D01*
X669272Y339000D01*
X669084Y340906D01*
X668528Y342739D01*
X668467Y342852D01*
X669319Y343307D01*
X670770Y344498D01*
X671960Y345949D01*
X672845Y347604D01*
X673390Y349400D01*
X673574Y351268D01*
X673390Y353135D01*
X672845Y354931D01*
X671960Y356587D01*
X670770Y358037D01*
X669319Y359228D01*
X667664Y360113D01*
X665868Y360657D01*
X664000Y360841D01*
D02*
G37*
G36*
X550482Y338250D02*
X545557D01*
X545655Y337506D01*
X546232Y336113D01*
X547150Y334917D01*
X548345Y334000D01*
X549738Y333423D01*
X550482Y333325D01*
Y338250D01*
D02*
G37*
G36*
X649750Y289343D02*
Y284616D01*
X654476D01*
X654385Y285309D01*
X653828Y286654D01*
X652942Y287808D01*
X651788Y288695D01*
X650443Y289251D01*
X649750Y289343D01*
D02*
G37*
G36*
X654476Y283116D02*
X649750D01*
Y278390D01*
X650443Y278481D01*
X651788Y279038D01*
X652942Y279924D01*
X653828Y281079D01*
X654385Y282423D01*
X654476Y283116D01*
D02*
G37*
G36*
X648250Y289343D02*
X647557Y289251D01*
X646212Y288695D01*
X645058Y287808D01*
X644172Y286654D01*
X643615Y285309D01*
X643524Y284616D01*
X648250D01*
Y289343D01*
D02*
G37*
G36*
X556907Y338250D02*
X551982D01*
Y333325D01*
X552727Y333423D01*
X554119Y334000D01*
X555315Y334917D01*
X556233Y336113D01*
X556809Y337506D01*
X556907Y338250D01*
D02*
G37*
G36*
X719723Y350628D02*
X714996D01*
X715087Y349935D01*
X715644Y348590D01*
X716530Y347436D01*
X717685Y346550D01*
X719030Y345993D01*
X719723Y345901D01*
Y350628D01*
D02*
G37*
G36*
X725949D02*
X721222D01*
Y345901D01*
X721915Y345993D01*
X723260Y346550D01*
X724415Y347436D01*
X725301Y348590D01*
X725858Y349935D01*
X725949Y350628D01*
D02*
G37*
G36*
X551982Y344675D02*
Y339750D01*
X556907D01*
X556809Y340494D01*
X556233Y341887D01*
X555315Y343083D01*
X554119Y344000D01*
X552727Y344577D01*
X551982Y344675D01*
D02*
G37*
G36*
X719723Y356855D02*
X719030Y356763D01*
X717685Y356206D01*
X716530Y355320D01*
X715644Y354166D01*
X715087Y352821D01*
X714996Y352128D01*
X719723D01*
Y356855D01*
D02*
G37*
G36*
X550482Y344675D02*
X549738Y344577D01*
X548345Y344000D01*
X547150Y343083D01*
X546232Y341887D01*
X545655Y340494D01*
X545557Y339750D01*
X550482D01*
Y344675D01*
D02*
G37*
G36*
X664750Y248477D02*
Y243750D01*
X669477D01*
X669385Y244443D01*
X668828Y245788D01*
X667942Y246942D01*
X666788Y247828D01*
X665443Y248385D01*
X664750Y248477D01*
D02*
G37*
G36*
X523000Y263444D02*
X521450Y263291D01*
X519960Y262839D01*
X518587Y262105D01*
X517383Y261117D01*
X516395Y259913D01*
X515661Y258540D01*
X515209Y257050D01*
X515056Y255500D01*
X515209Y253950D01*
X515661Y252460D01*
X516395Y251087D01*
X517383Y249883D01*
X518587Y248895D01*
X519960Y248161D01*
X521450Y247709D01*
X523000Y247556D01*
X524550Y247709D01*
X526040Y248161D01*
X527413Y248895D01*
X528617Y249883D01*
X529605Y251087D01*
X530339Y252460D01*
X530791Y253950D01*
X530944Y255500D01*
X530791Y257050D01*
X530339Y258540D01*
X529605Y259913D01*
X528617Y261117D01*
X527413Y262105D01*
X526040Y262839D01*
X524550Y263291D01*
X523000Y263444D01*
D02*
G37*
G36*
X663250Y248477D02*
X662557Y248385D01*
X661212Y247828D01*
X660058Y246942D01*
X659172Y245788D01*
X658615Y244443D01*
X658524Y243750D01*
X663250D01*
Y248477D01*
D02*
G37*
G36*
Y242250D02*
X658524D01*
X658615Y241557D01*
X659172Y240212D01*
X660058Y239058D01*
X661212Y238172D01*
X662557Y237615D01*
X663250Y237524D01*
Y242250D01*
D02*
G37*
G36*
X669477D02*
X664750D01*
Y237524D01*
X665443Y237615D01*
X666788Y238172D01*
X667942Y239058D01*
X668828Y240212D01*
X669385Y241557D01*
X669477Y242250D01*
D02*
G37*
G36*
X659000Y277574D02*
X657132Y277390D01*
X655336Y276845D01*
X653681Y275960D01*
X652230Y274770D01*
X651040Y273319D01*
X650155Y271664D01*
X649610Y269868D01*
X649426Y268000D01*
X649610Y266132D01*
X650155Y264336D01*
X651040Y262681D01*
X652230Y261230D01*
X653681Y260040D01*
X655336Y259155D01*
X657132Y258610D01*
X659000Y258426D01*
X660868Y258610D01*
X662664Y259155D01*
X664319Y260040D01*
X665770Y261230D01*
X666960Y262681D01*
X667845Y264336D01*
X668390Y266132D01*
X668574Y268000D01*
X668390Y269868D01*
X667845Y271664D01*
X666960Y273319D01*
X665770Y274770D01*
X664319Y275960D01*
X662664Y276845D01*
X660868Y277390D01*
X659000Y277574D01*
D02*
G37*
G36*
X551482Y273477D02*
Y268750D01*
X556209D01*
X556118Y269443D01*
X555561Y270788D01*
X554675Y271942D01*
X553520Y272828D01*
X552175Y273385D01*
X551482Y273477D01*
D02*
G37*
G36*
X648250Y283116D02*
X643524D01*
X643615Y282423D01*
X644172Y281079D01*
X645058Y279924D01*
X646212Y279038D01*
X647557Y278481D01*
X648250Y278390D01*
Y283116D01*
D02*
G37*
G36*
X549982Y273477D02*
X549289Y273385D01*
X547945Y272828D01*
X546790Y271942D01*
X545904Y270788D01*
X545347Y269443D01*
X545256Y268750D01*
X549982D01*
Y273477D01*
D02*
G37*
G36*
Y267250D02*
X545256D01*
X545347Y266557D01*
X545904Y265212D01*
X546790Y264058D01*
X547945Y263172D01*
X549289Y262615D01*
X549982Y262524D01*
Y267250D01*
D02*
G37*
G36*
X556209D02*
X551482D01*
Y262524D01*
X552175Y262615D01*
X553520Y263172D01*
X554675Y264058D01*
X555561Y265212D01*
X556118Y266557D01*
X556209Y267250D01*
D02*
G37*
G36*
X696014Y414690D02*
Y411750D01*
X698953D01*
X698923Y411980D01*
X698545Y412894D01*
X697942Y413679D01*
X697158Y414281D01*
X696244Y414659D01*
X696014Y414690D01*
D02*
G37*
G36*
X705365Y437006D02*
X699250D01*
Y430891D01*
X699854Y430950D01*
X701155Y431345D01*
X702355Y431986D01*
X703407Y432849D01*
X704270Y433901D01*
X704911Y435101D01*
X705306Y436402D01*
X705365Y437006D01*
D02*
G37*
G36*
X694514Y414690D02*
X694283Y414659D01*
X693370Y414281D01*
X692585Y413679D01*
X691983Y412894D01*
X691605Y411980D01*
X691574Y411750D01*
X694514D01*
Y414690D01*
D02*
G37*
G36*
Y410250D02*
X691574D01*
X691605Y410019D01*
X691983Y409106D01*
X692585Y408321D01*
X693370Y407719D01*
X694283Y407341D01*
X694514Y407310D01*
Y410250D01*
D02*
G37*
G36*
X698953D02*
X696014D01*
Y407310D01*
X696244Y407341D01*
X697158Y407719D01*
X697942Y408321D01*
X698545Y409106D01*
X698923Y410019D01*
X698953Y410250D01*
D02*
G37*
G36*
X697750Y437006D02*
X691635D01*
X691694Y436402D01*
X692089Y435101D01*
X692731Y433901D01*
X693593Y432849D01*
X694645Y431986D01*
X695845Y431345D01*
X697146Y430950D01*
X697750Y430891D01*
Y437006D01*
D02*
G37*
G36*
X708250Y450477D02*
X707557Y450385D01*
X706212Y449828D01*
X705058Y448942D01*
X704172Y447788D01*
X703615Y446443D01*
X703523Y445750D01*
X708250D01*
Y450477D01*
D02*
G37*
G36*
X709750D02*
Y445750D01*
X714476D01*
X714385Y446443D01*
X713828Y447788D01*
X712942Y448942D01*
X711788Y449828D01*
X710443Y450385D01*
X709750Y450477D01*
D02*
G37*
G36*
X714476Y444250D02*
X709750D01*
Y439524D01*
X710443Y439615D01*
X711788Y440172D01*
X712942Y441058D01*
X713828Y442212D01*
X714385Y443557D01*
X714476Y444250D01*
D02*
G37*
G36*
X697750Y444621D02*
X697146Y444561D01*
X695845Y444167D01*
X694645Y443525D01*
X693593Y442662D01*
X692731Y441611D01*
X692089Y440411D01*
X691694Y439110D01*
X691635Y438506D01*
X697750D01*
Y444621D01*
D02*
G37*
G36*
X699250D02*
Y438506D01*
X705365D01*
X705306Y439110D01*
X704911Y440411D01*
X704794Y440630D01*
X705184Y440961D01*
X706212Y440172D01*
X707557Y439615D01*
X708250Y439524D01*
Y444250D01*
X703523D01*
X703615Y443557D01*
X703916Y442830D01*
X703482Y442570D01*
X703407Y442662D01*
X702355Y443525D01*
X701155Y444167D01*
X699854Y444561D01*
X699250Y444621D01*
D02*
G37*
G36*
X556907Y378408D02*
X551982D01*
Y373482D01*
X552727Y373580D01*
X554119Y374157D01*
X555315Y375075D01*
X556233Y376271D01*
X556809Y377663D01*
X556907Y378408D01*
D02*
G37*
G36*
X550482Y384833D02*
X549738Y384735D01*
X548345Y384158D01*
X547150Y383240D01*
X546232Y382044D01*
X545655Y380652D01*
X545557Y379907D01*
X550482D01*
Y384833D01*
D02*
G37*
G36*
Y378408D02*
X545557D01*
X545655Y377663D01*
X546232Y376271D01*
X547150Y375075D01*
X548345Y374157D01*
X549738Y373580D01*
X550482Y373482D01*
Y378408D01*
D02*
G37*
G36*
X721222Y356855D02*
Y352128D01*
X725949D01*
X725858Y352821D01*
X725301Y354166D01*
X724415Y355320D01*
X723260Y356206D01*
X721915Y356763D01*
X721222Y356855D01*
D02*
G37*
G36*
X649000Y401708D02*
X647132Y401524D01*
X645336Y400979D01*
X643681Y400094D01*
X642230Y398903D01*
X641040Y397453D01*
X640155Y395797D01*
X639610Y394002D01*
X639426Y392134D01*
X639610Y390266D01*
X640155Y388470D01*
X641040Y386815D01*
X642230Y385364D01*
X643681Y384174D01*
X645336Y383289D01*
X647132Y382744D01*
X649000Y382560D01*
X649965Y382655D01*
X650282Y382269D01*
X649916Y381064D01*
X649728Y379157D01*
X649916Y377251D01*
X650472Y375418D01*
X651375Y373729D01*
X652591Y372248D01*
X654071Y371033D01*
X655761Y370130D01*
X657594Y369574D01*
X659500Y369386D01*
X661406Y369574D01*
X663239Y370130D01*
X664929Y371033D01*
X666409Y372248D01*
X667625Y373729D01*
X668528Y375418D01*
X669084Y377251D01*
X669272Y379157D01*
X669084Y381064D01*
X668528Y382897D01*
X667625Y384586D01*
X666409Y386067D01*
X664929Y387282D01*
X663239Y388185D01*
X661406Y388741D01*
X659500Y388929D01*
X658385Y388819D01*
X658068Y389206D01*
X658390Y390266D01*
X658574Y392134D01*
X658390Y394002D01*
X657845Y395797D01*
X656960Y397453D01*
X655770Y398903D01*
X654319Y400094D01*
X652664Y400979D01*
X650868Y401524D01*
X649000Y401708D01*
D02*
G37*
G36*
X551982Y384833D02*
Y379907D01*
X556907D01*
X556809Y380652D01*
X556233Y382044D01*
X555315Y383240D01*
X554119Y384158D01*
X552727Y384735D01*
X551982Y384833D01*
D02*
G37*
G36*
X578750Y397402D02*
Y392675D01*
X583476D01*
X583385Y393368D01*
X582828Y394713D01*
X581942Y395867D01*
X580788Y396754D01*
X579443Y397310D01*
X578750Y397402D01*
D02*
G37*
G36*
X665736Y418793D02*
X664216Y418644D01*
X662754Y418200D01*
X661406Y417480D01*
X660225Y416511D01*
X659256Y415330D01*
X658536Y413982D01*
X658092Y412520D01*
X657943Y411000D01*
X658092Y409480D01*
X658536Y408018D01*
X659256Y406670D01*
X660225Y405489D01*
X661406Y404520D01*
X662754Y403800D01*
X664216Y403356D01*
X665736Y403207D01*
X667257Y403356D01*
X668719Y403800D01*
X670066Y404520D01*
X671247Y405489D01*
X672216Y406670D01*
X672936Y408018D01*
X673380Y409480D01*
X673530Y411000D01*
X673380Y412520D01*
X672936Y413982D01*
X672216Y415330D01*
X671247Y416511D01*
X670066Y417480D01*
X668719Y418200D01*
X667257Y418644D01*
X665736Y418793D01*
D02*
G37*
G36*
X577250Y397402D02*
X576557Y397310D01*
X575212Y396754D01*
X574058Y395867D01*
X573172Y394713D01*
X572615Y393368D01*
X572523Y392675D01*
X577250D01*
Y397402D01*
D02*
G37*
G36*
Y391175D02*
X572523D01*
X572615Y390482D01*
X573172Y389138D01*
X574058Y387983D01*
X575212Y387097D01*
X576557Y386540D01*
X577250Y386449D01*
Y391175D01*
D02*
G37*
G36*
X583476D02*
X578750D01*
Y386449D01*
X579443Y386540D01*
X580788Y387097D01*
X581942Y387983D01*
X582828Y389138D01*
X583385Y390482D01*
X583476Y391175D01*
D02*
G37*
%LPD*%
G54D11*
X197047Y261417D02*
X178483D01*
X177400Y262500D01*
Y269000D01*
Y275416D01*
X179760Y277776D01*
X177400Y269000D02*
X166402D01*
X160902Y274500D01*
X173653Y294500D02*
X160902D01*
X173705Y359500D02*
X165248D01*
X160748Y355000D01*
X158327Y357421D01*
X147000D01*
X158327Y372579D02*
X160748Y375000D01*
X168205D01*
X173705Y369500D01*
X160748Y395000D02*
X165748Y400000D01*
X173705D01*
Y410000D02*
X165748D01*
X160748Y415000D01*
X147921D01*
X145500Y412579D01*
Y397421D02*
X158327D01*
X160748Y395000D01*
X158327Y372579D02*
X147000D01*
X185000Y443347D02*
Y452126D01*
X187874Y455000D01*
X227421Y462579D02*
X230000Y460000D01*
Y455000D01*
Y443347D01*
Y436654D02*
Y425472D01*
X227421Y462579D02*
Y475000D01*
X300100Y469500D02*
X310400D01*
X310500Y461346D02*
Y477500D01*
X308500Y479500D01*
X333500Y469095D02*
Y450500D01*
X333000Y450000D01*
X337846Y445154D01*
Y440500D01*
X344900D01*
X346500Y438900D01*
X310500Y447500D02*
Y454654D01*
X464500Y349500D02*
X470500Y343500D01*
X482500D01*
X464500Y379028D02*
Y388657D01*
X464547Y388705D01*
X471382D01*
X472177Y389500D01*
X501500D01*
X414000Y222205D02*
Y210748D01*
X409000Y205748D01*
Y192421D01*
X411421Y190000D01*
G54D12*
X185390Y196500D02*
X205654D01*
X212347D02*
X218752D01*
X219500Y195752D01*
X221252Y194000D01*
X227000D01*
X228354Y187008D02*
X235000Y193654D01*
X238154D01*
X239874Y195374D01*
X243721D01*
X248839Y185925D02*
X252000Y189087D01*
Y204500D01*
X239154D01*
X235000Y200346D01*
X232000Y224594D02*
X231194Y225400D01*
X222000D01*
X221600Y225000D01*
X211600D01*
X212598Y224002D01*
Y214567D01*
X200787D02*
Y224613D01*
X200400Y225000D01*
X200787Y214567D02*
X192913D01*
X185547Y202248D02*
X219500D01*
X221252Y204000D01*
X227000D01*
X228354Y187008D02*
X216535D01*
X200500Y186500D02*
X180500D01*
X185390Y196500D02*
X159449Y222441D01*
X155512D01*
X170500Y236500D02*
X179500Y245500D01*
X201500D01*
X210500Y236500D01*
X221900D01*
X222000Y236600D01*
Y247500D01*
X232000Y236405D02*
Y247500D01*
X244094Y246063D02*
Y259842D01*
X253654Y269402D01*
X261528D01*
X263653Y271528D01*
Y278000D01*
X267000Y266347D02*
X273654D01*
X261000Y258000D02*
X263653Y255346D01*
Y248000D01*
X261000Y258000D02*
X254000D01*
X253654Y257653D01*
Y248000D01*
X250000Y240158D02*
X261811D01*
X278969Y223000D01*
X287000D01*
X287402Y216535D02*
X292494Y221628D01*
Y224866D01*
X295974Y228346D01*
X301654D01*
X307000Y223000D01*
X309055Y214567D02*
X314961Y220472D01*
Y226378D01*
X309055Y214567D02*
X305118D01*
X295276Y204724D01*
Y198819D01*
X292209Y195752D01*
X290500D01*
X288748Y194000D01*
X284000D01*
X299500Y195752D02*
X301252Y194000D01*
X306000D01*
Y194242D01*
X311024Y199265D01*
Y210630D01*
X321500Y221106D01*
Y241653D01*
X349716Y235543D02*
X354331Y240158D01*
X383858D01*
X427165D01*
X429039Y242032D01*
Y256000D01*
Y259937D01*
X425197Y263779D01*
X413386D01*
X409449Y267717D01*
Y275590D01*
X397638Y287402D01*
X350394D01*
X346457Y283465D01*
X338583D01*
X324803Y297244D01*
X305118D01*
X301506Y300856D01*
Y310699D01*
X297244Y314961D01*
X292494D01*
Y317742D01*
X288894Y321342D01*
X284190D01*
X279776Y316929D01*
X259842D01*
X252276Y309362D01*
Y306240D01*
X234295Y330000D02*
X229606D01*
X226378Y326772D01*
Y305118D01*
X228496Y303000D01*
X234295D01*
Y293000D02*
X228039D01*
X226378Y291339D01*
Y269685D01*
X228346Y267717D01*
X238189D01*
X240158Y265748D01*
Y244094D01*
X248031Y236221D01*
X259842D01*
X279528Y216535D01*
X287402D01*
X279528Y210630D02*
X293307D01*
X297000Y214323D01*
Y223000D01*
X299500Y202248D02*
X301252Y204000D01*
X306000D01*
X323339Y186425D02*
X326500Y189587D01*
Y204000D01*
X349716Y209953D02*
Y235543D01*
X353551Y263000D02*
X354331Y263779D01*
X390500D01*
X384000Y247795D02*
Y240299D01*
X383858Y240158D01*
X402153Y256000D02*
Y273346D01*
X391500Y284000D01*
X359500D01*
X353000Y277500D01*
X348102D01*
X347980Y277622D01*
X327083D01*
X326961Y277500D01*
X314154D01*
X313653Y278000D01*
X320866Y285480D02*
Y291339D01*
Y285480D02*
X321500Y284846D01*
X325307Y270189D02*
X328740Y273622D01*
X325307Y270189D02*
Y268000D01*
X332000D02*
X332283Y267717D01*
X332000Y263000D02*
X353551D01*
X382000Y300374D02*
Y311374D01*
X384000Y313374D01*
Y322874D01*
X382500Y324374D01*
X373500D01*
X372689Y325185D01*
Y329028D01*
X372760Y329098D01*
Y335268D01*
X372654Y335374D01*
X372689Y329028D02*
X365500D01*
X358500Y322374D02*
X361154Y319721D01*
X365500D01*
X365571Y319650D01*
X372760D01*
X358500Y322374D02*
X353000D01*
X345500D01*
X343000Y319874D01*
Y313744D01*
X338500Y309374D02*
Y321874D01*
X343000Y326374D01*
Y335004D01*
X343870Y335874D01*
X353000D01*
X358000D01*
X353000Y322374D02*
Y313744D01*
X338500Y309374D02*
X342000Y305874D01*
Y300374D01*
X330709Y328740D02*
Y334154D01*
X361846Y359000D02*
X362000Y359154D01*
X369017D01*
X370670Y357500D01*
X381741D01*
X395669Y348425D02*
Y364173D01*
X392342Y367500D01*
X381741D01*
X408500Y348425D02*
X415354D01*
X438900Y347000D02*
Y356100D01*
X438500Y356500D01*
X462980D01*
X463480Y357000D01*
Y362000D02*
X471438D01*
X473438Y360000D01*
X473517Y360079D01*
Y367000D01*
Y370654D01*
Y377346D02*
X481517D01*
X482824D01*
X489517Y370654D01*
X490670Y369500D01*
X501500D01*
X481517Y370654D02*
Y361483D01*
X483000Y360000D01*
X488595D01*
X463480Y372000D02*
X452500D01*
X442220D01*
X442500Y372280D01*
Y379400D01*
X442746Y379153D01*
X451500D01*
X452500Y372000D02*
Y367606D01*
X452850Y367256D01*
X463480Y367000D02*
X473517D01*
X457500Y347000D02*
X450100D01*
X438500Y356500D02*
X432000D01*
X431000Y357500D01*
X422292D01*
Y362500D02*
X432363D01*
X432517Y362653D01*
X433170Y362000D01*
X442220D01*
Y372000D02*
X435170D01*
X432517Y369346D01*
X430670Y367500D01*
X422292D01*
X425100Y379500D02*
X442400D01*
X442500Y379400D01*
Y390600D02*
X426900D01*
X422000Y395500D01*
Y424000D01*
X426500Y428500D01*
X431000Y433000D01*
X447000D01*
X451448Y437449D01*
Y440500D01*
X444756D02*
X437647D01*
Y444352D01*
X435000Y447000D01*
X437647Y440500D02*
Y437148D01*
X436500Y436000D01*
X427500D01*
X418500Y427000D01*
Y386100D01*
X425100Y379500D01*
X413900D02*
Y429400D01*
X417500Y433000D01*
X406000Y452000D02*
X370185D01*
X360000Y441815D01*
X353000Y414000D02*
X396500D01*
X401000Y409500D01*
Y372047D01*
Y315000D01*
X413900Y302100D01*
Y290500D01*
Y270100D01*
X415500Y268500D01*
X424000D01*
X427000D01*
X432774Y262726D01*
X439000D01*
X463856D01*
X464130Y263000D01*
Y268000D02*
X473421D01*
Y273075D01*
X473500Y273153D01*
X473421Y273075D02*
X473347Y273000D01*
X464130D01*
X473421Y268000D02*
Y262500D01*
X481500Y269579D02*
X488579Y262500D01*
X488193Y273153D02*
X489500D01*
X501346D01*
X501500Y273000D01*
X481500Y279847D02*
X488193Y273153D01*
X481500D02*
Y269579D01*
Y279847D02*
X473500D01*
X457000Y254500D02*
X450100D01*
X454419Y234252D02*
Y224715D01*
X454724Y224410D01*
X462598D01*
X438900Y254500D02*
Y262626D01*
X439000Y262726D01*
X437153Y268000D02*
X442870D01*
X437153D02*
X433500Y271654D01*
X431653Y273500D01*
X424000D01*
X425100Y290500D02*
Y295900D01*
X404500Y316500D01*
Y414500D01*
X399500Y419500D01*
X333500D01*
X317653Y435347D01*
Y440500D01*
X346500Y450100D02*
X352000Y455600D01*
Y463500D01*
X357000D01*
X352000D02*
Y472600D01*
X344000Y480600D01*
X342900Y479500D01*
X318500D01*
X321600Y476400D01*
Y469500D01*
X377594Y426905D02*
Y435500D01*
Y426905D02*
X381500Y423000D01*
X402000D01*
X408500Y416500D01*
Y348425D01*
Y318000D01*
X427900Y298600D01*
X433071D01*
X442500D01*
X443219Y234252D02*
Y228346D01*
X435039D01*
X291339Y366142D02*
X297244Y372047D01*
X401000D01*
X406500Y428500D02*
X399500Y435500D01*
X389405D01*
X388500Y470500D02*
X387500Y471500D01*
Y479500D01*
X377500D02*
Y470700D01*
X377300Y470500D01*
X451801Y471900D02*
Y461298D01*
X451900Y461199D01*
X444199D01*
X451801Y483100D02*
Y483405D01*
Y491301D01*
X285846Y317342D02*
Y311500D01*
X290620Y298494D02*
X292494Y300368D01*
Y314961D01*
X290620Y298494D02*
X276847D01*
Y298500D01*
Y298494D02*
Y292653D01*
X283653Y285846D01*
Y278000D01*
X289370Y261870D02*
Y261811D01*
Y261870D02*
X287154Y259653D01*
X283653D01*
X253654Y278000D02*
Y269402D01*
X244094Y246063D02*
X250000Y240158D01*
X261811Y208661D02*
X277559D01*
X279528Y210630D01*
X284000Y204000D02*
X288748D01*
X290500Y202248D01*
X261811Y208661D02*
Y190276D01*
X266161Y185925D01*
X185547Y202248D02*
X157480Y230315D01*
Y238189D01*
X173228Y253937D01*
Y258328D01*
X177400Y262500D01*
X163386Y259842D02*
X151575Y271654D01*
Y285827D01*
X160748Y295000D01*
X147638Y295276D02*
Y300138D01*
X152500Y305000D01*
X141732Y273031D02*
Y324803D01*
Y273031D02*
X155512Y259252D01*
Y252559D02*
X150197D01*
X143701Y246063D01*
X140748D01*
X150591D02*
X159449D01*
X163386Y250000D01*
Y252559D01*
Y259252D02*
Y259842D01*
X157480Y238189D02*
X150591D01*
X140748D01*
X210630Y343898D02*
X212598Y345866D01*
Y362748D01*
X207500Y367846D01*
X252000Y470000D02*
X258400D01*
X258500Y470100D01*
Y479500D01*
X247000Y475000D02*
X252000Y470000D01*
X247000Y475000D02*
X242579D01*
G54D13*
X233000Y274000D02*
X238567D01*
X240158Y275590D01*
X246063D01*
X248031Y277559D01*
Y283465D01*
X250067Y285500D01*
X268807D01*
X270153Y286846D01*
X273654Y283347D01*
Y278000D01*
X270153Y286846D02*
Y298500D01*
Y302500D01*
X279153Y311500D01*
X278958Y320000D02*
X283050Y324093D01*
X295986D01*
X307000Y313079D01*
Y303000D01*
X278958Y320000D02*
X234295D01*
X245000Y299153D02*
X245394Y298760D01*
X252276D01*
Y293071D01*
X254346Y291000D01*
X254847Y290500D01*
X263154D01*
X261724Y298760D02*
X269894D01*
X270153Y298500D01*
X283653Y259653D02*
Y248000D01*
X216000Y291000D02*
Y303000D01*
X218504D01*
Y369496D01*
X206347Y381653D01*
Y392000D01*
X232000Y363000D02*
Y413669D01*
X230000Y415669D01*
Y425472D01*
Y436654D02*
X238154D01*
X241500Y440000D01*
Y447500D01*
X244000Y450000D01*
X249815D01*
X258500D01*
X269600Y461100D01*
Y470000D01*
X268500Y471100D01*
Y479500D01*
X278500Y489500D01*
X360000D01*
X383000D01*
X387500Y485000D01*
Y479500D01*
X406000Y468000D02*
X417500Y479500D01*
X427500D02*
Y459546D01*
X427400Y468500D02*
X416799D01*
X418000Y450000D02*
X423846Y444153D01*
Y440500D01*
X430955D01*
X452000Y450000D02*
X452199Y449801D01*
X462400D01*
X465346Y446854D01*
Y440500D01*
X462400Y449801D02*
X462602Y450003D01*
Y471594D01*
X468250Y455151D02*
X473600Y449801D01*
X468250Y455151D02*
Y477758D01*
X462602Y483405D01*
X451801D01*
X441405D01*
X437500Y479500D01*
Y469600D01*
X438600Y468500D01*
X436648Y452852D02*
X439500Y450000D01*
X452000D01*
X436648Y452852D02*
X427500D01*
X417154Y440500D02*
X411500D01*
X406000Y446000D01*
Y452000D01*
Y468000D01*
X360000Y481185D02*
Y489500D01*
X337900Y475500D02*
X344000Y469400D01*
Y461100D01*
X344600Y460500D01*
X337900Y475500D02*
X329500D01*
X327000Y473000D01*
Y461000D01*
X317653Y451653D01*
Y440500D01*
X311347D01*
X298847Y449847D02*
X299000Y450000D01*
X298847Y449847D02*
Y440500D01*
X304654D01*
X258000Y370500D02*
Y360358D01*
X258500Y359858D01*
X266000D01*
X269758Y356100D01*
X282000D01*
X309254D01*
X322835Y342520D01*
X334646D01*
X336500Y344374D01*
X362000D01*
X376500D01*
X379346Y341528D01*
Y335374D01*
X380240Y334480D01*
Y329098D01*
X355153Y359000D02*
X335378D01*
X330709Y354331D01*
Y346949D01*
X258500Y359858D02*
X249645D01*
X235142D01*
X232000Y363000D01*
X214567Y333268D02*
X210630Y337205D01*
X206347Y348079D02*
Y351000D01*
Y348079D02*
X200787Y342520D01*
Y330709D01*
X207996D01*
X208705Y330000D01*
X200787Y330709D02*
Y328150D01*
X194882D01*
Y328213D01*
Y334646D01*
X194028Y335500D01*
X189347D01*
X194882Y328213D02*
X181559D01*
X180905Y327559D01*
X173425Y318110D02*
Y314961D01*
Y309164D01*
X173534Y309055D01*
X173425Y314961D02*
X160787D01*
X160748Y315000D01*
X173653Y294500D02*
Y285008D01*
X175197Y283465D01*
X178430D01*
X178442Y283453D01*
X181563D01*
X187240Y277776D01*
X189583Y280118D01*
X194882D01*
X197638Y282874D01*
X202756D01*
Y276181D02*
X200787Y274213D01*
Y270079D01*
X204528Y269488D02*
X210630Y275590D01*
Y280118D01*
X212224Y287224D02*
X216000Y291000D01*
Y303000D02*
X208705D01*
X202500D01*
X200847Y301346D01*
X196500D01*
X187240Y287224D02*
X212224D01*
X204528Y269488D02*
Y261417D01*
X187240Y277776D02*
Y270860D01*
X189100Y269000D01*
X201181Y307283D02*
X204921Y311024D01*
X208661D01*
X208705Y320000D02*
X211732D01*
X214567Y322835D01*
Y333268D01*
X200787Y321457D02*
X202244Y320000D01*
X208705D01*
X369000Y192421D02*
Y205748D01*
X374000Y210748D01*
Y222205D01*
X384000Y210748D02*
X389000Y205748D01*
Y192421D01*
X386579Y190000D01*
X384000Y210748D02*
Y222205D01*
X369000Y192421D02*
X371421Y190000D01*
X426579D02*
X429000Y192421D01*
Y205748D01*
X424000Y210748D01*
Y222205D01*
X414000Y247795D02*
Y254346D01*
X415654Y256000D01*
X408847D01*
X433347Y278500D02*
X433500Y278346D01*
X433847Y278000D01*
X442870D01*
X453000D01*
X464130D01*
X453000D02*
Y271000D01*
X453500Y270500D01*
X451500Y287154D02*
X442746D01*
X442870Y287030D01*
Y278000D01*
X442746Y287154D02*
X442500Y287400D01*
X442746Y287154D02*
X436346D01*
X433000Y290500D01*
X425100D01*
X424000Y278500D02*
X433347D01*
X422292Y357500D02*
X415500D01*
X413900Y359100D01*
Y379500D01*
X489517Y377346D02*
X491670Y379500D01*
X501500D01*
G54D14*
X478504Y213616D02*
X489632Y224744D01*
X546909D01*
X567913Y203740D01*
X576579Y195075D01*
X578000D01*
X588390D01*
X596264D01*
X604524D01*
X613980D01*
X605315Y203740D01*
X588390D01*
X567913D01*
G54D15*
X471248Y413500D02*
X482500D01*
X497500D01*
X501500Y409500D01*
Y443000D01*
X477000Y467500D01*
Y474252D01*
X470453Y414295D02*
X471248Y413500D01*
X475248Y409500D01*
X501500D01*
G54D16*
X273654Y248000D02*
Y259653D01*
X267000D01*
X283653Y266347D02*
Y278000D01*
Y266347D02*
X273654D01*
X295346Y233000D02*
X305307D01*
X295346D02*
Y246307D01*
X293653Y248000D01*
X303654D02*
Y254654D01*
X307000Y258000D01*
X325307D01*
X332000D02*
Y263000D01*
Y268000D01*
X325307D02*
X307000D01*
X303654Y271346D01*
Y278000D01*
X293653D02*
Y287961D01*
X295346Y289653D01*
Y293000D01*
X303654D01*
X313653Y289693D02*
Y278000D01*
Y289693D02*
X310347Y293000D01*
X332677Y297244D02*
Y322835D01*
X336614Y326772D01*
Y336614D01*
X334646Y338583D01*
X318898D01*
X312580Y344900D01*
X282000D01*
X279242Y342142D01*
X266000D01*
X258000D01*
Y330500D01*
X252276Y306240D02*
X251882Y305847D01*
X245000D01*
X240886D01*
X238039Y303000D01*
X234295D01*
X233000Y284000D02*
X241193D01*
X243000Y282193D01*
Y286347D01*
X247654Y291000D01*
X248786Y343000D02*
X249645Y342142D01*
X258000D01*
X248786Y343000D02*
X232000D01*
X224410Y350590D01*
Y405590D01*
X217000Y413000D01*
Y479000D01*
X222000Y484000D01*
X239000D01*
X242579Y480421D01*
Y475000D01*
X288900Y443753D02*
X292154Y440500D01*
X288900Y443753D02*
Y469500D01*
X298500Y479100D01*
Y479500D01*
X217000Y413000D02*
X212846Y408847D01*
X207500D01*
X206347Y410000D01*
X199295D01*
X194000D01*
X191500Y407500D01*
Y369500D01*
X199295D01*
X205847D01*
X207500Y367846D01*
Y361154D02*
X200949D01*
X199295Y359500D01*
Y351358D01*
X199653Y351000D01*
X191500Y356500D02*
Y369500D01*
Y356500D02*
X182653Y347654D01*
Y342500D01*
X182500Y342347D01*
X174500D01*
X171846Y345000D01*
X152500D01*
X148500Y341000D01*
Y309000D01*
X152500Y305000D01*
X166000D01*
X170153Y300847D01*
X174000D01*
X182000D01*
X182153Y301000D01*
X188847D02*
Y296654D01*
X190847Y294654D01*
X196500D01*
X198153Y293000D01*
X208705D01*
X201181Y314764D02*
X199016D01*
X194882Y318898D01*
Y321457D01*
X187598Y322835D02*
X188976Y324213D01*
X187598Y322835D02*
X181102D01*
X171260D01*
X163386Y330709D01*
Y335500D01*
X182653D01*
X181102Y322835D02*
Y312687D01*
X184734Y309055D01*
X192520Y311024D02*
Y313976D01*
X188976Y317520D01*
X163386Y335500D02*
X161248D01*
X160748Y335000D01*
X199653Y392000D02*
Y399642D01*
X199295Y400000D01*
X205346D01*
X207500Y402153D01*
X332677Y297244D02*
X338583Y291339D01*
X370079D01*
X372000Y293260D01*
Y300374D01*
Y306528D01*
X371654Y306874D01*
X365500Y313028D01*
X364784Y313744D01*
X358000D01*
X371654Y306874D02*
X349500D01*
X348000Y308374D01*
Y313744D01*
X358000Y335004D02*
X358717Y335720D01*
X365500D01*
X369017Y365846D02*
X370670Y367500D01*
X381741D01*
X489500Y279847D02*
X492654Y283000D01*
X501500D01*
X362653Y256500D02*
X357000D01*
X348847Y248346D01*
X321500D01*
X321153Y248000D01*
X313653D01*
Y234653D01*
X312000Y233000D01*
G54D17*
X562500Y440000D02*
Y454724D01*
Y474252D01*
X572500D01*
X562500D02*
X552500D01*
X601870Y440000D02*
Y447342D01*
X616142Y461614D01*
X612500Y465256D01*
Y474252D01*
X627953D01*
X648382D01*
X659130Y485000D01*
X677347D01*
X679472Y487126D01*
X627953Y474252D02*
X618957Y465256D01*
X612500D01*
Y474252D02*
X597500D01*
X601870Y463622D02*
X612500Y474252D01*
X601870Y463622D02*
Y447342D01*
G54D19*
X232000Y247500D02*
X222000D01*
X360898Y277500D02*
X367846D01*
X368000Y277346D01*
X374500D02*
X375654Y278500D01*
X383449D01*
X389500D01*
X390500Y277500D01*
Y263779D01*
Y258000D01*
X389000Y256500D01*
X382347D01*
X384000Y254847D01*
Y247795D01*
X383449Y268500D02*
X376654D01*
X374500Y270654D01*
X368000D01*
X369346Y256500D02*
X375000D01*
X375654D01*
X375000D02*
X374000Y255500D01*
Y247795D01*
X424000D02*
Y254346D01*
X422346Y256000D01*
X429039D01*
X460000Y281000D02*
X468000D01*
X472000Y285000D01*
X484346D01*
X489500Y279847D01*
X460000Y281000D02*
X457000Y284000D01*
Y292500D01*
X455653Y293847D01*
X451500D01*
X446746Y298600D01*
X442500D01*
X433071D02*
Y305118D01*
X489517Y377346D02*
X484363Y382500D01*
X471500D01*
X469500Y380500D01*
Y377000D01*
X467000Y374500D01*
X461000D01*
X457000Y378500D01*
Y384000D01*
X455154Y385846D01*
X451500D01*
X446746Y390600D01*
X442500D01*
X451448Y440500D02*
X458653D01*
X377594Y435500D02*
X370500D01*
X363000Y428000D01*
X336500D01*
X331153Y433347D01*
Y440500D01*
X324346D01*
G54D20*
X145669Y218504D02*
D03*
Y257874D02*
D03*
X243721Y195374D02*
D03*
X271280Y195768D02*
D03*
X318220Y195874D02*
D03*
X345779Y196268D02*
D03*
X464547Y292705D02*
D03*
X470453Y318295D02*
D03*
X464547Y388705D02*
D03*
X470453Y414295D02*
D03*
G54D21*
X140748Y230315D02*
D03*
Y238189D02*
D03*
X150591D02*
D03*
Y230315D02*
D03*
X140748Y246063D02*
D03*
G54D22*
X150591Y246063D02*
D03*
G54D23*
X230000Y425472D02*
D03*
Y455000D02*
D03*
X187874D02*
D03*
Y425472D02*
D03*
X550732Y268000D02*
D03*
X578000Y195075D02*
D03*
X664000Y243000D02*
D03*
X659000Y268000D02*
D03*
X649000Y283866D02*
D03*
X664000Y351268D02*
D03*
X649000Y392134D02*
D03*
X709000Y445000D02*
D03*
Y487126D02*
D03*
X679472D02*
D03*
Y445000D02*
D03*
X720472Y351378D02*
D03*
Y243110D02*
D03*
X578000Y391925D02*
D03*
G54D24*
X248839Y185925D02*
D03*
X266161D02*
D03*
X323339Y186425D02*
D03*
X340661D02*
D03*
G54D25*
X437500Y479500D02*
D03*
X427500D02*
D03*
X417500D02*
D03*
X407500D02*
D03*
X387500D02*
D03*
X318500D02*
D03*
X308500D02*
D03*
X298500D02*
D03*
X288500D02*
D03*
X268500D02*
D03*
G54D26*
X377500Y479500D02*
D03*
X258500D02*
D03*
G54D27*
X232000Y247500D02*
D03*
X233000Y284000D02*
D03*
X232000Y353000D02*
D03*
Y363000D02*
D03*
X352000Y300374D02*
D03*
X362000D02*
D03*
X372000D02*
D03*
X472598Y224410D02*
D03*
G54D28*
X222000Y247500D02*
D03*
X342000Y300374D02*
D03*
X382000D02*
D03*
X462598Y224410D02*
D03*
G54D29*
X258000Y330500D02*
D03*
Y370500D02*
D03*
Y410500D02*
D03*
X438000D02*
D03*
X482500Y413500D02*
D03*
X531496Y452756D02*
D03*
X522991Y466112D02*
D03*
X482500Y343500D02*
D03*
Y315500D02*
D03*
Y245500D02*
D03*
X531496Y204724D02*
D03*
X523000Y255500D02*
D03*
X698500Y437756D02*
D03*
Y485000D02*
D03*
X659130D02*
D03*
G54D30*
X659130Y437756D02*
D03*
G54D31*
X233000Y274000D02*
D03*
X232000Y343000D02*
D03*
G54D32*
X180500Y186500D02*
D03*
X200500D02*
D03*
X210500Y236500D02*
D03*
X190500D02*
D03*
X170500D02*
D03*
X299000Y450000D02*
D03*
X418000D02*
D03*
G54D33*
X452000Y450000D02*
D03*
X333000D02*
D03*
G54D34*
X360000Y441815D02*
D03*
Y481185D02*
D03*
X289185Y450000D02*
D03*
X249815D02*
D03*
G54D35*
X438000Y330500D02*
D03*
G54D36*
X160748Y295000D02*
D03*
Y335000D02*
D03*
Y375000D02*
D03*
Y415000D02*
D03*
Y455000D02*
D03*
G54D37*
X160748Y275000D02*
D03*
Y315000D02*
D03*
Y355000D02*
D03*
Y395000D02*
D03*
Y435000D02*
D03*
X389000Y205748D02*
D03*
X429000D02*
D03*
X497500D02*
D03*
X592500Y474252D02*
D03*
X552500D02*
D03*
X477000D02*
D03*
G54D38*
X551232Y339000D02*
D03*
Y379157D02*
D03*
X659500Y339000D02*
D03*
Y379157D02*
D03*
G54D39*
X287000Y223000D02*
D03*
X297000D02*
D03*
X307000D02*
D03*
Y303000D02*
D03*
X297000D02*
D03*
X287000D02*
D03*
X464500Y256000D02*
D03*
Y285528D02*
D03*
Y349500D02*
D03*
Y379028D02*
D03*
X567421Y440000D02*
D03*
X596949D02*
D03*
X616142Y432087D02*
D03*
Y461614D02*
D03*
X665736Y411000D02*
D03*
X695264D02*
D03*
G54D40*
X227000Y194000D02*
D03*
Y204000D02*
D03*
X284000Y194000D02*
D03*
Y204000D02*
D03*
X306000Y194000D02*
D03*
Y204000D02*
D03*
G54D41*
X369000Y205748D02*
D03*
X409000D02*
D03*
X477500D02*
D03*
X612500Y474252D02*
D03*
X572500D02*
D03*
X497000D02*
D03*
G54D42*
X501500Y273000D02*
D03*
Y283000D02*
D03*
Y293000D02*
D03*
Y313000D02*
D03*
Y369500D02*
D03*
Y379500D02*
D03*
Y389500D02*
D03*
Y409500D02*
D03*
G54D43*
X263653Y248000D02*
D03*
X273654D02*
D03*
X283653D02*
D03*
X293653D02*
D03*
X303654D02*
D03*
X313653D02*
D03*
Y278000D02*
D03*
X303654D02*
D03*
X293653D02*
D03*
X283653D02*
D03*
X273654D02*
D03*
X263653D02*
D03*
X253654D02*
D03*
G54D44*
X253654Y248000D02*
D03*
G54D45*
X155000Y200000D02*
D03*
Y480000D02*
D03*
X714685Y200000D02*
D03*
Y379000D02*
D03*
G54D46*
X216535Y187008D02*
D03*
X252000Y204500D02*
D03*
X261811Y208661D02*
D03*
X307345Y186750D02*
D03*
X326500Y204000D02*
D03*
X349716Y209953D02*
D03*
X328740Y240158D02*
D03*
X314961Y226378D02*
D03*
X288653Y255000D02*
D03*
X289370Y261811D02*
D03*
X320866Y291339D02*
D03*
X328740Y273622D02*
D03*
X285846Y317342D02*
D03*
X330709Y328740D02*
D03*
X362000Y344374D02*
D03*
X395669Y348425D02*
D03*
X415354D02*
D03*
X457500Y347000D02*
D03*
X433071Y305118D02*
D03*
X429039Y256000D02*
D03*
X457000Y254500D02*
D03*
X435039Y228346D02*
D03*
X291339Y366142D02*
D03*
X353000Y414000D02*
D03*
X406500Y428500D02*
D03*
X417500Y433000D02*
D03*
X426500Y428500D02*
D03*
X435000Y447000D02*
D03*
X444199Y461199D02*
D03*
X451801Y491301D02*
D03*
X357000Y463500D02*
D03*
X310500Y447500D02*
D03*
X208661Y311024D02*
D03*
X177400Y262500D02*
D03*
X147638Y295276D02*
D03*
X141732Y324803D02*
D03*
X155512Y222441D02*
D03*
X192913Y214567D02*
D03*
X254000Y258000D02*
D03*
X559055Y438976D02*
D03*
X566929Y446850D02*
D03*
Y454724D02*
D03*
X559055D02*
D03*
Y446850D02*
D03*
X588390Y195075D02*
D03*
X596264D02*
D03*
X604524D02*
D03*
X613980D02*
D03*
G54D47*
X450350Y265776D02*
D03*
Y270500D02*
D03*
Y275224D02*
D03*
X453500Y273256D02*
D03*
Y268138D02*
D03*
X456650Y270500D02*
D03*
Y265776D02*
D03*
Y275224D02*
D03*
X456000Y359776D02*
D03*
Y364500D02*
D03*
X452850Y362138D02*
D03*
X449701Y364500D02*
D03*
Y359776D02*
D03*
Y369224D02*
D03*
X452850Y367256D02*
D03*
X456000Y369224D02*
D03*
G54D48*
X235000Y193654D02*
D03*
Y200346D02*
D03*
X283653Y259653D02*
D03*
Y266347D02*
D03*
X273654D02*
D03*
X267000D02*
D03*
Y259653D02*
D03*
X273654D02*
D03*
X243000Y275500D02*
D03*
Y282193D02*
D03*
X245000Y299153D02*
D03*
Y305847D02*
D03*
X210630Y337205D02*
D03*
Y343898D02*
D03*
X200787Y328150D02*
D03*
Y321457D02*
D03*
X194882D02*
D03*
Y328150D02*
D03*
X188976Y324213D02*
D03*
Y317520D02*
D03*
X196500Y301346D02*
D03*
Y294654D02*
D03*
X194882Y286811D02*
D03*
Y280118D02*
D03*
X202756Y282874D02*
D03*
Y276181D02*
D03*
X210630Y280118D02*
D03*
Y286811D02*
D03*
X174000Y294153D02*
D03*
Y300847D02*
D03*
X174500Y335653D02*
D03*
Y342347D02*
D03*
X207500Y361154D02*
D03*
Y367846D02*
D03*
Y402153D02*
D03*
Y408847D02*
D03*
X230000Y436654D02*
D03*
Y443347D02*
D03*
X185000D02*
D03*
Y436654D02*
D03*
X310500Y454654D02*
D03*
Y461346D02*
D03*
X369017Y365846D02*
D03*
Y359154D02*
D03*
X365500Y335720D02*
D03*
Y329028D02*
D03*
Y319721D02*
D03*
Y313028D02*
D03*
X368000Y277346D02*
D03*
X374500D02*
D03*
Y270654D02*
D03*
X368000D02*
D03*
X321500Y278153D02*
D03*
Y284846D02*
D03*
Y248346D02*
D03*
Y241653D02*
D03*
X433500Y271654D02*
D03*
X451500Y287154D02*
D03*
X473500Y273153D02*
D03*
X481500D02*
D03*
X489500D02*
D03*
Y279847D02*
D03*
X481500D02*
D03*
X473500D02*
D03*
X451500Y293847D02*
D03*
X433500Y278346D02*
D03*
X432517Y362653D02*
D03*
X451500Y379153D02*
D03*
X473517Y377346D02*
D03*
Y370654D02*
D03*
X481517D02*
D03*
Y377346D02*
D03*
X489517D02*
D03*
Y370654D02*
D03*
X451500Y385846D02*
D03*
X432517Y369346D02*
D03*
X427500Y452852D02*
D03*
Y459546D02*
D03*
X163386Y259252D02*
D03*
Y252559D02*
D03*
X155512D02*
D03*
Y259252D02*
D03*
G54D49*
X201181Y307283D02*
D03*
X192520Y311024D02*
D03*
G54D50*
X201181Y314764D02*
D03*
G54D51*
X200787Y270079D02*
D03*
X197047Y261417D02*
D03*
G54D52*
X204528Y261417D02*
D03*
G54D53*
X179760Y287224D02*
D03*
X173425Y327559D02*
D03*
X380240Y319650D02*
D03*
G54D54*
X187240Y277776D02*
D03*
Y287224D02*
D03*
X183500D02*
D03*
X179760Y277776D02*
D03*
X180905Y318110D02*
D03*
X173425D02*
D03*
X177165Y327559D02*
D03*
X180905D02*
D03*
X372760Y319650D02*
D03*
X376500D02*
D03*
X372760Y329098D02*
D03*
X380240D02*
D03*
G54D55*
X442870Y263000D02*
D03*
X442220Y357000D02*
D03*
G54D56*
X442870Y268000D02*
D03*
Y273000D02*
D03*
Y278000D02*
D03*
X464130Y273000D02*
D03*
Y268000D02*
D03*
Y263000D02*
D03*
Y278000D02*
D03*
X463480Y357000D02*
D03*
Y362000D02*
D03*
Y367000D02*
D03*
Y372000D02*
D03*
X442220D02*
D03*
Y367000D02*
D03*
Y362000D02*
D03*
G54D57*
X453500Y270500D02*
D03*
X452850Y364500D02*
D03*
G54D58*
X381741Y357500D02*
D03*
X383449Y268500D02*
D03*
G54D59*
X381741Y362500D02*
D03*
Y367500D02*
D03*
X422292Y362500D02*
D03*
Y357500D02*
D03*
Y367500D02*
D03*
X383449Y278500D02*
D03*
Y273500D02*
D03*
X424000D02*
D03*
Y268500D02*
D03*
Y278500D02*
D03*
G54D60*
X343000Y313744D02*
D03*
X348000D02*
D03*
X353000D02*
D03*
Y335004D02*
D03*
X358000D02*
D03*
X348000D02*
D03*
X343000D02*
D03*
G54D61*
X358000Y313744D02*
D03*
G54D62*
X205654Y196500D02*
D03*
X212347D02*
D03*
X288653Y233000D02*
D03*
X295346D02*
D03*
X305307D02*
D03*
X312000D02*
D03*
X325307Y258000D02*
D03*
X332000D02*
D03*
Y268000D02*
D03*
X325307D02*
D03*
X362653Y256500D02*
D03*
X369346D02*
D03*
X375654D02*
D03*
X382347D02*
D03*
X402153Y256000D02*
D03*
X408847D02*
D03*
X415654D02*
D03*
X422346D02*
D03*
X379346Y335374D02*
D03*
X372654D02*
D03*
X361846Y359000D02*
D03*
X355153D02*
D03*
X310347Y293000D02*
D03*
X303654D02*
D03*
X295346D02*
D03*
X285846Y311500D02*
D03*
X279153D02*
D03*
X276847Y298500D02*
D03*
X288653Y293000D02*
D03*
X270153Y298500D02*
D03*
X269847Y290500D02*
D03*
X263154D02*
D03*
X254346Y291000D02*
D03*
X247654D02*
D03*
X206347Y351000D02*
D03*
X199653D02*
D03*
X189347Y335500D02*
D03*
X182653D02*
D03*
X182153Y301000D02*
D03*
X188847D02*
D03*
X199653Y392000D02*
D03*
X206347D02*
D03*
X292154Y440500D02*
D03*
X298847D02*
D03*
X304654D02*
D03*
X311347D02*
D03*
X317653D02*
D03*
X324346D02*
D03*
X331153D02*
D03*
X337846D02*
D03*
X417154D02*
D03*
X423846D02*
D03*
X430955D02*
D03*
X437647D02*
D03*
X444756D02*
D03*
X451448D02*
D03*
X458653D02*
D03*
X465346D02*
D03*
G54D63*
X222000Y225400D02*
D03*
Y236600D02*
D03*
X282000Y344900D02*
D03*
Y356100D02*
D03*
X346500Y438900D02*
D03*
Y450100D02*
D03*
X344000Y469400D02*
D03*
Y480600D02*
D03*
X442500Y390600D02*
D03*
Y379400D02*
D03*
Y298600D02*
D03*
Y287400D02*
D03*
X451801Y471900D02*
D03*
Y483100D02*
D03*
G54D64*
X200400Y225000D02*
D03*
X211600D02*
D03*
X189100Y269000D02*
D03*
X177900D02*
D03*
X184734Y309055D02*
D03*
X173534D02*
D03*
X321600Y469500D02*
D03*
X333400Y460500D02*
D03*
X344600D02*
D03*
X377300Y470500D02*
D03*
X388500D02*
D03*
X405599Y468500D02*
D03*
X416799D02*
D03*
X427400D02*
D03*
X438600D02*
D03*
X451900Y461199D02*
D03*
X462400Y449801D02*
D03*
X473600D02*
D03*
X463100Y461199D02*
D03*
X425100Y379500D02*
D03*
X413900D02*
D03*
X438900Y347000D02*
D03*
X450100D02*
D03*
X425100Y290500D02*
D03*
X413900D02*
D03*
X438900Y254500D02*
D03*
X443219Y234252D02*
D03*
X454419D02*
D03*
X450100Y254500D02*
D03*
X310400Y469500D02*
D03*
X300100D02*
D03*
X288900D02*
D03*
X269600Y470000D02*
D03*
X258400D02*
D03*
G54D65*
X266000Y359858D02*
D03*
X249645D02*
D03*
G54D66*
X266000Y342142D02*
D03*
X249645D02*
D03*
G54D67*
X234295Y293000D02*
D03*
Y303000D02*
D03*
Y320000D02*
D03*
Y330000D02*
D03*
X199295Y359500D02*
D03*
X208705Y330000D02*
D03*
Y303000D02*
D03*
X173705Y359500D02*
D03*
Y369500D02*
D03*
X199295Y400000D02*
D03*
X173705D02*
D03*
Y410000D02*
D03*
G54D68*
X208705Y293000D02*
D03*
Y320000D02*
D03*
X199295Y369500D02*
D03*
Y410000D02*
D03*
G54D69*
X147000Y357421D02*
D03*
X145500Y397421D02*
D03*
G54D70*
X147000Y372579D02*
D03*
X145500Y412579D02*
D03*
G54D71*
X371421Y190000D02*
D03*
X411421D02*
D03*
X473421Y262500D02*
D03*
X473438Y360000D02*
D03*
X242579Y475000D02*
D03*
G54D72*
X386579Y190000D02*
D03*
X426579D02*
D03*
X488579Y262500D02*
D03*
X488595Y360000D02*
D03*
X227421Y475000D02*
D03*
G54D73*
X360898Y277500D02*
D03*
G54D74*
X348102Y277500D02*
D03*
G54D75*
X330709Y346949D02*
D03*
G54D76*
X330709Y334154D02*
D03*
G54D77*
X219500Y202248D02*
D03*
X290500D02*
D03*
X299500D02*
D03*
G54D78*
X219500Y195752D02*
D03*
X290500D02*
D03*
X299500D02*
D03*
G54D79*
X261724Y298760D02*
D03*
Y302500D02*
D03*
X252276Y306240D02*
D03*
Y298760D02*
D03*
G54D80*
X261724Y306240D02*
D03*
G54D81*
X232000Y224594D02*
D03*
Y236405D02*
D03*
X462602Y471594D02*
D03*
Y483405D02*
D03*
X333500Y480905D02*
D03*
Y469095D02*
D03*
G54D82*
X200787Y214567D02*
D03*
X212598D02*
D03*
X389405Y435500D02*
D03*
X377594D02*
D03*
X442913Y224410D02*
D03*
X454724D02*
D03*
G54D83*
X374000Y247795D02*
D03*
X414000D02*
D03*
G54D84*
X374000Y222205D02*
D03*
X384000D02*
D03*
X414000D02*
D03*
X424000D02*
D03*
Y247795D02*
D03*
X384000D02*
D03*
G54D85*
X288653Y233000D02*
Y255000D01*
X294989Y261335D01*
Y267260D01*
X292850Y269398D01*
X292102D01*
X288653Y272847D01*
Y293000D01*
X328740Y240158D02*
Y226378D01*
X324803Y222441D01*
Y208661D01*
X332677D01*
X334646Y206693D01*
Y192441D01*
X340661Y186425D01*
X324803Y208661D02*
X320866D01*
X313174Y200969D01*
Y198375D01*
X312883Y198085D01*
Y192289D01*
X307345Y186750D01*
G54D86*
X438000Y326500D02*
Y330500D01*
Y326500D02*
X464547Y299953D01*
Y292705D01*
X464843Y293000D01*
X501500D01*
X550874D01*
X543000Y389500D02*
X501500D01*
G54D87*
X187874Y455000D02*
X160748D01*
G54D88*
X187874Y425472D02*
Y432126D01*
X185000Y435000D01*
X160748D01*
G54D89*
X472598Y224410D02*
X478504Y218504D01*
Y213616D01*
M02*
