M48
;Layer_Color=9474304
;FILE_FORMAT=2:5
INCH,LZ
T18F00S00C0.04000
%
G90
G05
T18
G00X0735119Y0178198
M15
G01X0735814Y0178751
G01X0736201Y0179551
G01X0736252Y018
G01X0736252Y05
G01X0736054Y0500867
G01X0735501Y0501562
G01X0734701Y0501949
G01X0734252Y0502
G01X0135Y0502
G01X0134133Y0501802
G01X0133438Y0501249
G01X0133051Y0500449
G01X0133Y05
G01X0133Y018
G01X0133198Y0179133
G01X0133751Y0178438
G01X0134551Y0178051
G01X0135Y0178
G01X0734252Y0178
G01X0735119Y0178198
M16
M17
M30
